<svg width="122" height="122" viewBox="0 0 122 122" fill="none" xmlns="http://www.w3.org/2000/svg">
<path d="M105.274 115.826C103.861 117.258 101.468 116.922 100.504 115.156L68.1466 55.8461C67.5128 54.6844 67.715 53.2448 68.6442 52.3027L88.0149 32.6629C89.6158 31.0398 92.3706 31.7249 93.0247 33.9089L114.186 104.572C114.501 105.622 114.218 106.759 113.448 107.539L105.274 115.826ZM71.8085 54.5538L103.332 112.335L110.373 105.198L89.7568 36.3549L71.8085 54.5538ZM58.8765 49.691L7.52344 20.8873C5.79725 19.9191 5.46517 17.574 6.85466 16.1646L15.0401 7.86175C15.8257 7.06487 16.9895 6.77146 18.059 7.10066L80.928 26.4519L79.7995 30.1157L17.4146 10.9112L10.3501 18.0787L60.7523 46.3484L58.8765 49.691Z" fill="#55B9F1"/>
<path d="M46.5516 119.124C45.1393 120.557 42.7453 120.221 41.7819 118.455L28.8655 94.7807L27.6369 93.5349L4.26764 80.4294C2.5411 79.4612 2.20908 77.1157 3.59904 75.7063L10.4642 68.7452C11.2498 67.9486 12.4134 67.6553 13.4827 67.9844L33.2022 74.054L101.281 5.02773C104.107 2.16264 109.313 0.000953125 113.391 0H113.393C115.789 0 117.768 0.725328 119.122 2.09592C123.365 6.39642 120.292 15.9877 116.228 20.109L94.6654 41.9737L91.9366 39.283L113.499 17.4184C116.601 14.274 118.657 7.08172 116.394 4.7885C115.615 4.00027 114.333 3.83347 113.394 3.83347H113.392C109.964 3.83442 105.854 5.85124 104.011 7.72031L35.5777 77.106C34.7921 77.9025 33.6285 78.1957 32.5592 77.8666L12.8387 71.797L7.0942 77.6206L29.9845 90.4592L31.9708 92.4731L44.6092 115.635L50.3232 109.84L44.3181 89.7794C44.0039 88.7298 44.2869 87.5924 45.0562 86.8124L65.1061 66.4848C65.8494 65.7313 67.0629 65.7229 67.8164 66.4662V66.4662C68.57 67.2095 68.5783 68.4229 67.8351 69.1764L48.1329 89.1534L54.1372 109.212C54.4513 110.262 54.1685 111.399 53.3994 112.179L46.5516 119.124Z" fill="#55B9F1"/>
<path d="M29.7137 42.2217C30.4565 41.4683 31.6694 41.4596 32.4229 42.2023V42.2023C33.1765 42.9451 33.1852 44.1581 32.4424 44.9117L18.7804 58.7703C18.0376 59.5238 16.8247 59.5326 16.0711 58.79V58.79C15.3171 58.0471 15.3083 56.8336 16.0514 56.0799L29.7137 42.2217ZM18.0551 36.2695C18.7984 35.5161 20.0117 35.5079 20.765 36.2512V36.2512C21.5182 36.9944 21.5264 38.2075 20.7833 38.9608L15.3158 44.503C14.5726 45.2564 13.3593 45.2645 12.606 44.5212V44.5212C11.8527 43.778 11.8446 42.5649 12.5877 41.8116L18.0551 36.2695Z" fill="#55B9F1"/>
<path d="M76.8144 89.9753C77.5572 89.2222 78.7698 89.2138 79.523 89.9565V89.9565C80.2764 90.6993 80.2848 91.9122 79.5419 92.6655L65.8769 106.52C65.1339 107.273 63.9209 107.282 63.1676 106.539V106.539C62.4144 105.796 62.406 104.583 63.149 103.829L76.8144 89.9753ZM82.6895 101.799C83.4323 101.046 84.6449 101.037 85.3981 101.78V101.78C86.1515 102.523 86.1599 103.736 85.417 104.489L79.9526 110.029C79.2096 110.783 77.9966 110.791 77.2434 110.048V110.048C76.4901 109.305 76.4818 108.092 77.2248 107.339L82.6895 101.799Z" fill="#55B9F1"/>
</svg>
