<svg width="23" height="9" viewBox="0 0 23 9" fill="none" xmlns="http://www.w3.org/2000/svg">
<path d="M1 3.9C0.668629 3.9 0.4 4.16863 0.4 4.5C0.4 4.83137 0.668629 5.1 1 5.1L1 3.9ZM22.4243 4.92427C22.6586 4.68995 22.6586 4.31005 22.4243 4.07574L18.6059 0.257361C18.3716 0.0230461 17.9917 0.023046 17.7574 0.257361C17.523 0.491675 17.523 0.871574 17.7574 1.10589L21.1515 4.5L17.7574 7.89411C17.523 8.12843 17.523 8.50833 17.7574 8.74264C17.9917 8.97696 18.3716 8.97696 18.6059 8.74264L22.4243 4.92427ZM1 5.1L22 5.1L22 3.9L1 3.9L1 5.1Z" fill="#2E2E2E"/>
</svg>
