<svg width="23" height="10" viewBox="0 0 23 10" fill="none" xmlns="http://www.w3.org/2000/svg">
<path d="M1 4.4C0.668629 4.4 0.4 4.66863 0.4 5C0.4 5.33137 0.668629 5.6 1 5.6L1 4.4ZM22.4243 5.42427C22.6586 5.18995 22.6586 4.81005 22.4243 4.57574L18.6059 0.757361C18.3716 0.523046 17.9917 0.523046 17.7574 0.757361C17.523 0.991675 17.523 1.37157 17.7574 1.60589L21.1515 5L17.7574 8.39411C17.523 8.62843 17.523 9.00833 17.7574 9.24264C17.9917 9.47696 18.3716 9.47696 18.6059 9.24264L22.4243 5.42427ZM1 5.6L22 5.6L22 4.4L1 4.4L1 5.6Z" fill="#F9F9F9"/>
</svg>
