<svg width="16" height="16" viewBox="0 0 16 16" fill="none" xmlns="http://www.w3.org/2000/svg">
<path d="M11.8255 15C11.6892 14.9996 11.5534 14.9843 11.4203 14.9544C8.88652 14.4184 6.55223 13.1616 4.6861 11.3287C2.85979 9.49182 1.59314 7.15304 1.03942 4.59536C0.974127 4.2766 0.990152 3.94602 1.08595 3.63542C1.18175 3.32482 1.3541 3.04466 1.58642 2.8219L3.20717 1.22661C3.28995 1.14655 3.38831 1.08524 3.49583 1.04668C3.60335 1.00813 3.71761 0.993194 3.83115 1.00285C3.94889 1.01541 4.0625 1.0542 4.164 1.11648C4.26551 1.17876 4.35243 1.26302 4.41867 1.36335L6.44461 4.42547C6.52058 4.54429 6.55726 4.68491 6.54923 4.82663C6.54121 4.96836 6.48891 5.10371 6.40004 5.21276L5.38302 6.45584C5.78806 7.3726 6.36168 8.20116 7.07265 8.89643C7.77901 9.61692 8.61391 10.1922 9.53213 10.5912L10.7923 9.5677C10.8981 9.48216 11.0269 9.43159 11.1615 9.4227C11.2961 9.41382 11.4302 9.44705 11.5459 9.51797L14.6051 11.5401C14.71 11.6042 14.7995 11.6917 14.8667 11.7962C14.9339 11.9007 14.9771 12.0193 14.993 12.1433C15.009 12.2672 14.9974 12.3933 14.959 12.512C14.9205 12.6307 14.8563 12.739 14.7712 12.8287L13.191 14.4282C13.0115 14.6108 12.7984 14.7554 12.5641 14.8535C12.3297 14.9516 12.0787 15.0014 11.8255 15ZM3.76632 1.82329L2.14558 3.41858C2.01489 3.54311 1.91814 3.70029 1.86486 3.87466C1.81158 4.04902 1.80359 4.23457 1.84169 4.41304C2.35657 6.81308 3.54012 9.00926 5.24931 10.7362C7.00547 12.4606 9.20215 13.6427 11.5864 14.1464C11.7669 14.185 11.9539 14.1772 12.1307 14.1236C12.3075 14.0701 12.4685 13.9726 12.5994 13.8398L14.1796 12.2403L11.2258 10.2887L9.87249 11.3909C9.82068 11.4328 9.75963 11.4612 9.69465 11.4734C9.62968 11.4857 9.56276 11.4816 9.49971 11.4613C8.37601 11.0379 7.35768 10.3658 6.51754 9.49311C5.64856 8.66323 4.97403 7.64341 4.54428 6.50971C4.5261 6.44108 4.5255 6.36882 4.54253 6.29988C4.55956 6.23093 4.59365 6.16764 4.64153 6.11607L5.73553 4.77768L3.76632 1.82329Z" fill="#F9F9F9" stroke="#F9F9F9" stroke-width="0.4"/>
</svg>
