<svg width="122" height="122" viewBox="0 0 122 122" fill="none" xmlns="http://www.w3.org/2000/svg">
<path d="M83.1769 1.74577e-06H1.84521C1.35536 0.00134749 0.886039 0.196883 0.54014 0.543734C0.194241 0.890586 -1.84853e-06 1.36045 0 1.8503L0 120.152C0.00134407 120.642 0.19653 121.111 0.542833 121.456C0.889135 121.802 1.35834 121.997 1.84775 121.997H83.1794C83.6695 121.997 84.1393 121.802 84.4861 121.456C84.8329 121.109 85.0284 120.64 85.0297 120.15V1.8503C85.0297 1.6071 84.9818 1.36629 84.8886 1.14163C84.7955 0.916978 84.6589 0.71289 84.4869 0.541041C84.3148 0.369192 84.1105 0.232953 83.8857 0.140117C83.6609 0.0472804 83.4201 -0.000332318 83.1769 1.74577e-06V1.74577e-06ZM81.3316 118.299H3.69805V28.3441H81.3316V118.299ZM81.3316 24.6537H3.69805V3.69805H81.3316V24.6537Z" fill="#55B9F1"/>
<path d="M70.8525 16.0249C71.2184 16.0246 71.576 15.9159 71.8801 15.7124C72.1842 15.5089 72.4212 15.2198 72.561 14.8817C72.7008 14.5436 72.7372 14.1716 72.6657 13.8127C72.5941 13.4539 72.4177 13.1243 72.1589 12.8657C71.8076 12.5283 71.3395 12.3399 70.8525 12.3399C70.3655 12.3399 69.8973 12.5283 69.5461 12.8657C69.2001 13.2136 69.0055 13.684 69.0047 14.1746C69.0044 14.4175 69.052 14.658 69.1447 14.8825C69.2374 15.107 69.3734 15.311 69.545 15.4828C69.7167 15.6547 69.9205 15.791 70.1448 15.884C70.3692 15.977 70.6096 16.0249 70.8525 16.0249ZM60.9708 16.0249C61.4615 16.0249 61.9321 15.83 62.2791 15.483C62.6261 15.136 62.8211 14.6654 62.8211 14.1746C62.8211 13.6839 62.6261 13.2133 62.2791 12.8663C61.9321 12.5193 61.4615 12.3243 60.9708 12.3243C60.48 12.3243 60.0094 12.5193 59.6624 12.8663C59.3154 13.2133 59.1205 13.6839 59.1205 14.1746C59.1205 14.6654 59.3154 15.136 59.6624 15.483C60.0094 15.83 60.48 16.0249 60.9708 16.0249ZM51.1119 16.0249C51.3548 16.0249 51.5952 15.977 51.8196 15.884C52.0439 15.791 52.2477 15.6547 52.4194 15.4828C52.591 15.311 52.727 15.107 52.8197 14.8825C52.9124 14.658 52.96 14.4175 52.9597 14.1746C52.9594 13.6839 52.7647 13.2132 52.4183 12.8657C52.0641 12.5341 51.5971 12.3495 51.1119 12.3495C50.6267 12.3495 50.1597 12.5341 49.8055 12.8657C49.6337 13.0376 49.4975 13.2417 49.4046 13.4663C49.3117 13.6909 49.264 13.9316 49.2641 14.1746C49.2687 14.6645 49.4627 15.1336 49.8055 15.4836C50.1521 15.8299 50.6219 16.0246 51.1119 16.0249ZM57.8547 43.1338H70.855C71.3458 43.1338 71.8164 42.9388 72.1634 42.5918C72.5104 42.2448 72.7053 41.7742 72.7053 41.2835C72.7053 40.7928 72.5104 40.3221 72.1634 39.9751C71.8164 39.6281 71.3458 39.4332 70.855 39.4332H57.8547C57.364 39.4332 56.8933 39.6281 56.5463 39.9751C56.1993 40.3221 56.0044 40.7928 56.0044 41.2835C56.0044 41.7742 56.1993 42.2448 56.5463 42.5918C56.8933 42.9388 57.364 43.1338 57.8547 43.1338ZM28.9743 43.1338H48.0034C48.4941 43.1338 48.9647 42.9388 49.3117 42.5918C49.6587 42.2448 49.8537 41.7742 49.8537 41.2835C49.8537 40.7928 49.6587 40.3221 49.3117 39.9751C48.9647 39.6281 48.4941 39.4332 48.0034 39.4332H28.9743C28.4836 39.4332 28.013 39.6281 27.666 39.9751C27.319 40.3221 27.124 40.7928 27.124 41.2835C27.124 41.7742 27.319 42.2448 27.666 42.5918C28.013 42.9388 28.4836 43.1338 28.9743 43.1338ZM14.1745 43.1338H19.1027C19.5934 43.1338 20.0641 42.9388 20.4111 42.5918C20.7581 42.2448 20.953 41.7742 20.953 41.2835C20.953 40.7928 20.7581 40.3221 20.4111 39.9751C20.0641 39.6281 19.5934 39.4332 19.1027 39.4332H14.1745C13.6838 39.4332 13.2132 39.6281 12.8662 39.9751C12.5192 40.3221 12.3242 40.7928 12.3242 41.2835C12.3242 41.7742 12.5192 42.2448 12.8662 42.5918C13.2132 42.9388 13.6838 43.1338 14.1745 43.1338ZM28.9743 59.1536H58.1216C58.6123 59.1536 59.0829 58.9586 59.4299 58.6116C59.7769 58.2646 59.9719 57.794 59.9719 57.3033C59.9719 56.8125 59.7769 56.3419 59.4299 55.9949C59.0829 55.6479 58.6123 55.453 58.1216 55.453H28.9743C28.4836 55.453 28.013 55.6479 27.666 55.9949C27.319 56.3419 27.124 56.8125 27.124 57.3033C27.124 57.794 27.319 58.2646 27.666 58.6116C28.013 58.9586 28.4836 59.1536 28.9743 59.1536ZM14.1745 59.1536H19.1027C19.5934 59.1536 20.0641 58.9586 20.4111 58.6116C20.7581 58.2646 20.953 57.794 20.953 57.3033C20.953 56.8125 20.7581 56.3419 20.4111 55.9949C20.0641 55.6479 19.5934 55.453 19.1027 55.453H14.1745C13.6838 55.453 13.2132 55.6479 12.8662 55.9949C12.5192 56.3419 12.3242 56.8125 12.3242 57.3033C12.3242 57.794 12.5192 58.2646 12.8662 58.6116C13.2132 58.9586 13.6838 59.1536 14.1745 59.1536ZM70.855 71.4753H53.4018C52.911 71.4753 52.4404 71.6703 52.0934 72.0173C51.7464 72.3642 51.5515 72.8349 51.5515 73.3256C51.5515 73.8163 51.7464 74.287 52.0934 74.634C52.4404 74.981 52.911 75.1759 53.4018 75.1759H70.855C71.3458 75.1759 71.8164 74.981 72.1634 74.634C72.5104 74.287 72.7053 73.8163 72.7053 73.3256C72.7053 72.8349 72.5104 72.3642 72.1634 72.0173C71.8164 71.6703 71.3458 71.4753 70.855 71.4753ZM28.9743 75.1734H43.553C44.0438 75.1734 44.5144 74.9784 44.8614 74.6314C45.2084 74.2844 45.4033 73.8138 45.4033 73.3231C45.4033 72.8323 45.2084 72.3617 44.8614 72.0147C44.5144 71.6677 44.0438 71.4728 43.553 71.4728H28.9743C28.4836 71.4728 28.013 71.6677 27.666 72.0147C27.319 72.3617 27.124 72.8323 27.124 73.3231C27.124 73.8138 27.319 74.2844 27.666 74.6314C28.013 74.9784 28.4836 75.1734 28.9743 75.1734ZM14.1745 75.1734H19.1027C19.5934 75.1734 20.0641 74.9784 20.4111 74.6314C20.7581 74.2844 20.953 73.8138 20.953 73.3231C20.953 72.8323 20.7581 72.3617 20.4111 72.0147C20.0641 71.6677 19.5934 71.4728 19.1027 71.4728H14.1745C13.6838 71.4728 13.2132 71.6677 12.8662 72.0147C12.5192 72.3617 12.3242 72.8323 12.3242 73.3231C12.3242 73.8138 12.5192 74.2844 12.8662 74.6314C13.2132 74.9784 13.6838 75.1734 14.1745 75.1734ZM70.855 87.4926H59.7685C59.2778 87.4926 58.8072 87.6875 58.4602 88.0345C58.1132 88.3815 57.9182 88.8521 57.9182 89.3429C57.9182 89.8336 58.1132 90.3042 58.4602 90.6512C58.8072 90.9982 59.2778 91.1932 59.7685 91.1932H70.855C71.3458 91.1932 71.8164 90.9982 72.1634 90.6512C72.5104 90.3042 72.7053 89.8336 72.7053 89.3429C72.7053 88.8521 72.5104 88.3815 72.1634 88.0345C71.8164 87.6875 71.3458 87.4926 70.855 87.4926ZM28.9743 91.1906H49.9198C50.4105 91.1906 50.8811 90.9957 51.2281 90.6487C51.5751 90.3017 51.7701 89.831 51.7701 89.3403C51.7701 88.8496 51.5751 88.379 51.2281 88.032C50.8811 87.685 50.4105 87.49 49.9198 87.49H28.9743C28.4836 87.49 28.013 87.685 27.666 88.032C27.319 88.379 27.124 88.8496 27.124 89.3403C27.124 89.831 27.319 90.3017 27.666 90.6487C28.013 90.9957 28.4836 91.1906 28.9743 91.1906ZM14.1745 91.1906H19.1027C19.5934 91.1906 20.0641 90.9957 20.4111 90.6487C20.7581 90.3017 20.953 89.831 20.953 89.3403C20.953 88.8496 20.7581 88.379 20.4111 88.032C20.0641 87.685 19.5934 87.49 19.1027 87.49H14.1745C13.6838 87.49 13.2132 87.685 12.8662 88.032C12.5192 88.379 12.3242 88.8496 12.3242 89.3403C12.3242 89.831 12.5192 90.3017 12.8662 90.6487C13.2132 90.9957 13.6838 91.1906 14.1745 91.1906ZM53.6127 103.512H42.1399C41.6492 103.512 41.1785 103.707 40.8315 104.054C40.4845 104.401 40.2896 104.872 40.2896 105.363C40.2896 105.853 40.4845 106.324 40.8315 106.671C41.1785 107.018 41.6492 107.213 42.1399 107.213H53.6127C54.1035 107.213 54.5741 107.018 54.9211 106.671C55.2681 106.324 55.463 105.853 55.463 105.363C55.463 104.872 55.2681 104.401 54.9211 104.054C54.5741 103.707 54.1035 103.512 53.6127 103.512ZM14.1745 107.21H32.2784C32.7692 107.21 33.2398 107.015 33.5868 106.668C33.9338 106.321 34.1287 105.851 34.1287 105.36C34.1287 104.869 33.9338 104.399 33.5868 104.052C33.2398 103.705 32.7692 103.51 32.2784 103.51H14.1745C13.6838 103.51 13.2132 103.705 12.8662 104.052C12.5192 104.399 12.3242 104.869 12.3242 105.36C12.3242 105.851 12.5192 106.321 12.8662 106.668C13.2132 107.015 13.6838 107.21 14.1745 107.21ZM110.835 12.1718L108.687 11.0637V3.09065C108.687 2.7437 108.589 2.40379 108.405 2.10982C108.22 1.81586 107.957 1.57972 107.645 1.42844L106.303 0.777783C105.24 0.265846 104.076 0 102.896 0C101.716 0 100.552 0.265846 99.4889 0.777783L98.1469 1.42844C97.8343 1.57924 97.5706 1.81526 97.3863 2.10934C97.2019 2.40341 97.1044 2.74357 97.1048 3.09065V11.0612L94.6547 12.332C94.3531 12.4874 94.0999 12.7228 93.9229 13.0123C93.7458 13.3019 93.6517 13.6345 93.6508 13.9738V100.056C93.6688 100.273 93.7079 100.487 93.7677 100.696L101.161 120.775C101.291 121.131 101.527 121.439 101.838 121.656C102.148 121.873 102.518 121.99 102.897 121.99C103.276 121.99 103.646 121.873 103.957 121.656C104.267 121.439 104.503 121.131 104.633 120.775L112.024 100.696C112.078 100.477 112.116 100.255 112.138 100.03V16.0122C113.759 16.2191 115.257 16.9801 116.38 18.166C117.503 19.3519 118.181 20.8898 118.299 22.5187V55.1531C118.317 55.6316 118.52 56.0846 118.864 56.4169C119.209 56.7492 119.67 56.9348 120.148 56.9348C120.627 56.9348 121.087 56.7492 121.432 56.4169C121.777 56.0846 121.98 55.6316 121.997 55.1531V22.5187C121.821 19.6908 120.563 17.0391 118.485 15.113C116.407 13.1868 113.668 12.1337 110.835 12.1718ZM100.8 4.24963L101.1 4.10476C101.66 3.83494 102.274 3.69482 102.896 3.69482C103.518 3.69482 104.131 3.83494 104.692 4.10476L104.989 4.24963V9.37352C103.619 8.99229 102.171 8.99229 100.8 9.37352V4.24963ZM102.897 114.81L97.7987 100.971L101.006 99.3136C101.59 99.0129 102.238 98.856 102.895 98.856C103.552 98.856 104.199 99.0129 104.783 99.3136L107.988 100.966L102.897 114.81ZM108.44 97.0363L106.481 96.0197C105.372 95.4498 104.144 95.1525 102.897 95.1525C101.651 95.1525 100.422 95.4498 99.3135 96.0197L97.3539 97.0363V71.7168L101.009 69.8309C101.593 69.5302 102.24 69.3733 102.897 69.3733C103.554 69.3733 104.202 69.5302 104.786 69.8309L108.44 71.7168V97.0236V97.0363ZM108.44 67.5714L106.481 66.5547C105.373 65.9824 104.143 65.6837 102.896 65.6837C101.649 65.6837 100.419 65.9824 99.3109 66.5547L97.3514 67.5714V15.0972L101.006 13.2164C101.591 12.9165 102.239 12.76 102.896 12.76C103.553 12.76 104.201 12.9165 104.786 13.2164L108.44 15.0998V67.5587V67.5714Z" fill="#55B9F1"/>
</svg>
