<svg width="155" height="45" viewBox="0 0 155 45" fill="none" xmlns="http://www.w3.org/2000/svg">
<path d="M23.23 16.3898H25.23V30.3098H31.23V32.3098H23.23V16.3898ZM37.46 16.3898C38.6467 16.3898 39.8067 16.7417 40.7934 17.401C41.7801 18.0603 42.5492 18.9973 43.0033 20.0937C43.4574 21.1901 43.5762 22.3965 43.3447 23.5603C43.1132 24.7242 42.5418 25.7933 41.7026 26.6324C40.8635 27.4716 39.7944 28.043 38.6305 28.2745C37.4667 28.506 36.2603 28.3872 35.1639 27.9331C34.0675 27.4789 33.1305 26.7099 32.4712 25.7232C31.8119 24.7365 31.46 23.5765 31.46 22.3898C31.46 21.6019 31.6152 20.8216 31.9167 20.0937C32.2182 19.3657 32.6602 18.7043 33.2174 18.1472C33.7745 17.59 34.4359 17.148 35.1639 16.8465C35.8918 16.545 36.6721 16.3898 37.46 16.3898ZM37.46 26.3898C38.2511 26.3898 39.0245 26.1552 39.6823 25.7157C40.3401 25.2761 40.8528 24.6514 41.1555 23.9205C41.4583 23.1896 41.5375 22.3854 41.3831 21.6094C41.2288 20.8335 40.8478 20.1208 40.2884 19.5614C39.729 19.002 39.0163 18.621 38.2404 18.4667C37.4644 18.3123 36.6602 18.3915 35.9293 18.6943C35.1984 18.997 34.5736 19.5097 34.1341 20.1675C33.6946 20.8253 33.46 21.5987 33.46 22.3898C33.4653 23.4472 33.889 24.4595 34.6386 25.2053C35.3882 25.9511 36.4026 26.3698 37.46 26.3698V26.3898ZM33.46 30.3298H41.46V32.3298H33.46V30.3298ZM59.06 32.3298H57.06V30.8998C55.7702 31.8026 54.2344 32.2878 52.66 32.2898C51.3175 32.2988 49.9943 31.9698 48.8124 31.3331C47.6304 30.6963 46.6277 29.7724 45.8967 28.6464C45.1656 27.5204 44.7296 26.2285 44.629 24.8897C44.5283 23.551 44.7662 22.2084 45.3207 20.9858C45.8752 19.7631 46.7285 18.6996 47.8019 17.8934C48.8754 17.0871 50.1345 16.5639 51.4632 16.3721C52.792 16.1802 54.1477 16.3259 55.4053 16.7956C56.663 17.2653 57.7823 18.0439 58.66 19.0598L57.19 20.3698C56.5224 19.6234 55.6787 19.056 54.7356 18.7193C53.7926 18.3825 52.7803 18.2871 51.791 18.4418C50.8016 18.5965 49.8668 18.9964 49.0715 19.6049C48.2763 20.2135 47.646 21.0113 47.2382 21.9259C46.8303 22.8404 46.6578 23.8424 46.7364 24.8407C46.815 25.839 47.1421 26.8017 47.6881 27.6411C48.2341 28.4805 48.9814 29.17 49.8621 29.6466C50.7427 30.1232 51.7287 30.3718 52.73 30.3698C53.561 30.3715 54.3826 30.1937 55.1386 29.8485C55.8945 29.5033 56.567 28.9989 57.11 28.3698H51.71V26.3698H59.08L59.06 32.3298ZM66.42 16.4298C67.6067 16.4298 68.7667 16.7817 69.7534 17.441C70.7401 18.1003 71.5092 19.0373 71.9633 20.1337C72.4174 21.2301 72.5362 22.4365 72.3047 23.6003C72.0732 24.7642 71.5018 25.8333 70.6626 26.6724C69.8235 27.5116 68.7544 28.083 67.5905 28.3145C66.4267 28.546 65.2203 28.4272 64.1239 27.9731C63.0275 27.5189 62.0905 26.7499 61.4312 25.7632C60.7719 24.7765 60.42 23.6165 60.42 22.4298C60.4147 21.6368 60.5667 20.8507 60.8671 20.1168C61.1675 19.3829 61.6104 18.7158 62.1702 18.1542C62.73 17.5925 63.3956 17.1474 64.1285 16.8445C64.8614 16.5417 65.647 16.3871 66.44 16.3898L66.42 16.4298ZM66.42 26.4298C67.2111 26.4298 67.9845 26.1952 68.6423 25.7557C69.3001 25.3161 69.8128 24.6914 70.1155 23.9605C70.4183 23.2296 70.4975 22.4254 70.3431 21.6494C70.1888 20.8735 69.8078 20.1608 69.2484 19.6014C68.689 19.042 67.9763 18.661 67.2004 18.5067C66.4244 18.3523 65.6202 18.4315 64.8893 18.7343C64.1584 19.037 63.5336 19.5497 63.0941 20.2075C62.6546 20.8653 62.42 21.6387 62.42 22.4298C62.4358 23.4837 62.8669 24.4888 63.6197 25.2266C64.3724 25.9643 65.386 26.3752 66.44 26.3698L66.42 26.4298ZM62.42 30.3698H70.42V32.3698H62.42V30.3698ZM74.55 16.3898H76.55V32.2898H74.55V16.3898ZM79.32 16.3898H81.32C81.423 16.3789 81.5269 16.3789 81.63 16.3898C82.4676 16.2989 83.315 16.3855 84.1169 16.6438C84.9188 16.9022 85.6574 17.3265 86.2844 17.8892C86.9115 18.4519 87.413 19.1404 87.7563 19.9098C88.0997 20.6792 88.2771 21.5123 88.2771 22.3548C88.2771 23.1973 88.0997 24.0304 87.7563 24.7998C87.413 25.5692 86.9115 26.2577 86.2844 26.8204C85.6574 27.3831 84.9188 27.8074 84.1169 28.0658C83.315 28.3241 82.4676 28.4107 81.63 28.3198H81.32V32.3198H79.32V16.3898ZM81.32 18.3898V26.2998H81.63C82.1949 26.375 82.7693 26.3287 83.3149 26.1638C83.8604 25.999 84.3644 25.7195 84.7931 25.3441C85.2219 24.9687 85.5654 24.506 85.8008 23.987C86.0362 23.468 86.158 22.9047 86.158 22.3348C86.158 21.7649 86.0362 21.2016 85.8008 20.6826C85.5654 20.1636 85.2219 19.7009 84.7931 19.3255C84.3644 18.95 83.8604 18.6706 83.3149 18.5057C82.7693 18.3409 82.1949 18.2946 81.63 18.3698C81.5211 18.3811 81.4137 18.4046 81.31 18.4398L81.32 18.3898ZM95.73 17.5398L94.25 18.7098C93.9947 18.443 93.6685 18.2546 93.3098 18.1668C92.9511 18.079 92.5748 18.0954 92.2251 18.2141C91.8753 18.3327 91.5668 18.5487 91.3356 18.8367C91.1044 19.1247 90.9602 19.4727 90.92 19.8398V19.9998C90.92 20.8798 91.53 21.4698 92.72 21.5498C97.3 21.8298 99.4 23.9798 99.4 26.8198V26.9998C99.2817 28.1238 98.8431 29.1902 98.1363 30.0722C97.4295 30.9542 96.4842 31.6145 95.413 31.9748C94.3417 32.335 93.1895 32.38 92.0934 32.1043C90.9973 31.8287 90.0034 31.244 89.23 30.4198L90.76 29.2398C91.1161 29.6215 91.551 29.9211 92.0345 30.118C92.518 30.3148 93.0385 30.4042 93.56 30.3798C94.5232 30.4306 95.4687 30.1073 96.1991 29.4774C96.9296 28.8476 97.3885 27.9599 97.48 26.9998V26.8598C97.48 24.1898 94.86 23.6998 92.59 23.4798C90.49 23.2798 88.98 21.9698 88.98 20.0798V19.9998C89.054 19.0158 89.5031 18.0978 90.2344 17.4354C90.9657 16.7729 91.9235 16.4165 92.91 16.4398C93.4328 16.4244 93.9529 16.5187 94.437 16.7168C94.921 16.9149 95.3581 17.2123 95.72 17.5898L95.73 17.5398ZM107.23 30.2598C109.72 30.2598 111.69 27.5698 111.69 24.2598V16.2598H113.69V24.2598C113.69 28.6598 110.81 32.2098 107.27 32.2098C103.73 32.2098 100.85 28.6598 100.85 24.2598V16.2598H102.85V24.2598C102.77 27.6198 104.74 30.3098 107.22 30.3098L107.23 30.2598ZM129.04 32.2598H127.04V22.3598L122.43 28.3598L117.82 22.3598V32.2898H115.82V16.3898L122.42 25.0798L129.02 16.3898L129.04 32.2598Z" fill="#1F1F1F"/>
<path d="M13.63 14.0001C13.63 12.5573 13.0569 11.1736 12.0367 10.1534C11.0165 9.1332 9.63278 8.56006 8.19 8.56006C6.74722 8.56006 5.36354 9.1332 4.34334 10.1534C3.32314 11.1736 2.75 12.5573 2.75 14.0001V30.4501L7.23 33.6601V41.4801H9.15V33.6601L13.63 30.4501V14.0001ZM11.71 23.2001L9.15 25.7601V23.3601L11.71 20.8001V23.2001ZM4.71 20.8001L7.27 23.3601V25.7601L4.71 23.2001V20.8001ZM11.71 18.0801L8.19 21.6001L4.67 18.0001V15.6001L8.19 19.1201L11.71 15.6001V18.0801ZM8.19 10.4801C8.96415 10.4835 9.71583 10.7406 10.3299 11.212C10.944 11.6834 11.3866 12.3431 11.59 13.0901L8.19 16.4801L4.79 13.0901C4.98594 12.3357 5.42537 11.667 6.04013 11.1879C6.65489 10.7087 7.41059 10.4458 8.19 10.44V10.4801ZM4.67 29.4801V25.8801L7.23 28.4401V31.3001L4.67 29.4801ZM9.15 31.3101V28.4401L11.71 25.8801V29.4701L9.15 31.3101Z" fill="#1F1F1F"/>
</svg>
