<svg width="155" height="45" viewBox="0 0 155 45" fill="none" xmlns="http://www.w3.org/2000/svg">
<path d="M30.52 22.25C30.88 22.25 31 22.38 31 22.73V30.65H35.07C35.42 30.65 35.55 30.78 35.55 31.13V31.83C35.55 32.18 35.42 32.31 35.07 32.31H29.71C29.36 32.31 29.22 32.18 29.22 31.83V22.73C29.22 22.38 29.36 22.25 29.71 22.25H30.52Z" fill="#1F1F1F"/>
<path d="M39.1001 25.74C39.1001 23.43 40.5601 22.04 43.1001 22.04C45.6401 22.04 47.1001 23.43 47.1001 25.74V28.82C47.1001 31.13 45.6301 32.52 43.1001 32.52C40.5701 32.52 39.1001 31.13 39.1001 28.82V25.74ZM45.4201 25.74C45.4201 24.44 44.6101 23.74 43.1501 23.74C41.6901 23.74 40.8901 24.45 40.8901 25.74V28.84C40.8901 30.15 41.6901 30.84 43.1501 30.84C44.6101 30.84 45.4201 30.12 45.4201 28.84V25.74Z" fill="#1F1F1F"/>
<path d="M59.0099 26.8C59.3999 26.8 59.4899 26.93 59.4899 27.28V29.18C59.5005 29.6275 59.4108 30.0718 59.2274 30.4801C59.0439 30.8885 58.7715 31.2506 58.4299 31.54C57.5816 32.2155 56.512 32.5506 55.4299 32.48C52.8399 32.48 51.4299 31.09 51.4299 28.78V25.68C51.4299 23.4 52.8899 22 55.4299 22C57.4299 22 58.7299 22.79 59.2799 24.37C59.3107 24.4294 59.3272 24.4951 59.3281 24.5619C59.329 24.6288 59.3143 24.695 59.2852 24.7551C59.2561 24.8153 59.2133 24.8679 59.1603 24.9087C59.1073 24.9494 59.0455 24.9773 58.9799 24.99L58.1999 25.26C57.8599 25.38 57.7199 25.31 57.5999 24.96C57.4342 24.5329 57.1309 24.1731 56.7379 23.9377C56.3449 23.7023 55.8847 23.6045 55.4299 23.66C53.9599 23.66 53.1599 24.37 53.1599 25.66V28.84C53.1599 30.15 53.9699 30.84 55.4299 30.84C56.8899 30.84 57.7899 30.17 57.7899 29.19V28.45H55.6199C55.2599 28.45 55.1299 28.31 55.1299 27.96V27.28C55.1299 26.93 55.2599 26.8 55.6199 26.8H59.0099Z" fill="#1F1F1F"/>
<path d="M63.6201 25.74C63.6201 23.43 65.0801 22.04 67.6201 22.04C70.1601 22.04 71.6201 23.43 71.6201 25.74V28.82C71.6201 31.13 70.1501 32.52 67.6201 32.52C65.0901 32.52 63.6201 31.13 63.6201 28.82V25.74ZM69.9301 25.74C69.9301 24.44 69.1201 23.74 67.6701 23.74C66.2201 23.74 65.4001 24.45 65.4001 25.74V28.84C65.4001 30.15 66.2101 30.84 67.6701 30.84C69.1301 30.84 69.9301 30.12 69.9301 28.84V25.74Z" fill="#1F1F1F"/>
<path d="M76.3301 22.54C76.3301 22.32 76.4001 22.25 76.6201 22.25H77.0801C77.3001 22.25 77.3501 22.32 77.3501 22.54V32.02C77.3501 32.24 77.3501 32.31 77.0801 32.31H76.6201C76.4001 32.31 76.3301 32.24 76.3301 32.02V22.54Z" fill="#1F1F1F"/>
<path d="M86.4599 22.25C87.2927 22.25 88.0913 22.5808 88.6802 23.1697C89.2691 23.7585 89.5999 24.5572 89.5999 25.39C89.5999 26.2228 89.2691 27.0215 88.6802 27.6103C88.0913 28.1992 87.2927 28.53 86.4599 28.53H83.4599V32.02C83.4599 32.24 83.4099 32.31 83.1999 32.31H82.7299C82.5199 32.31 82.4399 32.24 82.4399 32.02V22.54C82.4399 22.32 82.5199 22.25 82.7299 22.25H86.4599ZM86.3699 27.54C86.6562 27.54 86.9397 27.4836 87.2042 27.3741C87.4686 27.2645 87.709 27.1039 87.9114 26.9015C88.1138 26.6991 88.2744 26.4587 88.384 26.1943C88.4935 25.9298 88.5499 25.6463 88.5499 25.36C88.5499 25.0737 88.4935 24.7902 88.384 24.5257C88.2744 24.2613 88.1138 24.0209 87.9114 23.8185C87.709 23.6161 87.4686 23.4555 87.2042 23.3459C86.9397 23.2364 86.6562 23.18 86.3699 23.18H83.3699V27.54H86.3699Z" fill="#1F1F1F"/>
<path d="M97.4101 22.0501C98.1822 21.9649 98.9611 22.131 99.6313 22.5237C100.301 22.9165 100.827 23.5149 101.13 24.2301C101.21 24.3901 101.13 24.5201 100.97 24.6001L100.53 24.8001C100.35 24.8701 100.28 24.8601 100.17 24.6701C99.9435 24.1393 99.554 23.6943 99.0578 23.3995C98.5617 23.1047 97.9846 22.9753 97.4101 23.0301C95.7201 23.0301 94.8001 23.7001 94.8001 24.9001C94.7903 25.2668 94.9134 25.6248 95.1469 25.9078C95.3803 26.1908 95.7082 26.3799 96.0701 26.4401C96.6079 26.6155 97.1656 26.723 97.7301 26.7601C98.4134 26.7965 99.0875 26.9347 99.7301 27.1701C100.223 27.326 100.647 27.6466 100.931 28.0782C101.215 28.5098 101.342 29.026 101.29 29.5401C101.29 31.4101 99.9301 32.5401 97.4301 32.5401C96.6101 32.6339 95.7827 32.4439 95.0858 32.0017C94.3889 31.5596 93.8645 30.8919 93.6001 30.1101C93.5824 30.0745 93.5729 30.0354 93.5721 29.9956C93.5713 29.9558 93.5794 29.9164 93.5956 29.8801C93.6118 29.8438 93.6359 29.8115 93.6661 29.7856C93.6962 29.7596 93.7317 29.7407 93.7701 29.7301L94.2101 29.5701C94.2447 29.5559 94.282 29.5491 94.3194 29.5501C94.3568 29.5511 94.3936 29.5599 94.4275 29.5759C94.4613 29.5919 94.4915 29.6147 94.516 29.643C94.5406 29.6713 94.559 29.7043 94.5701 29.7401C94.7938 30.305 95.1916 30.784 95.7058 31.1077C96.22 31.4313 96.824 31.5828 97.4301 31.5401C99.3201 31.5401 100.25 30.8801 100.25 29.5401C100.268 29.1879 100.16 28.8408 99.9455 28.5606C99.7313 28.2805 99.4246 28.0854 99.0801 28.0101C98.5627 27.8558 98.0291 27.7618 97.4901 27.7301L96.4101 27.5901C96.0721 27.5184 95.7383 27.4282 95.4101 27.3201C95.0859 27.2222 94.7837 27.0626 94.5201 26.8501C94.2548 26.6099 94.0457 26.3143 93.9074 25.9842C93.7692 25.6541 93.7052 25.2977 93.7201 24.9401C93.7901 23.1901 95.1001 22.0501 97.4101 22.0501Z" fill="#1F1F1F"/>
<path d="M106.68 28.89C106.722 29.5972 107.033 30.2615 107.549 30.7472C108.065 31.2329 108.747 31.5033 109.455 31.5033C110.163 31.5033 110.845 31.2329 111.361 30.7472C111.877 30.2615 112.187 29.5972 112.23 28.89V22.54C112.23 22.32 112.3 22.25 112.52 22.25H112.98C113.2 22.25 113.27 22.32 113.27 22.54V28.88C113.27 31.15 111.93 32.52 109.46 32.52C106.99 32.52 105.65 31.15 105.65 28.88V22.54C105.65 22.32 105.72 22.25 105.93 22.25H106.4C106.61 22.25 106.68 22.32 106.68 22.54V28.89Z" fill="#1F1F1F"/>
<path d="M127.07 22.2502C127.29 22.2502 127.36 22.3202 127.36 22.5402V32.0202C127.36 32.2402 127.29 32.3102 127.07 32.3102H126.65C126.44 32.3102 126.37 32.2402 126.37 32.0202V26.2502C126.37 25.4107 126.427 24.5721 126.54 23.7402H126.48C126.168 24.5009 125.803 25.2393 125.39 25.9502L123.24 29.7402C123.214 29.806 123.168 29.8622 123.109 29.9015C123.05 29.9407 122.981 29.9612 122.91 29.9602H122.63C122.558 29.9606 122.488 29.9399 122.427 29.9009C122.367 29.8618 122.319 29.806 122.29 29.7402L120.11 25.9102C119.723 25.2095 119.389 24.4808 119.11 23.7302H119.05C119.152 24.5697 119.206 25.4145 119.21 26.2602V32.0202C119.21 32.2402 119.14 32.3102 118.92 32.3102H118.53C118.31 32.3102 118.24 32.2402 118.24 32.0202V22.5402C118.24 22.3202 118.31 22.2502 118.53 22.2502H118.89C118.972 22.2426 119.055 22.2605 119.126 22.3017C119.198 22.3429 119.255 22.4053 119.29 22.4802L122.79 28.7002L126.27 22.5402C126.38 22.3302 126.44 22.3002 126.66 22.3002L127.07 22.2502Z" fill="#1F1F1F"/>
<path d="M12.73 30.79V38.02C12.73 38.2972 12.6199 38.563 12.4239 38.7589C12.228 38.9549 11.9622 39.065 11.685 39.065C11.4079 39.065 11.1421 38.9549 10.9461 38.7589C10.7501 38.563 10.64 38.2972 10.64 38.02V30.8C10.931 31.0125 11.2798 31.1311 11.64 31.14C12.0326 31.1512 12.4173 31.0277 12.73 30.79ZM21.63 28.7C21.3648 28.7 21.1104 28.8054 20.9229 28.9929C20.7354 29.1804 20.63 29.4348 20.63 29.7V30.96C20.63 31.2372 20.7401 31.503 20.9361 31.6989C21.132 31.8949 21.3978 32.005 21.675 32.005C21.9522 32.005 22.218 31.8949 22.4139 31.6989C22.6099 31.503 22.72 31.2372 22.72 30.96V29.75C22.7278 29.6066 22.7046 29.4632 22.652 29.3296C22.5994 29.196 22.5187 29.0752 22.4152 28.9756C22.3118 28.876 22.1881 28.7998 22.0527 28.7522C21.9172 28.7047 21.773 28.6869 21.63 28.7ZM8.37 33.53C8.01017 33.5192 7.66183 33.4008 7.37 33.19V40.44C7.37 40.7185 7.48062 40.9856 7.67754 41.1825C7.87445 41.3794 8.14152 41.49 8.42 41.49C8.69848 41.49 8.96555 41.3794 9.16246 41.1825C9.35938 40.9856 9.47 40.7185 9.47 40.44V33.24C9.14345 33.4511 8.75816 33.5527 8.37 33.53ZM18.37 26.53C18.2345 26.5232 18.0991 26.5441 17.9719 26.5913C17.8448 26.6385 17.7286 26.7111 17.6303 26.8046C17.5321 26.8982 17.454 27.0107 17.4006 27.1354C17.3473 27.2601 17.3198 27.3944 17.32 27.53V33.1C17.32 33.3785 17.4306 33.6456 17.6275 33.8425C17.8245 34.0394 18.0915 34.15 18.37 34.15C18.6485 34.15 18.9156 34.0394 19.1125 33.8425C19.3094 33.6456 19.42 33.3785 19.42 33.1V27.6C19.428 27.4557 19.4046 27.3114 19.3514 27.177C19.2982 27.0426 19.2166 26.9213 19.112 26.8215C19.0074 26.7217 18.8825 26.6457 18.7458 26.5989C18.6091 26.552 18.4638 26.5353 18.32 26.55L18.37 26.53ZM15.05 28.67C14.6733 28.6674 14.3067 28.5487 14 28.33V35.6C14 35.8785 14.1106 36.1456 14.3075 36.3425C14.5045 36.5394 14.7715 36.65 15.05 36.65C15.3285 36.65 15.5955 36.5394 15.7925 36.3425C15.9894 36.1456 16.1 35.8785 16.1 35.6V28.34C15.7828 28.5763 15.3955 28.6995 15 28.69L15.05 28.67ZM6.1 34.24V13.93C6.09737 13.6824 5.99717 13.4459 5.82117 13.2718C5.64517 13.0977 5.40758 13 5.16 13H4.94C4.69242 13 4.45483 13.0977 4.27883 13.2718C4.10283 13.4459 4.00263 13.6824 4 13.93V34.24C4 34.4893 4.09904 34.7284 4.27532 34.9047C4.4516 35.081 4.6907 35.18 4.94 35.18H5.16C5.40931 35.18 5.6484 35.081 5.82468 34.9047C6.00097 34.7284 6.1 34.4893 6.1 34.24ZM8.48 32.76H8.26C8.0107 32.76 7.7716 32.661 7.59532 32.4847C7.41904 32.3084 7.32 32.0693 7.32 31.82V16.35C7.32264 16.1024 7.42283 15.8659 7.59883 15.6918C7.77483 15.5177 8.01242 15.42 8.26 15.42H8.48C8.72758 15.42 8.96517 15.5177 9.14117 15.6918C9.31717 15.8659 9.41737 16.1024 9.42 16.35V31.84C9.42 32.0893 9.32096 32.3284 9.14468 32.5047C8.9684 32.681 8.7293 32.78 8.48 32.78V32.76ZM11.79 30.38H11.56C11.3134 30.38 11.0768 30.282 10.9024 30.1076C10.728 29.9332 10.63 29.6967 10.63 29.45V18.75C10.6287 18.627 10.6518 18.505 10.6979 18.391C10.744 18.277 10.8123 18.1733 10.8988 18.0859C10.9853 17.9985 11.0883 17.9291 11.2018 17.8817C11.3153 17.8344 11.437 17.81 11.56 17.81H11.79C12.0376 17.8126 12.2741 17.9128 12.4482 18.0888C12.6224 18.2648 12.72 18.5024 12.72 18.75V29.45C12.72 29.6967 12.622 29.9332 12.4476 30.1076C12.2732 30.282 12.0367 30.38 11.79 30.38ZM15.1 27.93H14.89C14.6424 27.93 14.4048 27.8324 14.2288 27.6582C14.0528 27.4841 13.9526 27.2476 13.95 27V21.24C13.9418 21.1116 13.96 20.9829 14.0036 20.8618C14.0471 20.7408 14.1151 20.6299 14.2032 20.5362C14.2913 20.4424 14.3977 20.3678 14.5159 20.3168C14.634 20.2659 14.7613 20.2397 14.89 20.24H15.11C15.3593 20.24 15.5984 20.339 15.7747 20.5153C15.951 20.6916 16.05 20.9307 16.05 21.18V26.98C16.0513 27.1043 16.028 27.2276 15.9813 27.3428C15.9347 27.458 15.8657 27.5628 15.7782 27.6512C15.6908 27.7395 15.5868 27.8096 15.472 27.8575C15.3573 27.9054 15.2343 27.93 15.11 27.93H15.1ZM18.42 25.78H18.2C17.9507 25.78 17.7116 25.681 17.5353 25.5047C17.359 25.3284 17.26 25.0893 17.26 24.84V23.35C17.2626 23.1024 17.3628 22.8659 17.5388 22.6918C17.7148 22.5176 17.9524 22.42 18.2 22.42H18.42C18.6676 22.42 18.9052 22.5176 19.0812 22.6918C19.2572 22.8659 19.3574 23.1024 19.36 23.35V24.84C19.36 25.0876 19.2624 25.3252 19.0882 25.5012C18.9141 25.6772 18.6776 25.7774 18.43 25.78H18.42Z" fill="#1F1F1F"/>
</svg>
