<svg width="155" height="45" viewBox="0 0 155 45" fill="none" xmlns="http://www.w3.org/2000/svg">
<path d="M51.1093 29.0002V11.8882H48.3213V29.0002H51.1093Z" fill="#1F1F1F"/>
<path d="M52.8157 23.2959C52.8157 26.7919 55.1466 29.2759 58.6888 29.2759C62.2309 29.2759 64.5619 26.7919 64.5619 23.2959C64.5619 19.7999 62.2309 17.3159 58.6888 17.3159C55.1466 17.3159 52.8157 19.7999 52.8157 23.2959ZM55.6265 23.2959C55.6265 21.2489 56.8377 19.8229 58.6888 19.8229C60.5398 19.8229 61.751 21.2489 61.751 23.2959C61.751 25.3199 60.5398 26.7689 58.6888 26.7689C56.8377 26.7689 55.6265 25.3199 55.6265 23.2959Z" fill="#1F1F1F"/>
<path d="M65.4995 23.066C65.4995 26.378 67.6248 28.77 70.8013 28.77C72.4467 28.77 73.8635 28.103 74.572 26.999V28.931C74.572 30.794 73.4065 32.036 71.464 32.036C69.7272 32.036 68.5389 31.185 68.3789 29.69H65.5681C65.9337 32.657 68.1961 34.589 71.3041 34.589C74.9605 34.589 77.2914 32.174 77.2914 28.425V17.638H74.8234L74.6634 19.179C73.9778 17.983 72.5609 17.27 70.8927 17.27C67.6705 17.27 65.4995 19.731 65.4995 23.066ZM68.3332 22.997C68.3332 21.111 69.5216 19.731 71.2812 19.731C73.2008 19.731 74.4806 21.134 74.4806 22.997C74.4806 24.883 73.2008 26.332 71.2812 26.332C69.5444 26.332 68.3332 24.906 68.3332 22.997Z" fill="#1F1F1F"/>
<path d="M78.6711 23.2959C78.6711 26.7919 81.0021 29.2759 84.5442 29.2759C88.0864 29.2759 90.4174 26.7919 90.4174 23.2959C90.4174 19.7999 88.0864 17.3159 84.5442 17.3159C81.0021 17.3159 78.6711 19.7999 78.6711 23.2959ZM81.482 23.2959C81.482 21.2489 82.6932 19.8229 84.5442 19.8229C86.3953 19.8229 87.6065 21.2489 87.6065 23.2959C87.6065 25.3199 86.3953 26.7689 84.5442 26.7689C82.6932 26.7689 81.482 25.3199 81.482 23.2959Z" fill="#1F1F1F"/>
<path d="M93.4347 15.315C94.3488 15.315 95.1029 14.579 95.1029 13.636C95.1029 12.716 94.3488 11.98 93.4347 11.98C92.4977 11.98 91.7893 12.716 91.7893 13.636C91.7893 14.579 92.4977 15.315 93.4347 15.315ZM92.0407 29H94.8287V17.638H92.0407V29Z" fill="#1F1F1F"/>
<path d="M97.2715 34.267H99.9911V27.436C100.7 28.609 102.231 29.299 103.922 29.299C107.258 29.299 109.246 26.723 109.201 23.181C109.132 19.616 107.098 17.293 103.899 17.293C102.185 17.293 100.631 18.052 99.9454 19.363L99.7855 17.638H97.2715V34.267ZM100.105 23.319C100.105 21.272 101.339 19.846 103.282 19.846C105.224 19.846 106.39 21.295 106.39 23.319C106.39 25.343 105.224 26.769 103.282 26.769C101.339 26.769 100.105 25.366 100.105 23.319Z" fill="#1F1F1F"/>
<path d="M109.908 25.596C109.999 27.85 111.736 29.299 114.433 29.299C117.084 29.299 118.889 27.873 118.889 25.665C118.889 24.032 117.884 22.928 116.032 22.468L114.044 21.985C113.199 21.755 112.627 21.456 112.627 20.72C112.627 19.938 113.244 19.386 114.25 19.386C115.301 19.386 115.987 19.984 115.987 20.973H118.523C118.432 18.719 116.764 17.293 114.319 17.293C111.896 17.293 110.091 18.719 110.091 20.881C110.091 22.353 110.936 23.572 113.107 24.147L115.073 24.653C115.804 24.86 116.261 25.205 116.261 25.849C116.261 26.746 115.415 27.16 114.387 27.16C113.153 27.16 112.445 26.585 112.445 25.596H109.908Z" fill="#1F1F1F"/>
<path d="M124.673 29.2992C126.204 29.2992 127.666 28.5862 128.329 27.5282L128.512 29.0002H131.117V17.6382H128.329V23.5952C128.329 25.6422 127.552 26.7922 125.724 26.7922C124.307 26.7922 123.324 26.1022 123.324 23.7562V17.6382H120.536V24.7452C120.536 27.4592 121.999 29.2992 124.673 29.2992Z" fill="#1F1F1F"/>
<path d="M136.365 29V22.468C136.365 20.628 137.439 19.754 138.765 19.754C140.09 19.754 140.959 20.605 140.959 22.215V29H143.678V22.491C143.678 20.628 144.729 19.754 146.055 19.754C147.403 19.754 148.271 20.605 148.271 22.215V29H150.968V21.571C150.968 18.949 149.528 17.293 146.786 17.293C145.072 17.293 143.724 18.121 143.175 19.455C142.558 18.121 141.324 17.293 139.45 17.293C138.125 17.293 136.936 17.914 136.274 18.926L136.137 17.638H133.577V29H136.365Z" fill="#1F1F1F"/>
<path d="M129.681 39.154C130.097 39.154 130.457 38.802 130.457 38.384C130.457 37.955 130.097 37.603 129.681 37.603C129.255 37.603 128.895 37.955 128.895 38.384C128.895 38.802 129.255 39.154 129.681 39.154Z" fill="#1F1F1F"/>
<path d="M131.259 36.3158C131.259 37.9988 132.286 39.1318 133.784 39.1318C135.073 39.1318 136.057 38.3508 136.265 37.1848H135.281C135.095 37.8338 134.527 38.2188 133.849 38.2188C132.888 38.2188 132.275 37.4708 132.275 36.3048C132.275 35.1168 132.92 34.3908 133.871 34.3908C134.527 34.3908 135.095 34.7428 135.27 35.4358H136.254C136.079 34.2588 135.161 33.4668 133.882 33.4668C132.33 33.4668 131.259 34.6218 131.259 36.3158Z" fill="#1F1F1F"/>
<path d="M136.652 36.305C136.652 37.922 137.745 39.132 139.385 39.132C141.024 39.132 142.117 37.922 142.117 36.305C142.117 34.688 141.024 33.478 139.385 33.478C137.745 33.478 136.652 34.688 136.652 36.305ZM137.691 36.305C137.691 35.205 138.357 34.402 139.385 34.402C140.412 34.402 141.079 35.205 141.079 36.305C141.079 37.405 140.412 38.208 139.385 38.208C138.357 38.208 137.691 37.405 137.691 36.305Z" fill="#1F1F1F"/>
<path d="M144.022 39.011V35.777C144.022 34.93 144.546 34.38 145.311 34.38C146.044 34.38 146.503 34.853 146.503 35.7V39.011H147.508V35.788C147.508 34.93 148.022 34.38 148.798 34.38C149.519 34.38 149.978 34.853 149.978 35.7V39.011H150.973V35.48C150.973 34.237 150.252 33.478 149.027 33.478C148.197 33.478 147.552 33.885 147.29 34.545C147.016 33.885 146.415 33.478 145.541 33.478C144.874 33.478 144.284 33.786 143.989 34.314L143.912 33.632H142.994V39.011H144.022Z" fill="#1F1F1F"/>
<path fill-rule="evenodd" clip-rule="evenodd" d="M1.98706 23.4353L1.98898 23.2349L1.99293 23.0344L1.99893 22.8339L2.00697 22.6334L2.01707 22.4329L2.0292 22.2324L2.04339 22.032L2.05961 21.8316L2.07789 21.6313L2.09822 21.431L2.1206 21.231L2.14501 21.031L2.17148 20.8312L2.2 20.6316L2.23055 20.4322L2.26315 20.2331L2.2978 20.0341L2.33447 19.8355L2.37319 19.6371L2.41395 19.439L2.45674 19.2412L2.50155 19.0438L2.54841 18.8468L2.59727 18.6501L2.64818 18.4539L2.70108 18.258L2.75602 18.0626L2.81296 17.8677L2.87191 17.6733L2.93286 17.4794L2.99581 17.286L3.06076 17.0931L3.1277 16.9008L3.19662 16.7091L3.26752 16.518L3.34039 16.3275L3.41524 16.1377L3.49204 15.9485L3.5708 15.7601L3.65151 15.5723L3.73417 15.3852L3.81876 15.1989L3.90528 15.0134L3.99373 14.8286L4.0841 14.6446L4.17638 14.4615L4.27055 14.2792L4.36662 14.0977L4.46457 13.9172L4.56439 13.7375L4.6661 13.5587L4.76965 13.3809L4.87506 13.204L4.98231 13.0281L5.09139 12.8532L5.2023 12.6793L5.31502 12.5065L5.42955 12.3346L5.54587 12.1639L5.66398 11.9942L5.78385 11.8256L5.90549 11.6582L6.02888 11.4918L6.15402 11.3267L6.28089 11.1627L6.40947 10.9998L6.53976 10.8382L6.67175 10.6779L6.80541 10.5187L6.94076 10.3608L7.07777 10.2042L7.21641 10.0489L7.3567 9.8949L7.49861 9.74222L7.64213 9.59088L7.78724 9.4409L7.93393 9.29229L8.0822 9.14507L8.23202 8.99926L8.38338 8.85487L8.53628 8.71193L8.69068 8.57043L8.84659 8.43041L9.00398 8.29187L9.16285 8.15482L9.32316 8.0193L9.48492 7.88531L9.6481 7.75286L9.8127 7.62197L9.9787 7.49265L10.146 7.36493L10.3148 7.2388L10.4849 7.1143L10.6563 6.99143L10.829 6.8702L11.0031 6.75063L11.1784 6.63272L11.3549 6.51651L11.5328 6.40199L11.7119 6.28919L11.8922 6.17811L12.0737 6.06876L12.2563 5.96117L12.4401 5.85534L12.6251 5.75128L12.8112 5.64901L12.9984 5.54853L13.1867 5.44987L13.3761 5.35302L13.5666 5.25801L13.758 5.16484L13.9506 5.07352L14.144 4.98407L14.3386 4.8965L14.534 4.81081L14.7304 4.72702L14.9278 4.64514L15.126 4.56517L15.3251 4.48712L15.5251 4.41102L15.7259 4.33685L15.9276 4.26465L16.1301 4.1944L16.3334 4.12612L16.5374 4.05983L16.7422 3.99552L16.9477 3.93321L17.154 3.87291L17.3609 3.81462L17.5685 3.75834L17.7768 3.70409L17.9856 3.65188L18.1951 3.60172L18.4052 3.55359L18.6159 3.50753L18.827 3.46352L19.0387 3.42158L19.251 3.38172L19.4637 3.34393L19.6769 3.30823L19.8906 3.27462L20.1046 3.2431L20.319 3.21369L20.5338 3.18638L20.749 3.16118L20.9645 3.13808L21.1803 3.11712L21.3964 3.09827L21.6128 3.08154L21.8294 3.06695L22.9943 3L23.0608 8.64867L23.0989 8.64823L23.2597 8.648L23.4206 8.64936L23.5814 8.65231L23.7425 8.65686L23.9035 8.663L24.0645 8.67072L24.2256 8.68005L24.3866 8.69098L24.5476 8.70349L24.7087 8.71761L24.8695 8.73333L25.0304 8.75065L25.1911 8.76956L25.3517 8.79007L25.5122 8.81218L25.6726 8.83588L25.8327 8.86119L25.9928 8.88809L26.1526 8.91658L26.3122 8.94667L26.4716 8.97835L26.6307 9.01163L26.7896 9.04649L26.9482 9.08294L27.1065 9.12097L27.2646 9.16059L27.4223 9.2018L27.5795 9.24458L27.7365 9.28894L27.8932 9.33487L28.0494 9.38237L28.2052 9.43144L28.3606 9.48208L28.5156 9.53428L28.6701 9.58803L28.8241 9.64334L28.9777 9.70019L29.1307 9.7586L29.2833 9.81854L29.4353 9.88003L29.5867 9.94305L29.7375 10.0076L29.8879 10.0737L30.0376 10.1412L30.1866 10.2104L30.3351 10.2809L30.4829 10.3531L30.6301 10.4267L30.7765 10.5018L30.9223 10.5784L31.0673 10.6564L31.2117 10.736L31.3553 10.8169L31.4982 10.8994L31.6402 10.9833L31.7815 11.0687L31.922 11.1555L32.0617 11.2437L32.2005 11.3334L32.3385 11.4244L32.4757 11.5169L32.612 11.6108L32.7473 11.706L32.8818 11.8027L33.0154 11.9007L33.1479 12.0001L33.2797 12.1009L33.4103 12.203L33.5401 12.3065L33.6688 12.4112L33.7965 12.5173L33.9232 12.6248L34.0489 12.7335L34.1736 12.8435L34.2972 12.9548L34.4196 13.0674L34.541 13.1813L34.6614 13.2964L34.7806 13.4127L34.8986 13.5303L35.0156 13.6491L35.1313 13.7692L35.246 13.8904L35.3594 14.0128L35.4716 14.1364L35.5826 14.2612L35.6924 14.3871L35.801 14.5142L35.9083 14.6424L36.0144 14.7717L36.1193 14.9022L36.2228 15.0337L36.325 15.1663L36.426 15.3L36.5256 15.4348L36.6239 15.5706L36.7209 15.7075L36.8165 15.8454L36.9107 15.9842L37.0036 16.1241L37.0952 16.265L37.1853 16.4069L37.2739 16.5497L37.3612 16.6934L37.4471 16.8381L37.5315 16.9837L37.6145 17.1302L37.6961 17.2776L37.7762 17.4259L37.8548 17.575L37.9319 17.725L38.0075 17.8758L38.0816 18.0274L38.1542 18.1799L38.2254 18.3331L38.2949 18.4871L38.363 18.6419L38.4294 18.7974L38.4943 18.9537L38.5577 19.1106L38.6195 19.2683L38.6797 19.4266L38.7384 19.5857L38.7954 19.7453L38.8508 19.9057L38.9047 20.0666L38.9569 20.2282L39.0075 20.3903L39.0565 20.553L39.1038 20.7163L39.1495 20.8801L39.1935 21.0445L39.2359 21.2094L39.2766 21.3747L39.3157 21.5406L39.3531 21.7069L39.3888 21.8737L39.4228 22.0408L39.4551 22.2085L39.4857 22.3765L39.5147 22.5449L39.542 22.7136L39.5675 22.8827L39.5914 23.0522L39.6134 23.2219L39.6338 23.392L39.6525 23.5623L39.6693 23.7329L39.6845 23.9037L39.6981 24.0748L39.7098 24.2461L39.7197 24.4176L39.728 24.5892L39.7345 24.7611L39.7392 24.933L39.7423 25.1051L39.7435 25.2773L39.743 25.4496L39.7407 25.622L39.7366 25.7945L39.7309 25.9669L39.7233 26.1394L39.7141 26.3119L39.7029 26.4844L39.6901 26.6569L39.6755 26.8293L39.6591 27.0017L39.641 27.174L39.6211 27.3461L39.5994 27.5182L39.5761 27.6901L39.5508 27.8619L39.5239 28.0335L39.4952 28.2049L39.4647 28.3761L39.4325 28.5471L39.3985 28.7179L39.3627 28.8884L39.3252 29.0586L39.2859 29.2286L39.245 29.3982L39.2022 29.5675L39.1576 29.7364L39.1114 29.905L39.0635 30.0732L39.0138 30.241L38.9623 30.4085L38.9091 30.5754L38.8542 30.742L38.7976 30.908L38.7391 31.0736L38.6791 31.2387L38.6173 31.4032L38.5538 31.5672L38.4887 31.7307L38.4218 31.8936L38.3532 32.0559L38.283 32.2177L38.2111 32.3787L38.1374 32.5392L38.0621 32.699L37.9852 32.8581L37.9065 33.0166L37.8263 33.1743L37.7444 33.3314L37.6609 33.4876L37.5757 33.6432L37.4889 33.7979L37.4005 33.9519L37.3105 34.1051L37.2189 34.2574L37.1257 34.409L37.0308 34.5596L36.9344 34.7094L36.8365 34.8583L36.737 35.0063L36.6359 35.1534L36.5333 35.2996L36.4292 35.4448L36.3234 35.5891L36.2162 35.7324L36.1075 35.8747L35.9973 36.0159L35.8857 36.1562L35.7725 36.2954L35.6578 36.4335L35.5417 36.5706L35.4241 36.7066L35.3051 36.8415L35.1847 36.9753L35.0629 37.108L34.9397 37.2395L34.815 37.3699L34.689 37.499L34.5615 37.627L34.4327 37.7538L34.3027 37.8794L34.1712 38.0038L34.0385 38.1269L33.9043 38.2488L33.7689 38.3693L33.6323 38.4886L33.4943 38.6067L33.3551 38.7234L33.2146 38.8387L33.0729 38.9528L32.9299 39.0655L32.7858 39.1768L32.6404 39.2867L32.4938 39.3953L32.3462 39.5025L32.1973 39.6082L32.0472 39.7126L31.8961 39.8155L31.7439 39.9169L31.5905 40.0169L31.4361 40.1155L31.2806 40.2125L31.124 40.3081L30.9663 40.4021L30.8076 40.4947L30.648 40.5857L30.4873 40.6751L30.3257 40.7631L30.1631 40.8494L29.9995 40.9342L29.835 41.0175L29.6696 41.0991L29.5032 41.1791L29.336 41.2576L29.1679 41.3344L28.999 41.4096L28.8292 41.4831L28.6586 41.555L28.4872 41.6253L28.315 41.6939L28.142 41.7608L27.9682 41.8261L27.7938 41.8896L27.6185 41.9515L27.4426 42.0116L27.2661 42.0701L27.0887 42.1268L26.9108 42.1818L26.7322 42.2351L26.5531 42.2866L26.3732 42.3364L26.1929 42.3845L26.0119 42.4307L25.8304 42.4752L25.6484 42.518L25.4658 42.5589L25.2828 42.5981L25.0992 42.6355L24.9152 42.6711L24.7308 42.7049L24.546 42.7368L24.3607 42.767L24.1751 42.7954L23.989 42.8219L23.8027 42.8466L23.616 42.8695L23.4289 42.8905L23.2416 42.9097L23.054 42.9271L22.8663 42.9426L22.6782 42.9563L22.4899 42.9681L22.3013 42.9781L22.1126 42.9862L21.9238 42.9924L21.7348 42.9968L21.5457 42.9993L21.3564 43L21.1671 42.9988L20.9777 42.9957L20.7883 42.9908L20.5988 42.9839L20.4093 42.9752L20.2198 42.9647L20.0305 42.9522L19.841 42.9379L19.6517 42.9217L19.4624 42.9036L19.2732 42.8837L19.0843 42.8619L18.8954 42.8382L18.7066 42.8126L18.5181 42.7851L18.3297 42.7558L18.1416 42.7246L17.9537 42.6916L17.7661 42.6566L17.5788 42.6198L17.3917 42.5812L17.205 42.5406L17.0185 42.4982L16.8325 42.454L16.6468 42.4079L16.4615 42.3599L16.2766 42.3101L16.0922 42.2585L15.9081 42.205L15.7245 42.1497L15.5415 42.0925L15.359 42.0335L15.177 41.9727L14.9954 41.91L14.8145 41.8455L14.6342 41.7793L14.4544 41.7112L14.2753 41.6413L14.0968 41.5696L13.919 41.4961L13.7418 41.4208L13.5654 41.3438L13.3896 41.265L13.2145 41.1844L13.0402 41.102L12.8668 41.0179L12.6941 40.932L12.5221 40.8444L12.351 40.7551L12.1808 40.664L12.0113 40.5713L11.8428 40.4768L11.6752 40.3806L11.5084 40.2827L11.3426 40.1831L11.1778 40.0819L11.0138 39.9789L10.8509 39.8744L10.689 39.7681L10.5281 39.6603L10.3682 39.5507L10.2094 39.4396L10.0516 39.3269L9.89495 39.2125L9.73938 39.0966L9.58491 38.979L9.43159 38.8599L9.27941 38.7393L9.1284 38.617L8.97857 38.4933L8.82994 38.368L8.68252 38.2412L8.53634 38.1129L8.3914 37.983L8.24773 37.8517L8.10534 37.719L7.96423 37.5847L7.82444 37.4491L7.68597 37.3119L7.54884 37.1734L7.41306 37.0335L7.27866 36.8921L7.14564 36.7494L7.01402 36.6053L6.88382 36.4598L6.75504 36.313L6.6277 36.1649L6.50182 36.0154L6.37742 35.8647L6.2545 35.7126L6.13307 35.5593L6.01317 35.4047L5.89478 35.2489L5.77793 35.0918L5.66264 34.9335L5.54891 34.774L5.43675 34.6133L5.3262 34.4515L5.21724 34.2885L5.1099 34.1243L5.0042 33.9591L4.90012 33.7927L4.7977 33.6252L4.69695 33.4567L4.59787 33.287L4.50048 33.1164L4.40479 32.9447L4.31081 32.772L4.21855 32.5982L4.12802 32.4235L4.03924 32.2479L3.9522 32.0713L3.86694 31.8938L3.78345 31.7153L3.70174 31.536L3.62182 31.3557L3.54371 31.1747L3.46741 30.9927L3.39294 30.81L3.32029 30.6264L3.24949 30.442L3.18054 30.2569L3.11344 30.071L3.04821 29.8844L2.98485 29.6971L2.92338 29.509L2.8638 29.3203L2.80612 29.1309L2.75035 28.9409L2.69648 28.7502L2.64454 28.5589L2.59452 28.3671L2.54644 28.1747L2.5003 27.9817L2.45611 27.7882L2.41388 27.5941L2.3736 27.3996L2.33528 27.2046L2.29894 27.0092L2.26457 26.8133L2.23219 26.617L2.20179 26.4203L2.17338 26.2232L2.14697 26.0257L2.12257 25.8279L2.10016 25.6298L2.07976 25.4314L2.06138 25.2328L2.04502 25.0338L2.03067 24.8346L2.01835 24.6352L2.00806 24.4356L1.99979 24.2358L1.99355 24.0359L1.98935 23.8358L1.98719 23.6356L1.98706 23.4353ZM21.2409 8.76699L21.1956 4.91679L21.1526 4.92097L20.9551 4.94213L20.7581 4.96521L20.5611 4.99025L20.365 5.01715L20.1691 5.04601L19.9733 5.0768L19.7782 5.10948L19.5832 5.14411L19.3893 5.18054L19.195 5.21901L19.0022 5.25921L18.809 5.30144L18.6169 5.34546L18.4249 5.39144L18.2338 5.43918L18.0433 5.48884L17.8532 5.54035L17.6637 5.59372L17.4751 5.64888L17.2869 5.70594L17.0996 5.76477L16.9128 5.82547L16.727 5.88785L16.5415 5.9522L16.357 6.01827L16.1733 6.08609L15.9902 6.15576L15.8081 6.22713L15.627 6.30022L15.4463 6.37519L15.2666 6.45186L15.0877 6.53028L14.9099 6.61035L14.7329 6.69216L14.557 6.77562L14.3816 6.86092L14.2075 6.94778L14.0343 7.03633L13.8621 7.12655L13.691 7.21844L13.5209 7.3119L13.3516 7.40709L13.1834 7.50393L13.0167 7.60215L12.8505 7.70229L12.6858 7.80376L12.5223 7.90681L12.3595 8.01155L12.1981 8.11782L12.0378 8.22564L11.879 8.33473L11.7209 8.44575L11.5643 8.55796L11.4089 8.67172L11.2546 8.78704L11.1017 8.90373L10.9501 9.02182L10.7995 9.14157L10.6506 9.26246L10.5027 9.38494L10.3563 9.50875L10.2111 9.634L10.0674 9.76045L9.92483 9.8885L9.78386 10.0177L9.64409 10.1484L9.50594 10.2802L9.36905 10.4134L9.23369 10.5478L9.0997 10.6835L8.96702 10.8207L8.83607 10.9587L8.7066 11.098L8.57828 11.2389L8.45173 11.3807L8.32674 11.5235L8.20303 11.6678L8.08111 11.813L7.96055 11.9595L7.84161 12.107L7.72423 12.2557L7.60837 12.4054L7.49423 12.5561L7.38158 12.7079L7.27047 12.8609L7.16116 13.0146L7.0533 13.1696L6.94717 13.3254L6.84267 13.4822L6.73975 13.64L6.63856 13.7987L6.53903 13.9582L6.44117 14.1187L6.34506 14.28L6.25053 14.4423L6.1577 14.6055L6.0667 14.7693L5.97733 14.934L5.88966 15.0996L5.80378 15.2659L5.71958 15.433L5.63719 15.6007L5.55652 15.7692L5.47763 15.9384L5.40046 16.1084L5.32511 16.2789L5.25148 16.4502L5.17964 16.6221L5.10964 16.7945L5.04139 16.9676L4.97493 17.1413L4.9103 17.3155L4.84746 17.4903L4.78647 17.6655L4.72724 17.8414L4.66985 18.0177L4.6143 18.1945L4.56059 18.3716L4.50866 18.5494L4.45862 18.7274L4.4104 18.9059L4.36401 19.0847L4.31946 19.264L4.27678 19.4435L4.23594 19.6234L4.19695 19.8036L4.15982 19.9841L4.12455 20.1648L4.09113 20.3458L4.05957 20.527L4.02987 20.7085L4.00204 20.8901L3.97607 21.0719L3.95196 21.2539L3.92972 21.436L3.90934 21.6182L3.89083 21.8006L3.87419 21.983L3.8594 22.1654L3.84648 22.348L3.83544 22.5306L3.82624 22.7131L3.81892 22.8957L3.81346 23.0782L3.80986 23.2607L3.80811 23.4431L3.80823 23.6255L3.8102 23.8077L3.81402 23.9899L3.8197 24.1719L3.82722 24.3537L3.8366 24.5354L3.84781 24.7168L3.86086 24.8981L3.87576 25.0791L3.89249 25.2599L3.91104 25.4405L3.93143 25.6207L3.95363 25.8007L3.97766 25.9803L4.0035 26.1596L4.03116 26.3386L4.06061 26.5171L4.09188 26.6953L4.12494 26.8731L4.15978 27.0504L4.19642 27.2274L4.23483 27.4038L4.27502 27.5798L4.31698 27.7553L4.3607 27.9303L4.40618 28.1048L4.4534 28.2786L4.50238 28.452L4.5531 28.6248L4.60554 28.797L4.65971 28.9686L4.71558 29.1395L4.77317 29.3098L4.83246 29.4794L4.89345 29.6484L4.95611 29.8166L5.02048 29.9842L5.08648 30.151L5.15416 30.3171L5.2235 30.4824L5.29447 30.6469L5.36709 30.8107L5.44133 30.9737L5.5172 31.1358L5.59466 31.2971L5.67373 31.4575L5.75437 31.6171L5.83661 31.7758L5.92041 31.9336L6.00578 32.0905L6.09269 32.2464L6.18114 32.4014L6.27112 32.5555L6.36263 32.7085L6.4556 32.8606L6.55013 33.0117L6.6461 33.1617L6.74357 33.3108L6.8425 33.4588L6.94287 33.6057L7.04467 33.7516L7.14793 33.8964L7.25258 34.0401L7.35866 34.1827L7.46609 34.3241L7.57496 34.4644L7.68513 34.6035L7.79669 34.7415L7.90962 34.8784L8.02381 35.014L8.13937 35.1484L8.2562 35.2816L8.37437 35.4136L8.49378 35.5443L8.61443 35.6738L8.73637 35.802L8.85952 35.929L8.98394 36.0547L9.10953 36.179L9.23635 36.3021L9.36431 36.4238L9.49344 36.5443L9.62377 36.6634L9.75521 36.7811L9.88771 36.8974L10.0214 37.0124L10.1563 37.126L10.292 37.2382L10.429 37.3491L10.5669 37.4584L10.7059 37.5664L10.8459 37.673L10.987 37.7781L11.129 37.8817L11.272 37.9839L11.4158 38.0846L11.5608 38.1839L11.7066 38.2816L11.8534 38.3779L12.001 38.4727L12.1495 38.5659L12.2989 38.6577L12.4491 38.7479L12.6002 38.8366L12.752 38.9237L12.9047 39.0093L13.0581 39.0933L13.2124 39.1758L13.3673 39.2567L13.523 39.3361L13.6795 39.4138L13.8367 39.49L13.9945 39.5646L14.153 39.6376L14.312 39.7089L14.4719 39.7787L14.6323 39.8468L14.7933 39.9134L14.9549 39.9783L15.1171 40.0415L15.2798 40.1032L15.4429 40.1632L15.6067 40.2215L15.771 40.2782L15.9358 40.3333L16.101 40.3867L16.2665 40.4384L16.4328 40.4885L16.5992 40.5369L16.7661 40.5836L16.9334 40.6287L17.1011 40.6721L17.2691 40.7138L17.4373 40.7538L17.606 40.7922L17.7749 40.8288L17.944 40.8638L18.1135 40.8971L18.2832 40.9287L18.4531 40.9586L18.6232 40.9868L18.7935 41.0133L18.964 41.0381L19.1347 41.0612L19.3054 41.0827L19.4763 41.1024L19.6473 41.1204L19.8184 41.1368L19.9896 41.1514L20.1608 41.1644L20.332 41.1756L20.5033 41.1852L20.6745 41.193L20.8457 41.1992L21.0169 41.2037L21.1881 41.2064L21.3591 41.2075L21.5301 41.2069L21.701 41.2046L21.8717 41.2007L22.0423 41.195L22.2128 41.1877L22.3831 41.1787L22.5531 41.168L22.723 41.1557L22.8927 41.1417L23.0621 41.126L23.2312 41.1086L23.4001 41.0896L23.5686 41.069L23.7369 41.0467L23.9049 41.0227L24.0725 40.9971L24.2397 40.9699L24.4066 40.941L24.5731 40.9105L24.7392 40.8784L24.9048 40.8447L25.07 40.8093L25.2348 40.7724L25.399 40.7338L25.5629 40.6936L25.7261 40.6519L25.8889 40.6085L26.051 40.5636L26.2128 40.5171L26.3738 40.469L26.5344 40.4194L26.6943 40.3683L26.8536 40.3155L27.0123 40.2613L27.1702 40.2055L27.3277 40.1481L27.4844 40.0893L27.6404 40.0289L27.7957 39.9671L27.9502 39.9038L28.104 39.8389L28.2571 39.7726L28.4094 39.7048L28.5608 39.6356L28.7116 39.5649L28.8616 39.4927L29.0106 39.4192L29.159 39.3441L29.3063 39.2677L29.4529 39.1899L29.5986 39.1106L29.7433 39.03L29.8872 38.948L30.03 38.8647L30.1722 38.7799L30.3131 38.6939L30.4534 38.6064L30.5924 38.5177L30.7305 38.4276L30.8677 38.3362L31.004 38.2434L31.1389 38.1496L31.2729 38.0543L31.406 37.9578L31.5379 37.8601L31.6689 37.761L31.7985 37.6609L31.9274 37.5593L32.0549 37.4567L32.1813 37.3529L32.3067 37.2478L32.4309 37.1415L32.5539 37.0342L32.6758 36.9256L32.7964 36.816L32.9159 36.7052L33.0343 36.5933L33.1512 36.4804L33.2672 36.3662L33.3818 36.251L33.4952 36.1348L33.6074 36.0175L33.7181 35.8993L33.8276 35.7801L33.9361 35.6595L34.043 35.5383L34.1489 35.4159L34.2532 35.2927L34.3563 35.1684L34.4581 35.0433L34.5584 34.9172L34.6576 34.7901L34.7553 34.6623L34.8517 34.5334L34.9466 34.4038L35.0403 34.2732L35.1327 34.1417L35.2233 34.0097L35.3129 33.8766L35.4008 33.7429L35.4874 33.6082L35.5728 33.4727L35.6564 33.3367L35.7387 33.1999L35.8197 33.062L35.899 32.9239L35.977 32.7848L36.0536 32.645L36.1285 32.5048L36.2021 32.3636L36.2743 32.2218L36.3447 32.0799L36.4138 31.9368L36.4815 31.7932L36.5476 31.6492L36.6122 31.5046L36.6753 31.3594L36.7368 31.2138L36.7969 31.0674L36.8554 30.9206L36.9123 30.7737L36.9678 30.6257L37.0216 30.4777L37.0741 30.329L37.125 30.18L37.1742 30.0305L37.2218 29.881L37.2681 29.7304L37.3127 29.58L37.3557 29.4291L37.3972 29.278L37.4371 29.1263L37.4754 28.9746L37.5123 28.8224L37.5474 28.6699L37.5811 28.5173L37.6132 28.3643L37.6436 28.2114L37.6725 28.0578L37.6999 27.9046L37.7256 27.7508L37.7497 27.5969L37.7723 27.443L37.7934 27.2888L37.8127 27.1348L37.8306 26.9801L37.8468 26.826L37.8615 26.6714L37.8745 26.5171L37.8861 26.3623L37.896 26.2081L37.9043 26.0534L37.9111 25.8986L37.9163 25.7442L37.9199 25.5901L37.9219 25.4354L37.9224 25.281L37.9213 25.1268L37.9186 24.9727L37.9144 24.8186L37.9085 24.6651L37.9012 24.511L37.8922 24.3576L37.8817 24.2042L37.8697 24.0513L37.856 23.8981L37.8409 23.7456L37.8243 23.593L37.806 23.4409L37.7862 23.2889L37.7649 23.1374L37.742 22.9858L37.7176 22.8349L37.6918 22.6845L37.6644 22.534L37.6354 22.384L37.605 22.2346L37.573 22.0851L37.5397 21.9367L37.5046 21.7881L37.4683 21.6405L37.4303 21.4927L37.3909 21.346L37.3501 21.1995L37.3078 21.0533L37.2641 20.908L37.2189 20.7632L37.1721 20.6185L37.1241 20.4749L37.0744 20.3314L37.0235 20.1888L36.9711 20.0465L36.9173 19.9052L36.862 19.7641L36.8053 19.6238L36.7474 19.4844L36.6881 19.3456L36.6271 19.207L36.5652 19.0697L36.5015 18.9325L36.4367 18.7966L36.3705 18.6612L36.3029 18.5263L36.2341 18.3925L36.1639 18.2593L36.0922 18.1267L36.0197 17.9954L35.9455 17.8644L35.8702 17.7345L35.7934 17.6052L35.7157 17.4772L35.6363 17.3495L35.556 17.223L35.4742 17.0971L35.3913 16.9723L35.3074 16.8486L35.2219 16.7254L35.1354 16.6033L35.0478 16.4821L34.9588 16.362L34.8688 16.2426L34.7776 16.1244L34.6853 16.007L34.5918 15.8907L34.4972 15.7754L34.4014 15.661L34.3046 15.5477L34.2067 15.4354L34.1078 15.3242L34.0078 15.214L33.9064 15.1047L33.8046 14.9969L33.7011 14.8897L33.597 14.784L33.4918 14.6791L33.3857 14.5755L33.2782 14.4727L33.1703 14.3715L33.061 14.2711L32.9508 14.1719L32.84 14.074L32.7281 13.9772L32.615 13.8813L32.5012 13.7868L32.3866 13.6935L32.2711 13.6014L32.1546 13.5104L32.0376 13.4209L31.9192 13.3321L31.8005 13.245L31.6808 13.159L31.5602 13.0741L31.439 12.9906L31.3166 12.9081L31.1942 12.8273L31.0704 12.7474L30.9462 12.6689L30.821 12.5916L30.6953 12.5156L30.569 12.441L30.4421 12.3678L30.314 12.2955L30.1859 12.2249L30.0568 12.1554L29.9271 12.0873L29.7969 12.0206L29.666 11.9551L29.5345 11.8909L29.4026 11.8282L29.2699 11.7667L29.137 11.7067L29.0034 11.6479L28.865 11.5887L28.7348 11.5346L28.5994 11.4798L28.4641 11.4267L28.3278 11.3746L28.1915 11.3242L28.0546 11.275L27.9174 11.2273L27.7796 11.1808L27.6416 11.1359L27.5031 11.0923L27.3643 11.0501L27.2254 11.0094L27.0859 10.97L26.9459 10.9319L26.8061 10.8954L26.666 10.8602L26.5251 10.8264L26.3846 10.7941L26.2434 10.7631L26.1022 10.7336L25.9605 10.7054L25.819 10.6787L25.6771 10.6534L25.5353 10.6296L25.3929 10.6071L25.2508 10.5861L25.1084 10.5665L24.9658 10.5483L24.8232 10.5315L24.6806 10.5161L24.538 10.5022L24.3952 10.4897L24.2523 10.4786L24.1093 10.4689L23.9668 10.4606L23.8241 10.4538L23.6809 10.4483L23.5385 10.4443L23.3958 10.4417L23.2533 10.4405L23.1105 10.4407L23.0819 10.441L23.1269 14.2632L23.2079 14.2628L23.3121 14.2634L23.4163 14.265L23.5206 14.2677L23.6251 14.2714L23.7295 14.2762L23.8339 14.282L23.9384 14.2888L24.043 14.2967L24.1475 14.3056L24.252 14.3156L24.3564 14.3266L24.461 14.3387L24.5654 14.3518L24.6697 14.3659L24.774 14.3812L24.8783 14.3974L24.9824 14.4147L25.0865 14.4331L25.1905 14.4525L25.2943 14.473L25.398 14.4945L25.5017 14.517L25.6051 14.5406L25.7083 14.5653L25.8115 14.591L25.9143 14.6177L26.017 14.6455L26.1196 14.6743L26.2219 14.7042L26.324 14.7351L26.4259 14.767L26.5274 14.8L26.6288 14.834L26.7299 14.8691L26.8307 14.9052L26.9312 14.9423L27.0314 14.9804L27.1313 15.0196L27.2309 15.0598L27.3302 15.101L27.429 15.1433L27.5276 15.1865L27.6257 15.2308L27.7235 15.276L27.8209 15.3223L27.918 15.3696L28.0145 15.4179L28.1107 15.4672L28.2065 15.5175L28.3018 15.5687L28.3967 15.621L28.4911 15.6742L28.585 15.7284L28.6785 15.7836L28.7715 15.8398L28.8639 15.8969L28.9558 15.955L29.0472 16.0141L29.1381 16.0741L29.2284 16.135L29.3182 16.1969L29.4075 16.2598L29.4961 16.3235L29.5841 16.3882L29.6715 16.4539L29.7585 16.5204L29.8446 16.5879L29.9303 16.6563L30.0152 16.7255L30.0996 16.7957L30.1832 16.8668L30.2663 16.9387L30.3487 17.0115L30.4304 17.0852L30.5113 17.1598L30.5915 17.2352L30.6711 17.3115L30.7499 17.3886L30.828 17.4666L30.9054 17.5454L30.982 17.6251L31.0579 17.7055L31.1329 17.7868L31.2072 17.8689L31.2808 17.9518L31.3535 18.0354L31.4254 18.1199L31.4966 18.2051L31.5669 18.2911L31.6364 18.3779L31.705 18.4654L31.7728 18.5537L31.8398 18.6427L31.9058 18.7325L31.971 18.8229L32.0354 18.9141L32.0988 19.006L32.1614 19.0986L32.223 19.1919L32.2837 19.2858L32.3435 19.3805L32.4024 19.4758L32.4605 19.5717L32.5175 19.6683L32.5735 19.7656L32.6287 19.8634L32.6828 19.9619L32.736 20.061L32.7882 20.1607L32.8395 20.261L32.8897 20.3619L32.939 20.4634L32.9873 20.5654L33.0345 20.6679L33.0807 20.7711L33.1259 20.8747L33.1701 20.9789L33.2132 21.0836L33.2553 21.1888L33.2964 21.2945L33.3363 21.4006L33.3753 21.5073L33.4131 21.6144L33.45 21.722L33.4857 21.83L33.5203 21.9385L33.5539 22.0473L33.5864 22.1566L33.6178 22.2663L33.6481 22.3764L33.6772 22.4869L33.7053 22.5977L33.7323 22.7089L33.7581 22.8204L33.7828 22.9323L33.8064 23.0445L33.8288 23.157L33.8501 23.2698L33.8703 23.383L33.8893 23.4964L33.9072 23.61L33.9239 23.724L33.9395 23.8381L33.9539 23.9525L33.9672 24.0672L33.9793 24.1821L33.9902 24.2971L34 24.4124L34.0086 24.5278L34.016 24.6434L34.0222 24.7591L34.0272 24.875L34.0311 24.9911L34.0338 25.1072L34.0353 25.2235L34.0356 25.3399L34.0347 25.4563L34.0326 25.5728L34.0293 25.6894L34.0249 25.8061L34.0192 25.9227L34.0123 26.0394L34.0043 26.1562L33.9951 26.2729L33.9845 26.3896L33.9729 26.5063L33.96 26.6229L33.946 26.7396L33.9307 26.8561L33.9142 26.9726L33.8965 27.089L33.8776 27.2053L33.8575 27.3215L33.8362 27.4376L33.8137 27.5536L33.79 27.6694L33.765 27.7851L33.739 27.9006L33.7117 28.0159L33.6832 28.131L33.6535 28.246L33.6226 28.3607L33.5905 28.4752L33.5572 28.5894L33.5227 28.7034L33.487 28.8172L33.4501 28.9307L33.412 29.0438L33.3728 29.1567L33.3324 29.2693L33.2908 29.3815L33.248 29.4934L33.2041 29.605L33.159 29.7162L33.1126 29.8271L33.0652 29.9375L33.0166 30.0476L32.9668 30.1573L32.9158 30.2665L32.8638 30.3753L32.8105 30.4837L32.756 30.5916L32.7005 30.6991L32.6439 30.806L32.586 30.9125L32.5271 31.0185L32.4671 31.124L32.4059 31.2289L32.3436 31.3334L32.2802 31.4372L32.2157 31.5406L32.1501 31.6433L32.0834 31.7455L32.0155 31.847L31.9467 31.948L31.8767 32.0484L31.8057 32.1481L31.7335 32.2472L31.6604 32.3457L31.5862 32.4435L31.5109 32.5406L31.4346 32.637L31.3572 32.7328L31.2788 32.8278L31.1994 32.9222L31.1189 33.0158L31.0374 33.1087L30.955 33.2008L30.8715 33.2922L30.7871 33.3828L30.7017 33.4727L30.6153 33.5617L30.5279 33.65L30.4395 33.7374L30.3503 33.8241L30.26 33.9099L30.1688 33.9948L30.0767 34.079L29.9836 34.1622L29.8897 34.2446L29.7949 34.3262L29.6992 34.4068L29.6025 34.4866L29.505 34.5654L29.4066 34.6433L29.3073 34.7203L29.2072 34.7964L29.1063 34.8715L29.0045 34.9457L28.9019 35.019L28.7985 35.0912L28.6943 35.1625L28.5891 35.2328L28.4833 35.3021L28.3767 35.3704L28.2694 35.4377L28.1612 35.5039L28.0524 35.5692L27.9427 35.6334L27.8324 35.6965L27.7213 35.7586L27.6096 35.8197L27.4971 35.8797L27.3839 35.9386L27.27 35.9964L27.1556 36.0531L27.0404 36.1088L26.9246 36.1633L26.8081 36.2167L26.6911 36.269L26.5734 36.3202L26.4551 36.3702L26.3363 36.4191L26.2168 36.4669L26.0968 36.5135L25.9763 36.559L25.8552 36.6033L25.7336 36.6464L25.6113 36.6883L25.4887 36.7291L25.3655 36.7686L25.2419 36.807L25.1178 36.8442L24.9932 36.8801L24.8682 36.9149L24.7427 36.9484L24.6169 36.9807L24.4906 37.0118L24.3639 37.0417L24.2367 37.0703L24.1093 37.0977L23.9815 37.1238L23.8533 37.1487L23.7248 37.1724L23.5959 37.1948L23.4668 37.2159L23.3374 37.2357L23.2077 37.2543L23.0776 37.2716L22.9473 37.2877L22.8169 37.3024L22.6861 37.3159L22.5552 37.3281L22.424 37.339L22.2927 37.3486L22.1611 37.3569L22.0294 37.3639L21.8975 37.3696L21.7655 37.374L21.6333 37.3771L21.5011 37.3789L21.3686 37.3794L21.2362 37.3786L21.1037 37.3764L20.9711 37.373L20.8384 37.3682L20.7058 37.3621L20.5731 37.3547L20.4404 37.346L20.3077 37.336L20.175 37.3246L20.0424 37.3119L19.9097 37.2979L19.7772 37.2826L19.6447 37.266L19.5123 37.248L19.38 37.2287L19.2479 37.2081L19.1159 37.1862L18.9839 37.1629L18.8522 37.1384L18.7206 37.1125L18.5892 37.0852L18.458 37.0567L18.327 37.0269L18.1963 36.9957L18.0657 36.9632L17.9355 36.9294L17.8054 36.8943L17.6756 36.8579L17.5463 36.8202L17.4171 36.7812L17.2882 36.7409L17.1598 36.6992L17.0317 36.6563L16.9038 36.6121L16.7764 36.5666L16.6495 36.5198L16.5228 36.4717L16.3966 36.4223L16.2708 36.3717L16.1454 36.3197L16.0205 36.2665L15.8961 36.2121L15.7722 36.1563L15.6487 36.0993L15.5258 36.0411L15.4034 35.9816L15.2815 35.9208L15.1601 35.8588L15.0394 35.7956L14.9191 35.7311L14.7995 35.6654L14.6805 35.5985L14.562 35.5303L14.4442 35.461L14.327 35.3904L14.2105 35.3186L14.0946 35.2457L13.9795 35.1715L13.865 35.0962L13.7513 35.0196L13.6382 34.9419L13.5258 34.8631L13.4142 34.7831L13.3034 34.7019L13.1933 34.6196L13.0839 34.5361L12.9754 34.4515L12.8677 34.3658L12.7608 34.2789L12.6546 34.191L12.5493 34.1019L12.4449 34.0118L12.3414 33.9205L12.2386 33.8282L12.1368 33.7348L12.0359 33.6404L11.9359 33.5449L11.8367 33.4483L11.7385 33.3507L11.6414 33.2521L11.5451 33.1524L11.4497 33.0518L11.3553 32.9501L11.262 32.8475L11.1696 32.7438L11.0782 32.6392L10.9879 32.5336L10.8985 32.4271L10.8102 32.3196L10.7229 32.2111L10.6368 32.1018L10.5516 31.9915L10.4675 31.8803L10.3846 31.7682L10.3026 31.6553L10.2218 31.5414L10.1422 31.4267L10.0637 31.3111L9.98625 31.1947L9.91 31.0775L9.8349 30.9594L9.76095 30.8405L9.68818 30.7208L9.61658 30.6003L9.54617 30.4791L9.47696 30.357L9.40895 30.2343L9.34216 30.1107L9.27659 29.9865L9.21225 29.8615L9.14914 29.7358L9.08729 29.6094L9.02669 29.4823L8.96736 29.3546L8.90929 29.2261L8.8525 29.0971L8.797 28.9674L8.74278 28.837L8.68987 28.7061L8.63827 28.5746L8.58797 28.4424L8.539 28.3097L8.49135 28.1765L8.44504 28.0426L8.40007 27.9083L8.35644 27.7734L8.31416 27.638L8.27324 27.5022L8.23369 27.3658L8.19551 27.229L8.15869 27.0917L8.12327 26.9539L8.08923 26.8158L8.05657 26.6772L8.02532 26.5382L7.99547 26.3988L7.96702 26.2591L7.93998 26.119L7.91436 25.9785L7.89016 25.8377L7.86738 25.6966L7.84603 25.5552L7.82611 25.4135L7.80763 25.2715L7.79059 25.1292L7.77499 24.9867L7.76083 24.844L7.74812 24.701L7.73687 24.5578L7.72708 24.4145L7.71873 24.2709L7.71186 24.1272L7.70644 23.9834L7.7025 23.8394L7.70001 23.6953L7.699 23.551L7.69947 23.4067L7.70139 23.2623L7.70481 23.1179L7.70969 22.9734L7.71606 22.8288L7.72391 22.6843L7.73323 22.5397L7.74404 22.3952L7.75632 22.2506L7.77009 22.1062L7.78535 21.9617L7.80208 21.8174L7.82031 21.6731L7.84001 21.5289L7.86119 21.3848L7.88387 21.2409L7.90801 21.0971L7.93365 20.9535L7.96076 20.81L7.98936 20.6667L8.01942 20.5237L8.05098 20.3808L8.08401 20.2382L8.1185 20.0958L8.15447 19.9537L8.19192 19.8119L8.23083 19.6703L8.27121 19.5291L8.31306 19.3882L8.35636 19.2476L8.40113 19.1073L8.44735 18.9675L8.49502 18.828L8.54416 18.6889L8.59473 18.5502L8.64674 18.4119L8.7002 18.2741L8.7551 18.1367L8.81142 17.9998L8.86918 17.8634L8.92836 17.7274L8.98897 17.592L9.05098 17.4571L9.11441 17.3227L9.17924 17.1889L9.24548 17.0557L9.31311 16.923L9.38214 16.791L9.45255 16.6595L9.52434 16.5287L9.59751 16.3985L9.67204 16.2689L9.74794 16.1401L9.8252 16.0119L9.9038 15.8844L9.98377 15.7576L10.065 15.6315L10.1477 15.5062L10.2316 15.3816L10.3169 15.2578L10.4035 15.1347L10.4913 15.0124L10.5805 14.891L10.6709 14.7703L10.7627 14.6505L10.8557 14.5315L10.95 14.4134L11.0455 14.2962L11.1423 14.1798L11.2404 14.0643L11.3396 13.9497L11.4401 13.8361L11.5418 13.7234L11.6447 13.6116L11.7488 13.5008L11.8541 13.3909L11.9605 13.2821L12.0681 13.1742L12.1769 13.0673L12.2869 12.9615L12.398 12.8566L12.5102 12.7529L12.6235 12.6501L12.738 12.5485L12.8535 12.4479L12.9701 12.3484L13.0878 12.25L13.2066 12.1527L13.3264 12.0565L13.4473 11.9615L13.5692 11.8676L13.6921 11.7749L13.8161 11.6833L13.941 11.5929L14.0669 11.5037L14.1939 11.4157L14.3218 11.3289L14.4505 11.2434L14.5804 11.159L14.7111 11.0759L14.8427 10.994L14.9753 10.9134L15.1087 10.8341L15.2429 10.756L15.3782 10.6792L15.5142 10.6038L15.651 10.5296L15.7887 10.4567L15.9272 10.3852L16.0665 10.315L16.2066 10.2461L16.3475 10.1786L16.4892 10.1124L16.6316 10.0476L16.7748 9.9842L16.9186 9.92216L17.0632 9.86151L17.2085 9.80225L17.3543 9.7444L17.501 9.68796L17.6482 9.63294L17.7962 9.57935L17.9447 9.52719L18.0938 9.47647L18.2436 9.4272L18.3938 9.37939L18.5447 9.33303L18.6962 9.28814L18.8482 9.24473L19.0006 9.20279L19.1536 9.16234L19.3071 9.12338L19.4611 9.08592L19.6155 9.04997L19.7704 9.01551L19.9257 8.98257L20.0814 8.95115L20.2376 8.92126L20.3941 8.89289L20.551 8.86605L20.7083 8.84075L20.8659 8.81699L21.0237 8.79478L21.1819 8.77411L21.2409 8.76699ZM21.3077 14.4361L21.2622 10.5719L21.1325 10.5901L20.9931 10.6112L20.8536 10.6336L20.715 10.6573L20.5762 10.6825L20.4381 10.7089L20.3003 10.7367L20.163 10.7658L20.026 10.7963L19.8893 10.8282L19.7529 10.8613L19.6172 10.8958L19.4816 10.9316L19.3513 10.9674L19.2125 11.0071L19.0785 11.0468L18.9451 11.0878L18.8123 11.13L18.6799 11.1736L18.5479 11.2185L18.4166 11.2646L18.2859 11.3119L18.1557 11.3606L18.0262 11.4104L17.8971 11.4616L17.769 11.5139L17.641 11.5676L17.5139 11.6224L17.3874 11.6784L17.2618 11.7356L17.1365 11.7941L17.0119 11.8538L16.8884 11.9145L16.7651 11.9766L16.6431 12.0397L16.5213 12.1042L16.4007 12.1695L16.2802 12.2364L16.161 12.304L16.0426 12.3729L15.9247 12.443L15.8078 12.5141L15.6914 12.5865L15.5763 12.6597L15.4616 12.7342L15.3481 12.8097L15.2353 12.8862L15.1233 12.9639L15.012 13.0427L14.902 13.1222L14.7926 13.2031L14.6841 13.2849L14.5766 13.3677L14.4701 13.4514L14.3643 13.5363L14.2597 13.622L14.156 13.7087L14.053 13.7966L13.9514 13.8851L13.8504 13.9748L13.7505 14.0654L13.6516 14.1568L13.5538 14.2491L13.4568 14.3425L13.3611 14.4365L13.2663 14.5315L13.1724 14.6275L13.0797 14.7242L12.988 14.8219L12.8974 14.9203L12.8078 15.0195L12.7193 15.1196L12.6318 15.2206L12.5457 15.3221L12.4605 15.4246L12.3763 15.5279L12.2934 15.6318L12.2116 15.7364L12.1307 15.842L12.0511 15.9481L11.9726 16.055L11.8953 16.1626L11.8191 16.2709L11.7442 16.3797L11.6704 16.4893L11.5977 16.5996L11.5261 16.7105L11.4559 16.8219L11.3868 16.934L11.3189 17.0469L11.2521 17.1601L11.1866 17.274L11.1222 17.3885L11.0592 17.5033L10.9973 17.6189L10.9365 17.7351L10.8772 17.8515L10.819 17.9687L10.762 18.0863L10.7063 18.2042L10.6519 18.3228L10.5986 18.4417L10.5466 18.5611L10.4959 18.6809L10.4465 18.8011L10.3983 18.9217L10.3513 19.0428L10.3056 19.1642L10.2613 19.2859L10.2181 19.4081L10.1763 19.5304L10.1357 19.6532L10.0964 19.7763L10.0584 19.8997L10.0217 20.0233L9.98625 20.1472L9.95217 20.2713L9.91929 20.3958L9.88774 20.5204L9.85748 20.6453L9.82853 20.7704L9.80086 20.8956L9.77448 21.0211L9.74943 21.1467L9.72565 21.2724L9.70318 21.3984L9.68203 21.5244L9.66214 21.6506L9.64359 21.7767L9.62632 21.9031L9.61036 22.0295L9.59569 22.156L9.58233 22.2825L9.57027 22.4091L9.55951 22.5357L9.55005 22.6622L9.54188 22.7889L9.535 22.9155L9.52943 23.042L9.52516 23.1685L9.52217 23.2949L9.52048 23.4213L9.52007 23.5477L9.52095 23.6739L9.52313 23.8L9.52659 23.926L9.53132 24.0518L9.53734 24.1776L9.54463 24.3032L9.5532 24.4285L9.56304 24.5538L9.57415 24.6788L9.58653 24.8036L9.60017 24.9282L9.61507 25.0526L9.63123 25.1768L9.64864 25.3006L9.66731 25.4243L9.68721 25.5475L9.70837 25.6706L9.73076 25.7934L9.75438 25.9157L9.77924 26.0379L9.80531 26.1596L9.83262 26.2811L9.86112 26.402L9.89087 26.5227L9.92181 26.643L9.95396 26.7629L9.98725 26.8823L10.0218 27.0014L10.0575 27.12L10.0945 27.2382L10.1325 27.356L10.1718 27.4732L10.2122 27.5899L10.2537 27.7062L10.2965 27.822L10.3404 27.9373L10.3854 28.052L10.4315 28.1662L10.4788 28.2799L10.5272 28.393L10.5767 28.5055L10.6273 28.6175L10.6791 28.7288L10.7319 28.8396L10.7858 28.9498L10.8408 29.0593L10.8969 29.1683L10.954 29.2766L11.0122 29.3842L11.0715 29.4912L11.1318 29.5975L11.1931 29.7031L11.2555 29.808L11.3189 29.9123L11.3832 30.0158L11.4486 30.1186L11.5151 30.2208L11.5824 30.322L11.6508 30.4227L11.7201 30.5225L11.7904 30.6216L11.8617 30.7199L11.9339 30.8174L12.007 30.9141L12.0811 31.0101L12.1561 31.1052L12.232 31.1995L12.3088 31.293L12.3865 31.3857L12.4651 31.4774L12.5445 31.5685L12.6248 31.6585L12.706 31.7478L12.788 31.8361L12.8708 31.9236L12.9545 32.0102L13.0391 32.0959L13.1243 32.1807L13.2105 32.2646L13.2974 32.3476L13.3849 32.4296L13.4735 32.5108L13.5626 32.5909L13.6525 32.6701L13.7432 32.7484L13.8346 32.8257L13.9267 32.9021L14.0195 32.9774L14.113 33.0518L14.2072 33.1252L14.3021 33.1977L14.3977 33.2691L14.4938 33.3395L14.5905 33.4089L14.688 33.4773L14.7861 33.5447L14.8848 33.6111L14.9841 33.6764L15.084 33.7407L15.1844 33.804L15.2854 33.8662L15.3869 33.9274L15.4891 33.9875L15.5916 34.0465L15.6948 34.1045L15.7984 34.1614L15.9026 34.2173L16.0072 34.2721L16.1122 34.3257L16.2178 34.3784L16.324 34.4299L16.4304 34.4804L16.5372 34.5297L16.6446 34.578L16.7522 34.6251L16.8603 34.6711L16.9688 34.7161L17.0777 34.7599L17.1868 34.8026L17.2964 34.8442L17.4063 34.8847L17.5165 34.9241L17.627 34.9623L17.7378 34.9995L17.8489 35.0354L17.9603 35.0703L18.072 35.104L18.1839 35.1366L18.2959 35.1681L18.4083 35.1984L18.5209 35.2277L18.6337 35.2557L18.7466 35.2826L18.8598 35.3084L18.9732 35.3331L19.0866 35.3566L19.2002 35.3789L19.3141 35.4001L19.4278 35.4202L19.5419 35.4392L19.656 35.4569L19.7701 35.4736L19.8844 35.4891L19.9987 35.5035L20.113 35.5167L20.2274 35.5288L20.3418 35.5397L20.4563 35.5495L20.5708 35.5581L20.6852 35.5657L20.7996 35.572L20.914 35.5773L21.0284 35.5814L21.1427 35.5844L21.2568 35.5862L21.371 35.5869L21.4851 35.5865L21.599 35.5849L21.7129 35.5823L21.8266 35.5785L21.9402 35.5736L22.0536 35.5675L22.1669 35.5604L22.2799 35.5521L22.3929 35.5427L22.5056 35.5322L22.6182 35.5206L22.7305 35.5079L22.8426 35.4941L22.9545 35.4792L23.0661 35.4633L23.1774 35.4462L23.2885 35.428L23.3992 35.4088L23.5098 35.3884L23.62 35.367L23.7299 35.3446L23.8396 35.321L23.9487 35.2964L24.0576 35.2708L24.1661 35.244L24.2743 35.2163L24.3821 35.1875L24.4895 35.1576L24.5965 35.1267L24.7031 35.0948L24.8092 35.0619L24.9149 35.0279L25.0204 34.9929L25.1252 34.9569L25.2296 34.9199L25.3335 34.8819L25.437 34.8429L25.5399 34.8029L25.6423 34.7619L25.7444 34.7199L25.8458 34.677L25.9467 34.6331L26.0471 34.5883L26.1469 34.5425L26.2462 34.4957L26.345 34.448L26.443 34.3995L26.5407 34.3498L26.6376 34.2994L26.7341 34.2479L26.8297 34.1957L26.9249 34.1425L27.0195 34.0884L27.1133 34.0334L27.2066 33.9775L27.2992 33.9208L27.391 33.8632L27.4824 33.8047L27.5728 33.7455L27.6627 33.6853L27.752 33.6242L27.8405 33.5624L27.9281 33.4999L28.0153 33.4363L28.1016 33.3722L28.1872 33.3071L28.2722 33.2412L28.356 33.1747L28.4396 33.1072L28.5223 33.039L28.6038 32.9702L28.6851 32.9003L28.7653 32.83L28.8447 32.759L28.9236 32.6869L29.0013 32.6145L29.0784 32.5412L29.1547 32.4672L29.23 32.3926L29.3046 32.3172L29.3784 32.2412L29.4514 32.1645L29.5233 32.0872L29.5945 32.0092L29.665 31.9306L29.7343 31.8515L29.8031 31.7715L29.8708 31.6911L29.9375 31.6101L30.0036 31.5283L30.0686 31.4463L30.1328 31.3634L30.1961 31.2801L30.2585 31.1961L30.3199 31.1117L30.3803 31.0269L30.44 30.9412L30.4986 30.8553L30.5563 30.7688L30.6133 30.6817L30.6689 30.5944L30.724 30.5064L30.7779 30.4179L30.831 30.3291L30.8829 30.2398L30.9342 30.1499L30.9842 30.06L31.0335 29.9692L31.0817 29.8783L31.1287 29.787L31.1751 29.695L31.2203 29.6032L31.2647 29.5104L31.3078 29.4179L31.3503 29.3244L31.3915 29.2311L31.4319 29.137L31.4712 29.043L31.5095 28.9486L31.5469 28.8538L31.5832 28.7587L31.6184 28.6636L31.6529 28.5679L31.6861 28.4721L31.7183 28.3761L31.7496 28.2798L31.7799 28.1832L31.8093 28.0865L31.8375 27.9897L31.8647 27.8925L31.8908 27.7953L31.9161 27.6978L31.9402 27.6002L31.9634 27.5026L31.9855 27.4045L32.0066 27.3065L32.0268 27.2084L32.0457 27.1103L32.0638 27.012L32.0808 26.9133L32.0968 26.815L32.1118 26.7164L32.1257 26.6177L32.1386 26.5192L32.1506 26.4205L32.1615 26.3215L32.1713 26.2232L32.1803 26.1241L32.1881 26.0254L32.1949 25.9269L32.2007 25.8281L32.2055 25.7295L32.2093 25.631L32.2121 25.5322L32.2137 25.434L32.2145 25.3354L32.2142 25.2371L32.2131 25.1388L32.2108 25.0409L32.2075 24.9428L32.2032 24.8449L32.198 24.7474L32.1917 24.6496L32.1844 24.5521L32.1763 24.4551L32.167 24.3578L32.1568 24.2611L32.1456 24.1642L32.1335 24.0678L32.1204 23.9715L32.1062 23.8753L32.0911 23.7795L32.0751 23.684L32.0582 23.5887L32.0402 23.4937L32.0212 23.3986L32.0013 23.3042L31.9806 23.2101L31.9588 23.1161L31.936 23.0223L31.9125 22.9293L31.8879 22.836L31.8624 22.7435L31.836 22.6511L31.8087 22.5593L31.7804 22.4676L31.7512 22.3763L31.7212 22.2856L31.6903 22.1952L31.6583 22.1049L31.6257 22.0154L31.5921 21.9261L31.5576 21.8374L31.5222 21.7489L31.4859 21.6608L31.4489 21.5735L31.4108 21.4863L31.3721 21.3998L31.3324 21.3138L31.2919 21.228L31.2505 21.1427L31.2084 21.0582L31.1653 20.9739L31.1216 20.8904L31.077 20.8074L31.0315 20.7245L30.9854 20.6426L30.9383 20.561L30.8905 20.4801L30.8418 20.3995L30.7926 20.3198L30.7423 20.2403L30.6916 20.1617L30.6399 20.0836L30.5875 20.0061L30.5343 19.929L30.4804 19.8527L30.426 19.7771L30.3705 19.7018L30.3146 19.6274L30.2578 19.5535L30.2005 19.4804L30.1423 19.4077L30.0835 19.3358L30.024 19.2645L29.9639 19.1938L29.9032 19.124L29.8416 19.0546L29.7796 18.9861L29.7168 18.9181L29.6536 18.8511L29.5894 18.7844L29.5249 18.7187L29.4595 18.6534L29.3937 18.5891L29.3275 18.5255L29.2605 18.4625L29.1928 18.4002L29.1247 18.3388L29.056 18.2781L28.9866 18.2179L28.9171 18.1589L28.8467 18.1002L28.7758 18.0425L28.7045 17.9856L28.6326 17.9292L28.5602 17.8738L28.4876 17.8193L28.4141 17.7653L28.34 17.712L28.266 17.6599L28.191 17.6082L28.1161 17.5577L28.0405 17.5077L27.9644 17.4585L27.8878 17.4101L27.8111 17.3627L27.7336 17.3159L27.656 17.2701L27.5777 17.2249L27.4995 17.1808L27.4206 17.1374L27.3413 17.0947L27.2617 17.0529L27.1819 17.0121L27.1016 16.9719L27.021 16.9326L26.9402 16.8942L26.8592 16.8567L26.7773 16.8198L26.6958 16.784L26.6138 16.749L26.5313 16.7147L26.4487 16.6814L26.3661 16.649L26.283 16.6174L26.1995 16.5865L26.1161 16.5567L26.0322 16.5276L25.9482 16.4994L25.8642 16.4721L25.7799 16.4457L25.6955 16.4201L25.6105 16.3953L25.5257 16.3715L25.4407 16.3485L25.3556 16.3264L25.2703 16.3051L25.1847 16.2847L25.0992 16.2652L25.0138 16.2466L24.928 16.2288L24.8419 16.2118L24.7564 16.1959L24.6702 16.1807L24.5843 16.1664L24.4979 16.1529L24.4121 16.1404L24.3255 16.1286L24.2396 16.1179L24.1534 16.1079L24.0671 16.0988L23.981 16.0906L23.8946 16.0832L23.8087 16.0767L23.7222 16.0711L23.6362 16.0663L23.5503 16.0624L23.4639 16.0593L23.3782 16.0571L23.2923 16.0558L23.2066 16.0553L23.1479 16.0555L23.1924 19.8309L23.2189 19.831L23.2682 19.8317L23.3175 19.8329L23.367 19.8345L23.4165 19.8368L23.4661 19.8395L23.5157 19.8427L23.5653 19.8465L23.615 19.8508L23.6648 19.8556L23.7146 19.8609L23.7644 19.8667L23.8142 19.8731L23.864 19.88L23.9139 19.8874L23.9638 19.8954L24.0137 19.9039L24.0634 19.9129L24.1133 19.9225L24.1631 19.9325L24.2129 19.9432L24.2626 19.9543L24.3124 19.966L24.362 19.9782L24.4117 19.9909L24.4613 20.0042L24.5107 20.018L24.5602 20.0323L24.6096 20.0472L24.6589 20.0626L24.7081 20.0786L24.7573 20.0951L24.8062 20.1121L24.8552 20.1296L24.904 20.1477L24.9527 20.1663L25.0013 20.1854L25.0498 20.2051L25.0981 20.2253L25.1462 20.246L25.1943 20.2673L25.2422 20.2891L25.29 20.3114L25.3376 20.3343L25.385 20.3576L25.4323 20.3815L25.4793 20.406L25.5262 20.4309L25.5729 20.4564L25.6194 20.4824L25.6657 20.5089L25.7118 20.5359L25.7576 20.5634L25.8033 20.5915L25.8487 20.6201L25.8939 20.6492L25.9388 20.6787L25.9835 20.7088L26.0281 20.7395L26.0723 20.7706L26.1162 20.8022L26.1599 20.8343L26.2033 20.8669L26.2464 20.9L26.2893 20.9336L26.3319 20.9677L26.3741 21.0023L26.4161 21.0373L26.4578 21.0729L26.4991 21.1089L26.5402 21.1454L26.5809 21.1824L26.6212 21.2199L26.6613 21.2578L26.7009 21.2962L26.7404 21.3351L26.7793 21.3744L26.818 21.4142L26.8563 21.4544L26.8942 21.4951L26.9317 21.5363L26.9689 21.5779L27.0057 21.6199L27.0421 21.6624L27.0781 21.7053L27.1138 21.7486L27.1489 21.7924L27.1837 21.8366L27.2181 21.8812L27.2521 21.9263L27.2856 21.9717L27.3187 22.0176L27.3513 22.0638L27.3836 22.1105L27.4154 22.1576L27.4467 22.2051L27.4776 22.2529L27.5081 22.3012L27.538 22.3498L27.5675 22.3988L27.5965 22.4482L27.6251 22.4979L27.6532 22.548L27.6807 22.5985L27.7078 22.6493L27.7344 22.7005L27.7605 22.752L27.7861 22.8038L27.8112 22.856L27.8357 22.9086L27.8597 22.9614L27.8833 23.0146L27.9063 23.0681L27.9288 23.1219L27.9508 23.176L27.9721 23.2304L27.993 23.2851L28.0133 23.3401L28.0331 23.3954L28.0523 23.451L28.071 23.5068L28.0891 23.5629L28.1065 23.6193L28.1235 23.6759L28.1399 23.7328L28.1557 23.79L28.171 23.8473L28.1857 23.9049L28.1997 23.9628L28.2133 24.0209L28.2262 24.0791L28.2385 24.1377L28.2502 24.1964L28.2612 24.2552L28.2718 24.3144L28.2817 24.3737L28.2911 24.4331L28.2997 24.4928L28.3077 24.5526L28.3152 24.6126L28.3221 24.6728L28.3283 24.7331L28.3339 24.7935L28.3388 24.8541L28.3432 24.9149L28.3469 24.9757L28.35 25.0367L28.3524 25.0978L28.3542 25.159L28.3553 25.2203L28.3559 25.2817L28.3557 25.3431L28.355 25.4047L28.3537 25.4664L28.3516 25.5281L28.3489 25.5899L28.3455 25.6517L28.3415 25.7136L28.3369 25.7755L28.3315 25.8375L28.3255 25.8995L28.319 25.9615L28.3116 26.0235L28.3037 26.0856L28.2951 26.1477L28.2859 26.2097L28.276 26.2717L28.2653 26.3337L28.2541 26.3957L28.2422 26.4577L28.2297 26.5196L28.2163 26.5815L28.2024 26.6433L28.1879 26.7051L28.1726 26.7668L28.1567 26.8285L28.1402 26.89L28.1229 26.9515L28.1051 27.0128L28.0865 27.0741L28.0673 27.1353L28.0474 27.1963L28.0269 27.2573L28.0057 27.3181L27.9837 27.3787L27.9612 27.4393L27.938 27.4996L27.9142 27.5599L27.8896 27.6199L27.8645 27.6798L27.8387 27.7395L27.8121 27.7991L27.785 27.8584L27.7572 27.9175L27.7287 27.9765L27.6997 28.0352L27.6699 28.0937L27.6395 28.152L27.6084 28.21L27.5767 28.2678L27.5444 28.3254L27.5114 28.3827L27.4777 28.4398L27.4435 28.4965L27.4086 28.5531L27.3731 28.6093L27.3369 28.6652L27.3 28.7209L27.2627 28.7762L27.2246 28.8313L27.186 28.886L27.1466 28.9404L27.1068 28.9945L27.0663 29.0482L27.0251 29.1016L26.9834 29.1547L26.9411 29.2074L26.8981 29.2597L26.8546 29.3117L26.8105 29.3633L26.7657 29.4145L26.7204 29.4653L26.6745 29.5158L26.628 29.5658L26.581 29.6154L26.5333 29.6647L26.4851 29.7135L26.4363 29.7618L26.387 29.8098L26.3371 29.8573L26.2866 29.9043L26.2356 29.9509L26.184 29.9971L26.132 30.0428L26.0793 30.088L26.0262 30.1327L25.9724 30.177L25.9182 30.2208L25.8634 30.264L25.8082 30.3068L25.7524 30.3491L25.6961 30.3909L25.6394 30.4321L25.582 30.4728L25.5243 30.5131L25.466 30.5527L25.4073 30.5919L25.348 30.6304L25.2883 30.6685L25.2281 30.706L25.1675 30.7429L25.1064 30.7792L25.0449 30.815L24.9829 30.8502L24.9204 30.8848L24.8576 30.9189L24.7943 30.9523L24.7306 30.9852L24.6664 31.0174L24.602 31.0491L24.537 31.0801L24.4716 31.1105L24.4059 31.1403L24.3397 31.1694L24.2733 31.198L24.2064 31.2259L24.1391 31.2531L24.0715 31.2797L24.0035 31.3057L23.9352 31.331L23.8665 31.3557L23.7975 31.3797L23.7282 31.403L23.6585 31.4257L23.5886 31.4476L23.5183 31.4689L23.4477 31.4896L23.3769 31.5095L23.3057 31.5288L23.2343 31.5473L23.1625 31.5652L23.0905 31.5823L23.0183 31.5988L22.9457 31.6145L22.873 31.6296L22.8 31.6439L22.7268 31.6575L22.6533 31.6704L22.5796 31.6826L22.5058 31.694L22.4317 31.7047L22.3574 31.7147L22.2829 31.724L22.2083 31.7325L22.1335 31.7402L22.0585 31.7473L21.9834 31.7535L21.908 31.7591L21.8325 31.7638L21.757 31.7679L21.6813 31.7712L21.6055 31.7737L21.5295 31.7754L21.4535 31.7764L21.3774 31.7767L21.3012 31.7762L21.2248 31.7749L21.1484 31.7728L21.072 31.77L20.9955 31.7664L20.9189 31.762L20.8423 31.7569L20.7657 31.751L20.6891 31.7443L20.6124 31.7368L20.5358 31.7286L20.4591 31.7195L20.3825 31.7097L20.3058 31.6991L20.2292 31.6878L20.1526 31.6756L20.0761 31.6627L19.9996 31.649L19.9231 31.6345L19.8467 31.6193L19.7704 31.6032L19.6942 31.5864L19.6181 31.5687L19.5421 31.5503L19.4661 31.5312L19.3903 31.5112L19.3147 31.4904L19.2391 31.4689L19.1637 31.4466L19.0884 31.4235L19.0133 31.3996L18.9384 31.375L18.8636 31.3496L18.7891 31.3234L18.7146 31.2964L18.6404 31.2686L18.5665 31.2401L18.4927 31.2108L18.4191 31.1807L18.3458 31.1499L18.2728 31.1183L18.2 31.0859L18.1273 31.0528L18.0551 31.0189L17.983 30.9842L17.9112 30.9488L17.8398 30.9126L17.7686 30.8757L17.6978 30.838L17.6273 30.7996L17.557 30.7604L17.4872 30.7205L17.4175 30.6798L17.3484 30.6384L17.2795 30.5963L17.211 30.5534L17.1429 30.5098L17.0751 30.4655L17.0078 30.4204L16.9408 30.3746L16.8743 30.3281L16.8081 30.2809L16.7424 30.233L16.6771 30.1843L16.6122 30.135L16.5478 30.085L16.4838 30.0342L16.4203 29.9828L16.3572 29.9307L16.2947 29.8779L16.2326 29.8244L16.171 29.7702L16.1098 29.7154L16.0492 29.6599L15.9891 29.6037L15.9295 29.5469L15.8705 29.4894L15.8119 29.4313L15.7539 29.3725L15.6965 29.3131L15.6396 29.253L15.5832 29.1924L15.5275 29.131L15.4724 29.0691L15.4177 29.0066L15.3638 28.9434L15.3103 28.8797L15.2574 28.8153L15.2053 28.7503L15.1537 28.6848L15.1027 28.6187L15.0524 28.552L15.0027 28.4847L14.9537 28.4169L14.9053 28.3485L14.8575 28.2795L14.8104 28.21L14.764 28.14L14.7183 28.0694L14.6733 27.9983L14.6289 27.9267L14.5853 27.8546L14.5423 27.7819L14.5 27.7088L14.4585 27.6351L14.4177 27.561L14.3775 27.4864L14.3382 27.4113L14.2995 27.3357L14.2616 27.2597L14.2244 27.1833L14.188 27.1063L14.1524 27.029L14.1175 26.9512L14.0834 26.873L14.05 26.7943L14.0174 26.7153L13.9856 26.6358L13.9546 26.556L13.9244 26.4757L13.8951 26.3951L13.8665 26.3141L13.8387 26.2328L13.8117 26.1511L13.7855 26.069L13.7602 25.9866L13.7357 25.9039L13.7119 25.8208L13.6891 25.7374L13.6671 25.6537L13.6458 25.5697L13.6256 25.4854L13.6061 25.4009L13.5874 25.316L13.5696 25.2309L13.5527 25.1455L13.5366 25.0599L13.5214 24.974L13.5071 24.8879L13.4937 24.8016L13.4811 24.715L13.4694 24.6283L13.4586 24.5413L13.4487 24.4542L13.4397 24.3668L13.4315 24.2793L13.4243 24.1916L13.4179 24.1038L13.4124 24.0158L13.4079 23.9277L13.4042 23.8395L13.4014 23.7511L13.3996 23.6626L13.3987 23.5741L13.3986 23.4854L13.3995 23.3966L13.4014 23.3078L13.4041 23.2189L13.4078 23.1299L13.4123 23.0409L13.4178 22.9519L13.4242 22.8628L13.4315 22.7737L13.4398 22.6846L13.4489 22.5955L13.459 22.5064L13.4701 22.4173L13.482 22.3283L13.4949 22.2393L13.5087 22.1503L13.5235 22.0614L13.5391 21.9725L13.5557 21.8837L13.5733 21.795L13.5918 21.7064L13.6112 21.6179L13.6314 21.5295L13.6527 21.4413L13.6749 21.3531L13.698 21.2651L13.7221 21.1773L13.747 21.0896L13.7728 21.002L13.7996 20.9147L13.8274 20.8275L13.856 20.7405L13.8856 20.6538L13.9161 20.5672L13.9475 20.4809L13.9798 20.3948L14.0131 20.309L14.0473 20.2234L14.0823 20.138L14.1183 20.053L14.1552 19.9682L14.193 19.8837L14.2317 19.7995L14.2713 19.7156L14.3117 19.6321L14.3532 19.5488L14.3954 19.4659L14.4386 19.3834L14.4826 19.3012L14.5277 19.2194L14.5735 19.1379L14.6202 19.0568L14.6677 18.9762L14.7162 18.8959L14.7655 18.816L14.8158 18.7366L14.8669 18.6575L14.9187 18.5789L14.9715 18.5008L15.0251 18.4231L15.0796 18.3459L15.1349 18.2692L15.1911 18.1929L15.248 18.1171L15.3058 18.0419L15.3645 17.9671L15.424 17.8929L15.4843 17.8191L15.5453 17.746L15.6072 17.6733L15.6699 17.6012L15.7334 17.5297L15.7977 17.4587L15.8627 17.3884L15.9286 17.3186L15.9953 17.2494L16.0627 17.1808L16.1308 17.1128L16.1998 17.0454L16.2694 16.9787L16.3399 16.9126L16.411 16.8471L16.4828 16.7823L16.5555 16.7181L16.6289 16.6547L16.7029 16.5918L16.7777 16.5297L16.8531 16.4683L16.9294 16.4075L17.0062 16.3475L17.0838 16.2882L17.162 16.2296L17.2408 16.1717L17.3204 16.1146L17.4006 16.0582L17.4815 16.0025L17.5631 15.9476L17.6451 15.8935L17.7279 15.8402L17.8114 15.7876L17.8953 15.7358L17.98 15.6848L18.0651 15.6346L18.151 15.5852L18.2373 15.5366L18.3243 15.4888L18.4118 15.4419L18.4998 15.3958L18.5885 15.3505L18.6776 15.3061L18.7673 15.2625L18.8575 15.2198L18.9482 15.1779L19.0394 15.1369L19.1312 15.0968L19.2235 15.0575L19.3162 15.0191L19.4093 14.9817L19.503 14.9451L19.597 14.9094L19.6915 14.8746L19.7865 14.8408L19.882 14.8078L19.9778 14.7758L20.0741 14.7447L20.1706 14.7145L20.2677 14.6853L20.3651 14.657L20.4629 14.6297L20.561 14.6033L20.6595 14.5778L20.7584 14.5533L20.8575 14.5298L20.9571 14.5073L21.0568 14.4857L21.157 14.4651L21.2573 14.4455L21.3077 14.4361ZM22.5416 21.6964L21.3964 21.9718L21.3292 16.2623L21.2752 16.2745L21.1939 16.2938L21.1128 16.3139L21.0322 16.3347L20.9517 16.3563L20.8717 16.3787L20.7917 16.402L20.7126 16.4258L20.6332 16.4506L20.5548 16.4759L20.4762 16.5022L20.3981 16.5292L20.3204 16.5569L20.243 16.5853L20.1663 16.6144L20.0897 16.6444L20.0135 16.675L19.9377 16.7063L19.8621 16.7385L19.7875 16.7711L19.7129 16.8047L19.639 16.8388L19.5652 16.8738L19.492 16.9093L19.4191 16.9456L19.347 16.9825L19.2751 17.0201L19.2038 17.0584L19.1329 17.0973L19.0625 17.1369L18.9925 17.1772L18.9234 17.218L18.8541 17.2597L18.7858 17.3018L18.718 17.3446L18.6507 17.388L18.5837 17.4321L18.5174 17.4768L18.4516 17.5221L18.3864 17.5679L18.3218 17.6143L18.2575 17.6614L18.1939 17.7091L18.1309 17.7573L18.0684 17.8061L18.0066 17.8553L17.9454 17.9052L17.8846 17.9557L17.8244 18.0068L17.765 18.0582L17.706 18.1103L17.6477 18.1628L17.59 18.2159L17.5329 18.2696L17.4764 18.3237L17.4206 18.3782L17.3652 18.4334L17.3107 18.4889L17.2567 18.545L17.2035 18.6014L17.1506 18.6586L17.0987 18.7159L17.0473 18.7738L16.9965 18.8322L16.9465 18.8908L16.8971 18.9501L16.8485 19.0095L16.8003 19.0697L16.753 19.13L16.7062 19.1909L16.6602 19.2522L16.6149 19.3137L16.5702 19.3756L16.5263 19.4379L16.4829 19.5007L16.4403 19.5637L16.3985 19.6272L16.3573 19.6908L16.3169 19.7548L16.2771 19.8193L16.2381 19.8839L16.1997 19.9491L16.1621 20.0142L16.1251 20.0799L16.0889 20.1458L16.0535 20.2119L16.0187 20.2783L15.9848 20.345L15.9514 20.4121L15.9189 20.4791L15.887 20.5467L15.8559 20.6143L15.8256 20.6822L15.7959 20.7503L15.767 20.8187L15.7388 20.8871L15.7114 20.9559L15.6848 21.0248L15.6588 21.0939L15.6336 21.163L15.6092 21.2325L15.5854 21.3021L15.5625 21.3718L15.5402 21.4416L15.5188 21.5117L15.498 21.5818L15.4781 21.6519L15.4588 21.7223L15.4403 21.7928L15.4226 21.8633L15.4056 21.9339L15.3893 22.0046L15.3738 22.0754L15.3591 22.1463L15.3451 22.2171L15.3318 22.288L15.3192 22.3591L15.3075 22.43L15.2965 22.501L15.2862 22.5722L15.2766 22.6431L15.2679 22.7143L15.2598 22.7852L15.2525 22.8563L15.2459 22.9275L15.2401 22.9984L15.235 23.0694L15.2306 23.1404L15.2269 23.2112L15.2241 23.282L15.2219 23.3527L15.2205 23.4235L15.2197 23.4941L15.2198 23.5646L15.2205 23.635L15.222 23.7054L15.2242 23.7756L15.227 23.8457L15.2306 23.9157L15.235 23.9855L15.2401 24.0552L15.2458 24.1248L15.2523 24.1942L15.2594 24.2636L15.2673 24.3325L15.2758 24.4016L15.2851 24.4702L15.2951 24.5389L15.3057 24.6072L15.3171 24.6754L15.3291 24.7435L15.3418 24.8112L15.3552 24.8788L15.3692 24.946L15.384 25.0132L15.3994 25.08L15.4155 25.1467L15.4322 25.2129L15.4497 25.2792L15.4677 25.3449L15.4864 25.4106L15.5057 25.4758L15.5257 25.5409L15.5464 25.6056L15.5676 25.6699L15.5896 25.7342L15.6122 25.798L15.6353 25.8614L15.6591 25.9247L15.6835 25.9876L15.7085 26.0501L15.7342 26.1123L15.7603 26.1741L15.7872 26.2357L15.8146 26.2969L15.8427 26.3577L15.8713 26.4181L15.9004 26.4781L15.9303 26.538L15.9605 26.5972L15.9914 26.6561L16.0229 26.7147L16.055 26.7728L16.0876 26.8306L16.1207 26.888L16.1544 26.9448L16.1886 27.0014L16.2233 27.0575L16.2586 27.1131L16.2945 27.1684L16.3307 27.2232L16.3676 27.2777L16.4048 27.3314L16.4427 27.385L16.481 27.438L16.5198 27.4905L16.5592 27.5427L16.599 27.5943L16.6392 27.6454L16.68 27.6961L16.7212 27.7464L16.7627 27.796L16.805 27.8453L16.8475 27.8941L16.8904 27.9423L16.934 27.9901L16.9777 28.0372L17.0221 28.0841L17.0668 28.1303L17.1118 28.176L17.1574 28.2212L17.2033 28.2659L17.2496 28.3101L17.2963 28.3537L17.3434 28.3968L17.3909 28.4394L17.4387 28.4814L17.4869 28.5229L17.5353 28.5639L17.5842 28.6043L17.6335 28.6442L17.6832 28.6835L17.733 28.7222L17.7832 28.7604L17.8338 28.7981L17.8847 28.8352L17.9359 28.8717L17.9873 28.9077L18.0391 28.9431L18.0912 28.9779L18.1434 29.0121L18.196 29.0458L18.249 29.079L18.3021 29.1114L18.3555 29.1434L18.4092 29.1748L18.463 29.2055L18.517 29.2357L18.5716 29.2654L18.6261 29.2944L18.6809 29.3228L18.7358 29.3506L18.7911 29.3779L18.8464 29.4045L18.9021 29.4306L18.9579 29.4561L19.0137 29.4809L19.0699 29.5052L19.1263 29.5289L19.1826 29.552L19.2393 29.5745L19.296 29.5963L19.353 29.6176L19.4099 29.6383L19.4672 29.6584L19.5243 29.6778L19.5816 29.6967L19.6392 29.715L19.6968 29.7327L19.7544 29.7497L19.8122 29.7662L19.8701 29.782L19.928 29.7973L19.9859 29.8119L20.044 29.826L20.102 29.8394L20.1601 29.8522L20.2183 29.8645L20.2766 29.8761L20.3348 29.8872L20.393 29.8976L20.4513 29.9075L20.5097 29.9167L20.568 29.9254L20.6261 29.9334L20.6844 29.9408L20.7427 29.9477L20.801 29.954L20.8592 29.9596L20.9174 29.9647L20.9756 29.9692L21.0336 29.9731L21.0917 29.9764L21.1496 29.9791L21.2075 29.9813L21.2655 29.9828L21.3231 29.9838L21.3807 29.9842L21.4384 29.984L21.4958 29.9833L21.5533 29.9819L21.6107 29.98L21.6677 29.9776L21.7247 29.9745L21.7819 29.9709L21.8385 29.9667L21.8952 29.962L21.9517 29.9567L22.0081 29.9509L22.0643 29.9444L22.1203 29.9375L22.1763 29.93L22.2319 29.9219L22.2874 29.9133L22.3429 29.9042L22.3981 29.8945L22.453 29.8843L22.5079 29.8735L22.5625 29.8622L22.6168 29.8504L22.6708 29.8381L22.7249 29.8252L22.7786 29.8118L22.8321 29.798L22.8853 29.7836L22.9383 29.7687L22.9912 29.7532L23.0437 29.7373L23.0958 29.7209L23.148 29.7039L23.1997 29.6865L23.2512 29.6687L23.3023 29.6503L23.3532 29.6314L23.404 29.612L23.4544 29.5922L23.5043 29.5719L23.5541 29.5512L23.6036 29.5299L23.6529 29.5082L23.7016 29.4861L23.7503 29.4635L23.7984 29.4405L23.8462 29.417L23.8939 29.3931L23.941 29.3688L23.988 29.344L24.0346 29.3187L24.0808 29.2931L24.1266 29.2671L24.1722 29.2406L24.2174 29.2137L24.2621 29.1864L24.3066 29.1587L24.3507 29.1306L24.3944 29.1022L24.4378 29.0733L24.4807 29.0441L24.5234 29.0144L24.5656 28.9844L24.6073 28.9541L24.6488 28.9233L24.6898 28.8922L24.7304 28.8607L24.7707 28.8289L24.8106 28.7967L24.85 28.7643L24.889 28.7315L24.9276 28.6983L24.9657 28.6648L25.0036 28.631L25.0409 28.5968L25.0779 28.5624L25.1143 28.5277L25.1504 28.4926L25.1861 28.4572L25.2214 28.4216L25.2561 28.3857L25.2904 28.3494L25.3243 28.313L25.3579 28.2761L25.3908 28.2392L25.4235 28.2018L25.4555 28.1642L25.4871 28.1265L25.5185 28.0883L25.5491 28.0501L25.5795 28.0115L25.6095 27.9728L25.6388 27.9338L25.6678 27.8945L25.6962 27.8552L25.7242 27.8154L25.7518 27.7755L25.7789 27.7356L25.8055 27.6952L25.8317 27.6548L25.8573 27.6142L25.8825 27.5734L25.9072 27.5324L25.9315 27.4912L25.9553 27.4499L25.9786 27.4084L26.0014 27.3668L26.0238 27.3249L26.0456 27.2831L26.067 27.241L26.088 27.1988L26.1084 27.1565L26.1284 27.1139L26.1479 27.0714L26.1669 27.0287L26.1853 26.986L26.2034 26.943L26.2209 26.9001L26.2381 26.8568L26.2546 26.8139L26.2708 26.7703L26.2863 26.7274L26.3015 26.6838L26.3162 26.6402L26.3303 26.5968L26.344 26.5532L26.3572 26.5097L26.3701 26.4657L26.3822 26.4223L26.3941 26.3782L26.4053 26.3348L26.4162 26.2908L26.4265 26.2468L26.4363 26.2031L26.4457 26.1595L26.4546 26.1153L26.463 26.0716L26.471 26.0275L26.4785 25.9839L26.4855 25.9401L26.4921 25.8962L26.4981 25.8523L26.5037 25.8085L26.5089 25.7649L26.5135 25.7214L26.5177 25.6775L26.5215 25.634L26.5248 25.5904L26.5275 25.5469L26.5299 25.5035L26.5318 25.4602L26.5332 25.4171L26.5342 25.3737L26.5348 25.3304L26.5349 25.2875L26.5345 25.2446L26.5337 25.2018L26.5324 25.1591L26.5307 25.1162L26.5285 25.0741L26.5259 25.0311L26.523 24.9892L26.5195 24.9471L26.5156 24.9047L26.5112 24.8628L26.5066 24.8213L26.5013 24.7792L26.4957 24.738L26.4897 24.6965L26.4833 24.6556L26.4764 24.6143L26.4691 24.5733L26.4615 24.5327L26.4534 24.4922L26.4449 24.4516L26.4359 24.4115L26.4267 24.3714L26.4169 24.3316L26.4069 24.2921L26.3963 24.2523L26.3856 24.2133L26.3742 24.1739L26.3626 24.1352L26.3506 24.0965L26.3382 24.0581L26.3253 24.0198L26.3121 23.9816L26.2987 23.944L26.2848 23.9065L26.2705 23.8689L26.2559 23.8319L26.2409 23.7947L26.2257 23.7584L26.2099 23.7217L26.194 23.6856L26.1776 23.6498L26.1609 23.614L26.1439 23.5786L26.1265 23.5434L26.1088 23.5084L26.0909 23.4738L26.0725 23.4394L26.0539 23.4053L26.0349 23.3714L26.0155 23.3378L25.9961 23.3045L25.9762 23.2715L25.9559 23.2386L25.9355 23.2063L25.9147 23.1741L25.8936 23.1422L25.8723 23.1105L25.8507 23.0793L25.8287 23.0482L25.8066 23.0175L25.7841 22.9871L25.7614 22.957L25.7385 22.9272L25.7152 22.8976L25.6917 22.8685L25.668 22.8396L25.644 22.811L25.6198 22.7827L25.5954 22.7548L25.5707 22.7272L25.5458 22.6999L25.5206 22.6728L25.4953 22.6462L25.4697 22.6199L25.4438 22.5938L25.4179 22.5682L25.3917 22.5429L25.3653 22.5179L25.3385 22.4931L25.3119 22.4688L25.2849 22.4447L25.2577 22.4211L25.2303 22.3977L25.2028 22.3748L25.1751 22.3521L25.1472 22.3298L25.1192 22.3078L25.091 22.2861L25.0627 22.2649L25.0342 22.2439L25.0055 22.2233L24.9767 22.2031L24.9478 22.1831L24.9188 22.1636L24.8896 22.1444L24.8602 22.1255L24.8309 22.107L24.8012 22.0888L24.7716 22.071L24.7419 22.0536L24.7119 22.0365L24.6818 22.0197L24.6518 22.0033L24.6217 21.9872L24.5914 21.9715L24.5612 21.9562L24.5306 21.9411L24.5002 21.9265L24.4696 21.9123L24.439 21.8983L24.4083 21.8847L24.3774 21.8714L24.3468 21.8586L24.3158 21.8461L24.2848 21.8339L24.2539 21.8221L24.2229 21.8106L24.1919 21.7995L24.1608 21.7887L24.1297 21.7782L24.0987 21.7682L24.0675 21.7584L24.0363 21.749L24.0053 21.74L23.9739 21.7313L23.9429 21.723L23.9117 21.715L23.8805 21.7073L23.8493 21.7L23.8182 21.693L23.787 21.6864L23.7559 21.6801L23.7249 21.6741L23.6939 21.6685L23.6627 21.6632L23.6319 21.6583L23.6007 21.6537L23.57 21.6494L23.539 21.6454L23.5082 21.6418L23.4776 21.6385L23.4468 21.6356L23.4162 21.6329L23.3856 21.6306L23.3551 21.6286L23.3246 21.6269L23.2942 21.6256L23.2641 21.6246L23.2338 21.6238L23.2037 21.6234L23.1736 21.6233L23.1437 21.6236L23.1138 21.6241L23.0841 21.6249L23.0543 21.6261L23.0249 21.6275L22.9953 21.6293L22.9661 21.6313L22.9369 21.6336L22.9078 21.6363L22.8789 21.6392L22.8499 21.6424L22.8212 21.6459L22.7926 21.6497L22.7642 21.6538L22.7358 21.6582L22.7077 21.6628L22.6796 21.6677L22.6518 21.6729L22.6239 21.6784L22.5964 21.6841L22.5689 21.6901L22.5416 21.6964Z" fill="#1F1F1F"/>
</svg>
