<svg width="155" height="45" viewBox="0 0 155 45" fill="none" xmlns="http://www.w3.org/2000/svg">
<path d="M36.87 23.0702H39.87V35.2002H36.87V23.0702ZM41.06 30.6202C41.06 27.6202 42.9 25.8302 45.74 25.8302C48.58 25.8302 50.42 27.6202 50.42 30.6202C50.42 33.6202 48.62 35.4202 45.74 35.4202C42.86 35.4202 41.06 33.6702 41.06 30.6202ZM47.41 30.6202C47.41 28.9702 46.76 28.0002 45.74 28.0002C44.72 28.0002 44.08 29.0002 44.08 30.6202C44.08 32.2402 44.71 33.2202 45.74 33.2202C46.77 33.2202 47.41 32.3002 47.41 30.6302V30.6202ZM51.55 35.7902H54.43C54.5671 36.0947 54.7988 36.3468 55.0907 36.509C55.3826 36.6711 55.7191 36.7347 56.05 36.6902C57.19 36.6902 57.79 36.0702 57.79 35.1702V33.4902H57.73C57.491 34.0051 57.1031 34.4365 56.6165 34.7289C56.1299 35.0212 55.5668 35.161 55 35.1302C52.81 35.1302 51.36 33.4602 51.36 30.5902C51.36 27.7202 52.74 25.9102 55.04 25.9102C55.6246 25.8873 56.2022 26.0436 56.6955 26.3581C57.1888 26.6727 57.5742 27.1305 57.8 27.6702V26.0002H60.8V35.1002C60.8 37.2902 58.87 38.6502 56.02 38.6502C53.37 38.6502 51.72 37.4602 51.55 35.8002V35.7902ZM57.8 30.6102C57.8 29.1502 57.13 28.2302 56.07 28.2302C55.01 28.2302 54.36 29.1402 54.36 30.6102C54.36 32.0802 55 32.9102 56.07 32.9102C57.14 32.9102 57.8 32.1002 57.8 30.6202V30.6102ZM61.93 30.6102C61.93 27.6102 63.77 25.8202 66.61 25.8202C69.45 25.8202 71.3 27.6102 71.3 30.6102C71.3 33.6102 69.5 35.4102 66.61 35.4102C63.72 35.4102 61.93 33.6702 61.93 30.6202V30.6102ZM68.28 30.6102C68.28 28.9602 67.63 27.9902 66.61 27.9902C65.59 27.9902 65 29.0002 65 30.6302C65 32.2602 65.63 33.2302 66.65 33.2302C67.67 33.2302 68.28 32.3002 68.28 30.6302V30.6102ZM72.44 23.8202C72.4321 23.5173 72.5144 23.2189 72.6763 22.9628C72.8383 22.7067 73.0726 22.5045 73.3496 22.3817C73.6266 22.2589 73.9338 22.2212 74.2323 22.2732C74.5308 22.3253 74.8071 22.4648 75.0262 22.6741C75.2454 22.8834 75.3974 23.153 75.4631 23.4488C75.5288 23.7446 75.5052 24.0532 75.3952 24.3356C75.2853 24.6179 75.094 24.8613 74.8456 25.0348C74.5973 25.2083 74.3029 25.3042 74 25.3102C73.7992 25.324 73.5977 25.2961 73.4082 25.2283C73.2186 25.1605 73.0452 25.0543 72.8987 24.9162C72.7522 24.7782 72.6358 24.6113 72.5569 24.4261C72.4779 24.241 72.4381 24.0415 72.44 23.8402V23.8202ZM72.44 26.0202H75.44V35.2002H72.44V26.0202ZM86.33 30.6102C86.33 33.6102 85 35.3202 82.72 35.3202C82.1354 35.3577 81.5533 35.2148 81.0525 34.9108C80.5517 34.6067 80.1564 34.1562 79.92 33.6202H79.86V38.1402H76.86V26.0002H79.86V27.6402H79.92C80.1454 27.0953 80.5332 26.6331 81.0306 26.3164C81.528 25.9997 82.1109 25.8439 82.7 25.8702C85 25.9102 86.37 27.6302 86.37 30.6302L86.33 30.6102ZM83.33 30.6102C83.33 29.1502 82.66 28.2202 81.61 28.2202C80.56 28.2202 79.89 29.1602 79.88 30.6102C79.87 32.0602 80.56 32.9902 81.61 32.9902C82.66 32.9902 83.33 32.0802 83.33 30.6302V30.6102ZM91.48 25.8102C93.97 25.8102 95.48 26.9902 95.55 28.8802H92.82C92.82 28.2302 92.28 27.8202 91.45 27.8202C90.62 27.8202 90.25 28.1402 90.25 28.6102C90.25 29.0802 90.58 29.2302 91.25 29.3702L93.17 29.7602C95 30.1502 95.78 30.8902 95.78 32.2802C95.78 34.1802 94.05 35.4002 91.5 35.4002C88.95 35.4002 87.28 34.1802 87.15 32.3102H90.04C90.13 32.9902 90.67 33.3902 91.55 33.3902C92.43 33.3902 92.83 33.1002 92.83 32.6202C92.83 32.1402 92.55 32.0402 91.83 31.8902L90.1 31.5202C88.31 31.1502 87.37 30.2002 87.37 28.8002C87.39 27.0002 89 25.8302 91.48 25.8302V25.8102ZM105.79 35.1802H102.9V33.4702H102.84C102.681 34.0443 102.331 34.5468 101.847 34.8943C101.363 35.2417 100.775 35.4132 100.18 35.3802C99.7242 35.4061 99.2682 35.3339 98.8427 35.1684C98.4172 35.0029 98.0322 34.7481 97.7137 34.421C97.3952 34.094 97.1505 33.7023 96.9964 33.2726C96.8422 32.8429 96.7821 32.3851 96.82 31.9302V26.0002H99.82V31.2402C99.82 32.3302 100.38 32.9102 101.31 32.9102C101.528 32.9106 101.744 32.8645 101.943 32.7748C102.141 32.6851 102.319 32.5539 102.463 32.3901C102.606 32.2262 102.714 32.0335 102.777 31.8249C102.84 31.6162 102.859 31.3964 102.83 31.1802V26.0002H105.83L105.79 35.1802ZM107.24 26.0002H110.14V27.7702H110.2C110.359 27.2037 110.702 26.7059 111.174 26.3549C111.646 26.0039 112.222 25.8193 112.81 25.8302C113.409 25.7823 114.003 25.9614 114.476 26.332C114.948 26.7026 115.264 27.2374 115.36 27.8302H115.42C115.601 27.2311 115.977 26.7095 116.488 26.3474C116.998 25.9853 117.615 25.8033 118.24 25.8302C118.648 25.8165 119.054 25.8888 119.432 26.0424C119.811 26.1959 120.152 26.4274 120.435 26.7216C120.718 27.0159 120.936 27.3664 121.075 27.7503C121.213 28.1342 121.27 28.5431 121.24 28.9502V35.2002H118.24V29.7502C118.24 28.7502 117.79 28.2902 116.95 28.2902C116.763 28.2886 116.577 28.3272 116.406 28.4034C116.235 28.4796 116.082 28.5916 115.958 28.7319C115.834 28.8722 115.741 29.0374 115.686 29.2165C115.631 29.3957 115.616 29.5845 115.64 29.7702V35.2002H112.79V29.7102C112.79 28.7902 112.34 28.2902 111.52 28.2902C111.331 28.2903 111.143 28.3305 110.971 28.4082C110.798 28.486 110.643 28.5995 110.518 28.7412C110.392 28.8829 110.298 29.0497 110.241 29.2306C110.185 29.4114 110.167 29.6021 110.19 29.7902V35.2002H107.19L107.24 26.0002Z" fill="#1F1F1F"/>
<path d="M28.48 23.6199C27.9711 22.4563 27.2976 21.3718 26.48 20.3999C25.2715 18.9202 23.7633 17.7133 22.0547 16.8585C20.3461 16.0037 18.4758 15.5205 16.567 15.4406C14.6582 15.3606 12.7541 15.6859 10.98 16.3949C9.20594 17.1039 7.60214 18.1805 6.27417 19.554C4.94619 20.9275 3.92414 22.5666 3.27529 24.3636C2.62644 26.1605 2.36549 28.0745 2.50963 29.9795C2.65378 31.8846 3.19973 33.7375 4.11157 35.4163C5.02341 37.0952 6.28046 38.5619 7.79998 39.7199C8.77498 40.4778 9.85233 41.0939 11 41.5499C12.609 42.2093 14.3311 42.5489 16.07 42.5499C19.6594 42.542 23.0992 41.1112 25.6355 38.5712C28.1717 36.0312 29.5974 32.5893 29.6 28.9999C29.6026 27.1484 29.2213 25.3165 28.48 23.6199ZM16.06 18.1899C17.6216 18.1897 19.1643 18.531 20.58 19.1899C20.2348 19.3391 19.8718 19.4432 19.5 19.4999C18.2766 19.677 17.1433 20.245 16.2692 21.1191C15.3951 21.9932 14.8271 23.1265 14.65 24.3499C14.5723 25.036 14.2602 25.6743 13.7665 26.1571C13.2728 26.6399 12.6277 26.9375 11.94 26.9999C10.7166 27.177 9.58324 27.745 8.70915 28.6191C7.83506 29.4932 7.26707 30.6265 7.08998 31.8499C7.03002 32.5023 6.75167 33.1154 6.29998 33.5899C5.52063 31.9432 5.17053 30.126 5.28225 28.3076C5.39397 26.4892 5.96388 24.7286 6.93895 23.1896C7.91401 21.6507 9.26255 20.3834 10.8591 19.5057C12.4556 18.6281 14.2482 18.1685 16.07 18.1699L16.06 18.1899ZM7.78998 35.9999C7.90998 35.8899 8.02998 35.7899 8.14998 35.6699C9.03963 34.8074 9.61069 33.6688 9.76998 32.4399C9.83456 31.7491 10.143 31.1039 10.64 30.6199C11.1183 30.1221 11.762 29.8162 12.45 29.7599C13.6734 29.5828 14.8067 29.0148 15.6808 28.1407C16.5549 27.2666 17.1229 26.1333 17.3 24.9099C17.3433 24.1874 17.6533 23.5067 18.17 22.9999C18.6601 22.5117 19.3099 22.217 20 22.1699C21.1239 22.0153 22.1721 21.5156 23 20.7399C23.9427 21.522 24.7413 22.4628 25.36 23.5199C25.322 23.5712 25.2784 23.6182 25.23 23.6599C24.7527 24.1621 24.1098 24.4747 23.42 24.5399C22.1953 24.7139 21.0603 25.2809 20.1856 26.1555C19.311 27.0302 18.744 28.1652 18.57 29.3899C18.4995 30.0783 18.1932 30.7212 17.703 31.2096C17.2127 31.6981 16.5687 32.002 15.88 32.0699C14.653 32.2456 13.5155 32.8125 12.6363 33.6862C11.7572 34.56 11.1833 35.694 11 36.9199C10.9462 37.4086 10.7783 37.8779 10.51 38.2899C9.48397 37.6807 8.56507 36.9071 7.78998 35.9999ZM16.06 39.8599C15.0453 39.861 14.0354 39.7196 13.06 39.4399C13.3937 38.8179 13.6106 38.14 13.7 37.4399C13.7701 36.753 14.075 36.1113 14.5632 35.6231C15.0514 35.1349 15.6931 34.83 16.38 34.7599C17.6052 34.5848 18.7408 34.0177 19.6169 33.1434C20.4929 32.2692 21.0624 31.1347 21.24 29.9099C21.3101 29.223 21.615 28.5813 22.1032 28.0931C22.5914 27.6049 23.2331 27.3 23.92 27.2299C24.842 27.11 25.7208 26.7667 26.48 26.2299C26.9016 27.8278 26.9515 29.501 26.626 31.1212C26.3005 32.7414 25.6081 34.2656 24.6021 35.5767C23.5961 36.8877 22.3032 37.951 20.8224 38.6848C19.3417 39.4186 17.7126 39.8035 16.06 39.8099V39.8599Z" fill="#1F1F1F"/>
</svg>
