<svg width="17" height="18" viewBox="0 0 17 18" fill="none" xmlns="http://www.w3.org/2000/svg">
<path d="M15.2724 0.205078H1.56811C0.726816 0.205078 0.0454102 0.922348 0.0454102 1.80792V16.2334C0.0454102 17.119 0.726816 17.8363 1.56811 17.8363H9.18158V10.6235H6.89754V8.21926H9.18158V6.92818C9.18158 4.48385 10.3129 3.41075 12.243 3.41075C13.1672 3.41075 13.656 3.48288 13.8875 3.51574V5.81501H12.5711C11.7519 5.81501 11.4656 6.27021 11.4656 7.19184V8.21926H13.8669L13.5411 10.6235H11.4656V17.8363H15.2724C16.1136 17.8363 16.7951 17.119 16.7951 16.2334V1.80792C16.7951 0.922348 16.1129 0.205078 15.2724 0.205078Z" fill="#2E2E2E"/>
</svg>
