<svg width="20" height="19" viewBox="0 0 20 19" fill="none" xmlns="http://www.w3.org/2000/svg">
<path d="M6.875 2.375C6.37772 2.375 5.90081 2.56267 5.54917 2.89672C5.19754 3.23077 5 3.68383 5 4.15625V7.125C4.33696 7.125 3.70107 7.37522 3.23223 7.82062C2.76339 8.26602 2.5 8.87011 2.5 9.5V14.8438C2.5 15.3162 2.69754 15.7692 3.04917 16.1033C3.40081 16.4373 3.87772 16.625 4.375 16.625H11.875C11.5969 16.2738 11.4047 15.8681 11.3125 15.4375H4.375C4.20924 15.4375 4.05027 15.3749 3.93306 15.2636C3.81585 15.1522 3.75 15.0012 3.75 14.8438V9.5C3.75 9.18506 3.8817 8.88301 4.11612 8.66031C4.35054 8.43761 4.66848 8.3125 5 8.3125H11.3125C11.4062 7.87313 11.6012 7.46938 11.875 7.125H6.25V4.15625C6.25 3.99878 6.31585 3.84776 6.43306 3.73641C6.55027 3.62506 6.70924 3.5625 6.875 3.5625H13.125C13.2908 3.5625 13.4497 3.62506 13.5669 3.73641C13.6842 3.84776 13.75 3.99878 13.75 4.15625V5.99688C13.9525 5.95769 14.1613 5.9375 14.375 5.9375H15V4.15625C15 3.68383 14.8025 3.23077 14.4508 2.89672C14.0992 2.56267 13.6223 2.375 13.125 2.375H6.875ZM14.375 7.125C13.8777 7.125 13.4008 7.31267 13.0492 7.64672C12.6975 7.98076 12.5 8.43383 12.5 8.90625V14.8438C12.5 15.3162 12.6975 15.7692 13.0492 16.1033C13.4008 16.4373 13.8777 16.625 14.375 16.625H15.625C16.1223 16.625 16.5992 16.4373 16.9508 16.1033C17.3025 15.7692 17.5 15.3162 17.5 14.8438V8.90625C17.5 8.43383 17.3025 7.98076 16.9508 7.64672C16.5992 7.31267 16.1223 7.125 15.625 7.125H14.375ZM13.75 8.90625C13.75 8.74878 13.8158 8.59775 13.9331 8.48641C14.0503 8.37506 14.2092 8.3125 14.375 8.3125H15.625C15.7908 8.3125 15.9497 8.37506 16.0669 8.48641C16.1842 8.59775 16.25 8.74878 16.25 8.90625V14.8438C16.25 15.0012 16.1842 15.1522 16.0669 15.2636C15.9497 15.3749 15.7908 15.4375 15.625 15.4375H14.375C14.2092 15.4375 14.0503 15.3749 13.9331 15.2636C13.8158 15.1522 13.75 15.0012 13.75 14.8438V8.90625ZM6.25 10.0938C6.25 10.2512 6.18415 10.4022 6.06694 10.5136C5.94973 10.6249 5.79076 10.6875 5.625 10.6875C5.45924 10.6875 5.30027 10.6249 5.18306 10.5136C5.06585 10.4022 5 10.2512 5 10.0938C5 9.93628 5.06585 9.78525 5.18306 9.6739C5.30027 9.56256 5.45924 9.5 5.625 9.5C5.79076 9.5 5.94973 9.56256 6.06694 9.6739C6.18415 9.78525 6.25 9.93628 6.25 10.0938ZM5.625 13.0625C5.79076 13.0625 5.94973 12.9999 6.06694 12.8886C6.18415 12.7772 6.25 12.6262 6.25 12.4688C6.25 12.3113 6.18415 12.1603 6.06694 12.0489C5.94973 11.9376 5.79076 11.875 5.625 11.875C5.45924 11.875 5.30027 11.9376 5.18306 12.0489C5.06585 12.1603 5 12.3113 5 12.4688C5 12.6262 5.06585 12.7772 5.18306 12.8886C5.30027 12.9999 5.45924 13.0625 5.625 13.0625ZM8.75 10.0938C8.75 10.2512 8.68415 10.4022 8.56694 10.5136C8.44973 10.6249 8.29076 10.6875 8.125 10.6875C7.95924 10.6875 7.80027 10.6249 7.68306 10.5136C7.56585 10.4022 7.5 10.2512 7.5 10.0938C7.5 9.93628 7.56585 9.78525 7.68306 9.6739C7.80027 9.56256 7.95924 9.5 8.125 9.5C8.29076 9.5 8.44973 9.56256 8.56694 9.6739C8.68415 9.78525 8.75 9.93628 8.75 10.0938ZM8.125 13.0625C8.29076 13.0625 8.44973 12.9999 8.56694 12.8886C8.68415 12.7772 8.75 12.6262 8.75 12.4688C8.75 12.3113 8.68415 12.1603 8.56694 12.0489C8.44973 11.9376 8.29076 11.875 8.125 11.875C7.95924 11.875 7.80027 11.9376 7.68306 12.0489C7.56585 12.1603 7.5 12.3113 7.5 12.4688C7.5 12.6262 7.56585 12.7772 7.68306 12.8886C7.80027 12.9999 7.95924 13.0625 8.125 13.0625Z" fill="#F9F9F9"/>
</svg>
