<svg width="667" height="901" viewBox="0 0 667 901" fill="none" xmlns="http://www.w3.org/2000/svg">
<path d="M206.789 852.775L207.448 855.149L203.505 855.297L206.789 852.775ZM235.656 648.854L245.494 648.479L250.174 640.243L257.604 641.322L258.547 633.938L256.195 631.78L254.105 634.756L255.207 632.007L249.572 630.928L250.981 627.599L264.534 625.293L268.862 630.246L269.271 625.952L275.213 624.975L273.463 634.711L275.508 636.63L279.632 632.143L281.529 636.54L286.051 631.734L291.288 645.174L286.88 651.365L290.334 652.478L294.401 648.389L295.275 659.226L301.876 659.124L305.227 652.297L309.408 656.432L307.397 663.305L312.293 669.065L308.34 670.928L311.953 681.902L308.556 684.288L309.59 690.786L318.53 696.387L315.736 701.658L318.712 702.68L318.701 708.361L325.778 709.724L333.662 721.959L331.197 723.197L333.401 728.344L330.72 740.602L336.378 747.1L330.3 749.94L332.277 746.475L330.107 745.975L326.676 750.815L319.996 745.407L318.985 749.531L323.87 755.688L323.018 765.027L317.519 766.276L312.873 772.104L308.215 769.968L303.228 771.979L298.411 780.772L305.25 791.247L310.396 809.616L306.17 836.086L310.487 842.187L305.114 844.595L309.056 847.515L309.987 856.399L306.068 860.489L302.478 855.456L297.945 859.182L289.822 856.353L282.608 863.442L274.327 864.431L271.521 870.293L234.61 856.16L220.535 859.534L214.332 849.912L211.549 851.991L213.139 856.717L208.402 854.683L208.118 847.038L206.005 847.969L203.131 843.255L201.302 847.685L200.472 843.391L196.803 842.403L197.462 845.266L190.782 846.527L185.124 856.853L190.18 860.58L199.507 856.978L201.188 859.648L197.405 865.306L193.326 861.216L188.782 864.601L190.975 867.18L183.443 868.384L170.571 862.522L162.21 869.282L151.577 870.759L147.896 866.112L142.852 866.044L133.479 871.986L129.253 868.895L132.991 868.407L133.457 864.692L126.072 865.862L120.381 854.331L123.016 850.435L123.641 834.803L128.401 824.783L124.573 818.057L125.107 808.719L133.525 789.065L137.263 786.305L136.376 779L144.102 752.11L153.713 739.397L162.221 734.444L172.571 716.483L181.727 701.647L184.022 686.867L191.1 680.198L188.339 676.903L192.474 664.691L187.794 662.998L186.328 648.139L190.157 648.173L196.36 655.864L200.336 652.899L198.836 645.23L205.868 643.719L206.561 653.467L215.332 654.705L216.002 658.352L220.842 657.125L219.251 661.112L215.548 660.965L213.798 667.395L217.297 669.065L224.534 662.373L224.647 657L237.303 655.557L233.429 650.206L235.656 648.854Z" fill="#F0F0F0" stroke="#D2D4D5" stroke-width="0.568024"/>
<path d="M303.625 543.281L308.453 537.896L310.941 540.282L315.36 538.987L317.417 543.883L324.528 545.826L329.22 557.164L333.355 556.278L336.195 561.538L340.024 560.549L344.023 563.98L344.591 575.659L352.509 578.544L353.577 573.273L361.904 574.057L361.825 570.569L352.452 565.434L352.27 562.594L360.87 557.334L368.368 557.346L371.913 562.39L381.353 560.254L384.432 564.344L383.58 569.41L391.203 571.342L393.6 560.958L390.942 547.507L394.066 547.871L398.053 542.747L404.211 543.827L403.449 551.427L405.085 554.21L407.982 553.04L410.822 559.322L429.454 554.267L432.748 557.675L439.882 553.835L444.199 557.8L443.779 562.072L452.72 565.764L455.56 570.546L452.05 573.512L461.036 582.645L459.866 589.325L465.33 593.029L464.319 595.062L480.905 603.73L480.03 608.797L485.063 610.513L479.644 625.531L474.646 630.45L483.189 636.71L483.643 644.321L485.995 644.151L488.119 653.239L492.05 654.841L493.004 664.748L500.252 669.155L501.911 674.461L513.76 674.79L519.906 679.221L530.766 697.704L538.775 699.749L546.319 706.906L547.034 714.279L553.692 719.278L556.339 715.677L563.394 718.414L566.45 725.992L571.255 725.344L578.628 737.92L575.345 744.089L578.446 745.93L577.412 755.131L570.789 765.992L554.669 757.79L549.602 761.232V775.137L542.025 786.521L519.36 793.916L500.32 808.162L500.627 813.956L508.75 825.816L513.362 827.941L518.099 838.04L511.181 851.559H519.076L523.677 855.479L521.212 876.359L518.054 879.37L503.149 869.52L501.979 866.771L505.16 863.454L500.422 859.307L502.138 856.921L489.244 857.001L487.142 861.295L481.462 862.124L477.213 854.638L463.842 856.353L463.603 849.514L457.173 854.093L460.047 864.135L446.04 862.09L434.168 866.714L419.116 865.362L414.469 873.848L404.347 874.03L400.78 878.404L403.495 881.369L397.394 880.881L392.384 886.447L389.158 886.663L391.26 883.153L387.817 882.539L381.297 886.527L371.231 886.334L368.232 877.541L363.438 877.382L366.937 874.087L364.778 871.531L356.871 873.974L343.932 868.146L342.035 871.883L338.513 871.747L333.594 869.554L335.434 866.385L332.344 866.476L335.059 882.607L332.185 888.106L324.528 896.217L313.35 900L317.769 888.026L313.849 886.89L307.715 890.912L307.34 880.438L300.603 877.279L298.41 870.52L291.378 872.44L287.118 870.315L286.096 865.271L281.392 871.872L271.543 870.338L274.349 864.465L282.631 863.488L289.845 856.387L297.967 859.216L302.5 855.49L306.09 860.523L310.01 856.433L309.078 847.549L305.136 844.629L310.509 842.221L306.192 836.12L310.418 809.65L305.284 791.281L298.445 780.795L303.261 772.002L308.249 769.991L312.906 772.127L317.553 766.299L323.051 765.049L323.903 755.711L319.018 749.542L320.018 745.418L326.698 750.826L330.129 745.975L332.299 746.486L330.322 749.951L336.4 747.111L330.742 740.601L333.423 728.344L331.208 723.197L333.685 721.959L325.789 709.724L318.712 708.36L318.723 702.68L315.747 701.658L318.541 696.387L309.589 690.786L308.555 684.288L311.952 681.891L308.34 670.928L312.293 669.065L307.397 663.293L309.407 656.432L305.215 652.297L301.864 659.124L295.275 659.215L294.389 648.388L290.333 652.467L286.88 651.354L291.287 645.162L286.05 631.734L281.529 636.528L279.632 632.132L275.519 636.619L273.474 634.699L275.224 624.963L269.282 625.94L268.862 630.234L264.545 625.281L250.992 627.587L249.583 630.916L255.218 631.995L254.116 634.745L256.206 631.779L258.547 633.927L257.604 641.322L250.174 640.232L245.482 648.468L235.655 648.854L233.042 644.162L238.893 630.609L235.962 628.61L237.927 625.997L234.724 624.975L234.406 618.794L230.804 619.078L229.498 604.071L231.759 602.322L230.27 597.062L226.487 596.198L228.021 591.291L236.825 587.383L239.166 591.302L244.198 584.838L254.968 586.826L259.58 592.109L265.249 590.961L264.374 574.409L276.258 575.329L275.519 571.069L282.21 566.695L283.324 553.619L293.457 556.039L301.921 548.893L303.625 543.281Z" fill="#F0F0F0" stroke="#D2D4D5" stroke-width="0.568024"/>
<path d="M552.306 293.01L552.385 293.055L555.702 295.85L554.646 302.098L565.313 309.539L561.985 316.435L572.686 319.821L564.677 332.204L564.393 327.671L552.51 325.433L551.544 322.593L548.182 323.763L548.159 327.796L539.298 322.99L527.017 326.046L524.37 323.49L529.959 311.925L526.347 311.028L527.187 302.78L533.549 302.621L533.845 297.838L536.958 297.906L538.355 293.907L543.899 298.338L551.931 295.055L551.101 292.874L552.135 292.271L552.567 292.396L552.306 293.01Z" fill="#F0F0F0" stroke="#D2D4D5" stroke-width="0.568024"/>
<path d="M392.315 238.649L401.427 240.001L403.471 236.411L411.515 238.297L412.878 228.118L421.285 223.858L425.897 227.084L432.191 226.232L430.623 222.801L435.235 223.347L447.016 217.053L448.754 208.362L457.706 212.304L462.114 209.975L464.136 214.213L473.85 217.076L477.633 223.256L493.31 222.745L494.935 226.039L500.138 226.38L501.103 230.72L515.27 229.14L513.736 232.265L518.235 233.253L528.709 223.233L534.571 227.357L539.593 219.609L547.25 223.483L549.476 217.416L552.919 218.121L555.634 214.815L557.701 205.249L563.177 203.841L569.528 195.195L576.673 194.707L573.913 191.162L575.242 185.721L581.342 192.31L584.171 202.364L607.619 201.603L606.608 209.998L597.327 221.779L609.176 222.097L613.231 215.883L620.059 213.52L622.604 221.722L617.491 229.379L616.56 243.955L600.689 258.03L601.871 267.209L599.133 272.753L615.685 283.205L636.429 304.449L633.953 309.027L636.089 314.117L628.909 325.443L633.124 339.757L641.905 344.188L639.588 358.343L645.166 364.307L640.542 383.563L633.01 392.277L645.075 411.771L643.109 420.837L640.701 419.008L639.429 424.188L634.782 424.529L631.34 421.019L618.366 425.484L614.379 429.948L600.212 425.313L596.622 433.004L592.68 433.129L594.748 436.685L590.124 444.99L587.261 442.286L573.81 446.216L557.145 445.421L546.727 435.731L545.205 438.991L541.24 437.662L537.162 443.683L533.367 442.377L530.516 438.696L532.845 427.563L528.232 422.348L529.505 419.463L521.677 413.328L531.311 405.126L527.914 386.108L520.871 387.119L521.155 383.745L515.906 383.802L514.804 379.61H507.136L506.602 375.77L501.899 376.372L494.037 370.601L489.777 374.111L484.528 373.703L480.143 368.113L476.917 370.113L461.228 352.186L466.954 345.233L463.205 342.416L467.681 331.283L465.227 323.182L469.385 315.707L462.978 310.459L458.831 313.481L459.161 309.107L455.821 309.379L457.684 298.053L462.012 297.576L459.785 286.965L464.045 276.627L462.296 269.879L459.445 267.891L454.446 270.924L454.31 266.073L443.858 268.266L433.225 264.199L433.94 259.053L426.556 254.645L423.114 256.042L421.864 252.35L418.195 251.93L419.194 248.726L416.331 248.999L405.766 243.841L397.484 246.613L392.315 238.649ZM551.93 295.054L543.898 298.337L538.354 293.907L536.957 297.905L533.844 297.837L533.56 302.62L527.198 302.79L526.346 311.038L529.959 311.924L524.37 323.501L527.017 326.057L539.286 323.001L548.147 327.806L548.17 323.773L551.533 322.603L552.498 325.443L564.37 327.681L564.654 332.214L572.663 319.831L561.961 316.457L565.29 309.55L554.623 302.109L555.679 295.861L552.362 293.066L552.555 292.407L552.123 292.293L551.089 292.884L551.93 295.054Z" fill="#F0F0F0" stroke="#D2D4D5" stroke-width="0.568024"/>
<path d="M191.27 226.073L192.088 225.959L199.108 227.879L197.711 230.356L200.881 232.685L215.808 233.628L218.274 237.581L224.147 235.093L226.942 238.194L224.397 239.433L227.407 241.716L226.783 247.862L223.454 251.748L218.455 248.589L215.263 250.975L211.639 246.999L207.742 248.669L200.563 233.287L192.701 229.606L191.213 225.925L191.27 226.073ZM193.474 180.142L203.584 179.643L200.506 183.914L201.596 193.536L197.348 194.672L196.018 190.14L197.632 188.049L193.474 180.142Z" fill="#F0F0F0" stroke="#D2D4D5" stroke-width="0.568024"/>
<path d="M281.018 186.062L283.983 176.939L288.697 182.449L293.787 174.44L299.024 175.179L300.478 170.941L305.295 171.327L306.431 166.158L312.804 163.932L314.542 165.727L310.987 171.316L316.621 176.678L314.963 182.529L311.486 184.062L312.293 190.231L315.86 190.447L324.199 199.183L322.915 201.058L317.882 205.579H313.225L304.352 197.422L299.49 203.159L294.457 203.443L293.594 198.32L290.56 201.501L286.607 197.468L284.233 186.471L281.018 186.062Z" fill="#F0F0F0" stroke="#D2D4D5" stroke-width="0.568024"/>
<path d="M260.842 413.352L273.497 414.578L278.11 421.429L273.758 420.6L274.974 424.383L271.998 423.269L270.566 428.416L274.701 433.789L274.792 439.833L270.021 441.798L269.328 446.331L266.647 445.752L268.817 448.319L281.313 454.056L284.108 449.262L281.688 451.25L279.007 446.127L286.005 443.627L285.789 441.026L290.822 445.252L289.777 440.276L293.469 439.924L295.366 444.809L298.57 455.294L304.591 455.976L305.545 461.974L317.735 466.689L314.974 475.084L312.589 470.461L309.237 472.051L313.225 474.687L310.805 481.208L315.474 484.002L315.406 487.149L303.443 486.547L302.012 490.171L305.182 494.386L297.002 494.67L299.717 495.874L298.547 498.589L301.467 497.01L304.977 501.509L302.569 507.007L297.172 508.541L291.64 529.16L297.684 530.399L297.229 526.093L304.5 525.661L306.568 531.182L303.284 532.534L303.625 543.281L301.921 548.893L293.458 556.039L283.324 553.619L282.211 566.695L275.519 571.069L276.258 575.329L264.375 574.409L265.249 590.961L259.581 592.109L254.968 586.826L244.198 584.838L239.166 591.302L236.826 587.383L228.021 591.291L226.487 596.198L230.271 597.062L231.759 602.322L229.498 604.071L230.804 619.078L234.406 618.794L234.724 624.974L237.927 625.997L235.962 628.61L238.893 630.609L233.042 644.162L235.655 648.854L233.429 650.252L237.303 655.602L224.658 657.057L224.545 662.419L217.308 669.11L213.809 667.44L215.559 661.01L219.262 661.158L220.853 657.159L216.013 658.386L215.343 654.739L206.573 653.501L205.88 643.765L198.847 645.276L200.347 652.944L196.371 655.909L190.168 648.218L186.34 648.184L181.761 636.096L190.452 628.269L186.43 627.553L183.261 621.476L179.103 604.276L169.094 597.687L147.487 604.798L139.387 595.165L144.056 592.211L145.056 587.349L150.702 590.087L150.884 585.417L147.396 582.679L149.27 578.737L154.916 574.852L158.154 577.317L158.427 571.103L163.505 572.296L164.425 567.934L160.131 559.436L153.167 555.278L156.552 550.461L155.428 542.327L158.927 538.612L163.244 541.339L165.584 539.362L164.777 524.059L167.879 518.516L165.448 512.199L175.07 501.77L181.739 504.02L189.066 497.396L188.941 492.011L194.655 485.865L192.133 478.901L207.913 475.471L206.164 472.312L211.321 464.065L208.027 456.59L198.882 459.657L196.098 456.169L200.654 449.387L206.016 444.695L223.693 443.23L224.352 438.799L220.296 432.505L229.521 428.302L234.792 430.938L235.11 436.8L243.835 435.118L255.105 419.816L252.594 417.089L260.842 413.352Z" fill="#F0F0F0" stroke="#D2D4D5" stroke-width="0.568024"/>
<path d="M576.401 111.309L581.127 119.591L591.522 125.487L606.699 140.71L603.666 142.539L605.677 148.186L592.987 147.333L585.932 151.048L585.092 147.311L583.854 151.128L577.673 150.23L585.739 143.051L583.626 133.224L587.625 133.235L587.205 139.926L589.011 136.575L593.158 138.972L593.669 133.78L588.091 123.988L583.706 124.079L584.876 129.872L584.558 127.555L580.07 131.792L579.809 125.93L573.459 129.452L576.526 118.523L571.936 112.298L576.401 111.309ZM496.378 78.9434L498.207 80.5793L494.322 80.4544L496.378 78.9434ZM483.87 72.343L486.199 75.842L511.771 76.8645L512.476 79.1025L503.535 81.42L491.572 79.3183L484.211 86.8617L496.582 81.0792L494.367 86.1005L496.105 82.6356L498.65 86.1346L502.353 82.9764L504.182 89.4178L512.305 80.8293L520.019 78.0232L519.735 82.8401L524.575 86.4413L525.438 97.1088L530.846 98.6198L528.301 100.687L531.402 99.0742L538.786 102.959L541.433 109.253L544.66 109.514L540.775 112.196L548.011 110.435L545.466 114.104L547.511 112.684L551.703 121.216L554.066 121.307L553.339 116.569L569.301 111.048L568.392 113.491L575.89 119.75L571.664 128.396L584.001 141.449L577.503 147.015L576.98 151.162L597.645 163.727L609.551 162.693L605.791 168.294L610.505 170.225L620.059 213.554L613.232 215.917L609.176 222.131L597.327 221.779L606.609 210.009L607.62 201.614L584.172 202.375L581.343 192.321L575.242 185.732L573.913 191.174L576.674 194.718L569.528 195.207L563.177 203.852L557.702 205.261L555.634 214.826L552.919 218.132L549.477 217.428L547.25 223.494L539.593 219.62L534.572 227.368L528.71 223.244L518.235 233.264L513.737 232.276L515.27 229.152L501.104 230.731L500.138 226.391L494.935 226.05L493.311 222.756L477.633 223.267L473.85 217.087L464.137 214.224L462.115 209.987L457.707 212.315L448.755 208.373L447.017 217.064L435.236 223.358L430.623 222.813L432.191 226.243L425.897 227.095L421.285 223.869L412.878 228.129L411.515 238.308L403.472 236.422L401.427 240.012L392.316 238.66L386.283 236.922L387.215 231.662L379.456 227.629L372.071 213.167L367.05 211.361L361.063 216.666L351.236 208.68L343.682 209.453L346.431 198.592L360.347 191.378L360.154 183.937L366.539 184.346L369.549 174.928L367.436 168.714L362.176 168.384L355.531 162.295L356.496 147.504L364.369 141.119L366.596 144.38L370.515 143.21L365.301 141.369L366.05 137.234L375.843 131.156L386.056 130.054L391.827 133.905L391.68 139.847L397.337 136.927L406.312 144.596L408.039 135.939L405.29 136.961L405.221 132.088L404.244 136.575L401.12 136.109L400.961 131.633L408.527 129.134L408.505 135.905L410.64 127.987L414.571 127.703L418.297 120.739L416.764 119.182L411.458 125.93L411.152 122.806L422.183 113.104L434.281 114.013L454.401 109.242L458.797 102.596L469.669 95.382L483.87 72.343ZM528.448 57.3699L522.586 75.3081L525.097 58.8581L528.448 57.3699ZM549.102 47.2363L545.035 53.4278L548.182 60.3463L563.677 59.5056L566.87 62.1186L559.36 76.5918L562.166 81.9994L566.438 82.4311L573.243 89.804L569.221 98.7675L568.608 95.3593L564.541 95.2003L568.755 91.5876L561.95 92.8373L567.369 88.5089L562.359 91.19L560.11 88.3045L554.203 89.6791L543.353 98.6425L543.74 101.517L544.262 99.3696L548.102 100.608L546.239 104.652L538.9 101.04L541.149 101.687L542.036 97.586L537.298 100.653L532.356 98.6198L531.913 95.3479L528.028 97.1656L531.266 94.8935L526.165 90.9287L527.108 86.146L536.73 84.4987L533.186 78.8412L528.744 79.7387L530.789 75.6148L526.653 76.6372L530.141 71.1047L534.31 72.0476L532.266 76.6827L537.446 72.6384L534.379 71.9454L534.583 68.8212L530.175 69.1734L528.301 64.3906L535.537 63.3L539.866 68.3668L539.355 63.55L543.512 60.1532L542.354 64.1066L545.012 62.7207L547.682 70.9229L550.465 73.7176L554.248 72.4907L554.862 62.0277L550.09 63.7431L544.603 55.9044L535.469 62.8002L538.446 52.0305L529.516 62.8683L535.662 50.5081L549.102 47.2363Z" fill="#F0F0F0" stroke="#D2D4D5" stroke-width="0.568024"/>
<path d="M69.7926 180.95L62.9309 182.767L64.9076 186.221L58.3867 182.642L65.2712 178.348L69.7926 180.95ZM112.36 164.329L115.03 166.488L109.361 165.477L112.36 164.329ZM125.186 161.455L128.992 163.125L117.007 165.783L118.041 162.069L125.186 161.455ZM135.672 158.66L142.488 159.91L131.775 162.023L135.672 158.66ZM148.191 157.036L153.61 159.501L144.624 158.104L148.191 157.036ZM205.63 145.107L211.571 151.912L220.478 153.469L229.612 151.356L228.464 147.323L243.301 146.687L250.879 149.902L264.75 169.362L267.976 178.734L281.018 186.073L284.233 186.471L286.596 197.479L290.549 201.501L293.594 198.32L294.446 203.432L299.49 203.148L304.352 197.411L313.225 205.568H317.883L322.915 201.046L343.682 209.442L351.237 208.669L361.064 216.656L367.051 211.35L372.072 213.157L379.457 227.619L387.216 231.652L386.284 236.911L392.317 238.65L397.486 246.613L405.767 243.841L416.333 248.999L413.265 253.418L409.88 252.623L409.369 260.439L395.679 267.937L373.401 263.972L368.675 270.97L356.156 272.243L358.406 287.613L360.598 287.318L367.176 300.042L371.277 298.383L368.471 305.063L373.606 313.64L369.028 313.845L368.221 317.753L378.411 327.909L371.777 331.851L379.161 345.131L373.947 348.71L377.321 351.698L376.23 356.253L368.88 359.9L370.504 365.342L351.283 366.148L341.285 371.476L347.727 376.975L344.977 379.235L347.636 384.802L342.41 389.71L342.183 394.106L351.305 413.874L346.807 416.418L348.102 423.519L344.432 421.076L338.15 424.053L331.913 419.611L327.357 420.156L322.2 431.028L317.474 433.72L315.202 431.925L311.714 438.253L305.523 439.81L303.932 437.594L295.355 444.785L293.458 439.9L289.766 440.253L290.811 445.229L285.767 441.002L285.983 443.593L278.996 446.092L281.666 451.227L284.097 449.239L281.291 454.021L268.794 448.284L266.624 445.717L269.305 446.296L269.998 441.764L274.77 439.81L274.679 433.766L270.555 428.392L271.986 423.246L274.952 424.359L273.747 420.576L278.087 421.406L273.486 414.555L260.83 413.328L255.309 412.931L255.321 402.07L260.478 396.117L261.489 388.335L251.674 389.165L252.855 382.882L247.97 380.065L248.039 375.271L243.256 376.713L240.859 374.362L242.233 363.887L237.882 360.922L239.325 356.821L228.998 356.174L227.113 349.13L231.316 350.414L230.748 345.643L233.713 344.768L225.67 339.076L237.064 324.376L234.985 319.707L238.053 315.81L235.349 313.333L231.941 313.004L223.557 324.671L217.661 326.137L206.891 325.41L206.516 312.549L202.847 309.334L196.008 313.208L192.065 311.663L185.919 319.661L177.672 317.991L178.637 324.512L187.873 329.408L187.771 346.79L193.156 350.334L185.158 359.014L176.433 356.128L169.651 363.444L158.052 363.899L154.337 367.818L147.396 362.149L156.303 358.457L157.632 352.891L148.612 347.971L152.667 340.598L150.861 336.497L155.201 335.657L151.213 329.079L135.013 324.864L133.23 318.73L127.39 316.128L124.277 321.195L127.049 322.422L125.595 327.807L104.817 340.939L87.9126 343.575L85.1974 337.872L88.6283 328L82.63 316.878L79.0855 320.729L65.7256 317.503L61.3972 314.628L60.1135 306.767L66.3959 305.54L62.4424 297.951L65.3166 295.395L87.2878 296.043L89.6507 271.356L99.0572 252.543L96.308 236.673L99.7616 231.833L98.4778 224.063L101.079 214.815L105.646 214.599L84.334 212.021L85.7087 188.777L90.4914 192.958L86.288 188.459L90.8777 191.515L93.7292 187.846L89.8098 183.335L101.045 172.259L109.486 170.203L121.358 172.168L134.286 166.249L134.309 168.646L141.75 167.329L143.795 164.443L142 167.76L157.689 167.624L158.927 175.656L164.21 176.349L168.197 188.641L160.131 192.344L160.336 195.866L170.31 204.591L175.093 204.432L178.422 198.172L178.206 190.436L172.207 190.561L176.093 179.496L180.16 179.359L189.328 186.573L193.27 185.857L196.008 190.129L197.337 194.662L201.586 193.526L200.495 183.903L203.574 179.632L193.463 180.132L190.645 169.305L195.394 154.548L200.029 146.482L205.63 145.107ZM191.202 225.937L192.69 229.618L200.552 233.299L207.732 248.681L211.628 247.011L215.252 250.987L218.444 248.601L223.443 251.76L226.772 247.874L227.397 241.728L224.386 239.445L226.931 238.207L224.136 235.105L218.263 237.593L215.797 233.64L200.87 232.697L197.7 230.368L199.098 227.891L192.077 225.971L191.202 225.937Z" fill="#F0F0F0" stroke="#D2D4D5" stroke-width="0.568024"/>
<path d="M87.9462 343.598L104.851 340.962L125.64 327.83L127.094 322.445L124.322 321.218L127.435 316.151L133.263 318.753L135.047 324.887L151.247 329.102L155.234 335.668L150.895 336.509L152.701 340.61L148.645 347.983L157.665 352.902L156.336 358.469L147.43 362.161L154.36 367.841L158.074 363.922L169.673 363.456L176.456 356.14L185.181 359.025L193.167 350.346L187.782 346.802L187.884 329.42L178.648 324.524L177.683 318.003L185.93 319.673L192.076 311.686L196.03 313.22L202.869 309.357L206.538 312.572L206.913 325.432L217.683 326.16L223.579 324.683L231.963 313.027L235.371 313.356L238.075 315.833L235.008 319.741L237.087 324.399L225.692 339.099L233.735 344.791L230.759 345.654L231.327 350.437L227.123 349.153L228.998 356.185L239.325 356.833L237.882 360.945L242.233 363.899L240.858 374.373L243.255 376.736L248.049 375.294L247.981 380.088L252.866 382.905L251.685 389.187L261.5 388.358L260.489 396.14L255.32 402.093V412.954L260.841 413.351L252.594 417.089L255.104 419.815L243.835 435.118L235.11 436.799L234.792 430.937L229.52 428.302L220.296 432.505L224.351 438.799L223.693 443.229L206.016 444.695L200.653 449.387L196.098 456.169L198.881 459.657L208.026 456.589L211.321 464.064L206.163 472.312L207.913 475.47L192.133 478.901L194.655 485.865L188.941 492.011L189.066 497.396L181.738 504.019L175.07 501.77L165.447 512.199L167.879 518.515L164.777 524.059L158.688 522.696L153.439 513.789L153.462 505.746L143.294 501.543L144.896 496.328L140.738 494.67L136.615 497.453L138.569 505.837L131.184 508.586L131.968 513.085L126.231 517.868L110.485 520.276L107.645 529.308L98.7728 531.125L97.9321 528.262L93.99 533.75L91.7065 532.398L89.8321 535.385L87.3782 533.091L83.1748 537.805L78.2785 538.282L78.3239 541.293L74.8021 542.009L76.1086 548.666L73.0299 550.472L68.8947 546.042L64.8617 548.177L68.7925 560.969L61.7376 563.73L59.3973 559.845L57.1707 562.821L54.5578 557.913L43.7199 563.707L40.8457 557.766L40.2549 565.298L35.6994 558.777L38.2441 552.392L36.3924 546.405L27.3835 545.655L23.9299 540.339L30.4849 530.762L23.8504 530.773L19.7834 520.128L13.8305 520.196L12.8762 513.982L9.07043 511.381L12.7853 509.245L12.3536 505.723L16.3411 505.644L17.8521 497.078L12.3877 495.59L12.7853 489.921L3.5606 490.955L1.20898 482.571L4.69665 480.458L7.99119 483.968L11.7288 477.561L23.6005 470.006L21.0898 468.2L22.9529 465.746L16.9205 468.302L16.148 460.213L27.3154 446.365L26.4179 428.949L17.5453 418.066L19.3744 412.204L13.2852 410.113L14.1258 405.115L7.70718 402.57L10.286 397.412L7.00283 392.63L15.6141 387.881L22.987 390.664L19.5789 383.541L40.1073 392.289L39.3688 386.756L44.9809 389.21L60.522 381.735L63.9756 383.894L71.0759 373.612L60.7038 367.409L61.1923 363.763L64.2937 363.206L66.0432 358.105L72.8709 357.867L82.2205 345.495L87.9462 343.598Z" fill="#F0F0F0" stroke="#D2D4D5" stroke-width="0.568024"/>
<path d="M40.2547 565.298L40.8455 557.766L43.7197 563.708L54.5576 557.914L57.1705 562.821L59.3971 559.845L61.7374 563.73L68.7923 560.97L64.8615 548.178L68.8945 546.042L73.0297 550.473L76.1084 548.666L74.8019 542.009L78.3237 541.293L78.2783 538.283L83.1746 537.806L87.378 533.091L89.8319 535.386L91.7063 532.398L93.9898 533.75L97.9319 528.263L98.7726 531.126L107.645 529.308L110.485 520.276L126.231 517.868L131.968 513.085L131.184 508.587L138.568 505.837L136.614 497.453L140.738 494.67L144.896 496.329L143.294 501.543L153.462 505.746L153.439 513.79L158.688 522.696L164.777 524.059L165.584 539.362L163.243 541.339L158.926 538.612L155.427 542.327L156.552 550.461L153.167 555.278L160.13 559.436L164.425 567.934L163.505 572.296L158.426 571.103L158.154 577.317L154.916 574.852L149.27 578.737L147.395 582.68L150.883 585.417L150.701 590.087L145.055 587.349L144.055 592.211L139.386 595.165L147.486 604.798L169.094 597.687L179.102 604.276L183.26 621.476L186.43 627.553L190.452 628.269L181.761 636.097L186.339 648.184L187.793 663.044L192.485 664.736L188.35 676.937L191.111 680.232L184.022 686.901L181.727 701.681L172.582 716.517L150.94 706.395L146.055 709.088L140.829 705.543L132.093 707.883L121.562 702.101L119.085 694.228L114.859 694.705L115.382 692.581L109.599 695.398L104.328 686.548L111.28 680.368L112.394 671.973L104.396 669.814L101.545 664.895L105.441 660.283L102.737 648.116L98.8748 650.195L85.3899 641.913L79.0621 642.481L54.9325 655.421L38.4143 651.785L36.8012 649.479L42.0838 638.687L48.3434 632.62L49.1841 622.93L42.0951 622.816L37.1306 618.34L34.2791 619.737L27.8605 612.887L27.0766 607.252L23.7593 606.843L18.9766 594.915L21.2146 582.634L24.8045 581.032L23.7593 575.102L31.2459 571.524L33.4612 565.548L37.1306 567.377L40.2547 565.298Z" fill="#F0F0F0" stroke="#D2D4D5" stroke-width="0.568024"/>
<path d="M38.4147 651.784L54.9328 655.42L79.0625 642.48L85.3903 641.912L98.8752 650.194L102.738 648.115L105.442 660.282L101.545 664.894L104.396 669.813L112.394 671.972L111.281 680.367L104.328 686.547L109.599 695.397L104.589 700.18L94.6831 699.567L90.4002 695.681L87.3329 700.362L85.7879 691.773L77.9719 688.161L71.6327 689.319L71.451 695.908L64.4415 694.682L59.4429 681.89L51.9791 674.471L54.4216 672.392L50.0024 668.337L50.8999 665.815L41.9592 660.123L37.5059 660.748L38.4147 651.784Z" fill="#F0F0F0" stroke="#D2D4D5" stroke-width="0.568024"/>
<path d="M465.887 477.799L459.582 471.766L459.877 460.735L456.06 451.09L459.627 450.113L456.162 434.708L460.354 431.38L462.24 422.984L476.145 420.826L477.406 417.668L480.553 419.338L490.675 415.691L489.471 417.509L495.435 411.215L501.229 413.226L506.534 408.863L513.646 414.282L516.35 410.681L521.678 413.328L529.505 419.463L528.244 422.337L532.857 427.551L530.516 438.685L533.368 442.365L537.162 443.683L541.252 437.662L545.217 438.991L546.739 435.731L557.157 445.421L573.822 446.228L587.273 442.286L590.136 445.001L594.76 436.696L592.692 433.141L596.646 433.004L600.236 425.313L614.402 429.948L618.39 425.472L631.363 421.019L634.817 424.529L639.452 424.189L640.724 419.008L643.133 420.826L643.564 427.29L659.14 433.856L661.071 448.591L665.74 456.589L661.06 479.253L647.904 508.62L635.112 504.348L637.316 495.941L631.204 497.43L633.59 489.67L626.331 485.547L626.546 482.752L625.888 485.41L619.912 485.933L612.164 481.763L609.074 489.545L613.811 489.841L612.766 493.294L619.014 495.419L618.276 499.781L609.563 500.133L595.828 509.619L583.024 511.755L582.877 517.31L579.855 519.253L555.964 521.764L555.839 529.307L551.635 533.397L544.774 528.092L541.207 536.078L535.731 534.669L531.97 544.735L520.144 544.008L519.338 550.971L513.998 556.129L504.728 549.71L504.069 552.937L502.979 550.903L498.65 552.812L496.56 556.799L494.129 554.584L482.518 556.845L469.363 574.42L469.795 582.201L466.398 581.747L466.67 576.771L462.751 573.942L463.864 571.125L459.945 570.92L458.764 565.297L452.72 565.763L443.779 562.071L444.199 557.799L439.882 553.834L437.838 550.994L441.757 550.403L442.938 546.643L436.031 540.861L445.529 529.909L449.505 539.361L451.22 536.476L457.23 536.419L456.253 530.42L459.207 532.272L459.888 529.398L464.501 530.364L468.363 526.558L464.364 523.025L464.648 518.117L461.763 518.015L466.341 512.914L463.546 508.608L470.533 508.313L472.487 504.814L477.315 506.052L480.394 500.156L492.765 497.316L489.403 488.512L482.121 486.149L481.837 480.889L469.795 476.288L465.887 477.799Z" fill="#F0F0F0" stroke="#D2D4D5" stroke-width="0.568024"/>
<path d="M416.344 248.989L419.206 248.717L418.207 251.92L421.876 252.341L423.126 256.044L426.568 254.647L433.952 259.055L433.237 264.19L443.87 268.268L454.322 266.076L454.458 270.915L459.457 267.893L462.308 269.881L464.058 276.618L459.797 286.968L462.024 297.578L457.707 298.055L455.833 309.382L459.173 309.109L458.854 313.471L462.99 310.45L469.397 315.698L465.239 323.173L467.693 331.262L463.217 342.407L466.966 345.224L461.24 352.177L476.929 370.103L480.144 368.115L484.529 373.693L489.778 374.102L494.038 370.603L501.899 376.374L506.614 375.772L507.148 379.612H514.816L515.918 383.804L521.167 383.747L520.871 387.121L527.926 386.11L531.312 405.128L521.678 413.33L516.35 410.683L513.646 414.284L506.534 408.865L501.229 413.228L495.435 411.217L489.471 417.511L490.675 415.693L480.553 419.34L477.406 417.67L476.145 420.828L462.24 422.986L460.354 431.382L456.162 434.711L459.627 450.115L456.06 451.092L459.877 460.737L459.582 471.768L465.887 477.801L463.478 483.776L466.455 485.81L461.002 495.126L458.752 490.922L446.687 491.899L437.531 481.834L427.988 483.311L421.467 475.37L408.175 476.358L407.096 465.975L399.598 462.737L407.528 454.023L401.779 444.162L396.179 440.766L372.424 439.891L369.073 426.008L364.733 421.282L365.324 418.545L367.88 419.771L367.278 416.67L351.316 413.898L342.194 394.131L342.432 389.746L347.647 384.827L344.988 379.26L347.738 376.999L341.308 371.501L351.305 366.173L370.527 365.366L368.902 359.925L376.252 356.278L377.343 351.722L373.969 348.723L379.183 345.145L371.811 331.853L378.434 327.922L368.243 317.754L369.05 313.846L373.628 313.642L368.493 305.065L371.288 298.385L367.187 300.043L360.609 287.32L358.416 287.615L356.167 272.244L368.686 270.983L373.412 263.974L395.69 267.939L409.38 260.441L409.879 252.625L413.276 253.409L416.344 248.989Z" fill="#F0F0F0" stroke="#D2D4D5" stroke-width="0.568024"/>
<path d="M190.69 75.8996L193.36 78.6829L191.156 80.5801L188.122 75.7065L190.69 75.8996ZM378.899 66.2319L389.589 69.5718L395.69 82.2274L386.817 79.7395L381.728 82.1706L379.296 76.5472L374.627 77.1152L376.422 78.9329L373.571 77.2288L375.059 68.9357L378.899 66.2319ZM191.315 65.9024L190.281 70.7647L188.952 64.8004L191.315 65.9024ZM206.788 62.8805L206.594 69.9808L200.471 71.2645L198.381 66.141L206.788 62.8805ZM195.938 60.279L197.381 62.8124L192.621 60.4948L195.938 60.279ZM183.465 52.7129L184.532 55.7916L181.783 56.3028L176.728 49.2593L181.806 43.4087L180.25 46.5101L183.465 52.7129ZM193.78 38.1147L198.222 39.4325L196.802 47.7256L184.635 44.9764L186.691 39.2621L193.78 38.1147ZM187.452 1.07952L189.463 1.76115L184.43 1.9202L187.622 5.64644L181.306 11.5652L182.567 20.1765L186.634 22.8121L199.21 21.6193L201.698 18.6087L224.26 19.6993L245.129 26.2203L246.14 31.287L249.389 32.389L252.979 32.548L257.739 27.3222L259.705 34.0022L272.508 22.9825L271.974 28.7423L285.641 33.0252L290.003 38.4896L293.809 37.1945L293.797 32.9684L297.512 35.195L303.34 46.8736L300.512 46.7714L303.181 48.9071L302.625 63.6985L298.08 69.6514L288.594 73.2867L290.946 76.5472L309.77 71.9803L315.167 75.627L310.316 93.5197L314.042 91.5089L317.086 80.796L324.141 78.1036L344.079 87.0102L351.577 94.3263L357.814 93.3607L368.027 84.7494L374.854 86.4649L381.171 82.75L382.125 85.9536L377.161 88.3507L379.751 107.584L363.63 121.489L359.211 118.854L355.019 125.988L357.428 132.134L363.608 132.941L366.016 137.269L365.266 141.404L370.481 143.245L366.561 144.415L364.335 141.154L356.462 147.539L355.496 162.33L362.142 168.419L367.402 168.749L369.515 174.963L366.505 184.381L360.12 183.972L360.313 191.413L346.397 198.627L343.647 209.487L322.88 201.092L324.164 199.218L315.825 190.481L312.247 190.277L311.44 184.097L314.928 182.563L316.587 176.712L310.952 171.35L314.496 165.761L312.758 163.966L306.385 166.193L305.249 171.362L300.432 170.975L298.989 175.213L293.741 174.474L288.651 182.484L283.948 176.962L280.983 186.096L267.941 178.757L264.715 169.385L250.844 149.924L243.266 146.709L228.429 147.346L221.306 139.961L219.602 131.577L214.024 128.976L219.42 126.329L225.112 127.669L227.043 124.966L222.908 115.889L217.83 117.354L214.286 110.913L216.489 97.1324L207.094 96.3939L204.788 99.1659L197.711 93.9401L199.653 88.1917L202.107 90.0321L205.629 87.8054L199.551 86.2377L200.46 83.8406L218.807 81.5458L231.747 73.0822L228.304 72.6392L226.952 67.6406L220.659 75.1612L214.07 73.832L220.352 58.5749L219.409 56.4846L214.615 58.0069L217.66 55.4167L205.822 42.1136L199.04 22.2782L185.668 26.8337L180.318 22.7667L176.023 38.9213L177.205 18.8019L184.305 1L187.452 1.07952Z" fill="#F0F0F0" stroke="#D2D4D5" stroke-width="0.568024"/>
<path d="M351.316 413.896L367.278 416.668L367.88 419.77L365.324 418.543L364.733 421.281L369.073 426.007L372.424 439.889L396.179 440.764L401.779 444.161L407.528 454.022L399.598 462.735L407.096 465.973L408.175 476.356L421.467 475.368L427.988 483.309L437.531 481.832L446.687 491.898L458.752 490.921L461.002 495.124L466.455 485.808L463.478 483.775L465.887 477.799L469.795 476.288L481.837 480.889L482.121 486.149L489.403 488.512L492.766 497.316L480.394 500.157L477.315 506.053L472.487 504.814L470.533 508.313L463.546 508.609L466.341 512.914L461.763 518.015L464.648 518.118L464.364 523.025L468.363 526.558L464.501 530.364L459.888 529.398L459.207 532.273L456.253 530.421L457.23 536.419L451.22 536.476L449.505 539.362L445.529 529.91L436.031 540.861L442.938 546.644L441.757 550.404L437.838 550.995L439.883 553.835L432.748 557.675L429.454 554.267L410.822 559.322L407.982 553.04L405.085 554.21L403.449 551.426L404.211 543.826L398.053 542.747L394.066 547.871L390.942 547.507L393.6 560.958L391.203 571.341L383.58 569.41L384.432 564.343L381.353 560.254L371.913 562.389L368.368 557.345L360.87 557.334L352.271 562.594L352.452 565.434L361.825 570.569L361.904 574.057L353.577 573.273L352.509 578.544L344.591 575.658L344.023 563.98L340.024 560.549L336.195 561.537L333.355 556.277L329.22 557.163L324.528 545.826L317.417 543.883L315.36 538.987L310.941 540.282L308.453 537.896L303.625 543.281L303.284 532.534L306.567 531.182L304.5 525.661L297.229 526.093L297.683 530.398L291.64 529.16L297.172 508.541L302.568 507.007L304.977 501.509L301.466 497.01L298.547 498.589L299.717 495.874L297.002 494.669L305.181 494.385L302.012 490.171L303.443 486.547L315.406 487.149L315.474 484.002L310.805 481.207L313.225 474.686L309.237 472.051L312.588 470.46L314.974 475.084L317.735 466.689L305.545 461.974L304.591 455.976L298.57 455.294L295.366 444.808L303.943 437.629L305.534 439.832L311.725 438.287L315.224 431.96L317.485 433.755L322.211 431.062L327.368 420.19L331.924 419.645L338.149 424.087L344.443 421.11L348.113 423.553L346.817 416.441L351.316 413.896Z" fill="#F0F0F0" stroke="#D2D4D5" stroke-width="0.568024"/>
<circle cx="214.785" cy="576.976" r="10.2244" fill="#55B9F1" stroke="white" stroke-width="2.2721"/>
<circle cx="546.36" cy="312.36" r="10.2244" fill="#55B9F1" stroke="white" stroke-width="2.2721"/>
<rect x="175.687" y="525.289" width="79.2929" height="29.2348" rx="4.82322" fill="#4498AF"/>
<path d="M186.036 543.906V534.612H192.381V536.436H188.283V538.342H191.977V540.171H188.283V543.906H186.036ZM193.375 543.906V536.936H195.53V538.206H195.603C195.73 537.746 195.937 537.405 196.225 537.181C196.512 536.954 196.846 536.84 197.228 536.84C197.33 536.84 197.436 536.848 197.545 536.863C197.654 536.875 197.755 536.895 197.849 536.922V538.851C197.743 538.814 197.604 538.786 197.432 538.765C197.262 538.743 197.111 538.733 196.978 538.733C196.715 538.733 196.477 538.792 196.265 538.91C196.057 539.025 195.892 539.187 195.771 539.395C195.653 539.601 195.594 539.843 195.594 540.121V543.906H193.375ZM200.456 544.024C200.012 544.024 199.617 543.95 199.272 543.802C198.93 543.651 198.659 543.424 198.46 543.121C198.263 542.816 198.165 542.433 198.165 541.973C198.165 541.586 198.233 541.259 198.369 540.993C198.505 540.727 198.693 540.51 198.932 540.344C199.171 540.177 199.446 540.052 199.758 539.967C200.069 539.879 200.402 539.82 200.756 539.79C201.152 539.754 201.471 539.716 201.714 539.677C201.956 539.634 202.131 539.575 202.24 539.5C202.352 539.421 202.408 539.311 202.408 539.168V539.146C202.408 538.913 202.328 538.733 202.167 538.606C202.007 538.479 201.791 538.415 201.518 538.415C201.225 538.415 200.989 538.479 200.81 538.606C200.632 538.733 200.518 538.908 200.47 539.132L198.423 539.059C198.484 538.636 198.64 538.258 198.891 537.925C199.145 537.589 199.493 537.326 199.935 537.135C200.379 536.942 200.913 536.845 201.537 536.845C201.981 536.845 202.391 536.898 202.766 537.004C203.142 537.107 203.468 537.258 203.747 537.458C204.025 537.654 204.24 537.896 204.391 538.184C204.545 538.471 204.622 538.799 204.622 539.168V543.906H202.535V542.935H202.48C202.356 543.171 202.198 543.371 202.004 543.534C201.813 543.697 201.588 543.82 201.328 543.902C201.071 543.983 200.78 544.024 200.456 544.024ZM201.142 542.572C201.381 542.572 201.596 542.524 201.786 542.427C201.98 542.33 202.134 542.197 202.249 542.027C202.364 541.855 202.421 541.655 202.421 541.428V540.766C202.358 540.799 202.281 540.829 202.19 540.857C202.102 540.884 202.005 540.91 201.9 540.934C201.794 540.958 201.685 540.979 201.573 540.997C201.461 541.015 201.353 541.032 201.251 541.047C201.042 541.08 200.863 541.132 200.715 541.202C200.57 541.271 200.458 541.362 200.379 541.474C200.304 541.583 200.266 541.713 200.266 541.864C200.266 542.094 200.348 542.269 200.511 542.391C200.677 542.512 200.888 542.572 201.142 542.572ZM208.199 539.931V543.906H205.979V536.936H208.09V538.215H208.167C208.321 537.789 208.584 537.454 208.956 537.212C209.329 536.967 209.772 536.845 210.286 536.845C210.776 536.845 211.201 536.955 211.561 537.176C211.924 537.394 212.206 537.7 212.405 538.093C212.608 538.483 212.708 538.94 212.705 539.463V543.906H210.486V539.899C210.489 539.512 210.39 539.209 210.191 538.991C209.994 538.774 209.72 538.665 209.369 538.665C209.136 538.665 208.931 538.716 208.752 538.819C208.577 538.919 208.441 539.063 208.344 539.25C208.25 539.438 208.202 539.665 208.199 539.931ZM216.08 542.077L216.089 539.432H216.398L218.358 536.936H220.873L217.959 540.512H217.374L216.08 542.077ZM214.079 543.906V534.612H216.298V543.906H214.079ZM218.408 543.906L216.584 541.011L218.045 539.436L220.972 543.906H218.408ZM225.629 536.936V538.569H221.145V536.936H225.629ZM222.08 543.906V536.582C222.08 536.043 222.181 535.597 222.384 535.243C222.586 534.886 222.868 534.62 223.228 534.444C223.588 534.266 224.004 534.176 224.476 534.176C224.784 534.176 225.075 534.201 225.347 534.249C225.622 534.294 225.827 534.335 225.96 534.372L225.606 535.996C225.524 535.969 225.424 535.946 225.306 535.928C225.191 535.91 225.082 535.901 224.98 535.901C224.719 535.901 224.541 535.958 224.444 536.073C224.347 536.188 224.299 536.346 224.299 536.545V543.906H222.08ZM231.193 540.897V536.936H233.408V543.906H231.293V542.608H231.221C231.066 543.035 230.803 543.374 230.431 543.625C230.062 543.873 229.616 543.997 229.092 543.997C228.617 543.997 228.2 543.888 227.84 543.67C227.48 543.452 227.2 543.148 227 542.758C226.8 542.365 226.699 541.905 226.696 541.378V536.936H228.915V540.943C228.918 541.321 229.018 541.619 229.215 541.837C229.411 542.055 229.679 542.164 230.018 542.164C230.239 542.164 230.437 542.115 230.613 542.018C230.791 541.919 230.932 541.775 231.035 541.587C231.14 541.397 231.193 541.167 231.193 540.897ZM234.821 543.906V536.936H236.976V538.206H237.049C237.176 537.746 237.383 537.405 237.671 537.181C237.958 536.954 238.292 536.84 238.673 536.84C238.776 536.84 238.882 536.848 238.991 536.863C239.1 536.875 239.201 536.895 239.295 536.922V538.851C239.189 538.814 239.05 538.786 238.878 538.765C238.708 538.743 238.557 538.733 238.424 538.733C238.161 538.733 237.923 538.792 237.711 538.91C237.503 539.025 237.338 539.187 237.217 539.395C237.099 539.601 237.04 539.843 237.04 540.121V543.906H234.821ZM244.458 536.936V538.569H240.061V536.936H244.458ZM240.982 535.266H243.201V541.714C243.201 541.85 243.223 541.961 243.265 542.046C243.31 542.127 243.375 542.186 243.46 542.223C243.545 542.256 243.646 542.273 243.764 542.273C243.849 542.273 243.938 542.265 244.032 542.25C244.129 542.232 244.201 542.217 244.25 542.204L244.586 543.806C244.48 543.837 244.33 543.874 244.136 543.92C243.946 543.965 243.717 543.994 243.451 544.006C242.931 544.03 242.484 543.97 242.112 543.825C241.743 543.676 241.46 543.446 241.264 543.135C241.07 542.823 240.976 542.431 240.982 541.959V535.266Z" fill="white"/>
<path fill-rule="evenodd" clip-rule="evenodd" d="M221.823 554.523H208.842L215.333 561.014L221.823 554.523Z" fill="#4498AF"/>
<rect x="517.892" y="263.979" width="56.2929" height="29.2348" rx="4.82322" fill="#4498AF"/>
<path d="M528.242 282.596V273.302H532.117C532.813 273.302 533.395 273.4 533.864 273.597C534.336 273.793 534.69 274.068 534.926 274.422C535.165 274.776 535.285 275.186 535.285 275.652C535.285 276.006 535.211 276.322 535.062 276.601C534.914 276.876 534.71 277.105 534.45 277.286C534.19 277.468 533.888 277.595 533.547 277.667V277.758C533.922 277.776 534.268 277.878 534.586 278.062C534.907 278.247 535.164 278.504 535.357 278.834C535.551 279.16 535.648 279.548 535.648 279.995C535.648 280.495 535.521 280.941 535.267 281.334C535.012 281.724 534.645 282.033 534.164 282.26C533.683 282.484 533.099 282.596 532.412 282.596H528.242ZM530.488 280.785H531.877C532.364 280.785 532.722 280.693 532.952 280.508C533.185 280.324 533.302 280.066 533.302 279.737C533.302 279.498 533.246 279.292 533.134 279.119C533.022 278.944 532.863 278.809 532.657 278.716C532.451 278.619 532.205 278.57 531.917 278.57H530.488V280.785ZM530.488 277.123H531.731C531.976 277.123 532.194 277.082 532.385 277C532.575 276.918 532.724 276.8 532.83 276.646C532.939 276.492 532.993 276.306 532.993 276.088C532.993 275.776 532.883 275.531 532.662 275.353C532.441 275.174 532.143 275.085 531.768 275.085H530.488V277.123ZM539.986 282.727C539.257 282.727 538.628 282.584 538.098 282.296C537.572 282.006 537.167 281.593 536.882 281.057C536.601 280.519 536.46 279.879 536.46 279.138C536.46 278.418 536.602 277.788 536.887 277.25C537.171 276.708 537.572 276.288 538.089 275.988C538.607 275.686 539.216 275.534 539.918 275.534C540.414 275.534 540.868 275.611 541.28 275.766C541.691 275.92 542.047 276.148 542.346 276.451C542.646 276.754 542.879 277.127 543.045 277.572C543.211 278.014 543.295 278.52 543.295 279.092V279.646H537.236V278.357H541.23C541.227 278.121 541.171 277.911 541.062 277.726C540.953 277.542 540.803 277.398 540.613 277.295C540.425 277.189 540.209 277.136 539.964 277.136C539.715 277.136 539.493 277.192 539.296 277.304C539.1 277.413 538.944 277.563 538.829 277.753C538.714 277.941 538.654 278.154 538.648 278.393V279.705C538.648 279.989 538.703 280.239 538.815 280.454C538.927 280.665 539.086 280.83 539.292 280.948C539.498 281.066 539.743 281.125 540.027 281.125C540.224 281.125 540.402 281.098 540.563 281.044C540.723 280.989 540.861 280.909 540.976 280.803C541.091 280.697 541.177 280.567 541.234 280.413L543.272 280.472C543.187 280.929 543.001 281.327 542.714 281.665C542.429 282.001 542.056 282.263 541.593 282.45C541.13 282.635 540.594 282.727 539.986 282.727ZM544.428 282.596V275.625H546.584V276.896H546.656C546.783 276.436 546.991 276.094 547.278 275.87C547.565 275.643 547.9 275.53 548.281 275.53C548.384 275.53 548.49 275.537 548.599 275.552C548.707 275.565 548.809 275.584 548.903 275.611V277.54C548.797 277.504 548.658 277.475 548.485 277.454C548.316 277.433 548.164 277.422 548.031 277.422C547.768 277.422 547.531 277.481 547.319 277.599C547.11 277.714 546.945 277.876 546.824 278.085C546.706 278.29 546.647 278.533 546.647 278.811V282.596H544.428ZM552.026 273.302V282.596H549.807V273.302H552.026ZM553.439 282.596V275.625H555.658V282.596H553.439ZM554.55 274.813C554.239 274.813 553.971 274.71 553.747 274.504C553.523 274.295 553.411 274.044 553.411 273.751C553.411 273.46 553.523 273.212 553.747 273.007C553.971 272.798 554.239 272.693 554.55 272.693C554.865 272.693 555.133 272.798 555.354 273.007C555.578 273.212 555.689 273.46 555.689 273.751C555.689 274.044 555.578 274.295 555.354 274.504C555.133 274.71 554.865 274.813 554.55 274.813ZM559.289 278.62V282.596H557.07V275.625H559.18V276.905H559.258C559.412 276.478 559.675 276.144 560.047 275.902C560.419 275.657 560.863 275.534 561.377 275.534C561.867 275.534 562.292 275.645 562.652 275.866C563.015 276.083 563.297 276.389 563.496 276.782C563.699 277.173 563.799 277.629 563.796 278.153V282.596H561.577V278.589C561.58 278.201 561.481 277.899 561.282 277.681C561.085 277.463 560.811 277.354 560.46 277.354C560.227 277.354 560.022 277.406 559.843 277.508C559.668 277.608 559.531 277.752 559.435 277.94C559.341 278.127 559.292 278.354 559.289 278.62Z" fill="white"/>
<path fill-rule="evenodd" clip-rule="evenodd" d="M552.528 293.213H539.547L546.038 299.704L552.528 293.213Z" fill="#4498AF"/>
</svg>
