<svg width="84" height="84" viewBox="0 0 84 84" fill="none" xmlns="http://www.w3.org/2000/svg">
<path d="M42 77C61.33 77 77 61.33 77 42C77 22.67 61.33 7 42 7C22.67 7 7 22.67 7 42C7 61.33 22.67 77 42 77Z" stroke="#55B9F1" stroke-width="3.5" stroke-linecap="round" stroke-linejoin="round"/>
<path d="M31.8149 31.5C32.6378 29.1609 34.262 27.1884 36.3998 25.932C38.5376 24.6756 41.0511 24.2163 43.4951 24.6355C45.939 25.0547 48.1558 26.3254 49.7527 28.2224C51.3496 30.1194 52.2236 32.5204 52.2199 35C52.2199 42 41.7199 45.5 41.7199 45.5" stroke="#55B9F1" stroke-width="3.5" stroke-linecap="round" stroke-linejoin="round"/>
<path d="M42 59.5H42.035" stroke="#55B9F1" stroke-width="3.5" stroke-linecap="round" stroke-linejoin="round"/>
</svg>
