<svg width="490" height="356" viewBox="0 0 490 356" fill="none" xmlns="http://www.w3.org/2000/svg">
<path d="M252.776 188.842L252.273 190.27L253.111 191.028L251.077 192.847L249.377 191.754L247.343 192.847L242.938 191.387L241.582 193.206H239.547L240.233 194.666L243.281 195.392L243.433 198.201L247.007 199.039L247.183 201.704L246.273 203.85L239.419 209.786L241.063 212.754L237.441 213.472L232.071 209.387L232.973 206.499L234.536 206.978L242.595 204.097L242.372 202.653L237.002 203.858L235.438 203.14L234.098 196.884L237.903 195.927L237.672 194.722L233.419 195.687L230.515 186.791L228.728 187.509L226.262 185.347L226.494 179.578L225.145 176.929L224.028 177.408V174.631L224.331 174.543L224.491 174.559L230.754 171.344L234.145 165.878L243.84 165.152L243.632 161.139L244.654 158.953L244.319 157.859L242.962 157.492V156.399L250.087 154.58L250.765 155.306L249.792 156.998L250.095 159.312L252.465 159.679L254.164 158.585V160.772L253.143 161.865L251.109 162.232L250.43 164.059L252.465 166.612L250.765 167.705L250.087 169.525L251.444 172.804L251.101 173.897L247.718 177.535L248.396 184.828L250.765 185.921V187.014L252.776 188.842ZM215.068 172.612L218.419 173.091L221.555 175.014L221.323 179.825L222.887 182.227L222.664 183.671L224.898 185.833L224.004 189.679L225.791 191.842L225.353 193.765L226.47 195.927L225.121 198.089L225.568 199.773L224.666 200.012L223.996 202.653L222.432 203.618L221.762 206.267H220.422L218.626 203.866L215.499 204.823L213.935 204.105L213.265 202.422L210.799 203.14L211.023 205.541L208.342 205.781L205.429 201.696L207.448 196.645L207.001 195.44L205.884 195.919L206.778 194.961L205.884 194.722V191.594L207.225 191.355L202.748 190.15L201.855 186.544H200.06L199.389 184.621L200.06 181.732L198.049 177.886L198.272 176.921L201.855 174.759L203.865 174.519L204.544 172.836L206.108 173.075L206.554 174.759L207.903 174.998L210.36 173.315L215.068 172.612Z" fill="#F0F0F0" stroke="#D2D4D5" stroke-width="0.5"/>
<path d="M313.799 198.677L306.681 199.77L304.312 197.583L302.612 198.317L299.221 197.95L296.508 196.857L291.083 200.504L287.356 198.317L286.335 199.411H284.979V197.583L283.965 197.224V194.304L281.931 193.211L282.609 189.932L280.239 188.839V187.378L278.883 185.559L281.931 184.099L284.308 184.833L288.306 184.099L288.035 181.913L288.713 181.187H290.069L291.083 182.639L293.117 182.28L294.817 179.36L295.83 180.094L301.256 179.727L305.668 178.993L306.003 177.54L309.394 176.447H312.442L312.211 183.134L314.086 195.373L313.799 198.677Z" fill="#F0F0F0" stroke="#D2D4D5" stroke-width="0.5"/>
<path d="M224.474 174.565L224.011 171.405L221.777 168.525L218.641 166.363H217.301L213.949 168.764L206.114 170.448L205.444 171.413L200.968 168.764L197.162 168.286L193.14 170.448L191.577 173.097L189.111 173.576L186.422 173.097L185.074 171.413L180.829 171.174L177.023 174.062L174.566 174.541L173.672 176.233L168.98 175.507L165.845 177.669L165.398 178.866L162.493 178.626L158.919 180.557L156.262 180.063L155.344 179.408L155.464 176.456L158.52 174.27L161.568 170.264L164.281 169.897L165.637 168.07L165.294 166.977L162.246 167.711L161.225 166.977L160.211 163.698L158.512 163.331V160.411L159.868 159.684L162.238 160.051L164.951 156.772L169.02 158.958H171.063L170.385 155.312L171.741 153.126L177.167 154.945L178.523 153.485H184.962L185.983 149.471L189.71 146.918L191.058 146.551L192.079 147.277L194.114 143.631H197.84L202.579 139.258L208.34 141.086L212.417 137.806L214.452 134.894L217.5 134.527L218.856 136.346H219.878L224.282 135.253L227.673 131.607L232.078 132.333V131.24L234.112 129.053L234.447 126.867L234.391 128.232L237.878 126.995L251.331 127.561L251.746 130.873L260.706 131.463L263.427 130.242L268.007 130.721L267.671 133.785L269.028 135.245L269.363 137.798V140.352L268.007 141.086L268.693 145.825L259.541 155.671L255.815 156.764L254.115 158.591L252.416 159.684L250.046 159.317L249.743 157.004L250.716 155.312L250.038 154.586L242.913 156.405V157.498L244.269 157.865L244.604 158.958L243.583 161.145L243.791 165.158L234.096 165.884L230.705 171.35L224.474 174.565ZM163.395 215.88L129.844 215.521L133.195 209.872L135.214 210.351L141.022 206.744L143.264 206.505L143.041 204.103L145.722 202.419H148.187L149.751 199.539L150.429 200.983L153.118 200.018L152.001 196.651L154.012 197.616V199.3L152.225 201.701V203.385L150.661 204.59V205.795L153.796 204.59L158.049 198.821L165.206 194.496L166.547 191.847L167.895 191.369L168.119 192.574L169.459 192.813L169.02 190.651L169.914 190.172L170.145 187.283L173.72 188.01L178.419 191.855L178.643 193.778L180.877 197.385L178.188 198.59L178.635 201.239L179.983 202.922L178.635 204.127L177.294 207.973L179.082 210.135L177.294 209.417L175.06 212.297L171.701 212.058L171.478 213.742L170.361 214.22L168.797 213.502L164.991 206.529L161.64 206.289L163.658 212.784L163.395 215.88ZM182.856 179.097L183.302 180.541L186.662 179.815L186.43 180.773H185.313V182.935L183.973 184.619L184.643 185.823L185.991 185.584L187.332 188.712L181.739 191.361L179.951 187.515L177.717 185.113L180.175 184.387L180.398 181.985L179.058 181.507L179.728 179.823L182.856 179.097Z" fill="#F0F0F0" stroke="#D2D4D5" stroke-width="0.5"/>
<path d="M252.774 188.842H254.809L255.83 187.015L257.187 187.749L258.87 187.015L261.926 188.475L265.317 185.562L267.352 187.382H273.456L273.791 188.842L272.778 191.395L274.812 192.847L276.169 196.127V200.14L274.477 204.512L273.456 203.786H264.296L263.626 204.512L264.599 205.614L260.538 208.183L258.2 205.238L256.836 206.699L256.812 208.151L251.977 204.592H250.405L249.288 206.507L252.423 209.395L249.743 212.044L250.189 213.489L249.519 214.686H248.617L246.83 212.523L241.061 212.763L239.426 209.794L246.28 203.858L247.189 201.712L247.006 199.047L243.431 198.209L243.28 195.4L240.232 194.674L239.553 193.214H241.58L242.944 191.395L247.349 192.847L249.383 191.754L251.075 192.847L253.11 191.028L252.272 190.27L252.774 188.842Z" fill="#F0F0F0" stroke="#D2D4D5" stroke-width="0.5"/>
<path d="M299.219 197.954V205.606L297.52 207.425L302.946 212.89L303.624 214.35L302.754 214.59L299.18 212.523L296.044 209.395L295.597 211.079L301.182 216.608L304.318 219.497L307.007 219.736L307.669 222.377L308.978 223.582L307.893 225.505L292.015 210.6L288.655 216.369L290.451 220.215L289.772 225.984L286.645 228.146L283.964 228.385L283.046 229.837L282.942 225.649L281.251 224.555V223.095L275.833 215.811L273.791 210.345L273.112 207.792L274.477 204.512L276.168 200.14V196.127L274.812 192.847L272.777 191.395L273.791 188.842L273.456 187.382L274.477 185.562H278.881L280.238 187.382V188.842L282.607 189.935L281.929 193.214L283.964 194.307V197.228L284.977 197.587V199.414H286.334L287.355 198.321L291.081 200.507L296.507 196.861L299.219 197.954Z" fill="#F0F0F0" stroke="#D2D4D5" stroke-width="0.5"/>
<path d="M185.994 149.471L184.973 153.485H178.534L177.177 154.945L171.752 153.126L170.395 155.312L171.074 158.958H169.031L164.962 156.772L162.249 160.051L159.879 159.684L158.523 160.41V163.331L160.222 163.698L161.236 166.977L162.257 167.711L165.305 166.977L165.648 168.07L164.291 169.897L161.579 170.264L158.531 174.27L155.475 176.456L155.355 179.408L156.273 180.062L150.648 179.823L145.725 173.568L143.044 174.533L142.15 171.405L137.227 174.046L133.644 174.533L130.74 172.131L128.275 171.892L127.604 169.251H126.703L126.256 167.567H125.586V169.49L123.575 172.379L119.546 173.584L117.535 171.421L118.429 174.31L117.982 175.514H115.748L115.078 172.387L113.29 170.464L111.272 170.224L109.931 168.541H108.367L108.814 172.379L107.697 173.105L104.115 173.831L101.657 171.182L101.21 171.908L102.551 176.48L103.668 176.241L104.569 177.685L103.005 179.129L101.665 176.967L98.7527 176.009L99.6463 180.342L98.7527 180.82L97.859 179.863L98.5293 178.658H97.6277L97.4042 179.863L95.3856 179.624L92.2499 176.256L90.686 177.222L89.7924 175.778L87.3269 174.812L86.6567 171.206H85.763L84.8694 169.283L83.9678 169.522L81.9571 175.052H81.0555L80.6086 173.368L81.7257 170.24L80.9996 168.796L79.0368 168.557L78.1432 170.001L75.0075 170.958L70.0845 168.317L70.5313 166.873L69.4142 164.232L67.8504 166.155L65.6163 162.309L65.8716 160.578L69.4541 158.416L70.5712 152.878L69.893 150.229L65.6482 148.067L64.7546 145.179L65.8716 143.495L65.6482 140.607L64.0843 139.163L62.297 139.402L60.9486 137.958L55.5788 137.232L54.9086 136.027L59.3847 129.771H60.2784L60.7252 128.567L64.2998 125.918L65.2014 122.55H67.4355L71.6882 120.628L76.8346 121.346L80.856 118.944L84.4864 118.21L84.2789 122.838L84.9572 124.298L90.0477 118.098L92.7605 112.266L109.373 112.633L110.386 114.452H121.572L122.594 115.186L130.389 113L129.033 118.465L131.402 121.745H138.863L139.198 127.218L142.924 128.678L143.267 136.338H174.457L175.135 133.426H181.239L181.917 134.152L181.574 136.338L179.539 136.705L179.204 137.798V143.264H185.308L186.329 143.998L185.994 149.471ZM37.4587 156.971L38.5758 158.168H41.0412L41.9349 159.134L40.5944 162.74L41.2646 164.663L39.7008 167.791L37.6901 167.065L38.3603 163.698L39.254 163.458L39.0305 161.057L35.2246 159.134V156.971H37.4587ZM106.803 198.334L107.027 199.778L109.253 200.496L107.92 203.145L105.694 202.667L105.902 199.06L106.803 198.334ZM44.169 186.797L45.286 188.001L46.6344 187.044L47.0813 188.488L45.9642 191.616H45.286L44.169 187.77L42.6051 187.291L43.0439 186.334L44.169 186.797ZM120.001 192.326L120.902 194.249L118.437 198.573L120.001 192.326ZM42.6051 184.148V181.985L43.9456 181.507L44.6158 182.951L42.6051 184.148ZM84.4864 118.226L84.6539 118.002L84.4864 118.226Z" fill="#F0F0F0" stroke="#D2D4D5" stroke-width="0.5"/>
<path d="M313.797 198.679L318.544 198.32L322.956 208.517H324.305L327.018 210.344H328.374L329.052 209.251L330.073 209.61L329.395 212.53L327.696 214.35L330.073 214.717L331.422 216.169L328.717 220.541L327.018 221.634L327.696 223.821L330.409 225.648V227.834L331.422 228.927L331.765 232.206L329.052 231.472L328.374 232.565L329.395 236.212L328.031 238.031L329.395 240.217L330.488 239.922L328.925 240.648L325.573 239.691L325.119 236.563L321.097 232.956L319.087 229.35L314.834 225.983L312.815 222.863L309.464 219.975L309.017 218.052L306.336 216.608H303.424L302.754 214.589L303.623 214.35L302.945 212.889L297.52 207.424L299.219 205.605V197.953L302.61 198.32L304.31 197.586L306.679 199.772L313.797 198.679Z" fill="#F0F0F0" stroke="#D2D4D5" stroke-width="0.5"/>
<path d="M283.047 229.834L281.731 231.271L280.382 229.826L278.818 229.587L274.342 234.638L271.885 233.92L270.544 234.398L268.757 232.954H267.185L269.204 231.997L268.972 230.313H267.409V228.382L268.526 228.143L268.087 224.297L259.805 228.63L258.911 215.161L261.368 214.204L259.358 210.597L256.812 208.148L256.836 206.695L258.201 205.235L260.539 208.18L264.6 205.61L263.626 204.509L264.297 203.783H273.457L274.478 204.509L273.113 207.789L273.792 210.342L275.834 215.807L281.252 223.092V224.552L282.943 225.645L283.047 229.834Z" fill="#F0F0F0" stroke="#D2D4D5" stroke-width="0.5"/>
<path d="M143.041 285.824L146.623 286.789L147.293 287.994L148.41 287.029L149.974 288.225L148.195 289.422L148.865 290.866L148.195 292.063L143.495 293.986L141.931 295.909L142.378 297.345L138.796 298.311L137.455 301.67H134.99L134.32 299.747L131.862 298.79L129.843 299.986L129.397 301.191L126.261 302.149L125.822 304.311H123.357L123.133 301.431L121.114 301.67L118.426 299.747L121.33 294.465L117.979 290.619L116.415 290.38L115.976 289.183L119.335 282.457L116.87 280.534L112.625 279.568L109.713 281.013L109.266 282.209L105.907 282.927L103.896 284.372L103.449 286.534L101.885 286.295L100.098 287.739L99.1964 287.021L99.4198 285.576L95.1751 285.098L87.3398 287.739L85.1057 290.14L82.8716 289.901L80.4141 292.781L76.6081 294.226L75.2597 293.747L74.3661 292.063L72.3474 292.542L70.999 295.909L68.7649 296.627V298.55L73.0176 299.747L74.8049 297.824L78.3874 299.5V304.79L79.7279 306.234L75.0363 306.473L70.5601 308.396L69.6585 306.713H68.5415L67.8712 304.79L65.8526 304.55L65.1823 304.79L64.5121 308.636L62.9482 309.354L59.8125 307.678L57.5784 305.276L56.4614 305.763L56.0146 303.84L54.6741 302.635L52.44 302.157L51.0916 298.798L52.44 296.875L52.2086 295.67L48.8495 296.149L48.4027 294.704L47.0622 294.465V296.627L45.267 297.832L44.1499 297.345V296.149L41.9158 296.388L38.7881 299.029L38.1099 301.191L36.3226 302.149L37.2163 305.268L35.8678 305.755L35.1976 304.79H33.6337L31.3996 306.234L26.9235 313.199H24.6894L24.9128 311.277L23.3489 311.037L21.3382 312.234L19.3196 311.995L19.0962 312.713L16.4073 313.191L15.5057 315.106L16.8541 315.832V316.798H15.9605L15.5136 317.995L11.7077 317.037L10.8141 317.995L11.0454 319.192L10.1438 319.431L8.80337 317.269L10.8141 316.072L10.822 312.952H12.6093L12.8327 311.029L12.1625 310.311L10.3752 311.029L6.56928 307.901L6.33789 305.26L7.0161 303.577H7.90974L8.14112 300.696L5.00541 298.055L5.45223 292.047L4.55859 291.808V290.364L5.90703 288.92L6.80067 284.356L9.93638 283.638L13.9577 287.723L15.745 284.603L15.0748 279.8L13.9577 279.082L14.8594 276.441L17.7637 274.996H21.1148L23.8037 272.834L23.5803 269.467L21.5616 268.98L22.0085 267.783L19.543 267.305L17.9791 268.988H15.761L14.8673 265.629L17.0935 264.185L17.5483 262.501L20.8994 261.297L22.9181 261.536L23.8117 263.459H25.1601L28.7347 258.408L29.1815 255.767L30.7454 254.802L34.1045 255.041L35.6684 253.836L37.9025 253.597L39.2429 251.674L41.0382 252.392L42.1552 255.273L43.7191 254.554V251.913L42.1552 249.991L42.3786 247.11L47.3016 244.948L48.8655 243.264V238.222L49.3123 237.264L50.6528 237.025L50.8841 235.102L51.331 235.82L53.3416 235.333L53.573 237.017H55.3603L56.7008 234.128L59.1662 234.368L60.9535 236.291H62.5174V235.325L66.3233 233.642L69.2277 235.565L71.4617 235.325L73.0256 236.53L73.6958 240.376L75.9299 242.299L75.7065 243.256L77.055 244.94L79.0656 244.222L80.6295 244.7L79.9593 243.017L84.6509 233.881H86.2148L86.893 232.676H88.2334L88.9036 233.881H91.1377L91.8159 232.676L97.856 231.958L101.215 229.796L110.383 227.634L115.944 224.506L120.005 219.942L123.811 218.019L128.064 217.301L129.851 215.498L163.403 215.857L164.081 218.753L162.062 219.958H160.714L159.597 217.796L157.139 216.822L153.996 219.479L149.089 218.992L148.195 221.402L146.846 221.641L147.517 223.325L146.846 225.248H149.535L150.206 227.171L146.4 228.376L145.953 230.299L147.078 231.017L148.642 230.299L149.759 231.503L150.437 229.82L151.331 229.58L152.224 230.538L153.788 228.854L154.682 231.982L156.477 234.384V235.589H155.791L155.567 234.87L152.663 235.349L150.868 233.426L149.527 234.144L151.091 235.828L149.304 237.272L149.974 240.4L152.663 242.083L151.769 244.724L152.887 246.887L151.323 247.365L151.554 248.81L150.876 249.288L152.44 250.733L151.546 253.134L152.216 254.818L151.323 256.015L151.554 257.459L149.759 256.98L147.748 258.424L142.602 257.227L141.931 255.065L139.474 254.826L138.796 253.382L136.785 252.177H134.99L133.203 254.578L133.649 256.501L136.338 257.945L136.107 259.868L138.572 260.587L140.136 262.509L142.155 267.073L143.719 268.031V269.714L141.931 269.954L138.357 272.355L134.998 272.834L133.881 275.475L129.189 277.637V279.082L131.2 280.278L133.219 279.321L133.665 281.005L136.123 282.688L137.918 285.808L140.152 286.047L141.493 284.124L143.041 285.824ZM234.75 333.625L234.519 331.942L233.178 330.745L231.83 332.429L229.596 332.189L226.468 330.266L225.79 328.343L226.907 324.737L228.471 324.976L229.588 323.053L230.936 322.814V318.729L232.053 316.806L231.822 311.524H232.715L232.947 310.566L230.505 308.883L230.705 307.917L231.822 307.678L231.598 305.755L232.269 305.268L231.152 303.345L231.598 302.149L230.697 298.542L227.793 297.098H225.774L225.104 300.457H216.829V298.534L218.178 296.133L220.635 293.492L223.316 292.295L223.101 291.577H221.752L221.529 290.619L222.822 287.739L219.965 286.542L219.295 285.098L222.167 283.893L222.877 282.696L228.024 281.252L228.918 278.85L229.819 280.294L232.053 280.534L233.17 281.978L232.947 285.106L231.152 285.584L230.928 287.029L231.598 289.901L235.357 292.071L234.95 294.712L237.638 297.593L240.104 298.071L240.327 296.875L242.561 296.157L244.572 298.079L244.349 300.481L242.785 300.242L243.455 302.404L240.319 302.883L236.513 306.968L236.067 309.37L238.301 312.011L239.194 311.532V309.37L243.216 306.729L247.468 306.489L251.274 307.933L252.391 304.814L253.955 305.053L255.296 303.856H256.413L257.314 306.018L262.237 305.779L263.355 307.455L260.897 311.3L258.432 311.54L256.868 309.378L255.751 309.138L253.963 310.096L254.187 311.779L251.729 312.497L251.506 315.138L250.165 315.378L249.719 316.343L247.03 315.864L246.806 318.266L248.825 318.027L249.495 318.992L249.719 321.394L253.748 328.359L253.971 331L252.854 329.317L250.389 328.838L248.602 326.436L245.466 324.514L244.349 322.112L242.561 323.556V324.514L245.027 329.556L244.796 333.881L242.561 332.923L240.543 329.077L237.415 332.205V333.41L235.62 334.12L234.75 333.625ZM65.1983 212.282L80.1827 206.992L84.212 207.71L82.1934 208.428V209.633L86.893 208.676L88.2334 209.154L88.6802 207.95L89.7973 208.428L90.6909 207.71V210.591L89.127 212.753L89.3505 213.71L85.3291 219.958L84.8823 223.086L85.7759 224.769L83.9886 226.692L83.095 226.205L83.3184 229.572L84.6589 232.94L80.4141 236.785L79.0656 235.589L75.0443 235.349L66.5388 232.221L64.9749 232.7L60.9535 231.982L52.9028 233.905H49.5517L49.1048 232.94L46.4239 233.658L52.464 226.445L50.4453 223.804V221.881L48.2112 220.915L45.5223 221.394L45.2989 220.429L47.3176 219.95L47.9878 218.027L65.1983 212.282ZM336.976 348.043L338.987 344.924L336.298 345.642L335.404 343.719L336.968 341.796L337.638 339.155L341.213 335.309L346.583 334.112L346.814 331.95L348.601 331.232L349.942 333.155L353.077 334.838L354.194 337.719L353.301 341.325L355.311 344.445V347.086H348.601L348.378 345.642L347.484 345.402L344.795 348.522V350.445L340.774 353.325L339.872 352.607L341.891 349.248L336.976 348.043ZM334.742 349.48L336.752 349.24L336.984 348.035L335.867 347.796L334.742 349.48ZM148.857 313.215H151.091L152.879 309.609H154.897L156.684 308.165L155.344 305.284L152.655 304.806L151.985 303.122V302.404L154.219 302.165L154.442 300.481L155.336 300.242L155.105 299.045L153.988 298.566L154.658 296.883L156.453 295.199L160.028 295.678L162.262 293.755L163.379 296.157L160.474 298.798H163.163L163.387 299.994L159.142 301.199L157.794 302.396L158.017 304.558L159.357 306.96L161.376 308.404L162.717 308.643L163.618 307.439H164.959L166.746 309.601L165.629 310.566V312.011L163.395 312.976L163.171 314.66L161.153 312.019L158.695 312.737L156.676 314.42V315.378L154.219 316.096V317.54L153.102 317.779H151.538L151.307 316.582L149.073 316.822L148.179 314.42L148.857 313.215ZM158.248 263.483V264.201L167.871 263.962L169.658 264.68L170.775 266.363L169.658 271.167L172.116 274.773L171.669 277.414L170.552 278.611L169.211 279.09L166.746 277.406L164.959 273.8V271.637L162.054 270.919L160.706 268.031L156.461 267.791L155.344 265.39H156.684L156.461 263.706L158.248 263.483ZM63.411 339.634L63.8499 341.317L65.8685 341.078L66.9856 341.796L66.7622 343.479L64.0813 343.958L64.3047 346.36L65.6531 346.599L66.7701 349.48H63.6344L63.1876 350.924L61.6238 350.206L58.7194 350.684L58.2726 351.881L55.8151 352.599L52.6954 349.958L53.3496 347.317L56.0385 345.873H57.6024L58.0492 347.07H58.9428L59.3897 345.626L60.0599 346.104L61.4083 344.908V343.711L60.5306 343.232L60.9615 340.591L63.411 339.634ZM124.474 323.54L124.027 322.335H122.463L119.774 319.934L120.444 315.848L123.803 312.481L125.822 312.721L127.833 314.883L128.28 317.045L127.386 317.524V318.968L129.843 318.489L129.62 323.053L126.931 324.019L126.484 325.216L124.474 323.54ZM339.888 323.301L341.229 324.745L340.79 329.548L336.76 332.429L335.42 331.224L333.856 331.463L332.292 330.498V332.66L331.391 332.899L330.274 330.498V324.737L339.888 323.301ZM169.658 234.639L170.328 236.801L167.193 238.724L166.746 240.168L167.64 240.887L168.31 239.442H171.445L172.347 242.083L170.328 245.211L166.307 246.416L164.065 243.288L164.288 241.852L162.725 240.168L162.27 237.041L169.658 234.639ZM59.3817 324.984L61.8472 326.428L62.7408 328.591L64.5361 329.07L65.8765 328.351L67.2249 330.274L69.459 329.796L70.7995 331.718L70.3527 333.641H69.459L67.6638 331.479L66.9936 331.718L67.6638 333.163L67.2249 334.367L66.0999 334.128L65.6611 332.205L65.2143 333.163H64.0972L63.6504 330.043L60.9615 330.522V331.966L59.8445 332.205V333.163L57.8258 332.684L58.7274 329.804L58.0572 327.402L58.504 325.24L59.3817 324.984ZM178.156 258.432L179.504 259.876L178.834 262.517L175.028 265.406L172.563 264.688L171.661 263.491L172.339 260.602L173.456 260.363L174.126 258.919L178.156 258.432ZM368.07 323.061L368.748 324.258L367.184 327.386V330.753L366.282 331.471L363.378 330.992L362.477 330.035L362.03 326.436L363.147 325.718L364.272 326.197L364.942 323.556L367.176 324.035L368.07 323.061ZM197.84 239.442V243.528H194.489L193.595 241.605L195.159 240.16L197.84 239.442ZM379.033 330.506L377.908 331.224L377.237 329.788L379.472 327.625L379.918 324.498L381.267 324.019L381.035 327.139L379.033 330.506ZM2.56387 299.037L4.35912 299.755L2.79525 302.157L1 300.242L1.22341 299.045H2.56387V299.037ZM243.694 292.071V293.994L242.354 294.712L240.79 294.234L241.684 292.311L242.809 291.593L243.694 292.071ZM73.0256 351.642L73.249 353.804L71.4538 355.001L71.0069 353.325L73.0256 351.642ZM181.738 236.562L182.64 238.724L180.845 239.203L179.504 237.519L181.738 236.562ZM55.1289 337.471V339.394L53.5651 338.907L53.3337 339.873H52.2166L51.5464 339.155L55.1289 337.471ZM72.8022 331.471L74.8129 333.394L74.5895 334.352L72.5708 333.394L72.132 331.711L72.8022 331.471ZM58.0412 335.556L58.488 337.934L57.8098 338.197L56.6928 336.514L58.0412 335.556Z" fill="#F0F0F0" stroke="#D2D4D5" stroke-width="0.5"/>
<path d="M309.689 33.2747L312.593 28.2161L315.944 29.4209L318.633 27.498L318.865 25.575L321.769 27.0192L324.003 26.0538L325.567 23.8835L326.237 19.3116L328.025 17.1413L329.142 12.0827L330.705 12.5614L331.607 11.596L332.948 11.8354L333.394 14.7237L334.511 15.9285L335.86 14.9631L335.628 13.5189H337.647L339.211 14.7237L339.434 11.8354L341.668 12.0747L342.339 13.0402H343.903L341.214 15.6892L341.445 16.4073L344.349 14.7237L345.466 14.9631L344.796 16.1679L342.562 16.6466L340.543 21.4579L341.892 21.9446L343.903 19.7744L345.698 20.0137L346.591 21.2186L345.028 25.3117L346.823 22.9021L349.057 23.1415L349.727 24.5857L349.28 26.2692L347.262 26.5086L346.145 27.9528L345.474 29.8757L346.145 32.764H348.163L348.834 31.5592L353.98 32.5247L355.32 30.8411L354.427 29.8757L354.866 28.9102L356.429 30.3544L360.682 29.6363L358.448 33.7295L359.118 35.1737L360.682 34.6949L362.023 33.0114L364.488 32.5327L364.041 35.445L361.584 36.8891L361.137 39.0594L359.573 39.2988L358.672 43.3919L355.544 40.5036L353.749 40.2642V41.2297H354.427L353.749 42.9132L355.544 43.1526L354.642 46.2803L355.759 47.4851L356.206 46.2803L357.77 45.8016L363.363 45.3149L362.693 47.4851H366.044L367.161 49.408V47.7245L369.395 47.2378L371.182 50.3655L372.97 50.6049L374.095 49.4001L373.193 48.1953L374.31 46.9904L371.406 44.1021L376.999 43.384L379.233 45.7936L379.903 43.6233L381.691 42.6579L382.138 40.4956L383.701 39.0514L382.8 32.0699L388.17 34.2401L389.733 37.1285L389.287 38.3333H391.305L392.869 40.0169L392.638 40.9823H391.744L389.055 44.5968L385.473 45.5622L384.132 47.7325L381.667 46.5277L379.879 47.0064L378.539 49.416H377.191L373.831 51.5863L374.502 52.7911H376.066L379.425 55.4401L383.231 52.5517L397.321 49.424L399.34 47.0144L403.106 45.3308L403.593 46.6394L401.893 47.7325L400.872 49.9187L397.824 52.1049L394.433 52.4719L388.672 56.4853L387.316 58.3125L377.821 64.1531L373.417 62.3259H371.382L370.361 60.8658L363.243 56.8524L358.161 56.4853L355.783 57.9455L352.4 57.2114L351.044 58.3045H349.009L348.674 60.1317L346.631 60.4987L336.801 60.1317L331.711 53.9321L329.341 52.4719L329.006 50.6528L326.636 51.7459L326.971 53.9321L326.293 54.6582L325.272 54.2911L321.203 56.8444L318.49 61.2248L316.168 61.9429L314.811 65.9563L311.428 63.4031L306.003 62.3099L301.59 63.044L296.165 60.8498L292.096 60.4828L290.747 59.0226L288.704 59.3897L284.635 57.9295L280.909 58.2965L278.196 59.3897L274.805 62.3099L272.771 68.1505H271.749L269.715 65.9643L266.667 66.6983L266.324 63.052L257.18 64.1451L256.159 66.3313L258.193 69.6186V71.8048L255.823 71.0788L252.432 75.8182L248.363 77.2784L242.602 81.6588H239.546L236.834 83.478L232.086 84.212L230.052 81.6588L225.982 79.1055L220.9 80.9247L217.174 80.5577L214.804 82.3849L212.091 83.111L205.987 83.478V71.4298L208.357 65.5973L209.043 61.2168L206.673 56.4774L208.022 54.6502L206.322 46.9904L207.008 46.2564L208.022 46.6234L209.043 45.1633L207.687 43.7031L207.008 41.1499L208.022 36.4104L205.309 34.9503L203.609 37.1365L202.253 37.5035L204.28 33.8332L203.945 32.389L199.205 27.6416L204.966 25.4554L207.679 22.168H210.048L213.064 24.7053L217.166 23.9952L216.83 26.5485L217.852 26.9155L222.599 22.9021L223.956 28.0086L225.99 28.7347L228.703 26.1814V24.3543H232.094L232.772 22.8941H233.786L233.451 21.434L236.506 19.2478L238.198 19.9738L239.89 18.1467L248.028 16.3195L251.419 18.5057L254.467 17.7796L255.145 16.6865L254.467 15.9525L257.858 13.3992L257.523 11.9391L255.823 11.213L257.523 9.0188V7.20759L259.222 6.84056L260.236 7.56664L261.257 6.84056L261.935 3.1942L264.297 1L266.675 2.82717L269.044 1.36703L273.114 2.46014L276.84 1.73406L278.196 3.1942L278.539 5.74745L279.896 6.47353L284.3 6.1065L288.704 7.19961L296.843 4.64636L299.213 6.1065L300.234 5.38042L309.386 6.84056L313.79 10.1279L315.49 10.4949L318.195 13.4152L316.838 15.6014V17.3887L315.274 18.1148L314.373 16.9099L310.128 17.3887L308.109 19.551L307.439 23.1654L306.091 24.849L305.42 25.575L302.731 25.0963L302.285 26.0618L302.963 27.5059L302.061 29.9156L302.508 33.2827H303.402L303.633 32.3172L306.537 32.5566L308.101 30.873L308.548 32.796L309.689 33.2747ZM370.313 7.03206L370.983 7.51079L370.313 9.44169L370.983 10.4071H381.499L389.327 11.3726L387.986 11.6119L385.082 14.2609L382.393 12.8088L382.161 14.253L380.151 14.0136L378.802 16.4232L374.326 12.5694L373.209 13.2955L372.539 12.8168L371.422 14.0216L370.975 16.6706L373.433 17.3967L374.781 20.7717L378.132 23.4207L380.151 22.942L380.59 24.3862L379.026 27.2745L375.443 26.7958L375.22 23.9074L373.425 24.1468L371.637 25.8304L364.041 26.0538V24.849L365.829 23.4048V21.4739H367.847L368.741 20.2691H369.411L368.964 21.4739L370.983 20.7558L368.294 16.902L364.712 14.253V13.2875L367.393 12.5614L365.829 10.6385L366.06 8.46826L367.624 7.02408H370.313V7.03206ZM392.007 22.4393L393.124 25.5671L392.007 31.3438L393.356 33.7534L390.89 34.9582L390.444 33.5141H388.209L386.422 31.5911L382.393 29.9076L382.161 26.0538L383.51 24.3702L385.967 25.8144L387.531 29.4209L389.095 29.6602L390.436 27.2506L389.997 23.1574L392.007 22.4393ZM382.832 18.3461L384.396 20.0297L381.268 22.6787L379.919 22.4393L379.696 19.7903L381.483 18.3461H382.832ZM316.399 20.0377L317.07 21.0031L316.399 22.926L313.718 23.6521L312.593 21.4819L316.399 20.0377ZM364.943 36.4104L366.73 37.1365L366.507 38.3413L363.818 37.8626L363.587 36.6577L364.943 36.4104ZM400.505 17.8674L401.399 19.3116L400.058 20.7558L399.157 18.3461L400.505 17.8674Z" fill="#F0F0F0" stroke="#D2D4D5" stroke-width="0.5"/>
<path d="M236.842 83.4691L235.821 86.7485L224.61 101.621L223.956 103.895L227.331 111.156L227.922 115.856L234.057 123.555L234.464 126.866L234.129 129.053L232.095 131.239V132.332L227.69 131.606L224.299 135.252L219.895 136.345H218.874L217.517 134.526L214.469 134.885L212.435 137.806L208.357 141.085L202.597 139.266L197.857 143.638H194.123L192.088 147.284L191.075 146.558L189.719 146.917L185.992 149.471L186.328 144.005L185.306 143.271H179.21V137.806L179.546 136.712L181.58 136.345L181.915 134.159L181.245 133.433H175.141L174.463 136.345H143.273L142.93 128.686L139.196 127.233L138.861 121.76H131.401L129.031 118.481L130.387 113.007L122.592 115.201L121.571 114.467H110.384L109.371 112.648L92.7589 112.281L90.0461 118.114L84.9555 124.313L84.2773 122.853L84.4848 118.225L84.6523 118.002L90.469 114.148L91.3706 108.858L93.6047 105.483L96.509 103.56L96.7404 100.193L98.0809 98.7487H100.538L106.132 94.9029L110.376 94.4162L115.531 91.5278L117.095 89.3655L117.765 85.5117L119.552 81.9053L122.688 79.4956L123.581 77.8121L124.922 77.5727L125.592 75.6418H126.709L128.058 74.2056L130.739 66.498L133.866 63.3703L137.225 63.6096L138.566 65.0538L143.712 66.2586L143.042 73.4795H141.255L141.023 77.8121L140.13 79.2563L141.702 78.5302L141.917 80.2217L145.946 84.3069L148.412 82.6234L150.199 83.1101L151.093 81.9053L148.627 79.735L150.646 77.3333L154.667 76.3679L157.356 78.7775L156.909 85.7511L157.803 85.2724L158.026 81.9053L160.268 81.4185L164.066 82.8627L169.883 86.7165L169.436 84.5543L160.939 80.2217L158.92 77.3333L157.133 77.086L153.111 72.2747L152.21 72.5141V73.7189L149.976 73.9583L147.51 75.6418L146.17 78.0514L145.946 82.6234L145.5 78.2908L141.917 75.4025L143.042 75.1631L143.712 76.1285L145.5 75.6418L146.625 74.445V72.9928L154.452 69.147L153.997 65.2932L155.569 63.849L156.016 60.4819L165.303 50.995L166.66 51.362L168.016 49.9019L173.107 51.362L178.867 50.995L181.245 48.4417L182.258 42.9682L185.649 40.0559L193.453 38.2287L197.171 40.782L202.261 37.4947L203.618 37.1356L205.317 34.9414L208.022 36.4015L207.009 41.149L207.687 43.7022L209.044 45.1624L208.022 46.6225L207.009 46.2555L206.323 46.9896L208.022 54.6493L206.674 56.4685L209.044 61.216L208.357 65.5884L205.988 71.429V83.4691L212.091 83.1021L214.804 82.376L217.174 80.5488L220.908 80.9159L225.991 79.0887L230.06 81.642L232.095 84.1952L236.842 83.4691Z" fill="#F0F0F0" stroke="#D2D4D5" stroke-width="0.5"/>
<path d="M303.874 81.9023L302.757 83.8253L302.534 90.0887L304.991 91.2935L310.361 91.7722L313.05 94.1819L314.837 93.9425V95.1473L311.478 95.6261L310.361 95.1473L310.138 93.2244L309.236 92.985L307.449 94.6686L308.566 96.0649L312.587 97.557L313.034 98.5224L312.132 99.4879L309.005 98.7618L309.451 100.206L308.334 100.932L307.217 99.2485L303.411 99.0091L302.972 98.0437L304.09 97.557L304.313 96.1128L300.06 96.5915L299.39 95.1473L299.837 93.7031L301.847 92.985L299.613 92.5063L296.254 90.1047L294.244 92.2669L294.467 94.6766L293.127 96.1208L289.991 97.5649L281.27 95.8814L280.153 96.6075L279.921 98.5304L278.134 99.0091L277.464 100.214L278.804 103.046L280.6 104.299H282.387V105.504L284.174 106.709L286.193 107.195L287.98 106.23L291.331 106.469L292.68 106.948L294.02 109.35L297.156 110.076L297.826 112.485L296.924 113.93L298.273 114.408L298.943 116.571L301.975 117.776L301.161 118.972L298.504 118.669L297.786 121.462L296.43 119.164H295.672L293.853 125.81L283.528 125.842L282.738 128.34L274.967 128.1L273.139 130.247L268.009 130.741L263.429 130.262L260.708 131.483L251.748 130.893L251.333 127.582L237.881 127.015L234.394 128.252L234.45 126.887L234.043 123.576L227.907 115.877L227.316 111.177L223.941 103.916L224.596 101.65L235.806 86.7775L236.827 83.4901L239.54 81.6709H242.596L248.357 77.2905L252.426 75.8304L255.817 71.0909L258.187 71.817V69.6308L256.152 66.3435L257.174 64.1572L266.317 63.0641L266.66 66.7105L269.708 65.9764L271.743 68.1627H272.764L274.799 62.3221L278.19 59.4018L280.903 58.3087L284.629 57.9417L288.698 59.4018L290.741 59.0348L292.089 60.4949L296.159 60.862L301.584 63.0562L305.997 62.3221L311.422 63.4152L314.805 65.9685L316.162 61.9551L318.531 61.229L321.244 56.8486L325.313 54.2953L326.335 54.6623L327.013 53.9363L326.678 51.75L329.048 50.6569L329.383 52.4761L331.752 53.9363L336.843 60.1359L346.673 60.5029L348.716 60.1359L349.051 58.3087H351.085L352.442 57.2156L355.825 57.9496L358.203 56.4895L363.285 56.8565L370.402 60.8699L371.424 62.3301H373.458L377.863 64.1572L387.357 58.3167L388.714 56.4895L394.475 52.4761L397.866 52.1091L400.914 49.9229L401.935 47.7366L403.634 46.6435L403.148 45.335L405.19 46.3004L405.414 48.2234L397.578 54.7262L396.238 54.9655L387.98 64.5721L386.416 65.5376L383.057 65.0589L382.163 66.7424L383.28 68.1866L381.94 69.3914L378.804 70.3569L375.668 72.7665L372.094 73.2452L370.53 75.6469L363.82 77.8171L359.79 80.4661L356.663 79.7401L354.429 80.2268L353.311 81.6709L355.099 81.9103L354.429 83.3545L345.7 88.1658L342.564 92.9771L339.213 95.8654L338.542 94.9L336.3 95.1393L333.173 98.2671L332.726 94.4133L333.396 93.6872L322.888 82.8598L321.324 82.3811V80.6975L320.207 79.2533L316.186 80.2188L314.39 82.3811L310.369 83.1072L309.028 82.8678L307.911 79.014H306.348L305.669 80.6975L303.874 81.9023ZM332.064 114.384L332.734 113.427L336.308 112.709L338.55 111.025L340.114 113.674L349.29 112.23L350.399 111.265L352.394 114.632L352.865 120.648L350.176 124.98H351.74L351.963 126.903L354.197 128.348L355.976 131.954L355.538 128.348L356.431 124.98L357.548 123.776L361.578 122.331L365.822 118.238L365.599 116.555L363.58 116.794L363.812 114.871L362.463 113.666L362.24 111.017L360.453 107.65V106.445L362.24 104.283L359.104 103.804L357.987 104.531L357.317 102.121L358.881 101.642L361.338 97.3096L363.357 96.5835L364.697 94.6606L366.923 95.6261L367.602 97.7883H368.719L368.942 91.0541L369.612 90.5754L372.078 92.985L375.429 92.5063L375.652 94.1899H377.216L378.341 92.0276L377.448 86.9689L379.458 86.2429L380.352 82.3891L382.809 79.5007L386.392 78.2959L388.179 75.1681L391.985 74.6894L392.887 71.801H393.78L395.799 74.9288L394.682 77.0911L395.352 78.7746L397.586 79.2533L399.15 77.8092H400.946L401.169 80.4502L399.828 80.2188L399.382 80.9369L398.935 84.7907L397.818 86.4742L398.265 87.9184H399.605L401.169 85.7562L403.858 86.7216L405.198 86.2429L404.759 84.0726L406.323 83.1072L407.44 79.9794L405.876 76.6123L407.656 76.373L407.879 74.2107L409.228 72.7665L410.345 73.4926L411.685 77.8251L411.462 80.4741L414.366 87.2163L411.677 89.1392L409.89 88.8998L406.986 86.7376L406.307 87.2163L407.201 89.3786L405.637 94.1899L406.986 96.5995L406.754 99.7272L409.22 100.693L409.443 102.616L407.209 106.701L403.403 106.461V107.666L406.092 111.52L405.645 114.408L403.858 117.057L404.975 117.297L406.539 116.092L406.762 113.93H409.451V110.563L411.238 107.914L413.034 107.427L414.127 108.392L413.927 110.802L416.6 117.057L416.393 118.741L414.159 119.459L414.382 120.903L415.499 122.108H420.422L418.858 119.698L420.207 119.459L419.09 117.297V112.964L419.313 109.118L420.661 107.195L419.313 106.23L419.544 108.153H418.419L417.749 105.265L419.098 100.693L417.98 98.283L419.321 97.3176L421.786 97.557L423.127 95.634L425.592 96.3601L424.244 92.7537L424.691 88.4211L427.38 90.1047L430.284 90.5834V92.0276L432.726 94.1899L432.295 97.7963L429.829 100.685L430.946 105.169L430.108 104.267L428.074 104.993L427.739 106.086L428.417 109.007L427.404 111.193L429.773 113.746L429.095 117.393L431.13 119.579L428.752 126.145V128.332L426.382 129.792L425.369 131.978L420.957 135.991L418.587 136.358L417.566 135.632V133.446L415.531 132.353H412.818L407.057 125.427L406.036 125.06L403.65 128.348L400.267 128.707L394.842 125.427L393.485 123.6L395.528 121.773L394.507 121.047L392.472 120.68L390.78 118.494L383.32 117.033L380.95 118.861L381.629 122.507L379.929 125.06L380.95 126.52L378.916 127.981L375.19 127.246L373.155 127.981L370.442 126.887L366.373 127.981L365.017 133.813L361.969 136.733L360.947 138.92L357.891 138.194L353.487 142.566H341.622L337.21 146.212V142.566L338.566 139.646L337.888 136.725L336.532 135.265V130.893L333.476 129.066L334.832 118.127L333.133 117.401L334.154 114.121L332.064 114.384ZM423.997 66.4951L427.348 67.6999L428.241 69.6228L427.348 72.7505L430.483 76.357L429.366 79.006L427.348 79.7321V83.3465L426.231 83.5859L425.329 85.2694L422.64 84.5434L423.087 79.4927H422.185L422.417 76.6043L421.515 75.6389L419.951 75.8783L418.611 72.0244L418.834 70.8196L421.523 69.3754L422.193 67.6919L423.997 66.4951ZM480.583 8.95117L481.03 15.454L485.283 19.0684L486.623 18.3423L489.312 19.0684L487.748 21.9568L483.727 22.4355L479.921 19.5472L478.357 19.7865L477.24 18.3423L476.338 16.1721L476.785 14.7279L475.668 12.805L477.016 10.156L480.583 8.95117ZM321.324 90.5674L322.441 91.0462L323.111 92.7297L320.877 96.3442L315.954 99.2325L314.39 98.7458L313.951 97.541L316.632 95.8574L317.311 92.9691L319.992 90.5595H321.324V90.5674ZM423.55 50.3697L426.239 51.3351L428.026 50.6091L428.249 51.8139L426.015 53.0187L424.675 58.3167H422.209V56.8725L420.199 54.4629L421.763 53.9762L421.084 51.5665L423.55 50.3697ZM312.818 86.4742L314.382 89.3626H311.693L311.255 87.6791L312.818 86.4742ZM400.954 71.3143L401.624 71.7931V74.2027L400.507 75.1681L400.275 72.0404L400.954 71.3143ZM313.497 106.206L313.943 107.65L312.595 108.616V106.206L313.943 105.727L313.497 106.206ZM433.388 68.6653L434.289 70.1095L432.279 69.6308L432.047 68.6653H433.388V68.6653Z" fill="#F0F0F0" stroke="#D2D4D5" stroke-width="0.5"/>
<path d="M312.44 176.451H309.392L306.001 177.544L305.666 178.996L301.254 179.73L295.828 180.097L294.815 179.363L293.115 182.283L291.081 182.642L290.067 181.19H288.711L288.033 181.916L288.304 184.102L284.307 184.837L281.929 184.102L278.881 185.563H274.477L273.455 187.382H267.351L265.317 185.563L261.926 188.475L258.87 187.015L257.186 187.749L255.83 187.015L254.809 188.842H252.774L250.739 187.015V185.922L248.37 184.837L247.691 177.544L251.074 173.897L251.418 172.804L250.061 169.525L250.739 167.706L252.431 166.613L250.404 164.059L251.074 162.232L253.109 161.873L254.13 160.78V158.594L255.83 156.767L259.556 155.674L268.708 145.828L268.03 141.088L269.386 140.362V137.809L269.051 135.256L267.687 133.795L268.03 130.732L273.16 130.237L274.979 128.091L282.751 128.33L283.549 125.824L293.865 125.793L295.685 119.154H296.443L297.799 121.444L298.517 118.659L301.174 118.963L301.988 117.766L304.988 120.894H307.669L307.222 127.628L306.105 131.234L308.124 132.678L309.241 135.08L300.735 143.745L299.85 145.907L298.501 146.155L295.373 150.719L292.908 152.402L289.772 157.461L285.974 161.546L289.772 159.384L291.121 156.735L299.618 148.556L300.735 146.155L306.105 141.096L310.358 135.567L312.592 135.327L311.922 132.678L313.709 124.739H314.379L314.611 122.33L317.068 117.766L319.98 116.8L322.438 117.766L322.885 116.322L326.459 114.151V111.989L325.119 111.024V110.066L326.691 110.306L327.576 108.861L329.818 109.101L331.382 111.024L332.723 110.306L333.848 110.784L330.935 112.955V114.151L332.06 114.391L334.143 114.103L333.122 117.391L334.821 118.117L333.457 129.056L336.513 130.883V135.256L337.869 136.716L338.547 139.628L337.191 142.548V146.195V149.474L338.547 152.027H332.443L333.122 154.213L330.752 157.86L329.052 158.227L327.018 161.873L321.935 165.153L317.531 165.512L316.166 166.613L313.462 172.078L313.797 176.451H312.44Z" fill="#F0F0F0" stroke="#D2D4D5" stroke-width="0.5"/>
<path d="M277.477 242.33L277.7 241.364L281.282 241.125L283.517 239.441L285.527 239.928L285.974 238.245L288.216 237.04L290.003 234.638L294.48 232.715L297.161 232.955L297.384 232.229L300.065 233.433L302.084 233.194L302.977 234.399H305.881L308.57 236.561L312.592 237.766L316.174 240.168L316.621 242.33L317.962 243.287L323.786 241.612L328.925 246.415L329.595 249.543L331.382 250.74L329.595 254.107L329.818 255.551L331.829 254.107L332.276 251.705L333.393 254.107L337.422 256.269L337.646 257.474L341.451 260.833L339.888 267.32L341.005 269.243L338.547 273.089L336.975 272.37L335.898 273.783L333.121 268.261L330.752 267.894L328.717 266.075L325.996 265.349L320.236 267.168L318.201 264.982L311.762 264.623L308.371 263.53L307.014 261.703L303.288 262.07L300.24 263.53L298.541 262.796L295.828 263.889L293.849 263.689L294.615 258.343L300.472 253.692L300.424 251.083L296.506 247.5L295.828 249.311L293.554 250.708L291.511 248.338L289.054 242.761L285.152 244.716L283.485 242.904L277.477 242.33Z" fill="#F0F0F0" stroke="#D2D4D5" stroke-width="0.5"/>
<path d="M268.669 244.018L269.754 246.508L269.73 249.691L268.406 251.12L267.72 259.13L266.02 262.043L264.648 263.168L261.935 263.535L257.531 261.716L256.174 264.628L251.77 267.173L250.749 266.447L251.084 264.261L248.714 262.075L249.049 260.982L247.35 257.702L242.267 251.144L239.889 249.683H236.163L233.45 251.144L229.381 251.207L227.594 249.54L228.041 245.933L229.381 244.01L234.974 242.087L235.421 240.165L240.121 238.72L241.685 236.797L244.15 237.037L246.608 235.832L252.209 236.071L254.898 237.276L256.908 236.311L258.025 237.994H264.065L263.842 241.84L267.863 243.045L268.669 244.018ZM225.807 240.412L226.924 242.095L223.796 243.061L223.564 241.377L225.807 240.412Z" fill="#F0F0F0" stroke="#D2D4D5" stroke-width="0.5"/>
<path d="M293.85 263.689L283.988 266.777L279.919 266.051L278.562 264.591H277.206L275.858 266.051L271.445 264.95L266.02 262.038L267.711 259.125L268.397 251.115L269.722 249.686L269.746 246.495L268.669 244.013L272.107 243.774L272.331 241.125H274.796L275.459 243.048L277.477 242.33L283.485 242.904L285.153 244.716L289.055 242.761L291.512 248.338L293.555 250.708L295.829 249.311L296.507 247.5L300.425 251.083L300.472 253.692L294.616 258.343L293.85 263.689Z" fill="#F0F0F0" stroke="#D2D4D5" stroke-width="0.5"/>
<path d="M355.989 174.05L358.223 175.494L358.67 177.417L357.776 178.622L358 180.784L356.436 181.989L356.213 184.39H355.542L354.194 183.425L352.853 180.537L351.29 180.776L352.407 178.614L347.484 178.853L347.93 176.212L350.619 174.768L351.513 171.64L351.066 170.435L348.162 170.196L348.609 167.308L346.821 166.103L346.143 169.957L344.356 169.238L343.909 174.289H341.675L341.452 175.007L343.239 178.374L337.869 181.015H342.792L343.686 178.853L344.356 180.297L346.143 180.776L348.609 183.186L350.843 183.664L350.396 186.066L348.609 188.707L348.832 192.553L349.51 194.715L351.29 195.194L352.415 197.843L352.183 200.484L353.508 202.407L353.308 207.697L356.883 208.654L358.447 210.817L363.146 209.133L365.827 210.577L367.176 209.372L368.069 215.867L369.864 216.585V219.234L368.516 221.636H370.08L370.311 224.038L372.099 223.798L371.867 221.636L374.109 219.474L375.673 219.952L376.12 219.234L377.229 219.713L377.46 218.995H378.801L379.694 220.2L379.471 221.644L385.511 227.413V230.054L384.171 230.293L384.617 233.9L383.5 235.096H380.811L378.577 236.78L377.46 239.421L371.644 238.463L370.527 237.745V236.062H368.293L366.505 237.985L366.729 240.147L368.516 239.668L368.069 241.591L366.058 242.557L367.176 245.437L372.099 245.676L372.769 246.155L372.322 248.07L372.992 248.078L375.458 245.198L378.362 245.437L376.351 246.881L376.575 249.283L377.692 252.65L379.256 253.368V255.052L380.373 254.334L381.937 255.052L381.274 257.932L378.809 258.897L376.575 257.214V261.539L375.011 262.496L373.247 261.052L372.106 258.171L367.854 256.248L367.407 254.086L361.367 252.889L361.814 255.052L359.58 256.256V258.658L356.891 261.299L355.989 260.342L353.978 260.581L354.202 259.137L351.066 254.334L353.085 252.171L355.774 252.411V251.445L353.085 250.488L354.202 248.325L350.18 250.966L347.946 250.488L347.053 249.283L347.5 247.121L349.287 245.198L348.84 242.796L350.635 239.19L350.404 235.583L348.393 233.9L348.617 232.216L346.829 229.575L346.598 227.413L341.675 226.695L341.906 225.011L341.228 224.532L339.888 224.772L340.558 229.096L337.869 230.54L332.946 236.309L333.393 237.275L330.489 239.916L329.387 240.211L328.031 238.025L329.387 236.205L328.374 232.559L329.052 231.466L331.757 232.192L331.422 228.913L330.409 227.82V225.633L327.696 223.814L327.018 221.628L328.717 220.535L331.43 216.162L330.074 214.702L327.696 214.343L329.395 212.524L330.074 209.612L329.052 209.245L328.374 210.338H327.018L324.305 208.519H322.956L318.544 198.314L313.805 198.681L314.092 195.377L312.217 183.138L312.448 176.443H313.805L313.469 172.071L316.174 166.605L317.531 165.512L321.935 165.145L327.026 161.866L329.06 158.22L330.76 157.853L333.13 154.206L332.451 152.02H338.555L337.199 149.467V146.187L341.611 142.541H353.476L357.88 138.169L360.936 138.895L361.957 136.708L365.005 133.788L366.362 127.956L370.431 126.863L373.144 127.956L375.178 127.222L378.905 127.956L380.939 126.495L379.918 125.035L381.617 122.482L380.939 118.836L383.309 117.009L390.769 118.469L392.461 120.655L394.495 121.022L395.517 121.748L393.474 123.575L394.83 125.402L400.256 128.682L403.639 128.323L406.025 125.035L407.046 125.402L412.807 132.328H415.52L417.554 133.421V135.607L418.576 136.333L420.945 135.966L425.358 131.953L426.371 129.767L428.741 128.307V126.12L431.119 119.554L429.084 117.368L429.762 113.721L427.392 111.168L428.406 108.982L427.727 106.061L428.063 104.968L430.097 104.242L430.935 105.144L432.052 108.359L433.4 109.086L435.858 108.846L437.653 107.402L438.323 109.086L441.459 109.804L445.704 107.641L448.84 107.881L450.18 105.471L450.412 109.325L452.43 108.12L453.547 111.008H456.228L456.667 109.804L458.231 110.282L455.542 112.692V114.615L453.084 116.298L454.872 118.461L454.648 122.067L455.989 122.793L456.212 123.998L459.116 124.477L460.904 130.493L459.34 131.458L455.534 131.698L454.417 129.527L451.959 128.323L450.396 123.99L447.491 124.716L444.579 123.272L442.121 127.118L440.558 126.639L438.77 129.288L439.664 133.381L438.77 133.621L437.206 131.937L435.858 133.381L436.536 134.825L436.089 139.397L431.837 142.046L433.624 143.251L433.855 144.695H434.964L435.643 143.491L436.752 143.969L436.983 142.764H437.885L439.002 144.927L440.566 144.687L441.906 147.089V149.251L443.47 149.012L444.148 150.935L446.159 149.251V150.688L447.507 150.456L449.071 151.422V157.677L450.188 161.044L446.606 162.488L449.51 166.813L449.957 168.975L448.616 171.616L445.927 171.377L442.345 164.643V162.72L440.334 164.403L437.645 162.72L436.528 164.403L437.198 167.531L441.22 169.941L441.443 172.103L440.095 173.786L437.861 173.547L436.297 176.435L438.986 176.914L439.879 178.119L436.528 178.358L436.752 179.563L435.635 180.289L435.411 181.965L433.616 181.973L433.392 183.178L428.47 180.768L427.576 182.691L429.81 183.178L430.488 184.135L430.265 185.34L429.148 184.861L428.701 186.066L425.126 183.178L424.009 183.656V189.425L424.903 189.904L425.35 192.545L424.009 193.032L423.108 196.877L421.089 197.604L419.972 196.399L419.749 192.074L418.4 191.117L417.961 187.75L417.06 187.271L417.73 186.313L417.283 184.63L418.177 183.904L417.73 181.015L416.836 181.255V182.22H415.719V184.861L414.602 185.34L413.924 184.382L412.584 184.622L410.796 187.75L407.214 183.664L406.328 181.263L406.32 180.545L409.232 180.784L408.786 179.1L407.222 178.861L405.658 176.938H403.424L400.966 174.05L400.743 172.606L402.091 171.88V169.717L402.985 169.478L402.538 168.034L403.432 166.829L403.879 160.813L401.86 162.257L400.073 160.813L397.384 160.334L394.248 157.924L393.809 155.762L390.673 157.446L390.227 155.762L391.12 153.352L389.325 155.762L387.538 154.805L388.886 151.438H389.78V148.07L390.897 147.831L390.003 147.105L384.41 148.07L384.187 150.233L382.838 151.916L384.402 153.839L384.179 154.805L381.713 154.326L379.479 155.531L379.04 154.087H377.692L374.787 155.531L374.556 153.368L372.992 150.959L371.205 151.924L368.524 151.446L366.066 146.395L362.931 145.669L361.367 147.831L358.463 146.634L356.899 150.727L357.8 155.036L353.101 159.871L353.332 160.597L354.896 160.358L355.981 162.52L353.556 166.605L353.332 168.768L354.226 171.895L355.989 174.05ZM375.673 162.991L376.12 158.419L377.468 157.94L380.596 159.145L381.043 163.23L382.391 161.307L381.713 157.94L383.277 159.145L386.859 158.666L387.083 159.871L385.966 161.794L387.53 160.35L389.764 160.111L390.657 162.034L389.54 163.956L389.764 165.64L391.551 167.802L392.445 170.93L391.551 175.015L398.269 178.861L396.921 186.321L395.134 187.039L395.804 188.723L395.357 191.611L396.921 192.569L400.503 198.577V200.987L400.272 204.114H398.708L397.36 206.037L395.572 204.832L391.543 205.311L389.532 197.38L388.184 195.218L389.086 191.611H390.426L390.657 190.646H389.094L387.977 188.723L386.859 188.484L386.189 190.407L385.072 190.885L379.926 186.553L378.362 182.707L378.809 180.545L379.926 180.066L380.596 178.382L379.926 175.733L380.827 174.528L379.264 170.683L376.359 168.999L375.673 162.991ZM372.984 265.648L374.325 266.126L373.216 269.254L374.779 270.938L375.003 272.621L373.216 274.305L372.545 278.629L368.516 278.151L368.069 281.27L366.058 282.228L364.941 281.27L366.058 279.347L365.388 278.382L363.37 278.143L359.787 275.98L360.234 273.339L359.564 271.656L364.263 267.092L364.933 268.049H366.721V266.852L369.856 265.169L370.08 264.211L372.976 263.493V265.648H372.984ZM429.363 208.678L429.132 210.841L430.919 212.045L431.821 214.208L431.374 216.37L433.608 217.575L432.714 219.258L430.48 219.745V222.625L427.568 221.668L428.238 219.027L426.004 217.583L424.664 214.455L425.11 210.849L426.898 210.609L429.363 208.678ZM371.428 163.709L372.769 164.675H369.864L370.981 166.597L370.75 168.281L372.314 169.486V170.691L373.878 170.93V172.614L372.314 173.818L373.662 179.587L372.761 182.475L371.644 181.997L372.545 179.108L371.197 178.151L370.08 178.39L369.633 173.579L365.388 169.973L367.846 168.05L368.069 165.409L369.194 163.725L371.652 162.768L371.428 163.709ZM421.528 205.55L421.759 206.5L419.07 209.875L418.839 213.482L417.499 213.721L417.267 214.678H415.48L415.033 213.96L414.81 216.849H413.701L412.799 215.404V213.003L414.147 211.559L414.818 207.952L416.158 206.508H417.722L418.624 207.473L419.964 205.55H421.528ZM428.238 195.457L428.462 194.013L430.919 194.978L430.025 198.346L429.124 198.824L430.025 201.473L429.124 203.396L426.666 201.952H424.201L425.102 199.79L424.432 199.311L424.871 194.986L426.89 194.268L428.238 195.457ZM371.867 200.5L377.684 205.79L377.907 208.431L377.237 209.157L372.761 208.431L371.197 207.226L369.856 203.62L370.303 200.979L371.867 200.5ZM394.24 161.547L399.386 164.196L399.833 166.119L399.602 167.324H398.708L398.932 170.691L397.583 171.648L397.144 168.52L396.466 168.281L396.913 164.914L395.349 163.956V165.64L394.232 167.084L392.221 165.161L392.892 163.478L392.445 162.034L394.24 161.547ZM416.836 252.427L417.275 254.589L415.711 256.991V259.153L414.147 260.358H411.913L413.03 256.033L416.836 252.427ZM432.483 197.619L432.938 199.064L438.978 203.149L438.531 204.354L433.384 203.396L432.483 198.824L431.813 198.585L432.483 197.619ZM417.953 261.315L418.847 264.435L418.624 267.563L415.041 268.52L414.371 264.674L416.605 264.914L417.052 261.786L417.953 261.315ZM387.53 247.384L388.647 250.512L387.083 251.23L385.296 248.828L387.53 247.384ZM403.408 195.457L404.972 198.346L402.283 199.064L401.612 197.38L403.408 195.457ZM360.018 157.214L362.029 158.419L361.806 160.103L360.465 159.863L360.242 158.658L359.348 158.898L358.901 157.454L360.018 157.214ZM431.374 204.593L432.044 206.037L429.14 206.277L429.371 205.072L431.374 204.593ZM445.018 138.216L445.465 140.865H444.563L444.124 138.456L445.018 138.216ZM412.584 266.366L414.147 268.767L412.352 268.289L412.584 266.366ZM431.821 256.991L432.938 259.392L431.15 257.948L431.821 256.991ZM364.941 162.265V163.948L363.378 164.188L363.146 163.462L364.941 162.265ZM479.016 83.3535L479.694 85.5238L477.899 84.0796V83.3615H479.016V83.3535ZM366.282 158.658L367.184 159.137V160.581L365.62 159.377L366.282 158.658ZM365.388 172.614L364.941 174.297L364.048 173.34L365.388 172.614Z" fill="#F0F0F0" stroke="#D2D4D5" stroke-width="0.5"/>
<path d="M312.824 311.773L315.058 315.619L314.611 318.26L306.106 319.704L304.319 317.302V306.978L306.736 304.337L307 302.414L304.765 299.055L301.853 300.012L300.066 303.858L296.707 303.619L295.59 305.541L292.901 305.781L292.454 303.858L293.132 301.217L296.707 299.773L295.59 296.414L292.901 296.174L289.996 294.012V293.046L292.007 294.012L293.356 293.294L292.239 289.448L293.579 288.73V285.371L291.568 282.004L287.762 283.927L285.744 282.482L284.18 279.602L285.528 277.44L285.081 275.996L278.595 276.235L278.148 278.158L274.797 282.722L273.68 288.251L272.331 288.969L268.086 286.089L268.533 283.687L267.408 283.209L266.068 278.405L264.504 277.926L263.61 274.32L251.307 273.602L247.732 272.636L245.267 273.355L243.479 272.876L242.131 270.235L240.344 269.269L239.897 265.424L237.886 263.979L232.74 253.407L229.389 251.229L233.458 251.165L236.171 249.705H239.897L242.275 251.165L247.357 257.724L249.057 261.003L248.722 262.096L251.091 264.283L250.756 266.469L251.777 267.195L256.182 264.65L257.538 261.737L261.943 263.556L264.655 263.189L266.028 262.064L271.453 264.977L275.866 266.07L277.214 264.61H278.571L279.927 266.07L283.996 266.796L293.858 263.708L295.837 263.916L298.55 262.822L300.249 263.548L303.297 262.088L307.023 261.721L308.38 263.541L311.771 264.634L318.21 264.993L320.245 267.179L326.005 265.36L328.718 266.086L330.753 267.905L333.122 268.272L335.899 273.793L335.189 274.783L333.178 274.304L332.947 275.022L334.742 277.903L336.529 278.621L336.298 280.783L338.764 283.424L337.2 287.27L338.987 287.988L344.133 287.749L343.016 289.671L340.782 289.193L340.551 290.15H338.317L336.753 289.432L335.859 290.637L339.665 296.645V305.286L342.793 304.807L343.24 306.252L344.804 306.97L344.357 311.055L342.338 310.337L343.463 308.175L341.221 308.414L340.327 307.696L339.657 309.371H338.309L337.407 308.175L332.716 309.14L329.133 307.456L328.463 305.055L329.811 303.132L328.91 299.286L326.444 299.047L323.54 295.201L324.657 291.594L323.763 290.637V286.791L322.415 284.15L323.085 281.27L320.181 278.868L316.375 279.586L315.473 275.262L314.133 274.543V279.107H315.473L318.609 281.748L319.279 288.475L316.415 289.432L314.133 286.552L312.569 289.193L309.88 289.671L309.657 292.312L307.869 293.509L307.191 295.432L307.422 297.834L313.686 301.672L313.462 304.313L312.345 304.073L311.667 305.996L310.327 306.475L312.824 311.773ZM261.368 275.014L264.504 279.817L263.163 285.347L264.504 286.065L264.951 289.911L262.717 288.467L261.823 284.86L258.017 283.895L257.123 281.254L254.889 281.972V281.014H253.325L252.424 277.887L251.307 277.168L252.871 275.485L257.562 275.964L261.368 275.014ZM285.081 282.706L286.869 284.868L285.528 286.312L282.169 287.03L280.382 284.868L280.613 283.663L285.081 282.706ZM283.071 299.286L285.305 300.483L285.536 302.645H282.624L281.73 299.517L283.071 299.286ZM342.793 291.594L342.57 293.278L340.104 292.312L340.551 291.594H342.793V291.594Z" fill="#F0F0F0" stroke="#D2D4D5" stroke-width="0.5"/>
<circle cx="249.36" cy="245.36" r="10.2244" fill="#55B9F1" stroke="white" stroke-width="2.2721"/>
<rect x="171.354" y="194.137" width="155.293" height="29.2348" rx="4.82322" fill="#4498AF"/>
<path d="M185.257 209.414H187.072L187.844 210.399L188.856 211.56L190.412 213.48H188.379L187.29 212.178L186.645 211.252L185.257 209.414ZM190.476 208.107C190.476 209.129 190.279 209.996 189.886 210.707C189.492 211.418 188.96 211.958 188.288 212.327C187.62 212.696 186.869 212.881 186.037 212.881C185.202 212.881 184.451 212.695 183.782 212.323C183.113 211.951 182.582 211.411 182.189 210.703C181.799 209.992 181.604 209.126 181.604 208.107C181.604 207.084 181.799 206.217 182.189 205.506C182.582 204.795 183.113 204.255 183.782 203.886C184.451 203.517 185.202 203.333 186.037 203.333C186.869 203.333 187.62 203.517 188.288 203.886C188.96 204.255 189.492 204.795 189.886 205.506C190.279 206.217 190.476 207.084 190.476 208.107ZM188.179 208.107C188.179 207.502 188.093 206.99 187.921 206.573C187.751 206.155 187.506 205.839 187.186 205.624C186.868 205.41 186.485 205.302 186.037 205.302C185.593 205.302 185.21 205.41 184.889 205.624C184.569 205.839 184.322 206.155 184.149 206.573C183.98 206.99 183.895 207.502 183.895 208.107C183.895 208.712 183.98 209.223 184.149 209.641C184.322 210.058 184.569 210.374 184.889 210.589C185.21 210.804 185.593 210.911 186.037 210.911C186.485 210.911 186.868 210.804 187.186 210.589C187.506 210.374 187.751 210.058 187.921 209.641C188.093 209.223 188.179 208.712 188.179 208.107ZM196.297 209.745V205.783H198.512V212.754H196.397V211.456H196.324C196.17 211.883 195.907 212.221 195.535 212.473C195.166 212.721 194.719 212.845 194.196 212.845C193.721 212.845 193.303 212.736 192.943 212.518C192.583 212.3 192.303 211.996 192.104 211.606C191.904 211.212 191.803 210.753 191.8 210.226V205.783H194.019V209.79C194.022 210.169 194.122 210.467 194.318 210.685C194.515 210.902 194.783 211.011 195.122 211.011C195.342 211.011 195.541 210.963 195.716 210.866C195.895 210.766 196.035 210.622 196.138 210.435C196.244 210.244 196.297 210.014 196.297 209.745ZM203.183 212.886C202.453 212.886 201.824 212.742 201.295 212.454C200.768 212.164 200.363 211.751 200.078 211.215C199.797 210.677 199.656 210.037 199.656 209.296C199.656 208.576 199.799 207.946 200.083 207.408C200.367 206.866 200.768 206.446 201.286 206.146C201.803 205.844 202.413 205.693 203.114 205.693C203.611 205.693 204.064 205.77 204.476 205.924C204.887 206.078 205.243 206.307 205.542 206.609C205.842 206.912 206.075 207.285 206.241 207.73C206.408 208.172 206.491 208.679 206.491 209.25V209.804H200.432V208.515H204.426C204.423 208.279 204.367 208.069 204.258 207.884C204.149 207.7 203.999 207.556 203.809 207.453C203.621 207.347 203.405 207.294 203.16 207.294C202.912 207.294 202.689 207.35 202.493 207.462C202.296 207.571 202.14 207.721 202.025 207.912C201.91 208.099 201.85 208.313 201.844 208.552V209.863C201.844 210.147 201.9 210.397 202.012 210.612C202.124 210.824 202.282 210.989 202.488 211.107C202.694 211.225 202.939 211.284 203.223 211.284C203.42 211.284 203.599 211.256 203.759 211.202C203.919 211.147 204.057 211.067 204.172 210.961C204.287 210.855 204.373 210.725 204.431 210.571L206.468 210.63C206.383 211.087 206.197 211.485 205.91 211.824C205.626 212.159 205.252 212.421 204.789 212.609C204.326 212.793 203.791 212.886 203.183 212.886ZM210.883 212.886C210.154 212.886 209.524 212.742 208.995 212.454C208.468 212.164 208.063 211.751 207.779 211.215C207.497 210.677 207.357 210.037 207.357 209.296C207.357 208.576 207.499 207.946 207.783 207.408C208.068 206.866 208.468 206.446 208.986 206.146C209.503 205.844 210.113 205.693 210.815 205.693C211.311 205.693 211.765 205.77 212.176 205.924C212.588 206.078 212.943 206.307 213.243 206.609C213.542 206.912 213.775 207.285 213.941 207.73C214.108 208.172 214.191 208.679 214.191 209.25V209.804H208.133V208.515H212.126C212.123 208.279 212.067 208.069 211.958 207.884C211.849 207.7 211.7 207.556 211.509 207.453C211.321 207.347 211.105 207.294 210.86 207.294C210.612 207.294 210.39 207.35 210.193 207.462C209.996 207.571 209.84 207.721 209.725 207.912C209.61 208.099 209.55 208.313 209.544 208.552V209.863C209.544 210.147 209.6 210.397 209.712 210.612C209.824 210.824 209.983 210.989 210.188 211.107C210.394 211.225 210.639 211.284 210.924 211.284C211.12 211.284 211.299 211.256 211.459 211.202C211.619 211.147 211.757 211.067 211.872 210.961C211.987 210.855 212.073 210.725 212.131 210.571L214.168 210.63C214.084 211.087 213.898 211.485 213.61 211.824C213.326 212.159 212.952 212.421 212.489 212.609C212.026 212.793 211.491 212.886 210.883 212.886ZM217.544 208.778V212.754H215.324V205.783H217.435V207.063H217.512C217.666 206.636 217.929 206.302 218.301 206.06C218.674 205.815 219.117 205.693 219.631 205.693C220.121 205.693 220.546 205.803 220.906 206.024C221.269 206.242 221.551 206.547 221.75 206.941C221.953 207.331 222.053 207.788 222.05 208.311V212.754H219.831V208.747C219.834 208.359 219.736 208.057 219.536 207.839C219.339 207.621 219.065 207.512 218.714 207.512C218.481 207.512 218.276 207.564 218.097 207.667C217.922 207.766 217.786 207.91 217.689 208.098C217.595 208.285 217.547 208.512 217.544 208.778ZM224.772 203.46V207.104H223.265V203.46H224.772ZM232.118 207.912L230.08 207.966C230.059 207.821 230.002 207.692 229.908 207.58C229.814 207.465 229.691 207.376 229.54 207.313C229.392 207.246 229.22 207.213 229.023 207.213C228.766 207.213 228.546 207.264 228.365 207.367C228.186 207.47 228.099 207.609 228.102 207.785C228.099 207.921 228.153 208.039 228.265 208.139C228.38 208.238 228.584 208.319 228.878 208.379L230.221 208.633C230.917 208.766 231.434 208.987 231.773 209.296C232.115 209.604 232.287 210.013 232.29 210.521C232.287 210.999 232.145 211.415 231.864 211.769C231.585 212.123 231.204 212.398 230.72 212.595C230.236 212.789 229.682 212.886 229.059 212.886C228.064 212.886 227.279 212.681 226.704 212.273C226.132 211.861 225.805 211.311 225.724 210.621L227.916 210.567C227.964 210.821 228.09 211.014 228.292 211.147C228.495 211.281 228.754 211.347 229.068 211.347C229.353 211.347 229.584 211.294 229.763 211.188C229.941 211.082 230.032 210.942 230.035 210.766C230.032 210.609 229.962 210.483 229.826 210.39C229.69 210.293 229.477 210.217 229.186 210.163L227.97 209.931C227.271 209.804 226.751 209.57 226.409 209.228C226.067 208.883 225.898 208.444 225.901 207.912C225.898 207.446 226.022 207.048 226.273 206.718C226.524 206.385 226.881 206.131 227.344 205.956C227.807 205.78 228.353 205.693 228.982 205.693C229.926 205.693 230.67 205.891 231.215 206.287C231.759 206.68 232.06 207.222 232.118 207.912ZM236.128 212.754V203.46H239.968C240.664 203.46 241.264 203.585 241.769 203.836C242.278 204.084 242.669 204.442 242.945 204.907C243.22 205.37 243.358 205.919 243.358 206.555C243.358 207.199 243.217 207.747 242.936 208.198C242.654 208.645 242.255 208.987 241.738 209.223C241.22 209.456 240.608 209.573 239.9 209.573H237.472V207.803H239.482C239.821 207.803 240.104 207.759 240.331 207.671C240.561 207.58 240.735 207.444 240.853 207.263C240.971 207.078 241.03 206.842 241.03 206.555C241.03 206.267 240.971 206.03 240.853 205.842C240.735 205.652 240.561 205.509 240.331 205.416C240.101 205.319 239.818 205.27 239.482 205.27H238.375V212.754H236.128ZM241.361 208.506L243.675 212.754H241.225L238.956 208.506H241.361ZM247.706 212.886C246.974 212.886 246.345 212.736 245.819 212.436C245.295 212.134 244.891 211.713 244.607 211.175C244.326 210.633 244.185 210.005 244.185 209.291C244.185 208.574 244.326 207.946 244.607 207.408C244.891 206.866 245.295 206.446 245.819 206.146C246.345 205.844 246.974 205.693 247.706 205.693C248.439 205.693 249.066 205.844 249.59 206.146C250.116 206.446 250.52 206.866 250.802 207.408C251.086 207.946 251.228 208.574 251.228 209.291C251.228 210.005 251.086 210.633 250.802 211.175C250.52 211.713 250.116 212.134 249.59 212.436C249.066 212.736 248.439 212.886 247.706 212.886ZM247.72 211.211C247.986 211.211 248.212 211.129 248.396 210.966C248.581 210.802 248.722 210.576 248.818 210.285C248.918 209.995 248.968 209.659 248.968 209.278C248.968 208.89 248.918 208.552 248.818 208.261C248.722 207.971 248.581 207.744 248.396 207.58C248.212 207.417 247.986 207.335 247.72 207.335C247.445 207.335 247.212 207.417 247.021 207.58C246.834 207.744 246.69 207.971 246.59 208.261C246.493 208.552 246.445 208.89 246.445 209.278C246.445 209.659 246.493 209.995 246.59 210.285C246.69 210.576 246.834 210.802 247.021 210.966C247.212 211.129 247.445 211.211 247.72 211.211ZM254.33 212.872C253.885 212.872 253.49 212.798 253.145 212.65C252.804 212.498 252.533 212.271 252.333 211.969C252.136 211.663 252.038 211.281 252.038 210.821C252.038 210.433 252.106 210.107 252.242 209.84C252.379 209.574 252.566 209.358 252.805 209.191C253.044 209.025 253.319 208.899 253.631 208.815C253.943 208.727 254.275 208.668 254.629 208.638C255.026 208.601 255.345 208.564 255.587 208.524C255.829 208.482 256.005 208.423 256.113 208.347C256.225 208.269 256.281 208.158 256.281 208.016V207.993C256.281 207.76 256.201 207.58 256.041 207.453C255.88 207.326 255.664 207.263 255.392 207.263C255.098 207.263 254.862 207.326 254.684 207.453C254.505 207.58 254.392 207.756 254.344 207.98L252.297 207.907C252.357 207.484 252.513 207.105 252.764 206.773C253.018 206.437 253.366 206.174 253.808 205.983C254.253 205.789 254.787 205.693 255.41 205.693C255.855 205.693 256.265 205.745 256.64 205.851C257.015 205.954 257.342 206.105 257.62 206.305C257.898 206.502 258.113 206.744 258.265 207.031C258.419 207.319 258.496 207.647 258.496 208.016V212.754H256.408V211.783H256.354C256.23 212.019 256.071 212.218 255.877 212.382C255.687 212.545 255.461 212.668 255.201 212.749C254.944 212.831 254.654 212.872 254.33 212.872ZM255.015 211.42C255.254 211.42 255.469 211.371 255.66 211.274C255.853 211.178 256.008 211.045 256.122 210.875C256.237 210.703 256.295 210.503 256.295 210.276V209.613C256.231 209.647 256.154 209.677 256.064 209.704C255.976 209.731 255.879 209.757 255.773 209.781C255.667 209.806 255.558 209.827 255.446 209.845C255.334 209.863 255.227 209.88 255.124 209.895C254.915 209.928 254.737 209.98 254.589 210.049C254.443 210.119 254.331 210.21 254.253 210.321C254.177 210.43 254.139 210.56 254.139 210.712C254.139 210.942 254.221 211.117 254.384 211.238C254.551 211.359 254.761 211.42 255.015 211.42ZM262.399 212.854C261.884 212.854 261.417 212.721 260.996 212.454C260.576 212.188 260.24 211.789 259.989 211.256C259.738 210.724 259.612 210.063 259.612 209.273C259.612 208.453 259.742 207.779 260.003 207.249C260.263 206.72 260.603 206.328 261.024 206.074C261.447 205.82 261.903 205.693 262.39 205.693C262.756 205.693 263.069 205.756 263.329 205.883C263.589 206.007 263.804 206.168 263.974 206.364C264.143 206.561 264.272 206.765 264.359 206.977H264.405V203.46H266.624V212.754H264.427V211.624H264.359C264.265 211.839 264.132 212.04 263.96 212.227C263.787 212.415 263.571 212.566 263.311 212.681C263.054 212.796 262.75 212.854 262.399 212.854ZM263.17 211.125C263.44 211.125 263.669 211.049 263.86 210.898C264.051 210.743 264.197 210.527 264.3 210.249C264.403 209.97 264.455 209.644 264.455 209.269C264.455 208.887 264.403 208.559 264.3 208.284C264.2 208.008 264.054 207.797 263.86 207.648C263.669 207.5 263.44 207.426 263.17 207.426C262.895 207.426 262.662 207.502 262.471 207.653C262.281 207.804 262.136 208.018 262.036 208.293C261.939 208.568 261.891 208.893 261.891 209.269C261.891 209.644 261.94 209.97 262.04 210.249C262.14 210.527 262.284 210.743 262.471 210.898C262.662 211.049 262.895 211.125 263.17 211.125ZM279.209 206.827H276.94C276.91 206.594 276.848 206.384 276.754 206.196C276.66 206.009 276.536 205.848 276.382 205.715C276.228 205.582 276.045 205.481 275.833 205.411C275.624 205.339 275.393 205.302 275.139 205.302C274.688 205.302 274.299 205.413 273.972 205.634C273.649 205.854 273.399 206.174 273.223 206.591C273.051 207.009 272.965 207.514 272.965 208.107C272.965 208.724 273.052 209.241 273.228 209.659C273.406 210.073 273.656 210.386 273.977 210.598C274.3 210.807 274.683 210.911 275.125 210.911C275.373 210.911 275.598 210.88 275.801 210.816C276.007 210.753 276.187 210.66 276.341 210.539C276.498 210.415 276.627 210.265 276.727 210.09C276.83 209.912 276.901 209.71 276.94 209.486L279.209 209.5C279.17 209.912 279.05 210.317 278.851 210.716C278.654 211.116 278.383 211.48 278.038 211.81C277.694 212.137 277.273 212.397 276.777 212.591C276.284 212.784 275.718 212.881 275.08 212.881C274.238 212.881 273.485 212.696 272.82 212.327C272.157 211.955 271.634 211.414 271.249 210.703C270.865 209.992 270.673 209.126 270.673 208.107C270.673 207.084 270.868 206.217 271.258 205.506C271.649 204.795 272.177 204.255 272.842 203.886C273.508 203.517 274.254 203.333 275.08 203.333C275.642 203.333 276.163 203.411 276.641 203.569C277.119 203.723 277.539 203.95 277.902 204.249C278.265 204.546 278.56 204.91 278.787 205.343C279.014 205.776 279.155 206.27 279.209 206.827ZM283.753 212.886C283.024 212.886 282.395 212.742 281.865 212.454C281.339 212.164 280.933 211.751 280.649 211.215C280.368 210.677 280.227 210.037 280.227 209.296C280.227 208.576 280.369 207.946 280.654 207.408C280.938 206.866 281.339 206.446 281.856 206.146C282.374 205.844 282.983 205.693 283.685 205.693C284.181 205.693 284.635 205.77 285.046 205.924C285.458 206.078 285.813 206.307 286.113 206.609C286.412 206.912 286.645 207.285 286.812 207.73C286.978 208.172 287.061 208.679 287.061 209.25V209.804H281.003V208.515H284.997C284.994 208.279 284.938 208.069 284.829 207.884C284.72 207.7 284.57 207.556 284.379 207.453C284.192 207.347 283.975 207.294 283.73 207.294C283.482 207.294 283.26 207.35 283.063 207.462C282.867 207.571 282.711 207.721 282.596 207.912C282.481 208.099 282.42 208.313 282.414 208.552V209.863C282.414 210.147 282.47 210.397 282.582 210.612C282.694 210.824 282.853 210.989 283.059 211.107C283.265 211.225 283.51 211.284 283.794 211.284C283.991 211.284 284.169 211.256 284.329 211.202C284.49 211.147 284.627 211.067 284.742 210.961C284.857 210.855 284.944 210.725 285.001 210.571L287.039 210.63C286.954 211.087 286.768 211.485 286.481 211.824C286.196 212.159 285.823 212.421 285.36 212.609C284.897 212.793 284.361 212.886 283.753 212.886ZM290.414 208.778V212.754H288.195V205.783H290.305V207.063H290.382C290.537 206.636 290.8 206.302 291.172 206.06C291.544 205.815 291.987 205.693 292.502 205.693C292.992 205.693 293.417 205.803 293.777 206.024C294.14 206.242 294.421 206.547 294.621 206.941C294.824 207.331 294.923 207.788 294.92 208.311V212.754H292.701V208.747C292.704 208.359 292.606 208.057 292.406 207.839C292.21 207.621 291.936 207.512 291.585 207.512C291.352 207.512 291.146 207.564 290.968 207.667C290.792 207.766 290.656 207.91 290.559 208.098C290.465 208.285 290.417 208.512 290.414 208.778ZM300.229 205.783V207.417H295.831V205.783H300.229ZM296.753 204.113H298.972V210.562C298.972 210.698 298.993 210.809 299.035 210.893C299.081 210.975 299.146 211.034 299.231 211.07C299.315 211.104 299.417 211.12 299.535 211.12C299.619 211.12 299.709 211.113 299.802 211.097C299.899 211.079 299.972 211.064 300.02 211.052L300.356 212.654C300.25 212.684 300.1 212.722 299.907 212.768C299.716 212.813 299.488 212.842 299.221 212.854C298.701 212.878 298.255 212.817 297.883 212.672C297.514 212.524 297.231 212.294 297.034 211.982C296.84 211.671 296.747 211.279 296.753 210.807V204.113ZM301.361 212.754V205.783H303.517V207.054H303.589C303.716 206.594 303.924 206.252 304.211 206.028C304.499 205.801 304.833 205.688 305.214 205.688C305.317 205.688 305.423 205.696 305.532 205.711C305.641 205.723 305.742 205.742 305.836 205.77V207.698C305.73 207.662 305.591 207.633 305.418 207.612C305.249 207.591 305.098 207.58 304.964 207.58C304.701 207.58 304.464 207.639 304.252 207.757C304.043 207.872 303.878 208.034 303.757 208.243C303.639 208.449 303.58 208.691 303.58 208.969V212.754H301.361ZM308.443 212.872C307.998 212.872 307.603 212.798 307.259 212.65C306.917 212.498 306.646 212.271 306.446 211.969C306.25 211.663 306.151 211.281 306.151 210.821C306.151 210.433 306.219 210.107 306.355 209.84C306.492 209.574 306.679 209.358 306.918 209.191C307.157 209.025 307.432 208.899 307.744 208.815C308.056 208.727 308.389 208.668 308.743 208.638C309.139 208.601 309.458 208.564 309.7 208.524C309.942 208.482 310.118 208.423 310.226 208.347C310.338 208.269 310.394 208.158 310.394 208.016V207.993C310.394 207.76 310.314 207.58 310.154 207.453C309.994 207.326 309.777 207.263 309.505 207.263C309.211 207.263 308.975 207.326 308.797 207.453C308.618 207.58 308.505 207.756 308.457 207.98L306.41 207.907C306.47 207.484 306.626 207.105 306.877 206.773C307.131 206.437 307.479 206.174 307.921 205.983C308.366 205.789 308.9 205.693 309.523 205.693C309.968 205.693 310.378 205.745 310.753 205.851C311.128 205.954 311.455 206.105 311.733 206.305C312.012 206.502 312.226 206.744 312.378 207.031C312.532 207.319 312.609 207.647 312.609 208.016V212.754H310.521V211.783H310.467C310.343 212.019 310.184 212.218 309.991 212.382C309.8 212.545 309.575 212.668 309.314 212.749C309.057 212.831 308.767 212.872 308.443 212.872ZM309.128 211.42C309.367 211.42 309.582 211.371 309.773 211.274C309.966 211.178 310.121 211.045 310.236 210.875C310.351 210.703 310.408 210.503 310.408 210.276V209.613C310.344 209.647 310.267 209.677 310.177 209.704C310.089 209.731 309.992 209.757 309.886 209.781C309.78 209.806 309.671 209.827 309.559 209.845C309.447 209.863 309.34 209.88 309.237 209.895C309.028 209.928 308.85 209.98 308.702 210.049C308.556 210.119 308.445 210.21 308.366 210.321C308.29 210.43 308.252 210.56 308.252 210.712C308.252 210.942 308.334 211.117 308.497 211.238C308.664 211.359 308.874 211.42 309.128 211.42ZM316.185 203.46V212.754H313.966V203.46H316.185Z" fill="white"/>
<path fill-rule="evenodd" clip-rule="evenodd" d="M255.49 223.373L242.51 223.373L249 229.863L255.49 223.373Z" fill="#4498AF"/>
</svg>
