<svg width="21" height="20" viewBox="0 0 21 20" fill="none" xmlns="http://www.w3.org/2000/svg">
<path d="M6.49118 0.404297C3.3985 0.404297 0.882812 2.92232 0.882812 6.01579V14.03C0.882812 17.1226 3.40083 19.6383 6.49431 19.6383H14.5085C17.6012 19.6383 20.1169 17.1203 20.1169 14.0268V6.01266C20.1169 2.91999 17.5988 0.404297 14.5054 0.404297H6.49118ZM16.1098 3.60997C16.5521 3.60997 16.9112 3.96901 16.9112 4.41139C16.9112 4.85377 16.5521 5.21281 16.1098 5.21281C15.6674 5.21281 15.3083 4.85377 15.3083 4.41139C15.3083 3.96901 15.6674 3.60997 16.1098 3.60997ZM10.4998 5.21281C13.1517 5.21281 15.3083 7.36942 15.3083 10.0213C15.3083 12.6732 13.1517 14.8298 10.4998 14.8298C7.84794 14.8298 5.69132 12.6732 5.69132 10.0213C5.69132 7.36942 7.84794 5.21281 10.4998 5.21281ZM10.4998 6.81564C9.64964 6.81564 8.83426 7.15338 8.23308 7.75456C7.6319 8.35574 7.29416 9.17112 7.29416 10.0213C7.29416 10.8715 7.6319 11.6869 8.23308 12.2881C8.83426 12.8893 9.64964 13.227 10.4998 13.227C11.35 13.227 12.1654 12.8893 12.7666 12.2881C13.3678 11.6869 13.7055 10.8715 13.7055 10.0213C13.7055 9.17112 13.3678 8.35574 12.7666 7.75456C12.1654 7.15338 11.35 6.81564 10.4998 6.81564V6.81564Z" fill="#2E2E2E"/>
</svg>
