<svg width="122" height="122" viewBox="0 0 122 122" fill="none" xmlns="http://www.w3.org/2000/svg">
<path d="M40.8462 63.5798C39.9117 64.5058 38.3336 64.164 37.8659 62.9344V62.9344C37.8457 62.8978 37.8266 62.8607 37.8087 62.8229L37.5952 62.3778L37.6238 61.8841C39.3928 32.3534 48.4942 10.9872 59.7582 9.92542C59.9546 9.90159 60.1995 9.89016 60.4464 9.88253L60.5026 9.87681L60.6408 9.87109H60.6675L60.8677 9.87777C61.1307 9.88253 61.3957 9.89969 61.654 9.93019C61.8122 9.94544 61.9904 9.96831 62.1706 9.99595L62.2059 10.0017L62.3202 10.0207L62.956 10.1513C73.7129 12.6962 82.0251 33.298 83.7389 61.8841L83.7665 62.3502L83.5421 62.8712C83.0047 64.1187 81.3801 64.4338 80.4153 63.4777V63.4777C75.3838 58.4957 68.7271 55.7431 61.6712 55.725C61.4967 55.7269 59.8926 55.7269 59.6696 55.725C52.6365 55.7431 45.9799 58.4948 40.9493 63.4777L40.8462 63.5798ZM60.6456 13.7007L60.5589 13.7093C60.4254 13.7141 60.2929 13.717 60.1624 13.7322C51.5718 14.5414 43.9316 33.1598 41.7661 57.7628C46.9463 53.9703 53.1655 51.9134 59.6848 51.8982C59.9489 51.9011 61.4414 51.9011 61.654 51.8982C68.1915 51.9144 74.4144 53.9712 79.5947 57.7618C77.4825 33.9356 70.1101 15.4373 61.837 13.8237H61.2146L61.1136 13.7227C60.9951 13.7117 60.8761 13.7057 60.7571 13.7046L60.6456 13.7007Z" fill="#55B9F1"/>
<path d="M58.092 7.11797C58.092 6.06097 58.9489 5.2041 60.0059 5.2041V5.2041C61.0629 5.2041 61.9198 6.06097 61.9198 7.11797V10.0861C61.9198 11.1431 61.0629 12 60.0059 12V12C58.9489 12 58.092 11.1431 58.092 10.0861V7.11797ZM58.092 54.5826C58.092 53.5256 58.9489 52.6688 60.0059 52.6688V52.6688C61.0629 52.6688 61.9198 53.5256 61.9198 54.5826V95.4603C61.9198 96.5173 61.0629 97.3741 60.0059 97.3741V97.3741C58.9489 97.3741 58.092 96.5173 58.092 95.4603V54.5826ZM66.8026 116.796C61.9999 116.796 58.092 112.879 58.092 108.063V104.067C58.092 103.01 58.9491 102.153 60.0064 102.153V102.153C61.0637 102.153 61.9207 103.01 61.9207 104.067V108.063C61.9207 110.768 64.111 112.968 66.8026 112.968C68.837 112.968 70.5844 111.711 71.3165 109.93C71.7183 108.952 72.5405 108.063 73.5975 108.063V108.063C74.6545 108.063 75.533 108.931 75.3039 109.963C74.4368 113.868 70.9542 116.796 66.8026 116.796Z" fill="#55B9F1"/>
<path d="M40.83 63.4834C39.8837 64.4214 38.2916 64.1296 37.7409 62.9163V62.9163C35.7565 58.5472 31.3978 55.7231 26.636 55.7231C22.8559 55.7231 19.3465 57.4511 17.0047 60.4639V60.4639C16.1626 61.5473 14.4874 61.418 13.8203 60.219V60.219C12.7976 58.3776 10.8847 57.2348 8.82689 57.2348C7.23594 57.2348 5.73916 57.9109 4.67152 59.044C3.92882 59.8322 2.8375 60.3607 1.80796 60.0247V60.0247C0.778119 59.6885 0.161313 58.6295 0.411929 57.5756C7.01186 29.8208 32.0656 9.87207 60.6979 9.87207C90.0713 9.87207 115.615 30.8075 121.437 59.6528V59.6528C121.705 60.9858 120.535 62.1646 119.2 61.9054L118.987 61.8641V61.8641C118.418 61.7114 117.951 61.3044 117.721 60.7613V60.7613C117.283 59.7167 116.546 58.8248 115.603 58.1974C114.66 57.57 113.552 57.2351 112.419 57.2348C110.363 57.2348 108.449 58.3785 107.426 60.2199V60.2199C106.758 61.4188 105.083 61.5467 104.241 60.463V60.463C101.902 57.4511 98.394 55.7231 94.6139 55.7231C89.8482 55.7231 85.4877 58.5443 83.5033 62.9106V62.9106C82.9524 64.1233 81.3616 64.4159 80.4152 63.4787V63.4787C75.3636 58.4776 68.6812 55.7231 61.5976 55.7231C61.203 55.7231 60.8122 55.7384 60.4234 55.7555L60.3614 55.7584L60.2975 55.7574C60.1584 55.7546 60.0221 55.745 59.8858 55.7364C59.8086 55.7307 59.7314 55.7231 59.6513 55.7231C52.5629 55.7231 45.8787 58.4795 40.83 63.4834V63.4834ZM26.6351 51.8954C32.0307 51.8954 37.0308 54.6489 39.976 59.081C45.4841 54.4297 52.3809 51.8954 59.6513 51.8954C59.8238 51.8954 59.9916 51.9058 60.1593 51.9173C60.2137 51.9211 60.267 51.9259 60.3223 51.9287C60.7471 51.908 61.1723 51.8969 61.5976 51.8954C68.7986 51.8802 75.7706 54.4253 81.2682 59.0762C84.2134 54.648 89.2163 51.8954 94.6148 51.8954C98.7131 51.8862 102.656 53.4619 105.62 56.2931C106.504 55.3832 107.561 54.6593 108.729 54.1638C109.896 53.6684 111.152 53.4114 112.42 53.408C113.689 53.408 114.915 53.6577 116.045 54.118C108.401 30.3519 86.0729 13.6998 60.6988 13.6998C35.3733 13.6998 13.0311 30.3385 5.36705 54.0656C6.46931 53.6318 7.64329 53.4091 8.82784 53.4089C10.0966 53.412 11.352 53.6689 12.52 54.1644C13.6881 54.6599 14.7453 55.3839 15.6293 56.294C18.5927 53.4623 22.5363 51.8862 26.6351 51.8954Z" fill="#55B9F1"/>
<path d="M40.8318 63.4835C39.8852 64.4213 38.2916 64.1307 37.7409 62.9173V62.9173C35.7564 58.5482 31.3978 55.7241 26.636 55.7241C22.8635 55.7241 19.357 57.4473 17.0171 60.4506L13.6201 58.9609C18.3343 30.5177 38.1335 9.87305 60.6978 9.87305C83.2002 9.87305 102.987 30.4529 107.747 58.8065L107.857 59.4718L107.414 60.2428V60.2428C106.78 61.4439 105.117 61.5892 104.284 60.5163L104.242 60.463C101.903 57.4511 98.3949 55.7231 94.6148 55.7231C89.8492 55.7231 85.4886 58.5444 83.5042 62.9106V62.9106C82.9533 64.1234 81.3625 64.4159 80.4161 63.4787V63.4787C75.3645 58.4777 68.6821 55.7231 61.5985 55.7231C61.2039 55.7231 60.8131 55.7384 60.4243 55.7555L60.3623 55.7584L60.2994 55.7574C60.1603 55.7546 60.024 55.745 59.8877 55.7365C59.8105 55.7308 59.7333 55.7231 59.6532 55.7231C52.5648 55.7231 45.8805 58.4796 40.8318 63.4835V63.4835ZM26.635 51.8963C32.0307 51.8963 37.0308 54.6499 39.9759 59.0819C45.484 54.4316 52.3809 51.8963 59.6513 51.8963C59.8238 51.8963 59.9916 51.9068 60.1593 51.9182C60.2136 51.9221 60.267 51.9268 60.3223 51.9297C60.7471 51.909 61.1723 51.8978 61.5976 51.8963C68.7986 51.8811 75.7705 54.4263 81.2682 59.0772C84.2133 54.649 89.2163 51.8963 94.6148 51.8963C97.5866 51.8963 100.432 52.7084 102.894 54.2048C97.0691 30.4405 79.9395 13.7008 60.6978 13.7008C41.4647 13.7008 24.3695 30.3881 18.522 54.1066C20.9788 52.6546 23.7813 51.8911 26.635 51.8963Z" fill="#55B9F1"/>
</svg>
