<svg width="17" height="18" viewBox="0 0 17 18" fill="none" xmlns="http://www.w3.org/2000/svg">
<path d="M15.432 0.205078H1.72777C0.886484 0.205078 0.205078 0.922348 0.205078 1.80792V16.2334C0.205078 17.119 0.886484 17.8363 1.72777 17.8363H15.432C16.2733 17.8363 16.9547 17.119 16.9547 16.2334V1.80792C16.9547 0.922348 16.2733 0.205078 15.432 0.205078ZM5.49949 14.6306H3.25351V7.02355H5.49949V14.6306ZM4.35366 5.93602C3.62962 5.93602 3.04414 5.31813 3.04414 4.55758C3.04414 3.79704 3.63038 3.17994 4.35366 3.17994C5.07542 3.17994 5.66242 3.79784 5.66242 4.55758C5.66242 5.31813 5.07542 5.93602 4.35366 5.93602ZM13.9124 14.6306H11.6679V10.9313C11.6679 10.0489 11.6527 8.91409 10.5008 8.91409C9.33211 8.91409 9.15243 9.87499 9.15243 10.8672V14.6306H6.90798V7.02355H9.0626V8.06299H9.09305C9.39302 7.46513 10.1254 6.83441 11.218 6.83441C13.4921 6.83441 13.9124 8.41 13.9124 10.4584V14.6306V14.6306Z" fill="#2E2E2E"/>
</svg>
