<svg width="561" height="187" viewBox="0 0 561 187" fill="none" xmlns="http://www.w3.org/2000/svg">
<path d="M443.023 70.8077L443.538 71.8101L443.912 71.916L443.856 72.2337L445.522 73.6384L445.345 74.6126L446.03 75.5021L445.945 76.5186L446.348 77.0974L446.122 77.8033L446.884 78.4316L447.011 79.2434L446.884 80.1258L446.44 80.7611L446.454 81.7353L446.814 83.0624L446.672 83.5495L446.955 84.2554L448.458 85.5543L449.164 86.6132L449.136 87.1214L448.727 87.5167L448.127 87.8132L447.795 87.7285L447.385 87.065L446.814 86.7191L445.931 86.832L445.783 86.0767L445.564 85.9143L444.456 85.999L442.973 85.4625L442.042 85.5755L441.71 85.3425L441.505 83.613L441.618 82.6953L440.686 79.6881L440.319 79.0881L439.79 76.7021L439.903 75.9186L439.627 75.022L440.009 74.0338L439.691 73.7373V73.3914L440.058 73.4831L440.355 74.0902L440.319 73.0667L441.879 72.4525L441.992 72.1348L441.583 71.7819L441.442 71.2242L441.978 70.8713L443.023 70.8077ZM440.192 67.1158L441.11 67.1723L440.446 67.6523L440.291 68.2241L439.529 68.1817L439.599 68.8029L439.86 69.0853L439.006 70.1301L439.19 70.9842L438.646 71.2595L437.771 72.9114L434.947 73.5608L434.58 73.8008L434.15 74.8879L433.839 75.1491L433.027 75.2268L432.611 75.4809L432.512 76.5468L433.133 77.5775L433.246 78.2904L433.648 83.7824L434.157 84.3331L435.272 84.6578L435.23 86.0484L434.488 87.5309L433.528 88.618L433.535 89.2392L434.538 88.618L434.234 89.5074L432.808 91.3993L432.766 91.8722L433.387 91.7946L433.331 91.9852L432.236 92.8887L430.62 94.9006L429.314 95.6701L428.156 96.0301L427.69 95.9171L428.213 95.19L428.121 94.9006L427.189 94.7453L426.504 94.3147L425.671 92.7546L425.227 92.2958L424.217 92.1828L423.067 90.0369L422.721 88.5685H422.262L421.718 89.105L420.73 88.7944L419.932 89.1686L419.015 88.8368L418.979 87.912L419.332 86.6696L418.732 86.119L418.754 84.8272L417.49 82.6389L416.72 81.6435L415.88 81.1988L415.542 81.3117L414.871 80.4435L413.607 80.0058L417.236 79.667L422.544 77.8316L424.486 76.7586L429.554 72.4737L432.427 70.6101L434.241 69.1065L434.622 69.1559L439.38 67.2005L440.136 66.9746L440.192 67.1158Z" fill="#F0F0F0" stroke="#D2D4D5" stroke-width="0.5"/>
<path d="M108.666 172.96L108.616 172.022L109.104 172.339L109.089 172.756L108.666 172.96ZM82.2011 150.117L82.8718 149.962L83.3235 149.701L83.2953 148.811L82.9494 148.486L81.8905 148.112L81.8411 147.54L82.3706 147.067V145.882L82.9706 143.333L83.5918 142.797L83.6624 142.359L84.9189 141.872L85.0036 141.491L85.046 140.735L85.7237 139.924L85.5613 139.288L85.7943 138.766L85.6601 137.439L85.9496 136.719L86.5072 136.267L86.1401 135.399L88.1308 129.843L90.771 130.62L95.7335 136.429L100.788 138.625L104.635 137.135L106.859 136.712L108.581 137.665L109.569 137.827L110.275 138.688L113.367 140.248L113.784 140.333L114.031 140.142L114.405 140.305L114.744 139.775L114.292 138.815L114.306 138.399L113.657 138.469L113.466 138.314L113.565 137.644L114.193 137.474L114.116 137.164L113.84 137.347L113.692 137.051L114.292 136.768L114.087 136.585L114.32 136.218L114.264 135.632L114.073 135.074L113.932 135.54L113.628 135.519L113.438 134.834L113.89 134.559L114.567 134.707L114.624 134.453L115.69 134.636L117.638 135.427L118.217 134.905L118.457 135.222L118.337 135.872L119.629 136.839L120.13 136.825L119.89 137.1L120.088 138.039L120.751 138.985L120.045 139.246L119.953 139.451L120.589 140.99L120.991 141.152L122.629 143.404L123.321 143.58L124.041 144.569L123.751 144.809L123.801 144.985L124.627 146.298L124.316 146.199L123.977 146.404L124.012 147.449L125.664 149.665L126.455 151.423L128.41 154.218L128.855 155.397L128.777 155.595L128.326 155.129L128.149 155.913L128.276 156.851L128.933 157.67L129.448 157.677V157.409L129.759 157.67L129.667 158.214L130.514 159.414L130.881 160.72L131.453 161.468L131.298 161.941L132.229 163.127L132.145 163.706L132.695 164.355L132.385 164.638L132.399 165.668L133.232 166.84L133.288 167.2L132.971 167.377L132.942 167.723L133.549 168.958L133.027 169.523L133.246 171.139L133.034 171.316L132.505 171.478L132.131 171.182L130.98 172.029L130.239 171.775L129.067 171.958L128.855 171.584L127.697 171.224L128.721 169.946L128.213 170.165L127.86 169.671L126.342 168.57L126.921 167.8L126.73 167.398L127.154 167.045H127.916L128.926 166.346L129.032 165.986L127.775 166.89L127.161 166.713L126.667 167.01L126.335 167.617L126.003 166.537L126.031 165.781L124.634 164.264L124.38 163.395L123.568 163.049L123.215 163.141L124.21 164.031L124.323 164.955L125.135 165.562L125.608 166.635L125.29 167.165L125.347 168.951L124.824 169.41L124.034 169.579L122.297 169.318L121.867 169.099L121.457 168.428L119.946 167.906L119.332 167.934L118.344 168.817L117.659 168.64L117.186 168.04L116.975 168.09L117.095 168.485L116.106 169.17L115.231 170.151L114.864 171.09L113.967 171.859L113.318 171.895L112.308 171.619L112.047 170.751L112.111 170.172L111.843 170.236L111.934 171.549L112.273 172.184L111.37 173.017L111.32 174.118L111.186 174.161L109.449 172.579L107.339 167.066L106.583 166.113L105.835 165.577L101.607 163.805L98.416 161.503L97.463 161.038L96.2206 160.642L95.0206 160.699L93.4605 159.216L93.7358 158.708L91.7875 157.508L90.1992 157.113L89.0768 157.127L88.385 157.508L87.8555 157.113L85.7166 154.388L83.7824 152.538L83.5847 151.684L83.26 151.289L81.6152 150.286L82.1094 150.166L82.2011 150.117ZM129.992 127.916L130.26 128.036L130.655 129.554L131.248 130.62L130.945 130.839L130.994 131.163L131.509 131.537L131.192 132.949L129.653 133.027L128.573 132.13L128.481 131.142L129.801 129.85L129.349 128.791L129.575 128.029L129.992 127.916Z" fill="#F0F0F0" stroke="#D2D4D5" stroke-width="0.5"/>
<path d="M6.37201 33.6982L6.38613 34.143L5.92023 35.2371L5.56727 34.4747L5.30608 34.7924L5.15078 34.7148L5.22843 34.4395L4.76253 34.0794L4.60723 33.6347L5.18608 33.077L5.46844 32.124L6.01906 31.9123L6.49908 31.4323L6.65438 31.4464L6.68262 31.9899L6.23789 32.2088L6.25907 32.6888L6.81674 32.1735L7.25441 32.6323L7.1344 33.0064L7.36735 33.1829L7.06381 33.7971L6.97204 33.4229L6.43555 33.5006L6.37201 33.6982ZM6.54849 26.3779L7.04969 26.7026L7.11322 27.3944L8.19327 28.0439L8.37681 28.7215L8.68035 28.6651L8.39093 29.4275L8.77918 29.9145L8.68741 30.4934L7.8262 30.7687L7.76972 31.0652L7.25441 31.404L6.90851 31.164L7.03557 31.0369L6.85909 30.7052L5.95552 30.691L4.74135 31.8982L4.33192 31.7711L4.09191 32.1805L3.51306 32.4699L3.49894 31.7852L3.06127 31.0158L3.3154 30.571L3.24481 29.9569L3.01892 29.5545L2.48948 29.7169L2.07299 29.3922L1.32472 29.5263L1.01412 28.6298L1 27.4438L1.24001 27.3803L1.73415 27.705L2.05181 27.4085L3.59777 27.5497L3.49894 27.9168L3.71777 28.0509L3.95072 27.6909L4.86841 27.8391L5.30608 27.7474L5.89905 26.8932L6.37201 26.8438L6.81674 27.1756L6.65438 26.7379L6.05435 26.625L6.23789 26.2579L6.54849 26.3779ZM22.1845 24.7261L23.4269 25.0508L24.2599 24.719L24.5846 25.0225L25.1776 24.8955L25.58 25.5873L26.2435 25.9826L26.8506 26.0461L27.2177 25.7426L27.5706 26.1026L30.0908 27.0062L30.6908 26.9356L31.4038 26.4414L32.1732 25.3331L32.3991 25.4814L32.6532 26.7732L34.3051 27.1968L34.6721 27.6062L34.6298 29.6957L34.8627 29.971L35.1875 29.6816L35.3569 29.7663L35.4134 30.9522L35.011 31.6158L35.5404 32.9006H35.9357L36.2746 32.3852L37.0087 32.8582L38.0111 32.7241L39.0841 31.5946L40.2701 32.6182L42.3737 32.4064L42.8537 32.6605L42.7196 33.0629L43.3267 34.2771L42.7902 34.7289L41.8795 34.9901L41.3925 35.7736L42.3807 36.1478L43.482 36.9243L42.6419 38.2726L42.9172 38.7314L42.7478 39.8609L43.3337 40.4538L42.5149 41.4068L42.1548 42.3739L41.8654 42.1763L40.4395 42.3245L40.5383 42.6492L39.9806 43.4399L40.0583 44.6187L39.3524 45.24L39.423 45.7835L39.3029 46.3059L38.4841 46.1859L38.3076 46.3553L38.35 47.0965L39.0418 47.7036L39.2041 48.0989L38.8512 49.7578L38.2794 49.8002L38.11 50.4214L37.6511 50.8802L37.6723 51.2614L37.9899 51.6355L38.1594 52.7368L37.5029 54.1274L37.0793 54.3251L36.5922 54.2051L36.211 54.6498L35.9922 56.0616L35.6463 56.6405L35.724 57.1064L35.4275 58.4123L34.418 59.2665L32.4556 59.4712L32.2085 60.0218L32.2226 60.7136L31.3191 61.2219L30.8955 61.2572L30.3096 62.3796L30.472 62.6266L30.2743 63.0996L29.2225 63.4808L28.7636 64.5608L27.9942 64.7161L27.2318 65.7891L26.7447 65.5209L26.3635 65.655L25.8482 65.4503L25.94 64.8503L25.7211 64.6597L25.4317 64.7514L25.3117 64.455L25.5588 64.0879L26.7659 64.3561L26.893 64.222L26.2012 57.7911L26.2788 52.3909L25.6364 52.1156L24.9093 52.3909L23.9917 52.1297L23.1869 52.172L22.3539 51.692L21.1186 51.8332L20.8786 51.6285L20.8503 49.4613L21.288 48.6778L21.1751 48.106L21.528 47.3083L21.6833 46.2565L21.0833 40.4327L20.5115 38.5408L19.3114 37.0725L18.9726 35.4842L18.4785 34.4112L17.6243 33.2888L16.7913 32.597L17.1796 31.5523L19.2408 29.3145L19.8762 28.2768L21.1256 27.3803L21.6268 26.7591L21.8104 24.5566L22.1845 24.7261Z" fill="#F0F0F0" stroke="#D2D4D5" stroke-width="0.5"/>
<path d="M70.8711 32.9785L72.2971 33.9456L73.1371 34.1574L73.2218 33.748L74.4854 33.515L74.7466 34.0656L74.9796 33.6985L78.0997 35.181L78.9186 36.3598L81.0504 41.2165L81.9611 42.7484L81.7775 42.9249L81.834 43.299L82.5399 43.8708L82.8011 43.7367L83.5 44.2802L81.6858 46.3556L79.1374 48.6992L79.8292 52.5465L79.3704 53.7183L79.6174 55.9349L79.1303 56.4008L80.8034 57.8479L80.1257 59.6974L80.048 61.3634L80.2104 62.1822L80.0127 63.1776L82.0105 63.9894L82.8435 64.6882L83.1894 65.4012L82.4976 66.1636L83.0411 67.4907L82.6599 68.3378L82.9917 69.4955L82.8858 71.0132L83.2105 71.2038L84.1071 71.105L85.0106 71.7685L85.4412 71.8109L86.6695 72.5662L86.6907 73.3569L87.199 74.5781L86.9025 75.0793L85.7801 74.6204L85.5118 74.7122L85.2436 75.2981L85.5401 76.8794L84.7071 76.9429L83.8812 76.6464L82.9352 77.7406L82.5329 77.7053L81.2269 76.4982L79.7233 76.3641L78.7703 76.5617L78.7986 77.3876L77.7962 78.5594L77.415 78.6371L76.3985 78.0794H75.1913L74.8807 78.8348L74.6619 78.863L73.243 77.8677L72.8336 76.8653L71.9724 76.2652L71.8735 75.5311L71.5135 75.1287L70.9559 75.2205L69.6287 75.9476L69.2052 75.637L68.7958 75.8417L68.6122 75.7358L68.2734 75.0652L67.9416 75.5805L67.2498 75.044L66.8404 75.5028L66.9533 76.5123L66.6851 77.6559L66.1839 78.1571L65.838 79.2301L65.6615 79.2795L65.2591 78.87L65.1674 77.6559L64.0167 77.1688L63.7343 76.2793L63.092 75.9546L63.1061 75.2416L62.1249 75.0863L61.779 75.6652L61.9413 76.5264L61.7507 77.2676L61.8496 77.8888L61.5389 78.8771L61.1648 79.2512L60.5154 79.0324L60.2401 79.5124L59.04 79.9783L58.7506 80.6278L58.4259 80.8537L57.6776 81.0866L57.014 80.776L56.6681 81.009L54.5504 79.3783L53.8657 79.463L52.955 80.3595L51.3526 79.2371L50.682 79.3713L49.4537 77.557L49.3125 76.9005L49.5384 76.5617H50.6184L50.4208 75.2981L51.0491 74.9805L51.4867 73.8439L51.3667 72.778L51.6208 72.5098L52.5385 72.2768L52.2562 72.0156L52.7221 71.1473L52.5879 69.7426L51.9879 69.2061L51.9597 68.9025L52.5879 68.2884L52.5315 67.8931L52.8421 67.4978L53.0468 66.4954L53.5903 65.9589L53.7033 63.5376L54.3457 62.5634L54.2821 61.9987L54.7198 61.3916L54.628 60.6645L55.1363 60.6504L55.941 60.0645L56.0681 59.3021L56.5834 58.8221L56.8658 57.9467L57.2823 58.0738L57.8611 58.7162L59.1318 59.0691L60.6142 58.5397L61.1154 57.7985L60.8895 56.8808L62.5131 58.222L65.5697 58.3915L67.2004 56.7184L67.1016 55.5749L67.6804 55.2995L68.0334 54.7842L67.8781 54.2689L68.1251 53.1606L67.278 53.0194L67.4122 51.5582L66.7345 50.9935L66.8968 50.5558L67.3416 50.4146L67.6239 49.6522L67.0945 48.6287L67.4333 47.9157L67.2357 47.8027L66.791 48.0004L66.5439 47.5345L66.1627 47.4286L66.0568 47.0686L65.3297 46.6239L64.7226 45.1908L64.8568 44.4779L65.8027 44.3085L66.4874 43.6308L66.2545 42.5648L65.9297 42.1978L66.1627 41.3013L66.5509 41.1742L66.6357 40.2283L67.391 39.6847L67.3698 39.3035L67.8357 38.7882L69.7134 37.567L69.9393 36.9175L70.8358 35.6681L70.4264 34.9621L70.3911 34.4045L70.4829 33.4303L70.8711 32.9785Z" fill="#F0F0F0" stroke="#D2D4D5" stroke-width="0.5"/>
<path d="M67.377 142.663L68.1393 142.331L69.1135 141.131L69.6429 141.237L69.9253 140.651L70.3206 140.369L72.4242 140.333L73.0878 139.338L75.1279 140.263L76.1868 140.227L78.4739 139.493L79.554 139.747L80.6411 140.489L84.2413 141.554L85.0107 141.491L84.926 141.872L83.6695 142.359L83.5989 142.797L82.9777 143.333L82.3776 145.882V147.068L81.8482 147.541L81.8976 148.112L82.9565 148.487L83.3024 148.811L83.3306 149.701L82.8788 149.962L82.0882 150.145L81.5941 150.265L80.7117 150.124L79.7093 149.581L78.7845 149.531L78.008 149.009L75.2055 148.028L73.7584 147.138L72.6078 147.159L71.6266 145.719L70.4194 144.936L69.8477 143.686L68.6476 142.966L67.5181 142.832L67.377 142.663Z" fill="#F0F0F0" stroke="#D2D4D5" stroke-width="0.5"/>
<path d="M65.8882 117.744L66.0435 117.349L66.4177 117.123L67.3354 117.363L67.9566 118.443L69.3896 118.627L70.1237 120.307L71.6061 119.424L72.2132 119.396L72.9544 120.095L79.2794 121.754L81.4184 124.507L86.8327 128.086L87.6939 128.326L88.1316 129.837L86.1409 135.392L86.508 136.26L85.9503 136.712L85.6609 137.432L85.795 138.759L85.5621 139.282L85.7244 139.917L85.0468 140.729L85.0044 141.484L84.235 141.548L80.6348 140.482L79.5477 139.741L78.4676 139.486L76.1805 140.221L75.1216 140.256L73.0815 139.331L72.4179 140.326L70.3143 140.362L69.919 140.644L69.6366 141.23L69.1072 141.124L68.133 142.324L67.3706 142.656L67.2718 141.964L66.8271 141.879L66.1847 141.294L65.2388 141.519L64.3776 141.463L64.0105 141.887L63.8411 141.661L64.1164 140.969L63.7211 139.501L63.0081 138.576L62.1963 138.548L62.1681 138.279L62.4434 137.962L62.3234 137.051L61.1939 136.253L60.4597 136.507L59.9727 136.359L60.008 136.155L60.615 135.957L60.5727 135.329L61.0033 134.919L60.8903 134.538L61.2786 133.867L61.3845 132.978L61.0174 128.672L64.4835 128.792L64.9564 128.22L66.5165 124.683L67.3001 124.203L67.3212 123.737L66.6718 122.326L67.0671 121.09L66.7283 120.398L66.6294 119.107L66.2906 118.542L66.22 117.942L65.8882 117.744Z" fill="#F0F0F0" stroke="#D2D4D5" stroke-width="0.5"/>
<path d="M50.6821 79.3566L51.3528 79.2225L52.9552 80.3449L53.8658 79.4484L54.5506 79.3636L56.6683 80.9943L57.0142 80.7614L57.6778 81.072L58.426 80.839L58.7508 80.6131L59.0402 79.9637L60.2402 79.4978L60.5155 79.0177L61.165 79.2366L61.5391 78.8624L61.8497 77.8742L61.7509 77.253L61.9415 76.5118L61.7791 75.6505L62.125 75.0717L63.1062 75.227L63.0921 75.94L63.7345 76.2647L64.0169 77.1541L65.1675 77.6412L65.2593 78.8554L65.6405 79.286L65.817 79.2366L66.1629 78.1636L66.6641 77.6624L66.9323 76.5188L66.8194 75.5093L67.2288 75.0505L67.9206 75.587L68.2524 75.0717L68.5912 75.7423L68.7747 75.8482L69.1842 75.6435L69.6077 75.9541L70.9348 75.227L71.4925 75.1352L71.8525 75.5376L71.9514 76.2717L72.8126 76.8718L73.222 77.8742L74.6409 78.8695L74.8597 78.8413L75.1703 78.0859H76.3775L77.394 78.6436L77.7752 78.566L78.7776 77.3941L78.7493 76.5682L79.7023 76.3706L81.2059 76.5047L82.5118 77.7118L82.9142 77.7471L83.8601 76.6529L84.6861 76.9494L85.519 76.8859L85.2226 75.3046L85.4908 74.7187L85.7591 74.627L86.8815 75.0858L87.7639 76.3212L88.2933 76.5612L88.8439 77.1471L90.4393 77.5283L92.2535 77.5353L93.4112 79.3636L92.7194 79.6601L93.0018 80.0696L92.8323 80.5496L92.1829 80.719L92.55 82.5332L93.5029 83.4085H94.6324L95.3877 83.0697L95.9031 83.1685L96.5101 83.7191L97.2231 85.018L97.3219 85.4345L96.7643 86.324L97.0608 87.1922L95.8678 87.3758L95.543 88.3146L94.823 88.9994L94.8724 89.8253L94.3712 90.7218L94.5618 91.9642L93.8771 92.896L94.3571 93.5949L95.0065 93.9549L96.6019 93.1855L97.3149 93.4819L98.5714 93.5314L99.0585 94.0326L99.8421 94.202L100.576 95.1126L101.564 95.8679L102.475 95.6773L102.927 96.3056L103.774 96.2844L103.838 96.835L104.783 97.6892L104.635 98.2257L105.68 99.7646L105.984 99.6163L105.729 98.981L106.329 98.4516L106.421 97.9645L106.096 96.6868L106.089 95.3597L105.391 94.5479L105.525 93.5878L106.075 92.5784L105.828 91.1242L106.605 91.6254L107.134 91.7242L109.323 91.4419L109.075 91.7242L108.504 91.7454L108.306 92.7972L107.664 93.3125L107.607 93.6514L107.988 95.5291L109.188 97.6963L108.991 97.8939L108.08 97.6116L107.12 99.0093L107.057 100.019L107.417 101.769L107.311 102.214L106.379 102.165L105.998 103.202L105.92 104.092L106.301 105.228L107.169 106.725L109.075 109.153L109.986 109.937L110.212 110.727L110.106 111.179L109.294 112.118L108.878 113.459L108.701 114.885L109.372 119.135L109.379 122.1L109.09 122.961L108.857 126.265L109.259 128.199L109.654 129.025L111.708 131.644L114.589 134.453L114.532 134.707L113.854 134.559L113.403 134.834L113.593 135.519L113.897 135.54L114.038 135.074L114.229 135.632L114.285 136.218L114.052 136.585L114.257 136.769L113.657 137.051L113.805 137.348L114.08 137.164L114.158 137.475L113.53 137.644L113.431 138.315L113.622 138.47L114.271 138.399L114.257 138.816L114.709 139.776L114.37 140.305L113.996 140.143L113.749 140.334L113.332 140.249L110.24 138.689L109.534 137.828L108.546 137.665L106.824 136.712L104.6 137.136L100.753 138.625L95.6983 136.43L90.7358 130.62L88.0956 129.844L87.658 128.333L86.7968 128.093L81.3824 124.514L79.2435 121.761L72.9185 120.102L72.1773 119.403L71.5702 119.431L70.0877 120.314L69.3536 118.634L67.9206 118.45L67.2994 117.37L66.3817 117.13L66.0076 117.356L65.8523 117.751L65.2663 117.448L64.4545 117.469L62.9933 116.65L61.8356 114.864L61.3415 114.532L61.5603 113.791L62.1744 113.078L61.9203 112.012L61.3485 110.904L62.0191 109.704L62.7251 109.358L62.8733 107.932L62.2662 107.297L61.6874 105.899L60.8826 105.08L60.5085 104.89L59.2167 104.854L58.419 104.367L57.5083 103.188L57.2471 102.652L56.513 102.348L56.5836 101.402L56.8801 100.802L56.6754 100.026L56.1106 99.5387L56.0612 96.9127L55.5035 96.1362L55.6306 95.6209L56.2306 94.7738L56.2165 94.3714L54.8188 93.1925L54.1341 93.0796L53.8235 91.9854L54.127 90.7924L53.0258 90.6724L52.6587 90.3618L52.5528 89.8818L52.8493 89.5218L52.3481 88.7241L52.4681 87.6511L51.861 86.9875L52.2563 86.0487L52.1787 85.8439L50.9151 85.258L49.9409 85.4698L49.6303 84.651L49.1221 84.3403L49.828 83.4438L50.0327 82.6814L50.6257 82.2579L50.5904 81.9896L49.8845 81.5167L49.7221 80.1613L50.0186 79.5825L50.6821 79.3566Z" fill="#F0F0F0" stroke="#D2D4D5" stroke-width="0.5"/>
<path d="M19.0434 54.6845L19.3399 54.9951L20.0034 55.0657L20.1093 55.8281L21.0764 56.2728L20.2434 57.3881L20.194 58.2847L19.3187 60.8754L19.0575 60.953L18.6198 60.353L17.7163 60.113L16.6292 60.2895L16.5021 60.7059L16.2903 60.3177L16.4103 59.5977L16.8127 59.4635L16.7845 58.567L16.4527 57.1411L16.4597 55.348L16.2197 54.8115L16.3468 54.6986L17.2504 55.1927L18.0057 55.0374L18.5069 54.5362L19.0434 54.6845ZM21.1188 51.8326L22.3541 51.6914L23.1871 52.1714L23.9919 52.1291L24.9095 52.3903L25.6366 52.115L26.279 52.3903L26.2014 57.7905L26.8932 64.2214L26.7661 64.3555L25.559 64.0873L24.8248 64.3696L22.3047 64.5249L23.2718 63.4731L23.1236 63.2402L23.3142 61.9342L22.8906 60.593L23.1095 60.1412L22.9259 59.3859L22.6859 59.167L22.7636 58.6941L21.6059 57.2893L21.5353 56.9364L21.8812 56.2375L22.0576 55.101L21.507 52.6444L20.8576 51.9949L21.1188 51.8326Z" fill="#F0F0F0" stroke="#D2D4D5" stroke-width="0.5"/>
<path d="M28.7491 78.2267L30.1045 79.4197L29.6951 79.8574L29.8221 80.5562L28.7491 80.8951L27.7891 80.528L28.0362 79.1091L28.7491 78.2267ZM28.8691 75.1348L29.9704 75.636L30.1751 76.1302L29.4692 77.4643L29.0033 77.4008L28.1773 77.6832L27.7256 76.349L27.655 75.3184L27.8738 74.923L28.8691 75.1348ZM56.2869 41.7168L57.4658 42.7121L57.8187 43.2698L58.574 43.4816L58.6235 45.0981L59.4564 46.0652L59.7176 46.6723L60.0494 46.5311L60.36 45.9452L61.3059 45.564L62.5413 47.0535L63.1554 47.2865L63.1272 46.5453L63.3672 45.8817L63.8472 45.804L64.7508 45.1828L65.3579 46.6158L66.085 47.0606L66.1909 47.4206L66.5721 47.5265L66.8191 47.9924L67.2639 47.7947L67.4615 47.9077L67.1227 48.6206L67.6521 49.6442L67.3697 50.4066L66.925 50.5478L66.7627 50.9855L67.4403 51.5502L67.3062 53.0114L68.1533 53.1526L67.9062 54.2609L68.0615 54.7762L67.7086 55.2915L67.1015 55.5739L67.1933 56.7175L65.5626 58.3905L62.506 58.2211L60.8824 56.8799L61.1083 57.7975L60.6071 58.5388L59.1247 59.0682L57.854 58.7152L57.2752 58.0728L56.8587 57.9458L56.5763 58.8211L56.061 59.3011L55.9339 60.0635L55.1292 60.6494L54.6209 60.6636L54.7127 61.3906L54.2821 61.9977L54.3668 62.5272L53.7244 63.5013L53.6115 65.9226L53.0679 66.4591L52.8632 67.4615L52.5526 67.8568L52.6091 68.2521L51.9808 68.8663L52.009 69.1698L52.6091 69.7063L52.7432 71.1111L52.2773 71.9794L52.5596 72.2406L51.642 72.4735L51.3878 72.7418L51.5078 73.8077L51.0702 74.9442L50.4419 75.2619L50.6396 76.5255H49.5595L49.3336 76.8643L49.4748 77.5208L50.7031 79.335L50.0466 79.5468L49.7501 80.1256L49.9125 81.481L50.6184 81.954L50.6537 82.2222L50.0607 82.6458L49.856 83.4081L49.1501 84.3046L49.6583 84.6153L49.9689 85.4341L50.9431 85.2223L52.2067 85.8083L52.2843 86.013L51.889 86.9518L52.4961 87.6154L52.3761 88.6884L52.8773 89.4861L52.5808 89.8461L52.6867 90.3261L53.0538 90.6367L54.155 90.7567L53.8515 91.9497L54.1621 93.0439L54.8468 93.1568L56.2445 94.3357L56.2586 94.7381L55.6586 95.5852L55.5315 96.1005L56.0892 96.877L56.1386 99.503L56.7034 99.9901L56.9081 100.767L56.6116 101.367L56.541 102.313L57.2752 102.616L57.5363 103.153L56.8375 103.117L56.8657 103.844L56.6681 104.113L56.4634 104.014L56.2798 104.176L56.068 105.115L55.461 105.362L55.1504 105.906L54.7621 105.99L53.4067 104.953L52.5526 104.607L52.249 103.95L50.9713 103.237L50.7384 103.287L50.6396 102.701L49.8913 102.383L49.3266 102.581L49.016 103.117L49.5877 104.656L49.5666 105.334L48.5218 105.934L47.5759 106.139L46.7429 105.955L46.7994 104.713L45.8746 104.995L45.324 104.706L44.7028 104.875L44.1734 104L44.0251 104.324L43.6016 104.169L43.7922 103.83L43.5522 103.506L43.1992 104.049L42.9168 103.986L42.7686 104.289L42.3592 104.014L41.9144 104.444L41.9356 103.498L42.578 103.576L42.2251 102.898L41.5897 103.604L41.3991 103.59L41.3215 102.567L40.545 102.849L40.425 102.341L39.6908 102.334L39.4226 102.496L39.1826 103.138L38.7802 103.096L38.5261 102.574L38.9355 101.84L37.9331 101.353L37.8625 100.456L36.9095 100.781L34.7847 100.992L34.2482 102.214L34.5306 100.689L34.0647 100.625L33.2882 101L32.667 100.865L31.5446 100.124L31.2763 99.2206L31.2693 96.877L31.5516 96.5099L32.8717 96.1429L33.0693 95.3663L32.914 94.2228L31.001 92.1403L30.0974 91.8156H29.3562L29.0527 92.2109L28.3821 91.2579L28.5797 90.5873L28.1844 90.2555L28.0503 89.7684L28.9891 90.0579L29.7233 89.7402L30.1892 89.119L30.281 87.6507L30.0127 87.5448L29.8362 89.2108L29.3703 89.6272L28.0573 89.3661L27.9303 88.3707L27.6197 87.8554L27.1185 87.8625L27.8879 86.02L27.9515 84.947L27.8103 84.82L28.0715 84.4247L28.1985 84.6435L28.4879 84.587L28.6644 84.1988L28.9256 81.7281L29.6527 81.1704L29.9915 80.4221L29.8433 79.8503L30.1257 79.3915L28.9468 78.2408L29.9704 77.2526L30.3586 75.9678L30.1468 75.516L28.6221 74.7466L28.6785 74.4007L29.1021 73.9842L28.9891 72.8265L27.9162 72.6782L27.5985 72.1629L27.1326 72.2829L26.829 72.1206L26.9561 71.4994L26.4973 71.2523L26.5608 71.0899L26.7726 71.0476L27.1114 71.3935L27.5067 71.2735L27.655 71.1323L27.6056 70.3981L27.3797 70.3134L26.949 70.5746L26.7161 70.1863H26.4479L26.2784 70.3417L26.4337 70.7228L26.0172 70.6734L26.1725 71.0546L26.0455 71.1605L25.6572 70.6523L24.6407 70.3205L23.8289 70.6664L23.4618 70.2146L23.2218 69.6922L23.1512 68.4992L22.6783 68.4286L22.05 66.7132L21.457 65.7603L21.6053 65.3367L22.1277 65.0191L22.283 64.5179L24.8031 64.3625L25.5372 64.0802L25.2902 64.4473L25.4313 64.7508L25.7278 64.6449L25.9467 64.8355L25.8549 65.4355L26.3702 65.6403L26.7514 65.5061L27.2385 65.7744L28.0009 64.7014L28.7703 64.5461L29.2292 63.466L30.281 63.0848L30.4786 62.6119L30.3163 62.3648L30.9022 61.2424L31.3257 61.2071L32.2081 60.6777L32.194 59.9859L32.4411 59.4353L34.4035 59.2305L35.413 58.3764L35.7095 57.0705L35.6318 56.6045L35.9777 56.0257L36.1965 54.6139L36.5777 54.1691L37.0648 54.2891L37.4884 54.0915L38.1449 52.7008L37.9754 51.6208L37.6578 51.2467L37.6366 50.8655L38.0954 50.4066L38.2649 49.7854L38.8367 49.7431L39.1896 48.0842L39.0273 47.6888L38.3355 47.0818L38.2931 46.3405L38.4696 46.1711L39.2884 46.2911L39.4085 45.7688L40.1497 46.2841L40.552 47.0041L41.3285 47.0182L41.5333 47.1947L43.2063 49.616L43.5239 50.7525L44.6534 49.7783L45.557 49.4466L47.0182 47.943L47.0959 47.4488L46.8135 46.6088L47.1947 45.6064L47.71 45.0205L48.0559 44.9499L48.6912 45.3028L50.209 44.5193L50.9219 43.4181L53.5126 43.3122L55.0727 42.1615L56.2869 41.7168Z" fill="#F0F0F0" stroke="#D2D4D5" stroke-width="0.5"/>
<path d="M17.081 19.2402L17.3563 19.332L17.9281 20.0803L18.4364 19.9603L18.5634 19.6073L18.6623 20.0803L18.987 20.1509L19.1494 19.685L19.6364 19.6638L19.6506 20.285L20.4765 20.9627L20.5047 22.2333L20.1518 22.6498L21.3024 23.6028L21.4577 24.2875L21.8036 24.5558L21.613 26.7582L21.1118 27.3865L19.8694 28.2759L19.2341 29.3136L17.1728 31.5514L16.7845 32.5961L16.0716 31.5514L14.7656 28.3112L15.4292 26.9347L15.3586 26.497L15.768 25.9605L15.6833 23.4122L16.3398 23.5675L16.4669 23.4122L15.9516 21.8874L16.3751 21.2097L16.3469 20.4897L16.1139 20.0873L16.5657 19.452L17.081 19.2402Z" fill="#F0F0F0" stroke="#D2D4D5" stroke-width="0.5"/>
<path d="M66.6788 122.326L67.0741 121.091L66.7352 120.399L66.6293 119.107L66.2905 118.543L66.2199 117.943L65.8811 117.745L65.2952 117.441L64.4834 117.463L63.0221 116.644L61.8644 114.858L61.3703 114.526L61.5891 113.785L62.2033 113.072L61.9491 112.006L61.3773 110.898L62.048 109.697L62.7539 109.352L62.9021 107.926L62.295 107.29L61.7162 105.893L60.9114 105.074L60.5373 104.883L59.2455 104.848L58.4478 104.361L57.5372 103.182L56.8383 103.147L56.8665 103.874L56.6689 104.142L56.4642 104.043L56.2806 104.205L56.0689 105.144L55.4618 105.391L55.1512 105.935L54.7629 106.02L53.4076 104.982L52.5534 104.636L52.2499 103.98L50.9721 103.267L50.7392 103.316L50.6404 102.73L49.8921 102.412L49.3274 102.61L49.0168 103.147L49.5886 104.685L49.5674 105.363L48.5226 105.963L47.5767 106.14L46.7437 105.956L46.8002 104.714L45.8754 104.996L45.3248 104.707L44.7036 104.876L44.1742 104.001L44.0259 104.325L43.6024 104.17L43.793 103.831L43.553 103.507L43.2 104.05L42.9177 103.987L42.7694 104.29L42.36 104.015L41.9153 104.445L41.9364 103.5L42.5788 103.577L42.2259 102.899L41.5905 103.605L41.3999 103.591L41.3223 102.568L40.5458 102.85L40.4258 102.342L39.6916 102.335L39.4234 102.497L39.1834 103.14L38.781 103.097L38.5269 102.575L38.9363 101.841L37.9339 101.354L37.8633 100.457L36.9103 100.782L34.7855 100.994L34.249 102.215L34.5808 102.956L35.6679 103.076L36.7197 103.761L37.2986 104.424L37.9127 105.836L39.3457 106.267L40.7152 107.481L41.3929 108.448L42.4659 111.116L44.753 114.293L45.0778 115.154L46.5814 116.022L47.7673 117.23L48.3532 118.959L48.5791 121.394L49.9768 123.265L49.8427 124.635L50.0827 125.002L50.7745 124.966L50.9298 125.348L50.1815 126.166L49.9062 127.31L50.2804 127.677L50.5133 127.599L50.6898 126.738L51.1627 126.279L51.4451 125.644L51.7557 125.63L52.2004 125.983L51.2545 126.781L51.7769 126.964L51.9887 127.388L51.6992 127.529L51.431 128.037L51.8051 128.517L51.8969 127.607L52.5463 127.938L52.6169 128.199L52.3557 128.792L51.7981 128.856L51.7557 129.287L51.5157 129.371L51.5016 130.437L51.2122 130.762L51.8828 131.418L52.8358 133.247L53.4358 133.84L55.0453 134.567L56.1536 134.828L57.043 135.393L58.7937 135.837L59.4925 136.473L59.9796 136.339L60.0149 136.134L60.622 135.936L60.5797 135.308L61.0103 134.899L60.8973 134.517L61.2856 133.847L61.3915 132.957L61.0244 128.651L64.4904 128.771L64.9634 128.199L66.5235 124.663L67.307 124.183L67.3282 123.717L66.6788 122.326ZM60.2691 128.447L59.7396 128.75L58.6807 128.828L58.3772 128.376L58.1513 127.55L58.0242 126.646L58.6031 126.569L59.7326 126.717L60.3396 127.621L60.2691 128.447ZM61.2362 119.898L61.1232 119.919L60.9397 119.969L60.862 120.018L60.855 120.194L60.8832 120.343L60.9185 120.519L60.8691 120.787L60.7703 120.943L60.7138 121.042L60.7208 121.317L60.7632 121.55L60.8479 121.733L60.9679 121.839L61.095 121.959L61.1867 122.136L61.1797 122.312L61.095 122.475L61.0314 122.729L61.0244 122.842L61.095 122.926V123.322L61.0879 123.449L61.0103 123.505L60.9114 123.533L60.855 123.54L60.7632 123.576L60.6855 123.618L60.6361 123.675L60.6008 123.724L60.5867 123.83L60.5726 123.915L59.7326 124.133L58.3207 123.752L58.1725 122.955L58.0242 122.651L57.3466 122.051L56.8948 121.225V120.547L57.5019 119.799L57.7913 119.008L57.8689 118.846L57.9113 118.754L57.9889 118.705L58.0948 118.684L58.2713 118.705L58.4196 118.776L58.5113 118.839L58.6313 118.881L58.7796 118.91L58.8572 118.903L58.8713 118.79L58.9066 118.733L58.9631 118.684L59.0337 118.634L59.1537 118.599L59.2737 118.641L59.5843 118.811L59.782 118.903L59.9161 118.888L59.9867 118.853L60.2267 118.67L60.3185 118.521L60.3679 118.465L60.4173 118.423L60.5302 118.373L60.6361 118.338L60.6926 118.317L60.7703 118.338L60.8197 118.43L60.7985 118.486L60.735 118.536L60.7138 118.599L60.6714 118.663L60.622 118.768L60.6785 118.867L60.8126 118.966L60.9326 119.086L61.0809 119.178L61.1514 119.27L61.2856 119.609L61.3067 119.778L61.2362 119.898Z" fill="#F0F0F0" stroke="#D2D4D5" stroke-width="0.5"/>
<path d="M84.1501 44.6617L86.1479 46.0453L87.7927 48.1771L88.8727 49.1513L90.9199 50.4855L92.3105 51.862L94.3435 53.0127L94.8024 53.1256L95.2048 52.928L96.3695 53.7468L99.7226 57.0364L101.974 60.6295L101.89 61.0389L102.243 61.7307L103.146 63.1143L104.742 66.4109L109.196 74.5219L108.688 74.9172L109.478 77.1761L109.182 78.468L110.248 81.7152L109.429 82.4846L109.323 83.3247L109.662 84.3341L109.634 85.4L110.707 87.4684L110.107 89.4026L109.782 89.8897L109.26 90.1226L109.351 91.4356L107.163 91.718L106.634 91.6192L105.857 91.118L106.104 92.5721L105.553 93.5816L105.419 94.5416L106.118 95.3534L106.125 96.6806L106.45 97.9583L106.358 98.4454L105.758 98.9748L106.012 99.6101L105.709 99.7584L104.664 98.2195L104.812 97.683L103.866 96.8288L103.803 96.2782L102.956 96.2994L102.504 95.6711L101.593 95.8617L100.605 95.1064L99.8709 94.1957L99.0873 94.0263L98.6002 93.5251L97.3437 93.4757L96.6307 93.1792L95.0353 93.9487L94.3859 93.5887L93.9059 92.8898L94.5906 91.958L94.4 90.7156L94.9012 89.8191L94.8518 88.9932L95.5718 88.3084L95.8966 87.3695L97.0896 87.186L96.7931 86.3177L97.3507 85.4283L97.2519 85.0118L96.5389 83.7129L95.9319 83.1623L95.4165 83.0635L94.6612 83.4023H93.5318L92.5788 82.527L92.2117 80.7128L92.8611 80.5434L93.0305 80.0633L92.7482 79.6539L93.44 79.3574L92.2823 77.5291L90.4681 77.522L88.8727 77.1408L88.3221 76.5549L87.7927 76.3149L86.9103 75.0796L87.2067 74.5784L86.6985 73.3571L86.6773 72.5665L85.449 71.8112L85.0184 71.7688L84.1148 71.1053L83.2183 71.2041L82.8936 71.0135L82.9995 69.4958L82.6677 68.3381L83.0489 67.491L82.4983 66.1639L83.183 65.3944L82.8371 64.6814L82.0042 63.9826L80.0064 63.1708L80.2041 62.1754L80.0417 61.3566L80.1194 59.6906L80.797 57.8411L79.124 56.394L79.6111 55.9281L79.364 53.7115L79.8229 52.5397L79.1311 48.6925L81.6794 46.3488L83.4936 44.2734L84.1501 44.6617Z" fill="#F0F0F0" stroke="#D2D4D5" stroke-width="0.5"/>
<path d="M504.691 21.0974L505.072 20.5538L506.025 20.455L507.013 20.6668L507.825 20.095L507.479 19.742L506.653 19.5373L506.428 18.9514L506.541 18.7114L507.31 18.3514L508.136 18.5702L508.863 18.2455L509.498 19.6432L509.957 20.1868L509.971 20.7444L509.703 21.1398L509.11 21.528L508.312 21.648L507.677 22.0927L506.717 22.1845L506.272 21.8245L505.256 21.7045L504.691 21.0974ZM492.062 5.11548L491.766 5.24255L491.879 4.91077L492.514 4.9743L492.662 4.55781L493.453 4.73429L494.18 4.25427L495.069 4.43075L494.893 3.92955L494.427 3.46364L494.858 2.60243L495.366 2.77185L495.218 3.1601L495.472 3.40717L496.044 3.60483L495.909 2.98362L496.065 2.22829L495.62 1.1906L495.182 1.52944L494.9 2.27771L493.509 3.04715L492.867 2.80008L492.472 3.18834L492.203 3.14598L491.243 5.63786L491.49 5.90611L492.429 5.41197L492.062 5.11548ZM497.201 6.18142L497.145 6.39319L497.547 6.35789L497.208 6.83086L497.131 7.60737L497.611 8.07327L497.554 8.50388L498.006 8.06621L498.119 7.38853L499.912 6.24495L500.688 5.94846L501.698 6.08965L502.411 5.06607L502.27 6.05435L502.722 6.03317L502.905 5.45432L503.491 4.73429L503.435 4.26839L502.926 4.38839L502.834 4.1272L503.336 3.86601L502.997 3.8166L502.912 3.49188L503.237 2.72949L503.802 2.32006L503.477 1.43061L502.114 1L501.197 1.3459L500.632 1.11295L500.152 1.61415L499.743 1.29648L498.931 2.36948L497.554 2.67302L497.166 3.01892L497.406 3.92249L496.975 5.39079L497.307 5.48256L496.919 5.92023L497.201 6.18142ZM539.627 79.9495L540.008 79.1024L540.382 79.0671L540.608 78.6648L539.493 78.0577L539.147 78.3189L538.688 78.2342L538.603 77.8953L538.37 77.8883L538.321 78.3118L538.038 78.453L537.742 77.5071L537.184 77.2812L537.022 76.78L536.175 77.2388L536.132 77.8247L533.683 77.7047L533.026 78.0153L533.641 78.3471L534.466 78.2624L536.38 78.7989L536.634 79.3707L537.177 79.4483L537.537 79.1236L538.554 79.7236L539.062 79.7095L538.963 79.4625L539.316 79.1307L539.627 79.9495ZM559.534 61.3204L559.406 60.7204L559.696 60.3816L559.929 59.4427L559.703 58.0662L559.258 57.2332L558.101 56.0825L556.922 55.4896L555.517 55.8778L555.249 56.5626L554.112 56.8802L552.743 56.6896L550.808 56.012L550.858 57.4238L549.7 57.6214L548.973 57.3108L550.547 56.4002L550.166 55.8214L546.947 53.7883L547.039 55.1013L546.975 55.7225L546.764 55.8708L546.658 54.6284L546.848 54.1342L546.566 53.6824L544.116 52.2353L542.486 50.3505L541.865 49.9693L540.799 50.5552L540.516 52.1224L540.107 52.6589L539.867 53.5413L539.641 53.5342L539.429 53.3295L539.648 52.3059L540.241 51.5082L540.156 50.407L540.559 50.3858L541.152 49.934L541.003 49.5811L540.304 48.8257L533.888 44.7526L533.739 44.8161L533.951 45.6138L533.761 46.2774L533.154 45.035L532.158 44.9079L530.76 44.3502L530.047 44.9926L528.269 45.4303L528.071 45.6985L528.516 46.8492L528.297 47.1739H527.767L527.506 47.5833L528.142 48.5857L527.669 48.9316L527.584 49.2775L527.316 49.2352L527.132 48.1834L526.701 48.0492L526.37 48.4587L525.798 48.2751L525.861 47.788L525.551 47.7598L524.845 48.0422L524.541 48.4798L523.722 48.9316L522.565 48.974L522.254 49.3269L522.289 48.9881L522.621 48.6563L522.177 48.7269L522.057 48.1834L522.487 47.661L522.417 47.4422L521.513 47.3292L521.195 47.068L521.442 46.7292L520.948 46.7786L520.666 46.5527L521.344 46.2421L520.998 45.7127L521.527 45.4938L522.614 45.6915L522.819 45.5785L522.657 45.3738L523.617 45.3809L524.16 45.035L524.414 45.748L524.795 45.8327L525.572 45.3315L526.172 45.275L526.292 44.802L527.443 44.3855L527.718 44.0538L526.68 43.1925L526.751 42.4372L526.228 42.5855L525.353 41.9713L525.89 40.9901L524.93 39.8253L525.233 38.8088L524.323 39.0771L524.195 38.1241L523.482 37.9617L523.108 38.2017L522.939 38.7806L521.026 40.4183L521.245 40.6795L520.976 41.1666L520.426 41.456L518.936 41.6748L517.009 41.5831L516.995 41.9078L517.503 42.8396L517.348 43.362L517.256 42.5713L516.219 42.769L514.807 42.4302L513.254 42.8113L512.4 42.529L509.703 43.2349L509.329 43.7149L508.856 43.6584L509.392 43.0796L510.31 42.8819L512.061 41.9784L511.771 41.6748L511.68 41.9643L511.503 41.8584L511.496 41.0113L511.701 41.0183L511.891 41.4136L512.068 40.5454L512.625 40.6089L513.338 40.0089L513.226 39.0771L513.458 38.5829L514.122 38.2723V37.7288L513.656 36.8746L513.275 36.9664L513.515 36.5499L512.936 35.9569L512.477 35.0816L512.047 34.8486L512.703 34.0086L514.122 33.0768L515.555 33.2886L515.682 33.098L516.275 31.2485L515.957 29.6884L516.014 28.806L516.423 28.3471L516.565 27.7189L513.388 25.2905L512.675 25.3541L511.15 24.5634L511.327 24.147L510.67 23.3563L510.282 21.888L508.884 24.0905L508.595 24.1117L507.564 24.0975L506.978 23.8011L506.703 22.8269L505.757 22.5586L505.517 22.2269L504.995 22.5798L504.522 22.1845L504.253 22.5304L503.738 22.3257L502.962 19.9185L503.463 19.495L503.519 19.142L502.425 18.2173L502.107 16.9113L501.74 16.5442L502.136 16.1348L502.044 15.6689L502.644 15.2242L502.58 14.9489L502.326 14.9206L502.785 14.4759L502.51 13.3959L502.644 13.0147L501.529 12.8594L501.063 12.6052L500.554 11.7511L499.785 10.9958L499.058 11.144L499.185 11.7228L498.302 11.4264L497.117 12.0687V12.4994L497.858 12.8523L497.491 13.1559L496.926 13.2053L496.869 12.93L496.524 12.7323L496.291 12.9017L496.333 14.4547L497.004 14.8571L496.862 15.8172L497.124 15.8242L497.102 15.9725L496.171 16.2619L496.234 16.5654L495.789 17.4055L495.281 17.7231L495.309 18.0408L494.773 18.5914L494.723 18.9867L494.971 19.3256L494.879 19.8268L493.771 20.5044L493.432 20.928L492.853 20.9845L491.928 22.1633L491.385 22.3045L491.257 23.2857L490.029 23.7728L489.479 23.7658L488.441 23.3634L488.533 21.8104L489.281 20.9139L490.255 18.9585L491.385 17.8714L491.194 17.2502L491.349 16.3889L490.841 15.9654L491.377 15.4501L490.608 15.2736L489.733 15.5983L489.415 15.196L489.344 14.6524L490.029 15.0618L490.481 14.483L491.166 14.9136L491.413 14.8501L491.483 14.5465L490.806 13.3323L490.89 12.8947L490.552 12.2946L490.093 12.1535L489.104 11.0028L488.42 10.3534L488.208 10.3604L487.58 11.7299V12.337L486.987 12.5135L487.043 13.3747L486.358 14.603L485.984 14.9489L485.158 15.2383L485.278 15.9936L485.914 16.2336L486.027 16.4737L485.469 16.6501L485.158 17.4125L484.834 17.6455L485.264 18.8596L485.25 19.7067L484.481 20.8362L483.302 21.4151L482.342 23.2363L481.036 24.7187L481.219 24.9093L480.852 26.0317L479.087 27.373L476.504 28.8131L476.779 29.4131L476.461 29.5896L476.327 29.3284L475.868 29.6954L476.144 30.2037L476.01 30.6626L476.334 31.072L476.066 31.3402L475.544 31.4179L475.332 31.3614L475.325 30.9026L474.683 31.6155L473.511 32.0532L473.228 32.6532L472.177 33.5921L471.788 34.5451L470.948 35.7734L470.066 36.5146L469.353 36.7828L469.882 37.6158L470.292 37.0511L470.659 37.3334L470.066 38.4064L470.052 39.8889L469.741 40.0865L469.416 39.8959L468.915 40.4324L468.612 40.4889L468.005 42.6208L468.301 43.5596L467.87 44.6891L467.27 44.8373L467.094 45.4091L466.12 46.0727L464.179 46.9198L463.953 47.4704L463.593 50.8941L462.873 52.1577L461.644 52.8283L460.183 53.1883L457.289 52.8989L456.166 52.4894L455.693 52.0659L456.138 50.7952L456.018 50.5341L455.369 50.3505L454.889 51.5506L453.999 52.92L452.51 54.0566L450.498 56.2167L449.997 56.5273L449.404 56.5908L448.987 57.0002L448.726 59.1321L448.154 59.8521L448.874 59.8663L449.128 59.6686L449.263 59.1392L449.806 58.8709L449.241 59.9157L450.216 60.5651L450.23 60.2969L450.484 60.1204L450.851 60.5228L450.674 61.0945L452.594 62.4287L453.004 62.3934L453.329 62.6829L454.204 62.5346L454.155 63.0499L454.522 62.8734L455.108 61.8358L455.482 62.0193L455.185 62.464L455.291 63.1276L454.917 63.1699L454.183 64.2923L454.253 65.0194L454.028 66.2054L453.011 67.4548L451.804 67.8572L451.394 68.6761L452.771 69.1985L454.465 68.3866L455.905 68.2102L456.216 68.2878L456.505 68.7396L456.562 69.7208L457.423 72.8339L457.395 74.2104L456.802 74.874L455.828 77.2176L454.649 78.4248L454.402 79.3566L455.023 80.3801L455.002 81.1214L455.298 81.6931L455.277 82.1449L454.818 82.6885L455.729 84.5168L455.552 85.9992L456.159 86.5216L457.239 86.804L457.818 87.6369L457.832 88.2087L457.126 89.5288L456.858 91.2865L457.254 92.6913L457.952 93.0796L458.087 92.2183L458.581 91.2442L459.322 91.2018L459.527 90.7853L460.105 90.5453L460.508 89.7688L461.122 89.7618L461.461 90.3547L462.075 90.1924L462.308 89.2535L463.494 88.3005L463.247 87.6017L463.508 85.8863L463.917 85.5969L464.397 85.6674L465.061 86.6134L466.974 86.811L467.835 87.3687L468.118 88.4064L469.099 88.9923L470.249 87.2346L471.414 86.924L471.795 85.7733L474.09 86.0628L474.697 86.4298L477.146 85.7945L478.367 86.5569L478.727 87.2205L479.144 87.3758L479.299 88.237L479.617 88.4699L480.499 88.1311L480.859 87.2416L481.382 87.5522L482.215 87.4181L482.109 86.4228L483.055 85.2298L483.528 85.9639L484.325 86.2745L484.495 87.0793L484.728 87.2628L485.462 87.1358L485.871 86.8463L486.373 87.0793H487.198L487.798 86.7193L488.293 85.8298L489.351 87.0299L489.98 86.9099L490.573 87.404L491.688 87.1428L492.888 86.331L493.291 86.5993L493.869 86.6416L494.335 87.0793L495.429 87.0299L495.945 87.6793L496.7 86.9169L498.373 87.2769L499.411 86.931L500.364 87.2416L501.218 87.1428L501.585 86.5216L502.503 86.1051L504.493 87.9264L507.522 89.79L507.938 90.9406L508.574 91.4912L510.515 92.0348L510.84 91.3783L510.592 89.9876L511.369 89.3523L510.988 88.717L510.952 87.9758L511.2 87.6511L512.167 87.7711L512.717 87.6087L512.936 88.0958L513.141 88.0817L513.331 86.8251L512.978 86.4651L512.809 86.8534L512.209 85.5686L513.162 85.4133L512.52 85.1168L512.548 84.9545L512.866 84.8345L513.049 85.0533L514.193 84.4039L514.687 84.658L514.849 85.0039L514.729 85.5333L515.124 85.971L515.901 86.5781L516.6 86.6769L517.101 87.2205L518.103 87.3193L518.668 88.0323L519.783 88.4841L520.461 89.7829L521.111 89.9241L521.972 89.6559L522.967 89.9947L523.313 90.3547L523.821 90.39L526.108 89.4653L527.563 88.5617L528.883 88.237L529.49 88.4276L530.266 88.2299L530.937 87.7781L533.182 87.4675L533.535 87.1146L533.577 86.6981L533.125 86.6487L532.949 86.2604L533.655 86.4369L534.05 87.0299L534.784 86.8887L535.038 87.2981L535.307 87.3616L537.742 86.4792L539.627 86.7334L539.535 85.9357L539.909 86.1686L540.897 85.3639L540.29 84.5592L541.13 84.7215L541.137 85.1662L541.399 85.258L542.253 84.1638L541.568 83.1897L540.862 82.9497L540.813 82.6744L540.53 82.6532L540.523 82.8791L540.184 82.8155L540.834 82.2649L540.777 82.1096L539.083 81.8273L538.194 83.0556L537.827 82.9779L537.523 82.4767L536.436 81.799L536.74 81.5661L537.135 81.799L537.467 81.6861L537.798 80.7684L537.693 80.5707L537.438 80.3872L537.071 80.5496L536.26 79.646L535.808 79.6742L535.624 80.1048L535.342 80.2107L534.424 79.3566L534.417 78.8765L532.582 78.7565L532.546 78.1071L531.473 77.9377L531.191 77.2529L530.365 76.6741L529.553 75.1917L529.299 73.7798L528.784 73.4551L528.572 72.8833L527.64 72.8551L527.471 71.7821L528.071 71.5986L528.353 71.775L528.565 70.8644L529.391 70.5609L529.116 70.2432L529.327 69.9891L530.563 69.1914L531.911 69.382L531.996 68.8878L532.222 68.8384L532.201 69.3679L532.532 69.4385L532.892 68.1819L533.422 67.6948L535.01 67.7443L536.189 68.1537L536.74 68.7255L536.556 69.3396L537.304 70.5115L538.582 70.5185L539.584 69.4314L542.966 70.222L544.371 69.6785L544.476 69.862L545.098 69.7985L546.827 68.7749L548.451 68.4855L549.347 67.6878L549.997 67.4337L554.952 66.1418L557.225 65.2241L558.665 64.0806L559.999 62.4146L559.915 61.3275L559.534 61.3204ZM512.611 88.7382L511.75 88.0393L511.235 88.0181L511.228 87.6934L510.903 88.244L511.369 89.3029L512.986 90.1994L513.967 89.4723L513.727 88.8088L513.12 88.6605L512.611 88.7382ZM544.992 83.4509L544.858 83.8744L544.787 83.5779L544.42 83.4932L544.349 83.2673L543.658 83.2885L543.058 82.5967L542.429 82.7167L541.787 82.512L542.083 82.8014L541.73 82.8861L541.773 83.105L542.62 84.0933L542.239 84.8768L543.065 84.5733L543.425 84.185L544.455 84.305L544.985 84.1215L545.394 83.7191L544.992 83.4509Z" fill="#F0F0F0" stroke="#D2D4D5" stroke-width="0.5"/>
<path d="M309.993 163.637L310.65 163.834L311.25 165.197L311.123 165.74L310.925 165.973L310.014 165.479L309.534 166.143L309.429 166.552L309.866 166.771L310.219 166.291L310.177 166.82L310.713 166.905L310.756 167.096L310.17 167.187L309.901 166.891L309.069 167.23L308.412 166.806L308.165 165.761L308.553 165.945L308.814 165.493L308.56 165.232L309.181 165.161L309.4 164.858L309.146 164.004L309.993 163.637ZM303.555 161.483L303.887 161.688L304.191 161.575L304.254 161.893L304.007 162.331L304.685 163.008L304.141 163.545L303.442 163.813L302.998 162.549L302.129 162.387L301.946 162.034L302.165 161.759L303.555 161.483ZM310.374 160.382L311.017 161.138L310.24 161.596L310.007 162.295L310.134 162.549L309.718 162.74L309.824 163.157L310.163 163.248L309.541 163.46L308.956 163.961L308.963 164.441L309.217 164.844L307.777 165.345L307.466 164.928L307.014 165.013L307 164.568L306.457 164.491L306.097 163.432L306.478 163.234L306.923 162.994L306.781 162.112L307.134 161.985L307.692 162.091L308.179 162.345L308.617 161.618L308.694 160.968L309.45 160.834L309.69 161.173L310.057 161.116L310.374 160.926L310.198 160.545L310.374 160.382ZM305.638 158.787L305.941 159.02L305.708 159.57L306.174 160.135L306.111 161.265L306.647 161.66L306.831 162.966L306.068 163.326L305.737 162.578L305.864 161.695L305.511 161.342L305.038 161.349L304.657 160.749L305.151 160.1L305.158 159.599L305.638 158.787ZM334.856 147.542L334.933 147.252L335.406 147.16L335.357 147.506L335.773 147.739L336.013 147.909L335.618 148.198L335.449 147.909L335.138 147.916L335.074 148.495L334.192 148.961L333.966 149.963L332.985 149.363L331.566 149.003L330.55 149.088L329.738 149.434L329.025 148.812L329.251 148.029L330.331 147.302L330.733 146.617L331.531 147.845L332.074 147.965L332.547 147.725L332.759 147.069L332.575 145.304L333.218 145.473L334.241 146.179L334.404 146.808V147.393L334.651 147.633L334.856 147.542ZM331.63 140.906L331.488 141.725L331.785 141.407L333.896 142.339L333.154 143.214L333.641 143.814L333.14 144.026L332.385 145.332L332.554 147.478L331.877 147.803L331.665 147.739L331.439 146.998L330.804 146.313L330.465 146.271L329.978 146.709L329.879 146.44L329.971 145.05L329.759 142.925L330.154 142.05L330.698 141.443L331.63 140.906ZM335.745 132.979L335.456 131.969L336.027 131.581L335.745 132.979ZM334.051 130.564L335.547 132.753L335.357 133.925L335.477 135.555L335.293 139.445L335.816 140.271L336.056 141.803L336.557 142.466L336.352 142.861L335.35 142.791L334.877 143.483L334.361 142.854L334.227 141.873L333.133 141.125L333.084 140.137L333.373 138.802L332.533 135.061L332.519 133.296L332.752 132.174L333.458 130.882L334.051 130.564ZM349.75 128.574L353.012 128.094L357.508 127.091L360.869 126.096L367.405 124.691L369.135 124.395L369.601 124.543L370.702 123.901L372.361 123.378L379.3 121.776L381.672 120.463L382.251 119.976L383.606 118.091L383.077 117.434L385.886 115.183L387.03 113.213L389.698 110.926L390.122 110.255L389.853 109.796L392.098 107.396L393.312 105.356L393.616 104.686L393.51 104.114L393.849 103.57L397.244 101.332L401.254 97.93L403.188 95.8334L404.791 93.1933L407.84 89.5013L408.948 87.5107L409.153 86.7412L408.871 86.353L409.52 85.5482L409.894 84.0799L409.824 82.4422L409.061 80.1762L409.499 79.8021L413.629 80.0068L414.892 80.4444L415.563 81.3127L415.902 81.1998L416.742 81.6445L417.511 82.6398L418.775 84.8282L418.754 86.12L419.354 86.6706L419.001 87.913L419.036 88.8378L419.954 89.1696L420.751 88.7954L421.74 89.106L422.283 88.5695H422.742L423.088 90.0378L424.239 92.1838L425.248 92.2968L425.693 92.7556L426.526 94.3157L427.21 94.7463L428.142 94.9016L428.234 95.191L427.712 95.9181L428.178 96.031L429.335 95.671L430.641 94.9016L432.258 92.8897L433.352 91.9862L433.408 91.7956L432.787 91.8732L432.83 91.4002L434.256 89.5084L434.559 88.6189L433.557 89.2401L433.55 88.6189L434.51 87.5318L435.251 86.0494L435.293 84.6588L434.178 84.334L433.67 83.7834L433.267 78.2914L433.154 77.5784L432.533 76.5478L432.632 75.4819L433.048 75.2277L433.86 75.1501L434.171 74.8889L434.601 73.8018L434.968 73.5618L437.792 72.9123L438.667 71.2605L439.218 70.9852L439.423 71.677L438.646 72.5947L438.371 74.3665L438.675 74.4512L438.823 72.7429L439.239 72.2135V73.1594L440.009 74.0347L439.628 75.023L439.903 75.9195L439.79 76.7031L440.319 79.0891L440.686 79.6891L441.618 82.6963L441.505 83.614L441.71 85.3435L442.042 85.5764L442.974 85.4635L444.456 86L445.564 85.9153L445.783 86.0776L445.931 86.833L446.814 86.72L447.386 87.0659L447.795 87.7295L448.127 87.8142L448.727 87.5177L449.136 87.1224L449.164 86.6141L448.459 85.5553L446.955 84.2564L446.673 83.5505L446.814 83.0634L446.454 81.7363L446.44 80.7621L446.884 80.1268L447.011 79.2444L446.884 78.4326L446.122 77.8043L446.348 77.0984L445.945 76.5196L446.03 75.503L445.345 74.6136L445.522 73.6394L443.856 72.2347L443.912 71.917L443.538 71.8111L443.023 70.8087L442.684 70.5475L444.138 70.0393L444.294 69.7498L444.216 69.0722L445.084 68.8886L445.381 69.1145L445.727 70.1028L446.08 70.371L447.025 70.5687L447.731 71.0346L448.875 70.9216L449.75 70.3428L449.644 69.7075L449.976 69.6228L450.781 68.7968L451.395 68.6839L452.772 69.1992L454.466 68.3874L455.906 68.2109L456.217 68.2886L456.506 68.7404L456.562 69.7216L457.424 72.8347L457.395 74.2112L456.802 74.8748L455.828 77.2184L454.649 78.4255L454.402 79.3573L455.024 80.3809L455.002 81.1221L455.299 81.6939L455.278 82.1457L454.819 82.6893L455.729 84.5176L455.553 86L456.16 86.5224L457.24 86.8047L457.819 87.6377L457.833 88.2095L457.127 89.5296L456.859 91.2873L457.254 92.6921L457.953 93.0803L458.122 93.1227L457.897 94.598L457.155 97.0052L456.689 97.7676L456.217 98.1135L455.009 98.3111L454.713 98.537L455.207 99.3206L456.097 99.8712L456.365 100.337L455.285 103.591L455.024 106.232L455.285 107.905L455.906 108.688L456.125 110.545L457.169 112.288L456.471 113.269L455.976 112.26L455.285 112.175L454.275 114.173L453.781 115.952L453.845 117.865L453.527 118.931L454.741 119.842L454.713 120.322L453.386 121.578L453.35 123.159L453.118 123.583L452.369 124.084L450.965 124.183L449.983 125.341L447.866 125.383L447.647 124.494L446.828 123.618L446.44 124.854L445.755 125.595L444.731 126.004L444.237 126.597L443.482 126.922L443.235 128.482L441.653 129.943L441.597 130.084L441.999 130.324L442.614 130.317L442.868 130.713L442.543 131.299L442.571 132.004L441.548 132.852L441.929 134.56L441.745 135.266L441.258 135.647L441.272 135.972L441.823 136.656L442.282 136.621L443.143 136.099L443.461 136.169L444.548 137.433L444.625 138.033L445.324 138.315L445.352 139.198L444.117 139.981L443.185 139.854L442.352 140.031L441.385 140.913L441.11 141.866L439.973 141.845L439.112 142.869L438.329 143.356L437.7 142.876L437.354 142.96L436.903 144.182L437.369 144.767L437.347 145.043L436.634 145.389L436.161 145.925L433.288 146.193L432.9 146.412L432.42 148.438L432.413 149.723L432.618 150.104L433.246 150.379L433.295 150.796L432.985 151.191L432.978 152.052L433.38 152.878L433.67 152.907L434.686 152.335L435.406 152.681L435.484 153.02L434.291 154.297L434.333 154.813L435.06 155.61L434.418 156.189L433.479 156.231L432.385 157.509L431.277 157.064L430.585 157.361L430.634 158.039L429.865 158.639L430.316 159.486L430.189 160.185L430.415 160.947L430.161 162.507L429.378 163.277L428.778 164.575L427.415 165.352L427.14 166.425L427.387 167.088L427.253 167.717L426.088 169.418L425.297 169.312L424.083 168.324L423.42 168.281L421.422 167.004L421.189 167.011L420.723 167.724L418.739 168.409L418.161 168.853L416.812 169.009L415.824 170.096L415.542 169.686L413.918 168.5L413.099 168.74L412.273 168.536L410.572 169.037L409.428 168.818L408.546 169.157L408.179 169.757L404.967 171.084L404.826 171.395L405.108 172.15L404.508 173.117L401.593 174.218L400.379 175.404L399.447 175.446L399.228 175.284V174.663L398.529 174.289L398.028 173.089L396.856 172.51L395.578 172.743L394.611 173.103L394.11 173.562L393.602 173.618L392.727 172.722L391.971 172.404L391.498 171.458L389.268 170.682L387.778 170.569L386.423 170.9L385.371 170.547L384.728 169.496L384.291 169.157L381.94 170.074L380.761 170.082L380.62 169.397L380.888 168.924L382.399 168.253L382.731 167.145L383.338 166.503L383.105 165.91L381.368 165.232L380.86 165.613L380.451 165.627L379.244 165.5L378.778 165.161L378.093 165.055L377.027 166.347L375.777 166.277L375.559 165.952L374.867 165.662L374.38 165.86L373.78 165.648L372.248 165.931L371.556 165.514L370.984 165.684L367.095 165.211L365.775 165.938L365.266 166.778L363 167.413L362.104 167.35L360.861 168.338L359.294 168.726L358.85 169.023L358.574 170.004L359.365 170.689L358.85 172.108L357.946 173.124L357.819 174.317L357.487 174.762L357.643 175.305L357.537 175.821L357.071 176.477L357.297 177.042L357.184 177.402L356.781 177.6L355.56 177.592L351.466 178.207L350.95 179.047L349.885 179.774L349.525 180.374L349.299 181.489L348.226 181.503L347.329 181.115L346.934 181.588L346.411 181.037L345.218 181.299L344.964 180.91L343.531 180.324L342.952 180.564L341.357 181.821L340.517 181.856L340.559 182.703L340.355 182.964L339.733 182.732L339.239 181.44L338.265 180.635L337.799 180.614L336.91 181.207L335.766 181.235L334.573 180.564L331.757 179.724L331.255 179.287L330.126 179.802L328.552 180.155L326.279 180.324L325.29 180.713L321.994 180.875L321.5 181.376L321.443 181.828L320.335 183.07L318.944 183.176L318.881 183.473L319.142 183.953L318.958 184.348L318.485 184.235L318.189 183.727L317.914 183.628L317.596 184.376L316.594 184.285L315.754 184.899L315.034 185.075L314.631 184.913L314.469 184.355L314.186 184.242L313.798 185.259L312.33 185.753L309.972 185.096L308.737 184.172L308.454 183.769L308.574 183.268L307.699 183.049L307.636 182.301L307.297 181.835L306.4 182.061L305.666 181.701L303.929 181.722L304 180.317L303.527 180.162L303.04 179.308L302.927 178.489L302.009 178.298L301.96 177.345L301.558 176.703L300.343 176.032L298.833 176.061L298.445 175.616L297.266 175.856L297.294 175.559L297.943 174.875L297.837 174.317L296.2 173.308L295.48 173.195L294.943 171.395L294.922 170.491L293.92 169.714L291.258 169.644L291.181 168.705L291.428 167.999L290.736 168.451L290.411 168.366L289.854 167.42L287.34 164.9L287.143 164.448L286.571 164.244L286.176 163.679L286.529 160.933L286.995 159.549L286.74 159.274L284.693 158.723L284.171 157.686L283.373 157.34L282.936 155.575L283.31 155.342L283.846 155.37L284.376 154.227L285.23 153.711L285.632 153.076L286.027 151.883L286.324 152.257L286.035 153.111L286.599 153.761L286.14 153.838L286.119 155.73L287.1 156.839L287.023 157.283L288.223 157.982L289.663 158.483L290.023 158.773L291.611 159.359L291.865 159.818L292.734 160.326L292.437 160.961L293.955 161.815L293.362 161.709L293.101 161.914L294.343 162.225L294.936 161.794L295.409 162.013L295.444 162.465L296.291 161.893L299.553 161.886L301.734 161.66L301.798 162.324L303.04 162.775L303.033 163.185L303.344 163.46L303.273 163.757L303.513 164.166L304.84 163.199L304.487 162.204L305.482 161.462L305.85 161.752L305.68 162.669L306.464 164.547L307.043 164.674V165.084L307.558 165.14L307.607 165.543L307.304 165.705L307.466 165.945L307.826 165.846L308.151 165.281L308.765 165.486L308.588 165.86L308.341 165.634L308.165 165.768L308.214 166.495L308.377 166.827L309.09 167.279L309.923 166.983L310.226 167.279L310.869 167.138L310.791 166.87L310.339 166.778L310.459 166.135L310.092 166.255L309.887 166.728L309.605 166.524L309.633 166.27L310.099 165.641L310.77 166.1L311.144 166.107L311.518 165.07L312.231 164.738L313.488 164.745L316.932 166.178L317.271 167.081L317.151 167.999L314.638 169.249L314.391 170.011L314.885 170.519L316.177 169.827L317.42 170.413L316.855 169.912L316.198 169.658L314.906 170.35L314.631 169.757L317.539 168.246L317.843 167.632L317.914 165.811L318.5 165.281L318.93 165.288L321.006 166.425L322.876 166.855L323.97 167.526L324.761 168.225L325.601 169.587L326.519 170.272L328.1 170.625L329.448 171.451L330.14 171.162L330.825 170.555L331.785 170.449L332.131 170.724L332.59 171.945L333.74 172.397L333.825 172.122L333.366 171.416L333.345 170.618L333.006 170.307L331.446 169.834L330.366 170.089L329.526 170.667L328.396 169.792L326.448 168.98L325.629 167.244L324.973 166.813H324.443L324.592 166.319L324.443 165.43L325.093 163.185L325.749 162.422L326.759 162.5L327.479 162.232L328.707 162.5L328.919 163.509L329.427 163.855L330.521 163.502L331.326 164.159L332.674 164.032L332.095 163.749L331.347 163.792L330.592 163.149L329.364 163.446L329.039 162.062L328.135 161.766L327.74 161.229L327.705 160.855L327.062 160.192L327.542 159.465L328.241 159.26L328.481 158.921L328.608 158.476L328.481 158.392L327.966 159.14L327.613 159.175L327.542 158.385L329.406 154.601L329.498 153.584L330.592 150.584L331.206 151.177L331.813 151.417L332.674 151.241L333.246 151.678L333.656 151.615L334.545 150.641L334.785 148.911L335.477 149.25L336.373 148.946L337.079 149.363L337.206 149.201L336.373 148.735L335.47 149.038L335.187 148.664L335.293 148.043L336.084 148.53L336.289 148.135L336.169 147.796L335.519 147.4L335.526 147.076L334.969 147.168L334.693 147.443L334.446 146.151L333.19 144.866L333.853 143.843L333.804 143.525L333.373 143.172L333.931 142.805L334.665 143.737L335.265 143.659L335.639 142.96L336.359 143.101L337.107 142.6L338.632 143.56L338.251 142.89L336.409 141.527L336.338 140.37L335.731 139.494L336.338 139.381L337.905 139.904L338.837 139.381L339.084 140.327L340.072 140.991L340.475 140.857L340.736 140.151L341.258 140.701L341.604 140.828L341.759 140.581L341.244 140.468L341.032 139.995L340.694 139.925L340.086 140.8L339.282 140.108L339.07 139.184L338.632 139.113L337.806 139.501L335.943 138.259L335.936 137.412L336.55 135.456L336.86 133.536L338.11 132.943L338.569 132.202L341.632 130.804L342.684 129.237H343.087L343.334 129.788L345.684 130.741L345.783 130.564L343.898 129.604L347.873 128.665L349.75 128.574Z" fill="#F0F0F0" stroke="#D2D4D5" stroke-width="0.5"/>
<path d="M60.5579 123.929L59.7179 124.148L58.3061 123.766L58.1578 122.962L58.0025 122.665L57.3248 122.058L56.873 121.232V120.554L57.4731 119.806L57.7696 119.016L57.8472 118.853L57.8825 118.768L57.9672 118.719L58.066 118.698L58.2425 118.719L58.3908 118.79L58.4825 118.853L58.6025 118.903L58.7508 118.931L58.8355 118.917L58.8496 118.811L58.8849 118.754L58.9414 118.698L59.012 118.648L59.132 118.613L59.2449 118.656L59.5555 118.832L59.7532 118.924L59.8873 118.903L59.9579 118.874L60.1979 118.684L60.2967 118.536L60.3461 118.479L60.3956 118.444L60.5085 118.394L60.6073 118.359L60.6638 118.338L60.7415 118.359L60.7909 118.451L60.7697 118.507L60.7062 118.557L60.685 118.62L60.6426 118.684L60.5932 118.797L60.6497 118.889L60.7838 118.994L60.9038 119.107L61.0521 119.199L61.1227 119.291L61.2568 119.63L61.278 119.799L61.2356 119.898L61.1227 119.919L60.9391 119.969L60.8615 120.018L60.8544 120.194L60.8826 120.343L60.9179 120.526L60.8615 120.794L60.7697 120.95L60.7132 121.049L60.7203 121.324L60.7626 121.557L60.8474 121.74L60.9603 121.846L61.0874 121.966L61.1791 122.143L61.1721 122.312L61.0803 122.482L61.0168 122.729L61.0097 122.842L61.0803 122.926V123.329L61.0732 123.456L60.9956 123.512L60.8968 123.54L60.8403 123.548L60.7556 123.583L60.6709 123.632L60.6215 123.689L60.5932 123.738L60.572 123.844L60.5579 123.929Z" fill="#F0F0F0" stroke="#D2D4D5" stroke-width="0.5"/>
<path d="M441.773 61.8641L442.077 61.8712L442.147 62.0759L441.851 62.1677L441.498 61.8006L441.773 61.8641ZM447.774 60.5794L447.724 60.7206L447.167 60.4876L447.435 60.1841L447.717 60.2405L447.774 60.5794ZM445.289 57.2969L445.444 57.4663L445.105 57.9251L445.133 58.4546L446.051 60.2052L445.649 60.5441L445.07 60.5017L445.133 60.897L445.437 61.0312L445.296 61.4406L444.844 61.2218L444.562 60.5511L444.138 60.3888L443.693 60.5653L443.079 61.2712L442.677 61.3065L443.016 59.9652L443.658 58.744L444.759 57.3745L445.289 57.2969Z" fill="#F0F0F0" stroke="#D2D4D5" stroke-width="0.5"/>
<path d="M58.3842 128.368L58.1583 127.543L58.0312 126.646L58.6101 126.568L59.7396 126.717L60.3467 127.62L60.269 128.446L59.7396 128.75L58.6878 128.82L58.3842 128.368Z" fill="#F0F0F0" stroke="#D2D4D5" stroke-width="0.5"/>
<circle cx="74.3605" cy="141.36" r="10.2244" fill="#55B9F1" stroke="white" stroke-width="2.2721"/>
<g clip-path="url(#clip0_619_197)">
<rect x="20.8535" y="90.1367" width="106.293" height="29.2348" rx="4.82322" fill="#4498AF"/>
<path d="M31.2034 108.754V99.4597H33.4498V103.39H33.5723L36.6447 99.4597H39.2904L35.9957 103.608L39.3494 108.754H36.6628L34.3484 105.101L33.4498 106.235V108.754H31.2034ZM44.237 105.745V101.783H46.4516V108.754H44.3369V107.456H44.2643C44.11 107.883 43.8467 108.221 43.4746 108.473C43.1055 108.721 42.6593 108.845 42.1359 108.845C41.6609 108.845 41.2433 108.736 40.8833 108.518C40.5233 108.3 40.2434 107.996 40.0438 107.606C39.8441 107.212 39.7427 106.753 39.7397 106.226V101.783H41.9589V105.79C41.9619 106.169 42.0617 106.467 42.2584 106.685C42.455 106.902 42.7228 107.011 43.0616 107.011C43.2825 107.011 43.4807 106.963 43.6561 106.866C43.8346 106.766 43.9753 106.622 44.0782 106.435C44.1841 106.244 44.237 106.014 44.237 105.745ZM49.8292 108.872C49.3844 108.872 48.9896 108.798 48.6447 108.65C48.3028 108.498 48.0321 108.271 47.8324 107.969C47.6357 107.663 47.5374 107.281 47.5374 106.821C47.5374 106.433 47.6055 106.107 47.7416 105.84C47.8778 105.574 48.0653 105.358 48.3044 105.191C48.5434 105.025 48.8187 104.899 49.1303 104.815C49.4419 104.727 49.7747 104.668 50.1287 104.638C50.525 104.601 50.8442 104.564 51.0862 104.524C51.3283 104.482 51.5038 104.423 51.6127 104.347C51.7246 104.269 51.7806 104.158 51.7806 104.016V103.993C51.7806 103.76 51.7004 103.58 51.5401 103.453C51.3797 103.326 51.1634 103.263 50.8911 103.263C50.5976 103.263 50.3617 103.326 50.1832 103.453C50.0047 103.58 49.8912 103.756 49.8428 103.98L47.7961 103.907C47.8566 103.484 48.0124 103.105 48.2635 102.773C48.5176 102.437 48.8656 102.174 49.3073 101.983C49.752 101.789 50.286 101.693 50.9093 101.693C51.354 101.693 51.7639 101.745 52.1391 101.851C52.5143 101.954 52.841 102.105 53.1193 102.305C53.3977 102.502 53.6125 102.744 53.7638 103.031C53.9181 103.319 53.9952 103.647 53.9952 104.016V108.754H51.9077V107.783H51.8532C51.7292 108.019 51.5703 108.218 51.3767 108.382C51.1861 108.545 50.9607 108.668 50.7005 108.749C50.4433 108.831 50.1529 108.872 49.8292 108.872ZM50.5144 107.42C50.7534 107.42 50.9683 107.371 51.1589 107.274C51.3525 107.178 51.5068 107.045 51.6218 106.875C51.7367 106.703 51.7942 106.503 51.7942 106.276V105.613C51.7307 105.647 51.6535 105.677 51.5628 105.704C51.475 105.731 51.3782 105.757 51.2723 105.781C51.1664 105.806 51.0575 105.827 50.9456 105.845C50.8336 105.863 50.7262 105.88 50.6234 105.895C50.4146 105.928 50.2361 105.98 50.0879 106.049C49.9426 106.119 49.8307 106.21 49.752 106.321C49.6764 106.43 49.6386 106.56 49.6386 106.712C49.6386 106.942 49.7203 107.117 49.8836 107.238C50.05 107.359 50.2603 107.42 50.5144 107.42ZM57.5713 99.4597V108.754H55.3521V99.4597H57.5713ZM60.9488 108.872C60.5041 108.872 60.1093 108.798 59.7644 108.65C59.4225 108.498 59.1517 108.271 58.952 107.969C58.7554 107.663 58.657 107.281 58.657 106.821C58.657 106.433 58.7251 106.107 58.8613 105.84C58.9974 105.574 59.185 105.358 59.424 105.191C59.663 105.025 59.9383 104.899 60.2499 104.815C60.5616 104.727 60.8944 104.668 61.2483 104.638C61.6447 104.601 61.9638 104.564 62.2059 104.524C62.4479 104.482 62.6234 104.423 62.7323 104.347C62.8443 104.269 62.9002 104.158 62.9002 104.016V103.993C62.9002 103.76 62.82 103.58 62.6597 103.453C62.4994 103.326 62.283 103.263 62.0107 103.263C61.7173 103.263 61.4813 103.326 61.3028 103.453C61.1243 103.58 61.0108 103.756 60.9624 103.98L58.9157 103.907C58.9762 103.484 59.132 103.105 59.3831 102.773C59.6373 102.437 59.9852 102.174 60.4269 101.983C60.8717 101.789 61.4057 101.693 62.0289 101.693C62.4736 101.693 62.8836 101.745 63.2587 101.851C63.6339 101.954 63.9606 102.105 64.239 102.305C64.5173 102.502 64.7321 102.744 64.8834 103.031C65.0377 103.319 65.1148 103.647 65.1148 104.016V108.754H63.0273V107.783H62.9728C62.8488 108.019 62.69 108.218 62.4963 108.382C62.3057 108.545 62.0803 108.668 61.8201 108.749C61.563 108.831 61.2725 108.872 60.9488 108.872ZM61.6341 107.42C61.8731 107.42 62.0879 107.371 62.2785 107.274C62.4721 107.178 62.6264 107.045 62.7414 106.875C62.8564 106.703 62.9138 106.503 62.9138 106.276V105.613C62.8503 105.647 62.7732 105.677 62.6824 105.704C62.5947 105.731 62.4978 105.757 62.3919 105.781C62.2861 105.806 62.1771 105.827 62.0652 105.845C61.9533 105.863 61.8459 105.88 61.743 105.895C61.5342 105.928 61.3557 105.98 61.2075 106.049C61.0623 106.119 60.9503 106.21 60.8717 106.321C60.796 106.43 60.7582 106.56 60.7582 106.712C60.7582 106.942 60.8399 107.117 61.0033 107.238C61.1697 107.359 61.3799 107.42 61.6341 107.42ZM69.2173 108.754V99.4597H71.4637V106.93H75.3303V108.754H69.2173ZM80.9905 105.745V101.783H83.2051V108.754H81.0903V107.456H81.0177C80.8634 107.883 80.6002 108.221 80.2281 108.473C79.859 108.721 79.4127 108.845 78.8893 108.845C78.4143 108.845 77.9968 108.736 77.6368 108.518C77.2768 108.3 76.9969 107.996 76.7972 107.606C76.5975 107.212 76.4962 106.753 76.4932 106.226V101.783H78.7123V105.79C78.7153 106.169 78.8152 106.467 79.0118 106.685C79.2085 106.902 79.4762 107.011 79.8151 107.011C80.036 107.011 80.2341 106.963 80.4096 106.866C80.5881 106.766 80.7288 106.622 80.8316 106.435C80.9375 106.244 80.9905 106.014 80.9905 105.745ZM84.6176 108.754V101.783H86.7279V103.063H86.805C86.9502 102.639 87.1953 102.305 87.5402 102.06C87.8851 101.815 88.2965 101.693 88.7746 101.693C89.2586 101.693 89.6731 101.817 90.018 102.065C90.3629 102.313 90.5823 102.646 90.6761 103.063H90.7487C90.8788 102.649 91.1329 102.317 91.5111 102.069C91.8893 101.818 92.3355 101.693 92.8498 101.693C93.5094 101.693 94.0449 101.904 94.4563 102.328C94.8678 102.748 95.0735 103.326 95.0735 104.061V108.754H92.8544V104.57C92.8544 104.222 92.7651 103.957 92.5866 103.776C92.4081 103.591 92.1767 103.499 91.8923 103.499C91.5867 103.499 91.3462 103.599 91.1707 103.798C90.9983 103.995 90.912 104.26 90.912 104.592V108.754H88.7791V104.547C88.7791 104.223 88.6914 103.968 88.5159 103.78C88.3404 103.593 88.109 103.499 87.8216 103.499C87.6279 103.499 87.457 103.546 87.3087 103.639C87.1605 103.73 87.044 103.86 86.9593 104.03C86.8776 104.199 86.8368 104.399 86.8368 104.629V108.754H84.6176ZM96.4486 111.368V101.783H98.6451V102.977H98.7131C98.8039 102.765 98.9325 102.561 99.0989 102.364C99.2683 102.168 99.4831 102.007 99.7433 101.883C100.007 101.756 100.321 101.693 100.687 101.693C101.171 101.693 101.624 101.82 102.044 102.074C102.468 102.328 102.81 102.72 103.07 103.249C103.33 103.779 103.46 104.453 103.46 105.273C103.46 106.063 103.335 106.724 103.083 107.256C102.835 107.789 102.499 108.188 102.076 108.454C101.655 108.721 101.188 108.854 100.674 108.854C100.323 108.854 100.019 108.796 99.7615 108.681C99.5043 108.566 99.288 108.415 99.1125 108.227C98.9401 108.04 98.8069 107.839 98.7131 107.624H98.6678V111.368H96.4486ZM98.6224 105.269C98.6224 105.644 98.6723 105.97 98.7721 106.249C98.875 106.527 99.0217 106.743 99.2123 106.898C99.406 107.049 99.6374 107.125 99.9067 107.125C100.179 107.125 100.41 107.049 100.601 106.898C100.792 106.743 100.935 106.527 101.032 106.249C101.132 105.97 101.182 105.644 101.182 105.269C101.182 104.893 101.132 104.568 101.032 104.293C100.935 104.018 100.792 103.804 100.601 103.653C100.413 103.502 100.182 103.426 99.9067 103.426C99.6344 103.426 99.4029 103.5 99.2123 103.648C99.0217 103.797 98.875 104.008 98.7721 104.284C98.6723 104.559 98.6224 104.887 98.6224 105.269ZM109.12 105.745V101.783H111.335V108.754H109.22V107.456H109.148C108.993 107.883 108.73 108.221 108.358 108.473C107.989 108.721 107.543 108.845 107.019 108.845C106.544 108.845 106.127 108.736 105.767 108.518C105.407 108.3 105.127 107.996 104.927 107.606C104.727 107.212 104.626 106.753 104.623 106.226V101.783H106.842V105.79C106.845 106.169 106.945 106.467 107.142 106.685C107.338 106.902 107.606 107.011 107.945 107.011C108.166 107.011 108.364 106.963 108.539 106.866C108.718 106.766 108.859 106.622 108.961 106.435C109.067 106.244 109.12 106.014 109.12 105.745ZM112.747 108.754V101.783H114.903V103.054H114.976C115.103 102.594 115.31 102.252 115.597 102.028C115.885 101.801 116.219 101.688 116.6 101.688C116.703 101.688 116.809 101.696 116.918 101.711C117.027 101.723 117.128 101.742 117.222 101.77V103.698C117.116 103.662 116.977 103.633 116.805 103.612C116.635 103.591 116.484 103.58 116.351 103.58C116.088 103.58 115.85 103.639 115.638 103.757C115.429 103.872 115.265 104.034 115.144 104.243C115.026 104.449 114.967 104.691 114.967 104.969V108.754H112.747Z" fill="white"/>
<path fill-rule="evenodd" clip-rule="evenodd" d="M80.4901 119.373L67.5098 119.373L73.9999 125.863L80.4901 119.373Z" fill="#4498AF"/>
</g>
<defs>
<clipPath id="clip0_619_197">
<rect x="21" y="86" width="106" height="44" rx="4.82322" fill="white"/>
</clipPath>
</defs>
</svg>
