<svg width="122" height="122" viewBox="0 0 122 122" fill="none" xmlns="http://www.w3.org/2000/svg">
<path d="M83.3098 115.368H9.43339C8.49769 115.368 7.68707 114.719 7.48201 113.806L0.547663 82.9334C0.266854 81.6832 1.21769 80.4951 2.49905 80.4951H16.2987C17.2046 80.4951 17.9974 81.104 18.231 81.9793L19.1388 85.3799H80.9594L81.8686 81.9786C82.1025 81.1037 82.8951 80.4951 83.8008 80.4951H119.743C120.923 80.4951 121.82 81.5567 121.624 82.7207V82.7207C118.426 101.637 102.313 115.368 83.3098 115.368ZM10.8875 111.552H83.3098C99.6902 111.552 113.691 100.226 117.413 84.3114H85.196L84.2861 87.713C84.0521 88.5878 83.2595 89.1962 82.354 89.1962H17.7441C16.8381 89.1962 16.0453 88.5873 15.8117 87.712L14.904 84.3114H4.76848L10.8875 111.552Z" fill="#55B9F1"/>
<path fill-rule="evenodd" clip-rule="evenodd" d="M6.57812 63.4766H42.9844V86.9219H38.9844V67.4766H10.5781V82.6328H6.57812V63.4766Z" fill="#55B9F1"/>
<path fill-rule="evenodd" clip-rule="evenodd" d="M110 63H73V87H77V67H106V82.6H110V63Z" fill="#55B9F1"/>
<path fill-rule="evenodd" clip-rule="evenodd" d="M42.9844 40.125H10.5781C8.36899 40.125 6.57812 41.9159 6.57812 44.125V63.5703H10.5781V44.125H38.9844V63.5703H42.9844V40.125Z" fill="#55B9F1"/>
<path fill-rule="evenodd" clip-rule="evenodd" d="M77 27C77 24.7909 75.2091 23 73 23H43C40.7909 23 39 24.7909 39 27V46H43V27H73V44H77V27Z" fill="#55B9F1"/>
<path fill-rule="evenodd" clip-rule="evenodd" d="M43 11C43 8.79086 41.2091 7 39 7H10.5C8.29086 7 6.5 8.79086 6.5 11V45.5H10.5V11H39V28H43V11Z" fill="#55B9F1"/>
<path fill-rule="evenodd" clip-rule="evenodd" d="M110 44C110 41.7909 108.209 40 106 40H73V64H77V44L106 44V64H110V44Z" fill="#55B9F1"/>
<path fill-rule="evenodd" clip-rule="evenodd" d="M74.5 52H41.5V48H74.5V52Z" fill="#55B9F1"/>
<path fill-rule="evenodd" clip-rule="evenodd" d="M74.5 77H41.5V73H74.5V77Z" fill="#55B9F1"/>
</svg>
