<svg width="122" height="122" viewBox="0 0 122 122" fill="none" xmlns="http://www.w3.org/2000/svg">
<g clip-path="url(#clip0_516_85)">
<path d="M101.45 78.5135C101.121 78.5139 100.798 78.4284 100.513 78.2657L100.105 78.035C99.6649 77.7859 99.3419 77.3722 99.2069 76.885C99.072 76.3977 99.1361 75.8768 99.3852 75.4368C99.6344 74.9968 100.048 74.6738 100.535 74.5389C101.023 74.4039 101.543 74.4681 101.983 74.7172L102.391 74.9479C102.758 75.1553 103.046 75.4784 103.21 75.8667C103.373 76.255 103.404 76.6866 103.296 77.094C103.189 77.5014 102.949 77.8617 102.615 78.1186C102.281 78.3754 101.871 78.5143 101.45 78.5135V78.5135ZM113.626 85.3979C113.308 85.3979 112.985 85.3188 112.69 85.1511L112.008 84.766C111.58 84.5112 111.268 84.0987 111.14 83.6168C111.012 83.135 111.078 82.6222 111.323 82.1882C111.568 81.7542 111.974 81.4335 112.453 81.2948C112.932 81.1562 113.446 81.2105 113.885 81.4463L114.567 81.8313C114.933 82.039 115.221 82.3621 115.384 82.7503C115.548 83.1384 115.578 83.5698 115.471 83.9771C115.363 84.3844 115.124 84.7447 114.79 85.0017C114.457 85.2587 114.047 85.3981 113.626 85.3979ZM107.494 81.9314C107.177 81.9314 106.854 81.8523 106.558 81.6845L105.877 81.2995C105.448 81.0446 105.137 80.6321 105.009 80.1503C104.881 79.6685 104.946 79.1557 105.192 78.7217C105.437 78.2877 105.842 77.967 106.321 77.8283C106.8 77.6897 107.314 77.744 107.754 77.9797L108.435 78.3648C108.802 78.5724 109.089 78.8956 109.253 79.2837C109.416 79.6719 109.447 80.1033 109.339 80.5106C109.232 80.9179 108.992 81.2782 108.659 81.5352C108.325 81.7922 107.916 81.9315 107.494 81.9314V81.9314ZM118.883 88.832C118.613 88.8326 118.346 88.7757 118.1 88.665C117.853 88.5544 117.633 88.3927 117.454 88.1905C117.275 87.9883 117.141 87.7503 117.061 87.4923C116.981 87.2343 116.956 86.9623 116.989 86.6942C116.946 86.3438 117.001 85.9883 117.148 85.6673C117.295 85.3463 117.528 85.0724 117.821 84.8762C118.115 84.68 118.457 84.5691 118.81 84.5561C119.163 84.543 119.512 84.6282 119.819 84.8022L120.228 85.0329C120.522 85.1987 120.766 85.4393 120.936 85.7303C121.106 86.0213 121.196 86.3521 121.197 86.6892C121.197 87.0262 121.108 87.3574 120.939 87.6489C120.77 87.9405 120.527 88.182 120.234 88.3488L119.825 88.5814C119.538 88.7459 119.214 88.8323 118.883 88.832V88.832ZM66.9942 118.467C66.5742 118.466 66.1661 118.326 65.8334 118.07C65.5007 117.813 65.2618 117.454 65.154 117.048C65.0461 116.642 65.0753 116.212 65.2369 115.824C65.3985 115.437 65.6835 115.113 66.0478 114.904L66.8732 114.433C67.3124 114.182 67.8332 114.116 68.321 114.25C68.8088 114.383 69.2236 114.705 69.4743 115.144C69.7249 115.583 69.7908 116.104 69.6574 116.592C69.5241 117.08 69.2024 117.494 68.7632 117.745L67.9378 118.216C67.6506 118.38 67.3253 118.467 66.9942 118.467V118.467ZM74.4229 114.225C74.0025 114.226 73.5937 114.087 73.2602 113.831C72.9267 113.575 72.6873 113.216 72.5791 112.81C72.4709 112.403 72.5 111.973 72.662 111.585C72.8239 111.197 73.1096 110.873 73.4745 110.664L74.299 110.193C74.7375 109.946 75.2556 109.883 75.7403 110.017C76.2251 110.151 76.6372 110.472 76.8869 110.908C77.1366 111.345 77.2037 111.862 77.0735 112.348C76.9433 112.834 76.6264 113.249 76.1919 113.502L75.3674 113.974C75.08 114.139 74.7543 114.225 74.4229 114.225V114.225ZM81.8506 109.983C81.4305 109.982 81.0225 109.842 80.6897 109.586C80.357 109.33 80.1182 108.971 80.0104 108.565C79.9025 108.159 79.9316 107.728 80.0932 107.341C80.2548 106.953 80.5399 106.629 80.9041 106.42L81.7295 105.949C82.1688 105.699 82.6896 105.633 83.1774 105.766C83.4189 105.832 83.645 105.945 83.8429 106.098C84.0408 106.252 84.2065 106.443 84.3306 106.66C84.4547 106.878 84.5348 107.117 84.5662 107.366C84.5976 107.614 84.5798 107.866 84.5138 108.108C84.4478 108.35 84.3348 108.576 84.1814 108.774C84.028 108.971 83.8371 109.137 83.6196 109.261L82.7942 109.732C82.507 109.897 82.1816 109.983 81.8506 109.983V109.983ZM89.2783 105.74C88.8582 105.739 88.4502 105.599 88.1174 105.343C87.7847 105.086 87.5459 104.727 87.4381 104.321C87.3302 103.915 87.3593 103.485 87.5209 103.097C87.6825 102.71 87.9676 102.386 88.3318 102.177L89.1573 101.706C89.3747 101.582 89.6145 101.502 89.8629 101.47C90.1113 101.439 90.3635 101.457 90.6051 101.523C90.8466 101.589 91.0727 101.702 91.2706 101.855C91.4685 102.009 91.6342 102.199 91.7583 102.417C91.8824 102.634 91.9625 102.874 91.9939 103.123C92.0253 103.371 92.0075 103.623 91.9415 103.865C91.8755 104.106 91.7625 104.332 91.6091 104.53C91.4557 104.728 91.2648 104.894 91.0473 105.018L90.2219 105.489C89.9347 105.653 89.6093 105.74 89.2783 105.74ZM96.707 101.498C96.2865 101.498 95.8778 101.36 95.5443 101.104C95.2108 100.848 94.9713 100.489 94.8631 100.082C94.7549 99.6762 94.7841 99.2455 94.946 98.8575C95.108 98.4696 95.3937 98.146 95.7586 97.9372L96.583 97.4654C97.0216 97.2192 97.5397 97.1563 98.0244 97.2903C98.5091 97.4244 98.9213 97.7446 99.171 98.1811C99.4207 98.6177 99.4878 99.1352 99.3576 99.621C99.2274 100.107 98.9105 100.521 98.476 100.775L97.6515 101.246C97.364 101.411 97.0384 101.498 96.707 101.498V101.498ZM104.135 97.2557C103.715 97.2549 103.307 97.1154 102.974 96.859C102.641 96.6026 102.402 96.2435 102.294 95.8375C102.187 95.4315 102.216 95.0013 102.377 94.6135C102.539 94.2258 102.824 93.9022 103.188 93.693L104.014 93.2221C104.231 93.098 104.471 93.018 104.719 92.9865C104.968 92.9551 105.22 92.9729 105.461 93.0389C105.703 93.105 105.929 93.2179 106.127 93.3713C106.325 93.5248 106.491 93.7157 106.615 93.9332C106.739 94.1506 106.819 94.3904 106.85 94.6388C106.882 94.8872 106.864 95.1394 106.798 95.3809C106.732 95.6225 106.619 95.8486 106.465 96.0465C106.312 96.2444 106.121 96.4101 105.904 96.5342L105.078 97.0051C104.791 97.1696 104.466 97.256 104.135 97.2557V97.2557ZM111.562 93.0134C111.142 93.0125 110.734 92.873 110.402 92.6166C110.069 92.3602 109.83 92.0011 109.722 91.5951C109.614 91.1891 109.643 90.7589 109.805 90.3712C109.967 89.9834 110.252 89.6598 110.616 89.4506L111.441 88.9798C111.881 88.7291 112.401 88.6632 112.889 88.7966C113.131 88.8626 113.357 88.9756 113.555 89.129C113.753 89.2824 113.918 89.4733 114.042 89.6908C114.166 89.9083 114.247 90.1481 114.278 90.3965C114.309 90.6449 114.292 90.8971 114.226 91.1386C114.16 91.3801 114.047 91.6063 113.893 91.8042C113.74 92.002 113.549 92.1678 113.331 92.2919L112.506 92.7627C112.219 92.9273 111.893 93.0137 111.562 93.0134V93.0134ZM60.8075 122C60.4834 122 60.1594 121.917 59.8687 121.752L59.4607 121.521C59.0632 121.297 58.7593 120.938 58.6043 120.508C58.4493 120.079 58.4535 119.608 58.6161 119.182C58.7787 118.756 59.0889 118.402 59.4903 118.184C59.8917 117.967 60.3578 117.901 60.8037 117.999C61.2494 117.899 61.7159 117.963 62.1184 118.179C62.5209 118.395 62.8326 118.747 62.9968 119.174C63.1611 119.6 63.1669 120.07 63.0134 120.5C62.8598 120.93 62.557 121.291 62.16 121.517L61.7511 121.749C61.4637 121.913 61.1385 122 60.8075 122V122ZM53.9431 118.121C53.6257 118.121 53.3036 118.041 53.0071 117.874L52.1874 117.411C51.7472 117.162 51.4239 116.748 51.2886 116.261C51.1533 115.774 51.2171 115.253 51.4659 114.812C51.7148 114.372 52.1283 114.049 52.6156 113.913C53.1029 113.778 53.6239 113.842 54.0641 114.091L54.8838 114.554C55.2496 114.762 55.5363 115.085 55.6993 115.473C55.8623 115.861 55.8925 116.292 55.7852 116.699C55.6778 117.106 55.439 117.466 55.1059 117.723C54.7727 117.98 54.3639 118.12 53.9431 118.121ZM46.565 113.949C46.2476 113.949 45.9254 113.87 45.629 113.702L44.8093 113.239C44.3691 112.99 44.0457 112.576 43.9104 112.089C43.7751 111.602 43.8389 111.081 44.0878 110.64C44.3367 110.2 44.7502 109.877 45.2375 109.742C45.7247 109.606 46.2458 109.67 46.686 109.919L47.5057 110.382C47.8729 110.589 48.1611 110.912 48.3252 111.301C48.4893 111.689 48.5199 112.121 48.4124 112.529C48.3049 112.936 48.0652 113.297 47.7309 113.554C47.3966 113.811 46.9866 113.95 46.565 113.949V113.949ZM39.1868 109.776C38.8694 109.776 38.5473 109.697 38.2508 109.529L37.4312 109.066C36.9912 108.817 36.6681 108.403 36.5329 107.916C36.3976 107.429 36.4612 106.908 36.7096 106.468C36.8327 106.25 36.9976 106.058 37.1949 105.904C37.3921 105.749 37.6178 105.635 37.8592 105.568C38.1005 105.501 38.3526 105.482 38.6012 105.513C38.8498 105.544 39.0899 105.623 39.3079 105.746L40.1276 106.209C40.4933 106.418 40.78 106.741 40.943 107.129C41.106 107.517 41.1362 107.948 41.0289 108.355C40.9215 108.761 40.6827 109.121 40.3496 109.378C40.0164 109.636 39.6076 109.775 39.1868 109.776V109.776ZM31.8087 105.604C31.4913 105.604 31.1691 105.525 30.8727 105.357L30.053 104.894C29.6128 104.645 29.2895 104.232 29.1542 103.744C29.0188 103.257 29.0826 102.736 29.3315 102.296C29.5804 101.856 29.9939 101.532 30.4812 101.397C30.9684 101.262 31.4895 101.325 31.9297 101.574L32.7494 102.038C33.1167 102.245 33.4049 102.568 33.5689 102.956C33.733 103.345 33.7637 103.776 33.6561 104.184C33.5486 104.592 33.3089 104.952 32.9746 105.209C32.6404 105.466 32.2303 105.605 31.8087 105.604V105.604ZM24.4305 101.432C24.1122 101.432 23.79 101.353 23.4927 101.185L22.673 100.72C22.2331 100.471 21.9103 100.057 21.7756 99.5701C21.6408 99.0828 21.7051 98.562 21.9543 98.1221C22.0775 97.9041 22.2424 97.7125 22.4397 97.5583C22.637 97.404 22.8628 97.2903 23.1042 97.2234C23.3455 97.1566 23.5977 97.138 23.8462 97.1687C24.0947 97.1995 24.3348 97.2789 24.5525 97.4025L25.3722 97.8667C25.7391 98.0741 26.0268 98.3972 26.1905 98.7855C26.3543 99.1738 26.3847 99.6054 26.2771 100.013C26.1695 100.42 25.9299 100.781 25.5958 101.037C25.2617 101.294 24.8519 101.433 24.4305 101.432V101.432ZM17.0524 97.2596C16.735 97.2596 16.4128 97.1804 16.1164 97.0127L15.2967 96.5495C15.0788 96.4263 14.8872 96.2613 14.733 96.064C14.5787 95.8668 14.4649 95.6411 14.3979 95.3998C14.3309 95.1585 14.3121 94.9064 14.3425 94.6579C14.3729 94.4094 14.452 94.1692 14.5752 93.9513C14.6984 93.7333 14.8634 93.5417 15.0607 93.3875C15.2579 93.2333 15.4836 93.1194 15.7249 93.0524C15.9662 92.9854 16.2183 92.9666 16.4668 92.997C16.7154 93.0274 16.9555 93.1065 17.1734 93.2297L17.9931 93.693C18.3604 93.9001 18.6486 94.2232 18.8126 94.6116C18.9767 95 19.0074 95.4318 18.8998 95.8395C18.7923 96.2472 18.5526 96.6077 18.2184 96.8647C17.8841 97.1216 17.474 97.2605 17.0524 97.2596V97.2596ZM9.67425 93.0877C9.35686 93.0877 9.03471 93.0086 8.73829 92.8409L7.9186 92.3776C7.70062 92.2544 7.50905 92.0895 7.35482 91.8922C7.20059 91.6949 7.08673 91.4692 7.01973 91.228C6.95273 90.9867 6.93391 90.7346 6.96434 90.4861C6.99477 90.2375 7.07386 89.9974 7.19708 89.7794C7.32031 89.5615 7.48526 89.3699 7.68252 89.2157C7.87979 89.0614 8.10549 88.9476 8.34676 88.8806C8.58803 88.8136 8.84013 88.7947 9.08867 88.8252C9.33721 88.8556 9.57733 88.9347 9.7953 89.0579L10.615 89.5211C10.9807 89.7293 11.2674 90.0525 11.4304 90.4404C11.5934 90.8284 11.6236 91.2593 11.5163 91.6662C11.409 92.0731 11.1702 92.4331 10.837 92.6902C10.5039 92.9473 10.0951 93.0871 9.67425 93.0877V93.0877ZM3.1158 89.3772C2.79841 89.3772 2.47816 89.2981 2.18269 89.1313L1.77475 88.9016C1.48113 88.7361 1.23664 88.4958 1.06619 88.205C0.895733 87.9142 0.80542 87.5835 0.804451 87.2464C0.803482 86.9094 0.891892 86.5781 1.06067 86.2864C1.22945 85.9946 1.47256 85.7528 1.76522 85.5857L2.17316 85.3531C2.48001 85.1774 2.82973 85.0905 3.18316 85.1023C3.53659 85.114 3.87976 85.224 4.17422 85.4198C4.46868 85.6156 4.7028 85.8896 4.85036 86.2109C4.99792 86.5323 5.05308 86.8884 5.00966 87.2394C5.04294 87.5075 5.01877 87.7796 4.93874 88.0376C4.85871 88.2957 4.72467 88.5337 4.54552 88.736C4.36637 88.9382 4.14622 89.1 3.89971 89.2105C3.65319 89.3211 3.38597 89.3779 3.1158 89.3772V89.3772ZM8.65918 85.7515C8.23852 85.7521 7.8295 85.6135 7.49583 85.3573C7.16217 85.1011 6.92261 84.7418 6.81448 84.3353C6.70635 83.9288 6.73572 83.4979 6.89802 83.1098C7.06032 82.7217 7.34643 82.3982 7.71177 82.1897L8.41518 81.7875C8.85414 81.5366 9.37478 81.4704 9.86258 81.6033C10.3504 81.7363 10.7654 82.0576 11.0163 82.4966C11.2671 82.9356 11.3334 83.4562 11.2004 83.944C11.0674 84.4318 10.7461 84.8468 10.3071 85.0977L9.60372 85.4999C9.31616 85.6646 8.99057 85.7514 8.65918 85.7515V85.7515ZM14.9917 82.1335C14.5711 82.134 14.1621 81.9954 13.8284 81.7392C13.4947 81.4831 13.2552 81.1237 13.147 80.7172C13.0389 80.3107 13.0683 79.8798 13.2306 79.4917C13.3929 79.1037 13.679 78.7801 14.0443 78.5716L14.7477 78.1694C14.9651 78.0452 15.2048 77.965 15.4531 77.9334C15.7015 77.9018 15.9536 77.9194 16.1951 77.9853C16.4367 78.0511 16.6629 78.1639 16.8608 78.3172C17.0588 78.4704 17.2246 78.6612 17.3488 78.8785C17.473 79.0959 17.5532 79.3356 17.5848 79.5839C17.6164 79.8323 17.5988 80.0844 17.533 80.3259C17.4671 80.5675 17.3543 80.7937 17.2011 80.9916C17.0478 81.1896 16.857 81.3554 16.6397 81.4796L15.9363 81.8818C15.6487 82.0465 15.3231 82.1333 14.9917 82.1335V82.1335ZM21.1232 78.6317C20.7023 78.6324 20.293 78.4938 19.9592 78.2375C19.6253 77.9812 19.3857 77.6216 19.2776 77.2149C19.1696 76.8081 19.1992 76.377 19.3618 75.9888C19.5244 75.6006 19.811 75.2772 20.1767 75.0689L20.5847 74.8363C21.0228 74.6022 21.535 74.5481 22.0123 74.6858C22.4896 74.8235 22.8943 75.1419 23.1404 75.5734C23.3866 76.0049 23.4546 76.5154 23.3301 76.9963C23.2056 77.4772 22.8984 77.8906 22.4738 78.1484L22.0658 78.381C21.7788 78.5452 21.4539 78.6316 21.1232 78.6317Z" fill="#55B9F1"/>
<path d="M60.8971 64.2362C60.574 64.2362 60.25 64.1542 59.9593 63.9893L20.966 41.9388C20.6731 41.7728 20.4295 41.5323 20.2597 41.2416C20.0899 40.951 20 40.6206 19.9993 40.284C19.9985 39.9474 20.0868 39.6166 20.2553 39.3252C20.4237 39.0337 20.6663 38.7921 20.9583 38.6248L39.6758 27.9326C40.1149 27.6818 40.6356 27.6158 41.1234 27.7489C41.3649 27.8149 41.5911 27.9277 41.789 28.0811C41.987 28.2344 42.1527 28.4253 42.2769 28.6427C42.4011 28.8601 42.4812 29.0998 42.5127 29.3482C42.5442 29.5966 42.5265 29.8488 42.4606 30.0903C42.3946 30.3318 42.2818 30.558 42.1284 30.7559C41.9751 30.9538 41.7842 31.1196 41.5668 31.2438L25.7611 40.2718L60.8914 60.1368L96.2857 39.921L81.8173 31.7403C81.3888 31.4855 81.0771 31.073 80.949 30.5912C80.8209 30.1094 80.8865 29.5966 81.1319 29.1626C81.3772 28.7285 81.7828 28.4079 82.2617 28.2692C82.7405 28.1305 83.2547 28.1849 83.694 28.4206L101.082 38.2521C101.375 38.418 101.619 38.6586 101.789 38.9493C101.959 39.24 102.049 39.5706 102.049 39.9074C102.05 40.2441 101.962 40.5751 101.793 40.8666C101.625 41.1581 101.382 41.3998 101.089 41.5671L61.8426 63.9846C61.55 64.1523 61.2231 64.2362 60.8971 64.2362V64.2362Z" fill="#55B9F1"/>
<path d="M61.3479 109.052C60.8456 109.052 60.3636 108.854 60.0067 108.5C59.6497 108.147 59.4467 107.667 59.4417 107.165L58.9908 62.3478C58.9874 62.0084 59.0746 61.6743 59.2435 61.3799C59.4124 61.0855 59.6568 60.8415 59.9516 60.6732L99.1994 38.2557C99.4878 38.0906 99.8143 38.0038 100.147 38.0039C100.479 38.004 100.806 38.0911 101.094 38.2564C101.382 38.4218 101.622 38.6596 101.79 38.9464C101.958 39.2332 102.048 39.5589 102.051 39.8912L102.508 84.6995C102.511 85.0389 102.424 85.3731 102.255 85.6675C102.086 85.9619 101.842 86.2058 101.547 86.3742L62.2924 108.799C62.0053 108.965 61.6795 109.052 61.3479 109.052V109.052ZM62.8148 63.4296L63.2217 103.879L98.6847 83.6196L98.272 43.1766L62.8148 63.4296V63.4296Z" fill="#55B9F1"/>
<path d="M61.348 109.053C61.0249 109.053 60.7008 108.971 60.4101 108.806L21.4121 86.7532C21.121 86.5884 20.8784 86.3501 20.7084 86.062C20.5385 85.774 20.4472 85.4463 20.4437 85.1119L19.9976 40.2998C19.9949 39.9653 20.0801 39.6359 20.2448 39.3448C20.4095 39.0536 20.6478 38.8108 20.9359 38.6408C21.224 38.4708 21.5517 38.3795 21.8862 38.3761C22.2207 38.3727 22.5502 38.4572 22.8417 38.6213L61.836 60.6709C62.1268 60.8354 62.3693 61.0734 62.5391 61.3611C62.7089 61.6489 62.8001 61.9762 62.8034 62.3103L63.2552 107.127C63.2575 107.379 63.2098 107.629 63.115 107.862C63.0202 108.096 62.8801 108.308 62.7028 108.487C62.5254 108.666 62.3144 108.808 62.0819 108.905C61.8494 109.002 61.5999 109.052 61.348 109.053V109.053ZM24.2457 83.9748L59.4093 103.859L59.0024 63.4474L23.8435 43.5671L24.2457 83.9748V83.9748Z" fill="#55B9F1"/>
<path d="M61.0639 27.2451C60.7408 27.2451 60.4167 27.1632 60.126 26.9983L39.5805 15.3787C39.2876 15.2127 39.044 14.9722 38.8742 14.6816C38.7044 14.3909 38.6145 14.0605 38.6138 13.7239C38.613 13.3873 38.7013 13.0565 38.8698 12.7651C39.0382 12.4737 39.2808 12.2321 39.5728 12.0647L60.2528 0.250734C60.5397 0.087066 60.8642 0.000672186 61.1945 3.90666e-06C61.5248 -0.000664372 61.8496 0.0844158 62.1371 0.246921L82.6884 11.8655C82.9815 12.0314 83.2253 12.272 83.3953 12.5627C83.5652 12.8535 83.6552 13.184 83.6559 13.5208C83.6567 13.8575 83.5683 14.1885 83.3997 14.48C83.2311 14.7715 82.9883 15.0132 82.696 15.1805L62.0094 26.9945C61.7168 27.1613 61.3899 27.2451 61.0639 27.2451ZM44.3766 13.7108L61.0591 23.1457L77.8913 13.5325L61.2031 4.0985L44.3766 13.7108V13.7108Z" fill="#55B9F1"/>
<path d="M61.3031 50.8613C60.8009 50.8613 60.3191 50.6632 59.9622 50.3101C59.6052 49.9569 59.4021 49.4772 59.3968 48.9751L59.1576 25.3585C59.1541 25.0191 59.2414 24.685 59.4103 24.3906C59.5792 24.0962 59.8236 23.8522 60.1183 23.6839L80.803 11.8699C81.0915 11.7048 81.4182 11.618 81.7506 11.6182C82.083 11.6183 82.4096 11.7055 82.6979 11.8709C82.9862 12.0364 83.2262 12.2744 83.3941 12.5613C83.5619 12.8482 83.6518 13.174 83.6548 13.5064L83.8931 37.1191C83.8965 37.4584 83.8093 37.7924 83.6404 38.0867C83.4715 38.381 83.227 38.6247 82.9323 38.7928L62.2486 50.6097C61.9559 50.7774 61.629 50.8613 61.3031 50.8613ZM62.9815 26.4384L63.1759 45.6887L80.0701 36.0373L79.8757 16.7899L62.9815 26.4384V26.4384Z" fill="#55B9F1"/>
<path d="M61.3031 50.8615C60.98 50.8615 60.656 50.7796 60.3653 50.6147L39.814 38.9942C39.5229 38.8297 39.2802 38.5915 39.1102 38.3036C38.9403 38.0157 38.849 37.6882 38.8456 37.3538L38.6111 13.7383C38.6084 13.4038 38.6936 13.0744 38.8583 12.7832C39.023 12.4921 39.2613 12.2493 39.5494 12.0793C39.8375 11.9093 40.1652 11.818 40.4997 11.8146C40.8342 11.8111 41.1638 11.8957 41.4553 12.0598L62.0008 23.6794C62.2917 23.844 62.5343 24.0822 62.7041 24.3701C62.8739 24.658 62.965 24.9855 62.9683 25.3197L63.2075 48.9362C63.2101 49.188 63.1628 49.4379 63.0683 49.6713C62.9738 49.9047 62.834 50.117 62.6569 50.2961C62.4798 50.4751 62.269 50.6173 62.0366 50.7143C61.8043 50.8114 61.555 50.8614 61.3031 50.8615V50.8615ZM42.6476 36.2168L59.3635 45.6689L59.1691 26.4577L42.458 17.0065L42.6476 36.2168V36.2168Z" fill="#55B9F1"/>
</g>
<defs>
<clipPath id="clip0_516_85">
<rect width="122" height="122" fill="white"/>
</clipPath>
</defs>
</svg>
