<svg width="72" height="72" viewBox="0 0 72 72" fill="none" xmlns="http://www.w3.org/2000/svg">
<path d="M48 63V57C48 53.8174 46.7357 50.7652 44.4853 48.5147C42.2348 46.2643 39.1826 45 36 45H15C11.8174 45 8.76516 46.2643 6.51472 48.5147C4.26428 50.7652 3 53.8174 3 57V63" stroke="#55B9F1" stroke-width="2.13" stroke-linecap="round" stroke-linejoin="round"/>
<path d="M25.5 33C32.1274 33 37.5 27.6274 37.5 21C37.5 14.3726 32.1274 9 25.5 9C18.8726 9 13.5 14.3726 13.5 21C13.5 27.6274 18.8726 33 25.5 33Z" stroke="#55B9F1" stroke-width="2.13" stroke-linecap="round" stroke-linejoin="round"/>
<path d="M51 33L57 39L69 27" stroke="#55B9F1" stroke-width="2.13" stroke-linecap="round" stroke-linejoin="round"/>
</svg>
