<svg width="122" height="122" viewBox="0 0 122 122" fill="none" xmlns="http://www.w3.org/2000/svg">
<g clip-path="url(#clip0_516_43)">
<path d="M120.152 64.0766C119.662 64.0773 119.191 64.2725 118.845 64.6193C118.498 64.9662 118.303 65.4364 118.302 65.9269C118.299 73.7931 115.654 81.4304 110.792 87.6139C105.93 93.7974 99.1317 98.1689 91.488 100.027C83.8443 101.886 75.798 101.123 68.6395 97.8622C61.481 94.6012 55.625 89.0306 52.0108 82.0439C48.3966 75.0571 47.2336 67.0591 48.7082 59.3324C50.1829 51.6056 54.2098 44.598 60.1431 39.4334C66.0764 34.2687 73.5724 31.2463 81.4287 30.8508C89.2851 30.4553 97.0467 32.7097 103.469 37.2524C103.666 37.3959 103.891 37.4986 104.128 37.5548C104.366 37.611 104.613 37.6195 104.854 37.5798C105.095 37.5401 105.326 37.453 105.533 37.3235C105.74 37.194 105.919 37.0247 106.061 36.8254C106.202 36.6261 106.303 36.4008 106.356 36.1625C106.41 35.9241 106.416 35.6775 106.373 35.4369C106.331 35.1963 106.242 34.9664 106.11 34.7607C105.978 34.5549 105.807 34.3773 105.606 34.2381C103.043 32.4255 100.269 30.9311 97.3458 29.7877V9.24385C97.3438 6.79461 96.3706 4.44611 94.6397 2.71328C92.9087 0.980448 90.5612 0.00470926 88.112 0L9.2415 0C6.79089 0.00269209 4.44145 0.97754 2.70885 2.71059C0.976241 4.44364 0.00201826 6.79329 0 9.24385L0 112.756C0.00269102 115.206 0.97721 117.555 2.70974 119.288C4.44228 121.02 6.79133 121.995 9.2415 121.997H88.112C90.5608 121.993 92.9079 121.017 94.6388 119.285C96.3697 117.553 97.3431 115.205 97.3458 112.756V102.028C104.601 99.179 110.832 94.2138 115.229 87.7776C119.625 81.3414 121.985 73.7316 122 65.9371C122.002 65.6934 121.955 65.4517 121.863 65.2261C121.771 65.0004 121.635 64.7952 121.463 64.6223C121.292 64.4494 121.087 64.3121 120.862 64.2185C120.637 64.1248 120.396 64.0766 120.152 64.0766V64.0766ZM28.3447 3.69551H69.0113V9.24385C69.0093 10.7141 68.4244 12.1235 67.3847 13.1631C66.3451 14.2027 64.9357 14.7876 63.4654 14.7897H33.888C32.4178 14.7876 31.0083 14.2027 29.9687 13.1631C28.9291 12.1235 28.3441 10.7141 28.3421 9.24385V3.69551H28.3447ZM93.6655 112.754C93.6635 114.224 93.0785 115.633 92.0389 116.673C90.9993 117.712 89.5898 118.297 88.1196 118.299H9.2415C7.77125 118.297 6.3618 117.712 5.32217 116.673C4.28255 115.633 3.6976 114.224 3.69558 112.754V9.24385C3.6976 7.7734 4.28247 6.36371 5.32202 5.3237C6.36157 4.2837 7.77102 3.6982 9.2415 3.69551H24.6542V9.24385C24.6575 11.6938 25.6323 14.0424 27.3647 15.7747C29.097 17.5071 31.4457 18.4818 33.8957 18.4852H63.4654C65.9154 18.4818 68.264 17.5071 69.9964 15.7747C71.7288 14.0424 72.7036 11.6938 72.7069 9.24385V3.69551H88.112C89.5826 3.69753 90.9925 4.28281 92.0322 5.32296C93.0719 6.36311 93.6565 7.77319 93.6579 9.24385V28.5601C87.8823 26.9216 81.8054 26.6446 75.9047 27.7511C70.0041 28.8576 64.4404 31.3173 59.6508 34.9369C54.8613 38.5566 50.9764 43.2376 48.3014 48.6121C45.6264 53.9867 44.2342 59.9083 44.2342 65.9117C44.2342 71.9151 45.6264 77.8367 48.3014 83.2112C50.9764 88.5857 54.8613 93.2667 59.6508 96.8864C64.4404 100.506 70.0041 102.966 75.9047 104.072C81.8054 105.179 87.8823 104.902 93.6579 103.263L93.6655 112.754Z" fill="#55B9F1"/>
<path d="M64.7362 51.6711C64.4778 51.4128 64.1486 51.2369 63.7902 51.1656C63.4318 51.0943 63.0603 51.1309 62.7227 51.2708C62.3851 51.4106 62.0965 51.6474 61.8935 51.9512C61.6905 52.255 61.582 52.6121 61.582 52.9775V71.4195C61.5831 71.9101 61.7776 72.3804 62.1234 72.7284L81.2926 91.8947C81.4637 92.0672 81.6672 92.204 81.8914 92.2974C82.1156 92.3908 82.3561 92.4389 82.599 92.4389C82.8419 92.4389 83.0824 92.3908 83.3066 92.2974C83.5309 92.204 83.7344 92.0672 83.9054 91.8947L121.25 54.5508C121.422 54.3792 121.559 54.1752 121.652 53.9505C121.745 53.7258 121.792 53.485 121.792 53.2419V34.8025C121.792 34.4368 121.684 34.0793 121.481 33.7751C121.278 33.4709 120.99 33.2338 120.652 33.0936C120.314 32.9535 119.943 32.9167 119.584 32.9879C119.225 33.059 118.896 33.235 118.637 33.4935L82.6041 69.5336L64.7362 51.6711ZM118.096 39.263V52.4794L82.6041 87.973L65.2776 70.657V57.4406L81.2901 73.4528C81.6366 73.7992 82.1065 73.9938 82.5965 73.9938C83.0865 73.9938 83.5564 73.7992 83.9029 73.4528L118.096 39.263ZM21.5022 30.8045H47.2264C47.7049 30.7867 48.158 30.5842 48.4902 30.2394C48.8225 29.8945 49.0082 29.4343 49.0082 28.9555C49.0082 28.4766 48.8225 28.0164 48.4902 27.6716C48.158 27.3268 47.7049 27.1242 47.2264 27.1064H21.5022C21.0236 27.1242 20.5706 27.3268 20.2383 27.6716C19.9061 28.0164 19.7204 28.4766 19.7204 28.9555C19.7204 29.4343 19.9061 29.8945 20.2383 30.2394C20.5706 30.5842 21.0236 30.7867 21.5022 30.8045ZM21.5022 48.0595H34.9019C35.3804 48.0418 35.8334 47.8392 36.1657 47.4944C36.498 47.1496 36.6836 46.6893 36.6836 46.2105C36.6836 45.7316 36.498 45.2714 36.1657 44.9266C35.8334 44.5818 35.3804 44.3792 34.9019 44.3615H21.5022C21.0236 44.3792 20.5706 44.5818 20.2383 44.9266C19.9061 45.2714 19.7204 45.7316 19.7204 46.2105C19.7204 46.6893 19.9061 47.1496 20.2383 47.4944C20.5706 47.8392 21.0236 48.0418 21.5022 48.0595ZM21.5022 65.3196H29.971C30.4618 65.3196 30.9324 65.1247 31.2794 64.7777C31.6264 64.4307 31.8214 63.96 31.8214 63.4693C31.8214 62.9786 31.6264 62.508 31.2794 62.161C30.9324 61.814 30.4618 61.619 29.971 61.619H21.5022C21.0114 61.619 20.5408 61.814 20.1938 62.161C19.8468 62.508 19.6519 62.9786 19.6519 63.4693C19.6519 63.96 19.8468 64.4307 20.1938 64.7777C20.5408 65.1247 21.0114 65.3196 21.5022 65.3196ZM21.5022 82.5695H32.4314C32.9221 82.5695 33.3927 82.3746 33.7397 82.0276C34.0867 81.6806 34.2817 81.21 34.2817 80.7193C34.2817 80.2285 34.0867 79.7579 33.7397 79.4109C33.3927 79.0639 32.9221 78.869 32.4314 78.869H21.5022C21.0114 78.869 20.5408 79.0639 20.1938 79.4109C19.8468 79.7579 19.6519 80.2285 19.6519 80.7193C19.6519 81.21 19.8468 81.6806 20.1938 82.0276C20.5408 82.3746 21.0114 82.5695 21.5022 82.5695ZM42.3083 96.1265H21.5022C21.0114 96.1265 20.5408 96.3214 20.1938 96.6684C19.8468 97.0154 19.6519 97.4861 19.6519 97.9768C19.6519 98.4675 19.8468 98.9382 20.1938 99.2852C20.5408 99.6322 21.0114 99.8271 21.5022 99.8271H42.3083C42.799 99.8271 43.2696 99.6322 43.6167 99.2852C43.9637 98.9382 44.1586 98.4675 44.1586 97.9768C44.1586 97.4861 43.9637 97.0154 43.6167 96.6684C43.2696 96.3214 42.799 96.1265 42.3083 96.1265Z" fill="#55B9F1"/>
</g>
<defs>
<clipPath id="clip0_516_43">
<rect width="122" height="122" fill="white"/>
</clipPath>
</defs>
</svg>
