<svg width="67" height="40" viewBox="0 0 67 40" fill="none" xmlns="http://www.w3.org/2000/svg">
<path opacity="0.1" d="M67 0C65.5146 6.42177 64.0293 13.2789 62.5439 20.5714C61.1647 27.8639 60.0507 34.3401 59.2019 40H37.3991L36.285 38.2041C37.7704 32.4354 39.7332 26.1224 42.1734 19.2653C44.7197 12.4082 47.3191 5.98639 49.9715 0H67ZM30.715 0C29.2296 6.42177 27.7443 13.2789 26.2589 20.5714C24.8796 27.8639 23.7656 34.3401 22.9169 40H1.11401L0 38.2041C1.48535 32.4354 3.44814 26.1224 5.88836 19.2653C8.43468 12.4082 11.034 5.98639 13.6865 0H30.715Z" fill="#F9F9F9"/>
</svg>
