<svg width="126" height="122" viewBox="0 0 126 122" fill="none" xmlns="http://www.w3.org/2000/svg">
<path d="M1.91604 0H62.009C62.2602 -2.35603e-07 62.5089 0.0492313 62.7409 0.144879C62.9729 0.240527 63.1837 0.380714 63.3612 0.557423C63.5386 0.734132 63.6793 0.943895 63.7752 1.17472C63.8711 1.40554 63.9203 1.65289 63.9199 1.90262V72.3387C63.9185 72.842 63.7167 73.3242 63.3585 73.6798C63.0004 74.0354 62.5152 74.2354 62.009 74.2361H1.91604C1.41037 74.2348 0.925796 74.0344 0.568229 73.6789C0.210661 73.3233 0.00916884 72.8415 0.00778342 72.3387V1.90262C0.00847281 1.39913 0.209579 0.916377 0.567147 0.559865C0.924715 0.203353 1.40967 0.00206868 1.91604 0V0ZM6.0449 3.79741L31.9625 34.1898L57.8854 3.79741H6.0449ZM60.1165 7.07023L34.485 37.1207L60.1008 67.1659L60.1165 7.07023ZM57.9012 70.4361L31.9783 40.0542L6.0449 70.4361H57.9012ZM3.82955 67.1633L29.4584 37.1181L3.82429 7.06762L3.82955 67.1633ZM1.91604 80.5651H101.064C101.315 80.5646 101.563 80.6135 101.794 80.7089C102.026 80.8043 102.236 80.9444 102.413 81.1211L112.493 91.1379H124.008C124.512 91.1379 124.996 91.3363 125.353 91.6899C125.711 92.0435 125.913 92.5234 125.916 93.0248L126 107.267C126.002 107.517 125.955 107.766 125.86 107.998C125.765 108.23 125.625 108.44 125.447 108.618C125.27 108.795 125.058 108.936 124.826 109.032C124.593 109.127 124.343 109.176 124.092 109.175H106.873C106.412 112.717 104.67 115.971 101.973 118.328C99.2749 120.686 95.806 121.987 92.2143 121.987C88.6226 121.987 85.1538 120.686 82.4561 118.328C79.7585 115.971 78.0166 112.717 77.5559 109.175H44.9423C44.484 112.718 42.7432 115.974 40.0455 118.333C37.3478 120.693 33.8781 121.994 30.2853 121.994C26.6925 121.994 23.2227 120.693 20.525 118.333C17.8273 115.974 16.0865 112.718 15.6282 109.175H1.91079C1.40741 109.174 0.924973 108.974 0.568539 108.621C0.212105 108.268 0.0105512 107.788 0.00778342 107.288V82.473C0.00846403 81.969 0.209396 81.4857 0.566817 81.1284C0.924237 80.771 1.40919 80.5686 1.91604 80.5651ZM92.2104 118.2C94.3813 118.199 96.5034 117.559 98.3082 116.359C100.113 115.16 101.52 113.455 102.35 111.46C103.18 109.466 103.397 107.271 102.974 105.154C102.55 103.037 101.504 101.093 99.9688 99.5666C98.4335 98.0405 96.4776 97.0012 94.3483 96.5803C92.2191 96.1593 90.0121 96.3756 88.0064 97.2018C86.0008 98.028 84.2866 99.4269 83.0805 101.222C81.8744 103.017 81.2307 105.127 81.2307 107.285C81.2335 110.18 82.3916 112.956 84.4507 115.002C86.5099 117.048 89.3017 118.199 92.213 118.2H92.2104ZM30.2879 118.2C32.4589 118.2 34.5813 117.56 36.3864 116.361C38.1916 115.161 39.5986 113.457 40.4294 111.462C41.2602 109.468 41.4776 107.273 41.054 105.156C40.6305 103.039 39.585 101.094 38.0499 99.5676C36.5147 98.0411 34.5588 97.0016 32.4294 96.5805C30.3001 96.1593 28.093 96.3755 26.0872 97.2016C24.0814 98.0277 22.367 99.4266 21.1608 101.222C19.9546 103.016 19.3108 105.127 19.3108 107.285C19.3136 110.18 20.4714 112.955 22.5299 115.001C24.5885 117.047 27.3796 118.198 30.2905 118.2H30.2879ZM3.82429 105.388H15.6361C16.0944 101.845 17.8352 98.589 20.5329 96.2295C23.2306 93.8701 26.7003 92.5687 30.2931 92.5687C33.8859 92.5687 37.3557 93.8701 40.0534 96.2295C42.7511 98.589 44.4919 101.845 44.9502 105.388H77.5559C78.0166 101.846 79.7585 98.5923 82.4561 96.2346C85.1538 93.8768 88.6226 92.5764 92.2143 92.5764C95.806 92.5764 99.2749 93.8768 101.973 96.2346C104.67 98.5923 106.412 101.846 106.873 105.388H122.173L122.113 94.9275H111.705C111.454 94.928 111.206 94.8791 110.975 94.7837C110.743 94.6883 110.533 94.5482 110.356 94.3715L100.277 84.36H3.82692V105.388H3.82429Z" fill="#55B9F1"/>
<path d="M124.01 84.8064H116.795C116.544 84.807 116.296 84.7581 116.064 84.6627C115.833 84.5673 115.622 84.4272 115.446 84.2505L105.374 74.2337H73.0492C72.5433 74.233 72.0583 74.0329 71.7006 73.6772C71.3429 73.3215 71.1416 72.8393 71.1409 72.3363V16.9228C71.1409 16.6736 71.1903 16.4269 71.2862 16.1967C71.3821 15.9665 71.5226 15.7573 71.6998 15.5811C71.877 15.4049 72.0874 15.2652 72.3189 15.1698C72.5504 15.0745 72.7986 15.0254 73.0492 15.0254H100.014C100.265 15.0249 100.513 15.0737 100.745 15.1691C100.976 15.2646 101.186 15.4046 101.363 15.5813L125.441 39.5246C125.799 39.8824 126 40.3666 126 40.8713L125.921 82.909C125.92 83.4123 125.718 83.8945 125.36 84.2501C125.002 84.6057 124.517 84.8057 124.01 84.8064ZM99.2267 18.8176H74.9653V70.4337H106.164C106.415 70.4341 106.664 70.4839 106.895 70.5802C107.127 70.6765 107.337 70.8174 107.513 70.9948L117.585 81.0064H122.105L122.178 41.649L99.2267 18.8176Z" fill="#55B9F1"/>
<path d="M112.737 54.2572H83.2152C82.9643 54.2569 82.7159 54.2074 82.4842 54.1116C82.2525 54.0158 82.042 53.8755 81.8648 53.6989C81.6876 53.5222 81.5471 53.3125 81.4514 53.0819C81.3557 52.8512 81.3066 52.6041 81.307 52.3546V27.0385C81.307 26.5353 81.508 26.0527 81.8659 25.6969C82.2238 25.341 82.7091 25.1411 83.2152 25.1411H94.9167C95.1674 25.1406 95.4157 25.1894 95.6473 25.2849C95.8788 25.3803 96.0891 25.5204 96.2659 25.697L114.086 43.4235C114.263 43.5994 114.404 43.8085 114.5 44.0387C114.596 44.2689 114.645 44.5158 114.645 44.765V52.3546C114.645 52.8583 114.444 53.3415 114.086 53.6981C113.729 54.0548 113.243 54.2558 112.737 54.2572ZM110.826 45.5506L94.1241 28.9437H85.1366V50.4598H110.826V45.5506Z" fill="#55B9F1"/>
</svg>
