<svg width="47" height="45" viewBox="0 0 47 45" fill="none" xmlns="http://www.w3.org/2000/svg">
<g clip-path="url(#clip0)">
<path d="M29.0222 35.041H16.9347" stroke="#F9F9F9" stroke-width="2" stroke-miterlimit="10" stroke-linecap="round" stroke-linejoin="round"/>
<path d="M3.74283 35.041H0.613586V2.15163C0.613586 1.29098 1.28852 0.614746 2.14753 0.614746H28.1018C28.9608 0.614746 29.6358 1.29098 29.6358 2.15163V33.9344" stroke="#F9F9F9" stroke-width="2" stroke-miterlimit="10" stroke-linecap="round" stroke-linejoin="round"/>
<path d="M29.5744 13.8319H36.9987C38.1031 13.8319 39.0849 14.3852 39.6984 15.3073L45.4047 24.5901C46.0183 25.6352 46.3864 26.8032 46.3864 27.9713V35.0409H42.2141" stroke="#F9F9F9" stroke-width="2" stroke-miterlimit="10" stroke-linecap="round" stroke-linejoin="round"/>
<path d="M10.3081 44.3853C14.1712 44.3853 17.3029 41.2476 17.3029 37.3771C17.3029 33.5066 14.1712 30.3689 10.3081 30.3689C6.44499 30.3689 3.31332 33.5066 3.31332 37.3771C3.31332 41.2476 6.44499 44.3853 10.3081 44.3853Z" stroke="#F9F9F9" stroke-width="2" stroke-miterlimit="10" stroke-linecap="round" stroke-linejoin="round"/>
<path d="M35.6488 44.3853C39.5119 44.3853 42.6436 41.2476 42.6436 37.3771C42.6436 33.5066 39.5119 30.3689 35.6488 30.3689C31.7857 30.3689 28.6541 33.5066 28.6541 37.3771C28.6541 41.2476 31.7857 44.3853 35.6488 44.3853Z" stroke="#F9F9F9" stroke-width="2" stroke-miterlimit="10" stroke-linecap="round" stroke-linejoin="round"/>
</g>
<defs>
<clipPath id="clip0">
<rect width="47" height="45" fill="white"/>
</clipPath>
</defs>
</svg>
