<svg width="466" height="290" viewBox="0 0 466 290" fill="none" xmlns="http://www.w3.org/2000/svg">
<path d="M251.057 45.8594L251.742 46.1031L252.856 46.3991L253.692 47.322L254.766 48.0997L255.399 49.0225L255.834 49.8177L255.886 50.5606L256.461 51.4602L257.645 52.6442L258.382 53.3407L259.206 53.7469L259.937 54.3215L260.912 54.6233L261.446 54.6698L261.638 55.1051L262.172 55.3488L262.828 55.4011L263.217 54.6698L264.047 53.892H264.633L265.799 53.9385L266.577 54.13L267.895 55.0064L268.817 55.5926L269.758 55.9118L270.675 56.1846L271.783 56.4574L273.402 56.4748L274.54 56.7302L275.271 56.7824L275.916 57.1423L276.426 57.6008L277.024 58.1289L277.639 58.5062L278.556 59.2839L278.382 59.4522L277.454 60.8684L275.393 64.0142L273.71 65.262L271.917 66.1326L270.448 67.1135L269.578 68.1466L269.363 70.9731L268.98 71.6231L268.597 72.546L268.365 73.6139L268.266 74.0666L266.856 76.2953L265.387 76.8931L263.977 77.6012L263.925 81.1881L263.164 82.2212L262.241 82.7087L262.166 83.6838L261.156 85.3843L260.053 87.3693L259.502 89.4645L258.951 91.8906L258.179 94.868L257.186 97.3985L256.118 99.2268L254.099 99.1049L251.44 98.6058L249.531 98.275L247.453 98.1066L245.543 99.0179L244.052 101.421L243.054 103.998L242.142 107.567L240.651 110.22L239.072 112.796L238.991 116.203L240.239 117.527L241.399 120.017L241.98 122.257L242.061 124.004L240.982 125.083L237.993 125.252L236.083 126.076V128.235L238.492 128.316L241.481 128.815L243.64 129.315L244.058 130.974L244.139 133.551L245.218 136.204L246.542 138.444L247.54 138.943L250.198 139.773L252.108 140.603L253.599 142.844L256.089 144.585L256.42 147.411L257.413 148.909L257.192 149.692L256.913 150.656L255.503 151.236L254.673 151.735L253.924 153.064L251.765 154.806L251.185 156.796L251.434 157.626L252.015 158.625L252.427 159.536L252.839 161.114L252.549 161.741L252.601 162.177L252.682 163.076L252.566 163.709L252.253 164.614L251.818 165.444L250.947 166.245L249.914 167.052L249.299 167.412L248.852 167.679L248.77 168.021L248.358 168.944L247.674 169.315L246.687 170.401L245.735 171.318L245.543 172.479L245.317 174.371L245.526 176.124L245.805 177.383L246.286 178.938L246.246 179.966L246.205 181.266L244.905 181.62L243.959 181.591L242.578 181.55L241.08 181.469L239.896 181.272L238.753 181.353L236.663 181.196L236.112 183.17L235.828 183.791L235.636 185.183L235.52 186.048L235.671 187.993L236.048 188.335L236.779 190.181L237.963 190.297L238.625 188.747L239.623 187.256L240.366 185.845L240.877 185.015L241.074 183.953L241.939 183.912L243.083 183.994L243.913 184.307L244.661 184.742L245.857 185.079L247.749 185.921L249.711 187.18L251.185 188.509L252.589 190.123L253.292 191.104L253.152 192.224L243.286 199.984H242.183L241.307 199.711L239.925 199.293L238.405 198.742L237.963 198.37L237.569 198.213L237.609 197.662L237.963 197.424V196.832L237.453 196.519L236.559 196.6L236.385 196.49L235.601 196.072L234.771 195.84L233.941 195.468L232.473 196.646L232.583 197.221L232.601 206.211L231.968 206.722L232.084 207.471L233.152 208.591L232.827 208.823L232.322 208.365L231.492 207.395L230.523 206.38L229.606 205.463L228.544 204.267L227.435 203.251L226.791 203.298L226.425 203.623L226.083 204.377L225.456 204.952L226.286 205.898L226.953 206.728L227.505 207.436L227.586 208.028H227.191L225.549 206.153L224.672 205.468L223.842 204.917L223.367 204.168L222.775 203.576L222.264 203.182L221.643 202.503L219.385 202.357L213.871 202.288L213.482 202.572L212.467 203.129L211.271 203.82L209.106 205.155L208.131 205.834L207.272 205.973L206.251 206.583H201.555L201.416 205.892L200.905 205.846L200.54 205.573L199.704 205.497L199.535 205.863L199.205 205.793L199.187 205.463L199.866 204.963L198.636 204.151L198.386 204.865L197.719 205.846L197.133 205.619L196.442 204.975L195.891 204.424L196.129 204.017L196.86 203.205L196.227 202.781L195.774 202.74L194.788 202.259L193.354 201.046L192.362 199.171L191.81 197.407L192.251 195.642L193.575 193.768L194.678 192.665L196.442 191.121L196.221 189.136L195.339 187.813L192.693 187.923L190.377 187.813L188.723 187.151L186.297 187.041L184.973 187.923L182.547 187.151L180.121 185.062L179.129 183.187L178.688 179.995L178.247 177.128L177.805 175.143L177.033 173.158L175.49 172.055L174.607 169.739L175.379 167.975L176.482 165.99L176.813 164.011L178.148 165.044L179.28 166.036L180.133 166.889L181.125 166.75L181.549 164.765L181.833 163.633L182.257 162.072V160.511L182.118 158.95L182.541 157.388L183.958 155.119L185.519 152.85L186.796 151.433L187.788 150.157L189.065 149.872L190.911 149.164L192.327 147.318V145.618L193.035 143.349L192.751 141.218L193.459 139.802L194.736 138.949L195.728 137.672L195.444 135.827L194.027 135.542H192.327L190.481 134.41L188.212 132.002L185.943 130.017L184.526 128.456L182.257 126.894L181.688 124.486L182.541 121.932L184.242 119.802L185.943 118.809L187.359 116.824L188.067 114.416L191.044 111.862L193.314 110.161L195.159 108.745L196.297 106.052L197.429 102.651L199.06 100.022L199.901 96.6556L198.99 95.135L197.997 93.8581L197.429 91.8732L197.005 89.3194L197.289 86.0576V82.227L196.436 78.8259L194.736 76.5565L193.319 74.0028L192.611 72.7259L193.604 71.449L195.873 71.0253L198.427 70.7409L200.412 69.1797L202.397 66.4866L204.097 63.0855L205.514 59.5393L206.367 56.7012L207.359 53.4393L209.06 51.17L211.329 50.1775L215.015 50.6012L216.715 51.3093L218.561 53.2942L219.693 55.1399L221.538 57.2699L224.231 57.5543L226.64 56.2775L229.542 56.2078L230.436 55.8015L231.655 55.3082L232.467 55.227L233.384 55.2386L233.111 55.9989L232.891 56.5967L232.403 57.415L231.585 58.6107L230.714 59.371L229.298 60.6246L227.83 61.385L226.901 61.71L225.595 62.5283L223.581 63.0159L221.567 63.7762L219.931 64.1012L218.143 64.4843L215.63 64.7571L214.759 65.4129L213.726 65.9062L213.453 67.1599L212.362 67.868L211.979 68.5238L212.467 69.5047L212.792 70.265L212.844 71.3562L212.954 71.9017L213.442 72.1745L214.098 71.9017L214.98 70.9383L215.653 70.1431L216.512 68.8895L216.942 67.4211L217.261 66.7304H218.648L221.916 66.8407L225.241 66.5679L227.04 65.8076L228.236 64.8267L228.457 64.7338L230.331 63.9329L232.351 63.5092L233.111 62.5864L234.458 62.0988L234.992 61.443L235.642 60.4331L236.089 59.6786L236.75 59.1156L237.186 58.7267L237.853 57.891L238.712 57.1132L238.997 56.2136L239.118 54.9484L239.484 53.9675L240.018 53.271L240.715 52.4933L241.411 52.1276L241.736 51.9651V51.2686L242.351 50.2472L242.967 48.5118L243.988 47.3684L244.522 47.1246L245.52 46.7938L245.863 46.6081H246.594L246.623 46.5558L247.093 46.225L247.999 46.0451L248.678 45.9522L249.664 46.0625L250.43 45.8013L251.057 45.8594ZM278.15 54.2577L277.483 54.8323L277.1 54.8787L276.624 54.6408L275.666 54.5943L274.232 54.693L272.317 54.5015L270.692 54.2635L269.688 53.834L268.73 53.2594L268.063 52.8299L266.96 52.592L265.956 52.3076L265.857 51.9245L266.24 51.2048L267.099 50.5838L267.767 49.7248L268.626 48.3841L269.676 47.2813L270.588 45.8477L271.499 45.8013L272.311 46.3295L274.128 47.38L275.277 48.0474L276.473 48.86L277.86 49.7712L278.719 50.4909L279.195 51.3035L279.096 51.8316L278.806 52.3598L278.614 53.3174L278.15 54.2577ZM264.946 50.7637L264.035 51.8142L261.116 51.7678L260.111 51.1003L258.869 50.1427L257.958 49.1386L257.384 48.4189L256.954 47.6992L256.188 47.1246L254.946 46.2134L253.222 44.8263L252.073 44.1588L251.498 43.7757L251.545 42.7252L252.119 41.814L253.507 41.0014L255.085 39.7072L256.136 39.0397L256.948 38.6566L259.769 38.5115L260.965 39.0861L263.785 40.6184L266.031 42.2957L268.423 43.9208L268.951 44.3968L268.904 45.0642L266.989 47.7921L265.747 49.3708L264.946 50.7637Z" fill="#F0F0F0" stroke="#D2D4D5" stroke-width="0.5"/>
<path d="M310.167 64.8733L310.898 65.4827L311.67 66.0747L311.955 66.7422L312.013 67.5547L311.891 68.0191L311.345 68.1642L310.736 67.9842L310.452 67.3922L309.865 66.8989L309.035 66.0689L308.565 65.7961L307.88 65.4073L307.149 64.9894H306.644L306.215 65.4595L305.971 66.0341L305.669 66.0283L305.28 65.7845L305.425 65.2157L305.774 64.8095L305.814 64.2407L305.646 63.4223L304.851 62.8013L303.545 61.7798L302.75 61.478L302.187 60.8221L302.001 59.8471L301.676 59.1158L301.328 58.7908L300.881 58.0595L300.184 57.6648L299.807 57.3049L299.116 57.1424L298.878 56.5446L298.403 56.1035L297.677 55.6856L297.044 55.1052L296.818 54.5365L296.859 53.9503L297.491 53.7297L298.037 53.7877L298.565 54.2346L299.174 54.7222L299.784 55.558L300.109 56.4518L300.718 56.7536L301.96 57.2643L302.593 57.5313L303.406 57.9608L303.992 58.6108L304.944 59.4698L305.837 60.6074L306.569 61.5012L307.486 62.3776L308.194 63.1089L309.192 64.1072L310.167 64.8733ZM294.63 54.6235L294.874 55.8946L294.781 56.8696L294.537 57.7925V58.6689L294.827 59.4002L296.302 60.0908L298.728 62.2964L302.14 65.6046L304.236 67.1427L307.103 69.1276L306.441 70.6657L303.353 72.5403L303.574 73.8637L304.34 74.7923L305.779 73.7534L308.536 72.2095L310.411 71.3273L312.286 71.1068L313.829 72.2095L315.263 73.6431L316.586 75.7325L317.689 78.1586L319.012 80.3641L320.667 81.0257L322.762 82.0182L324.613 83.8232L325.443 84.6997L326.517 85.5238L327.538 85.5702L328.368 86.3015L329.1 86.5917L329.634 87.0793L330.319 87.5146L331.195 87.561L332.269 88.1472L333.389 88.1008L334.219 88.3445L334.555 89.2209L334.41 89.9058L335.043 90.2424L335.089 89.8071L335.53 88.8843H336.111H336.645L337.034 89.4647L337.666 89.1223L338.102 88.9772L338.734 89.3196L339.611 89.4647H340.975L341.607 88.9307L342.582 88.7856L343.459 88.5419L344.236 88.2981L344.968 88.153L345.844 88.449L346.721 89.1281L347.284 89.2848L348.247 89.4241L348.531 88.3736V87.532L348.92 86.6208L349.698 86.3596L350.017 85.8024L350.603 85.3961L350.87 87.1373L351.422 88.7914L352.745 90.4456L354.509 91.9894L355.833 92.7614L356.494 94.636L356.053 96.7313L354.289 97.6135L353.517 98.4957L352.194 100.701L350.098 102.796L348.885 104.23L347.342 105.443L345.357 106.987L344.474 107.538L344.805 109.192L345.798 110.295L346.459 112.611L346.68 115.037L346.459 117.573L344.474 118.345L341.276 119.007L339.622 119.779L337.748 121.102L335.763 122.977L333.888 124.41L331.903 126.175L329.477 126.836H327.713L326.389 125.623L324.735 124.521L322.86 124.631L318.896 124.962L315.809 125.293L313.493 124.741L311.398 124.3L309.413 124.08L308.809 125.803L309.714 126.07L311.171 126.21L311.148 126.622L311.392 127.562L312.112 127.672L312.349 128.868L313.197 128.92L313.742 129.361L314.567 130.29L314.683 131.178L315.014 131.445L315.031 132.141L314.154 133.238L312.5 133.679H309.854L308.2 134.672L306.546 136.105L305.112 136.546L303.899 136.767L302.576 138.201L303.348 139.855L302.245 140.737L301.032 142.501L302.135 143.714L303.127 144.376V146.03L302.906 147.133L302.024 148.015L298.826 147.905L295.849 148.236L292.541 148.677L289.453 149.118L287.688 148.897L286.696 147.574L286.034 145.479L287.137 143.714L287.247 141.95L285.373 140.737L284.601 138.973L283.277 136.988L280.631 134.451L278.315 132.577L276.22 130.04L273.904 129.158L272.36 127.724L271.147 126.291L271.478 124.416L270.927 121.99L269.824 120.777L265.964 120.557L264.09 119.895L262.325 119.233L260.34 118.792L258.907 116.917L258.245 115.594L258.135 113.389L256.811 111.735L254.826 110.301L253.724 108.206V104.892L254.496 102.466L255.598 100.04L256.074 99.2212L257.142 97.3929L258.135 94.8624L258.907 91.885L259.458 89.4589L260.009 87.3637L261.112 85.3787L262.122 83.6781L262.197 82.7031L263.12 82.2155L263.881 81.1824L263.933 77.5956L265.343 76.8875L266.812 76.2897L268.222 74.061L268.547 72.5403L268.93 71.6175L269.313 70.9675L269.528 68.1409L270.398 67.1078L271.867 66.127L273.66 65.2564L275.343 64.0085L278.332 59.4466L278.507 59.2783L279.157 58.6863L279.383 57.6648L281.147 56.7826L283.794 55.9642L284.398 55.3548L285.419 55.4012L285.541 54.6409L286.005 54.1824L286.835 53.9851L286.626 53.0042L287.183 52.4354L287.671 51.9421L288.106 51.4952L288.286 50.6014L288.785 50.079H289.372L290.962 49.9745L291.432 49.516L291.902 49.0575L292.587 48.9124L293.318 49.2548L293.754 49.6437L293.8 50.4737L293.458 50.9612L293.069 51.3036L293.016 51.9363L293.649 51.9827L293.841 52.4238L294.032 53.1029L294.473 53.6368L294.63 54.6235Z" fill="#F0F0F0" stroke="#D2D4D5" stroke-width="0.5"/>
<path d="M239.879 21.4474H240.448L241.046 22.0452L241.266 22.701L241.649 23.1886L242.085 23.6239L242.572 23.8966L242.793 24.0591L243.391 24.5525L243.663 25.3708L243.826 26.2414L244.151 26.729L244.534 27.3268L245.132 27.7621L245.457 28.1974L245.619 28.6849L246.165 29.0099L246.652 29.718L246.705 30.7511L247.088 31.2967L247.361 31.7842L247.471 32.4401L247.036 32.8231L246.275 32.6026L246.002 32.0048L245.677 31.732L245.405 31.1342L245.022 30.6989L244.476 29.9908L244.041 29.5555L243.605 29.0099L243.17 28.4121L242.787 28.1393L242.625 27.4313L242.189 26.8857L241.969 26.3401L242.079 25.6843L242.3 25.3592L242.079 24.7614L241.696 24.3784L241.423 23.9953L241.533 23.6122L241.208 23.3395L240.663 23.0144L240.5 22.3064L240.553 21.8188L239.879 21.4474ZM239.879 21.4474H239.792L239.682 21.3371L239.879 21.4474ZM201.718 4.20379L201.01 4.96411L200.627 5.78247L200.192 6.76334L200.9 7.5817L201.608 7.25667L202.316 6.76914L202.699 6.11329L203.407 5.13242L203.593 5.03375L204.063 4.85964L204.609 4.96991L204.667 5.50968L204.719 5.73023L204.881 6.43831L205.102 6.92585L205.647 7.1464V7.25667L205.636 7.28569L205.642 7.45401L205.647 7.4424V7.75001L205.322 8.23754L204.777 8.94563L204.231 9.60147L204.719 10.0368L205.589 9.98454L205.973 9.00367L206.681 7.97056L207.499 7.64554L207.992 7.09997L208.538 5.89855L209.519 4.43014L210.175 3.339L211.103 3.1939L211.962 3.66402L214.452 5.11501L216.031 6.25839L215.868 6.80396L215.485 7.40177L214.94 8.33041L214.719 8.98625L214.336 9.47379L214.115 10.0716L214.168 10.5069L214.493 10.89L215.091 11.215L215.851 10.9422L216.449 10.1819L216.774 9.36351L217.261 8.70766L217.534 8.10986L217.807 7.2915H219.275L219.972 7.72679L220.947 8.21433L221.724 8.70186L222.502 9.47959L223.843 10.2863L224.545 10.8435L225.317 11.2092L226.402 12.2539L227.476 13.0316L228.794 14.0067L229.96 14.4942L230.79 14.8831L231.806 15.2429L232.543 16.0032L232.88 16.7345L233.512 17.5123L233.982 18.4525L233.878 19.8513L233.982 19.9267L234.255 20.5826L234.749 21.3429L235.294 21.8304L235.782 22.376L236.258 22.9332L236.432 22.9738L236.757 23.6297L237.03 24.1752L237.302 24.9936L237.523 26.0267L238.121 27.4951L238.092 27.5125L238.556 27.9304L238.991 28.3657L239.212 28.801L239.485 29.451L239.543 29.4568L240.251 30.0546L240.907 31.0355L241.168 32.028L241.702 32.562L242.868 33.8737L243.6 35.0577L243.704 36.2126L243.977 36.8105L243.681 38.2208L243.379 38.6097L242.723 39.0972L242.015 39.695L241.359 39.9156L241.197 40.1884L241.417 40.5134L241.58 40.8384L241.963 40.9487L241.58 41.384L240.982 41.4943L240.384 41.5465L239.897 42.1443L239.624 43.2877L239.299 43.8333L238.916 44.7039L238.155 44.8664L237.558 45.3017V46.062L237.447 47.0951L237.227 48.5113L236.739 49.2193L236.467 49.9797L235.921 50.415L235.573 50.7284L235.596 50.9895L235.108 51.5874L234.725 52.0749L234.453 52.5102L234.29 53.4388L233.965 54.2572L233.466 55.238L232.549 55.2264L231.736 55.3077L230.517 55.801L229.624 56.2073L226.722 56.277L224.313 57.5538L221.62 57.2694L219.774 55.1394L218.643 53.2937L216.797 51.3088L215.096 50.6007L211.411 50.177L209.141 51.1695L207.441 53.4388L205.595 59.5388L204.179 63.085L202.479 66.4861L200.494 69.1792L198.509 70.7404L195.955 71.0248L193.686 71.4485L192.693 72.7254L194.817 76.556L196.518 78.8254L197.371 82.2265V86.0571L197.087 89.3189L197.51 91.8727L198.079 93.8576L199.072 95.1345L199.983 96.6551L199.141 100.021L197.51 102.651L196.379 106.052L195.241 108.745L193.395 110.161L191.126 111.862L188.149 114.415L187.44 116.824L186.024 118.809L184.324 119.801L182.623 121.931L181.77 124.485L182.339 126.894L184.608 128.455L186.024 130.016L188.294 132.001L190.563 134.41L192.409 135.542H194.109L195.525 135.826L195.81 137.672L194.817 138.949L193.54 139.802L192.832 141.218L193.117 143.348L192.409 145.617V147.318L190.992 149.164L189.147 149.872L187.87 150.156L186.877 151.433L185.601 152.849L184.039 155.118L182.623 157.388L182.199 158.949L182.339 160.51V162.072L181.915 163.633L181.631 164.765L181.207 166.75L180.215 166.889L179.361 166.036L178.23 165.043L176.895 164.01L176.343 162.025L173.586 161.48L170.609 159.825L168.073 158.282L165.647 156.517L164.434 155.194H161.125L158.589 153.76L155.501 151.334L153.075 148.577L149.436 146.262L146.569 143.946L145.356 142.623L144.253 140.968L143.922 139.755V136.227L146.128 136.662H148.554L150.429 136.11L152.193 134.787L153.737 133.684L155.612 133.243L155.942 130.713H158.479L160.794 130.382L162.013 129.059L161.682 126.528L160.359 125.205L158.815 124.323L157.161 123.551L154.735 120.573L151.537 117.044L149.221 113.852L148.78 110.544L148.449 105.257L148.119 102.169L146.795 100.079L145.141 96.9918L144.369 93.6835L142.936 90.1547L141.943 87.0728L140.84 84.3159L138.745 82.1104L136.319 78.4771L134.555 74.8438L133.783 69.8814L133.231 66.6893L134.775 63.4913L136.099 61.6166L135.768 57.2056V54.1237L136.209 49.1613L139.407 46.0794L141.943 43.102L143.266 41.0067L143.046 37.4779L142.164 34.721L141.926 33.0205L142.773 32.9856L143.388 32.8522L143.539 33.1249L143.626 32.8173L144.062 32.4343L144.659 32.0512L145.043 31.7784L145.263 31.2909L145.588 30.4725L145.913 30.1475L146.348 29.5497L146.673 28.5688L146.946 28.0233L147.271 27.4777L148.032 27.2049L149.72 27.0946L149.773 26.4968L149.5 26.1138L149.552 25.4579L149.877 24.6976L150.313 24.0998L151.293 23.502L151.949 23.0144L152.332 22.5269L153.365 22.0916L154.317 21.8072L154.375 21.7085H154.648L154.927 21.4938L155.304 21.1862L155.768 20.9308L156.366 20.8612L156.975 20.7161L157.469 20.3852L157.637 20.2692L158.664 20.1995L159.982 19.3754L159.994 19.2941L160.115 19.3115L160.771 18.9284L161.967 18.2204L163.876 16.8564L165.13 15.6608L166.436 14.6277L167.904 13.9196L168.995 13.049L171.12 11.4704L171.938 11.1976L173.029 10.5998L174.77 9.50861L176.459 8.14468L177.928 7.21605L178.607 6.74012L179.089 6.58341L179.344 6.21776L179.559 6.06686L180.487 5.63156L181.416 5.30654L182.304 4.78418L182.31 4.77838L182.339 4.76097L182.35 4.73775L182.989 4.14575L183.767 3.02558L184.678 2.6077L186.042 2.55546L186.727 2.3117L188.259 2.07954L189.129 1.80675H190.325L191.695 1.67906L193.111 1.31922L195.253 1.2902L196.907 1.04643L198.514 1H199.733L201.341 1.1451L202.316 1.38887L203.245 1.97507L204.22 2.36393L204.394 2.78762L204.522 2.99076L204.179 3.11264L203.523 3.33319L202.653 3.60598L201.718 4.20379Z" fill="#F0F0F0" stroke="#D2D4D5" stroke-width="0.5"/>
<path d="M368.549 77.3333L369.831 77.7512L370.592 77.7105L372.42 78.5173L373.871 78.9004L375.299 79.3531L376.86 79.5504L377.574 80.0031L378.613 80.2004L378.671 80.2991L379.983 80.9317L380.882 81.5644L382.043 82.197L383.471 83.5725L384.951 84.8436L386.379 86.9621L387.278 88.4943L387.597 89.9221L388.23 91.3499L388.706 92.6732L388.973 96.4283L388.816 98.6512L388.601 100.346L388.654 100.387L388.601 106.487L390.134 106.591L391.776 107.276L393.204 108.176L392.043 111.136L390.14 115.523L387.557 121.722L385.386 126.76L383.802 130.619L381.318 135.907L379.095 141.305L378.299 143.208L378.143 144.265L377.771 145.536L378.566 146.754L379.89 147.074L381.109 147.178L382.432 146.969L384.388 146.598L385.711 146.493L386.506 146.284L387.458 146.128L388.462 145.704L390.157 145.28L391.109 145.385L392.165 145.704L393.436 146.128L394.44 146.656L395.183 147.132L396.031 147.764L396.826 148.031L397.986 148.24L398.729 148.716L400 149.088L401.109 149.883L401.132 150.573L401.19 152.17L400.941 153.296L400.563 153.795L400.552 153.812H400.523L399.913 154.369L398.491 154.747L397.278 155.124L396.17 155.373L394.707 155.855L393.309 156.546L392.183 157.132L391.097 157.405L390.076 157.823L388.863 158.241L387.922 158.618L387.296 158.827L385.502 159.007L382.507 159.361L380.319 159.245L378.474 158.217L376.175 157.109L372.484 155.768L368.822 156.575L366.604 157.353L365.867 153.667L365.409 152.872L368.735 145.437L368.038 145.315L366.726 148.519L365.496 150.736L364.898 152.889L363.668 153.179L360.957 153.017L359.46 153.493L358.885 153.783L358.311 154.114L357.939 153.951L357.852 153.15L357.138 153.104L356.645 154.009L355.873 153.771L353.551 153.83H352.756L352.362 154.224L351.636 153.893H351.172L350.51 154.16L350.179 154.491H348.856L348.461 154.955L347.736 155.153H347.074L346.279 155.547H344.764L344.729 155.669L343.719 155.53L342.936 155.716L342.57 156.174H341.833L341.09 156.563L340.539 156.975L339.802 157.068L339.662 157.48L338.786 157.434L337.544 157.759L336.807 158.403L335.64 159.105L333.725 159.436L332.402 159.703L331.148 160.167L330.289 160.696L329.099 160.829L328.24 161.096L327.184 161.363L325.663 161.694L325.002 162.025L324.009 162.75L323.284 163.145L321.432 163.342L319.453 163.737L317.967 163.383L317.207 164.532L316.273 164.097L316.214 164.091L315.355 163.911L314.514 164.462L313.498 164.416L312.21 164.741L311.519 165.432L310.643 165.339L309.952 165.385L308.814 165.17L308.089 165.501L307.294 165.768L306.371 165.966L305.622 166.668L304.247 166.958L303.556 167.051H302.54L301.85 167.283L301.298 167.834L300.7 167.788L299.58 167.666L299.412 168.067L298.309 168.299L297.224 168.421L296.104 168.752L295.407 169.593L294.484 169.779L293.707 170.115L293.196 170.835L292 170.882L290.944 171.207L290.114 171.346L288.686 171.392L287.682 171.543L286.191 171.793L284.409 172.588L282.958 172.919L281.24 173.447L279.899 174.364L278.976 175.403L277.595 176.326L275.616 177.167L274.676 177.811L273.735 178.258L272.841 178.804L271.565 179.291L270.909 178.845L270.462 178.891L269.469 179.384L268.181 180.673L267.589 181.416L266.898 181.712H266.405L265.859 181.66L265.116 182.008L264.89 182.6L264.106 183.337L263.416 184.074L262.174 185.177L261.152 184.927H260.456L259.765 185.42L259.069 186.117L258.326 186.86L257.919 187.614L257.142 187.951L256.852 188.717L256.248 188.497L255.453 187.701L254.878 186.738L253.816 185.966L252.992 184.805L252.348 183.929L251.75 183.006L251.013 181.857L250.461 181.213L250.055 179.825L249.214 177.893L248.175 176.059L248.134 173.133L248.314 172.547L249.022 172.443L249.515 172.89L251.547 172.988L252.29 172.739L252.882 172.541L253.723 172.344H255.406L256.149 172.692L257.687 172.843L258.279 172.199L258.123 171.421L257.832 171.009L256.997 170.533L255.94 170.44L255.017 169.518L254.141 168.595L254.019 166.209L253.131 165.426L251.837 165.461L252.272 164.631L252.586 163.725L252.702 163.093L252.62 162.193L252.568 161.758L252.858 161.131L252.446 159.552L252.034 158.641L251.454 157.643L251.204 156.813L251.785 154.822L252.945 153.911L253.944 153.081L254.692 151.752L255.522 151.253L256.933 150.672L257.432 148.931L256.434 147.439L256.103 144.619L253.613 142.877L252.116 140.637L250.206 139.807L247.548 138.977L246.55 138.478L245.22 136.238L244.141 133.579L244.06 131.008L243.642 129.348L241.483 128.849L238.494 128.35L236.085 128.269V126.11L237.994 125.28L240.984 125.112L242.063 124.032L241.982 122.291L241.401 120.05L240.241 117.561L238.993 116.231L239.074 112.83L240.653 110.259L242.15 107.601L243.061 104.032L244.06 101.46L245.551 99.0517L247.461 98.1405L249.539 98.3088L251.448 98.6396L254.106 99.1388L256.126 99.2607L255.65 100.079L254.547 102.505L253.775 104.931V108.239L254.878 110.335L256.863 111.768L258.186 113.422L258.297 115.628L258.958 116.951L260.392 118.826L262.377 119.267L264.141 119.929L266.016 120.59L269.876 120.811L270.978 122.024L271.53 124.45L271.199 126.325L272.412 127.758L273.956 129.192L276.272 130.074L278.367 132.61L280.683 134.485L283.329 137.021L284.653 139.006L285.424 140.771L287.299 141.984L287.189 143.748L286.086 145.512L286.748 147.608L287.74 148.931L289.505 149.152L292.592 148.71L295.901 148.269L298.878 147.938L302.076 148.049L302.958 147.167L303.179 146.064V144.41L302.186 143.748L301.084 142.535L302.297 140.771L303.399 139.888L302.627 138.234L303.951 136.801L305.164 136.58L306.597 136.139L308.251 134.705L309.906 133.713H312.552L314.206 133.272L315.083 132.175L315.065 131.478L314.734 131.211L314.618 130.323L313.794 129.395L313.249 128.954L312.401 128.901L312.163 127.706L311.444 127.596L311.2 126.655L311.223 126.243L309.766 126.104L308.861 125.837L309.464 124.113L311.449 124.334L313.545 124.775L315.86 125.326L318.948 124.995L322.912 124.665L324.787 124.554L326.441 125.657L327.764 126.87H329.529L331.955 126.208L333.94 124.444L335.814 123.01L337.799 121.136L339.674 119.812L341.328 119.041L344.526 118.379L346.511 117.607L346.732 115.071L346.511 112.645L345.849 110.329L344.857 109.226L344.526 107.572L345.408 107.021L347.393 105.477L348.937 104.264L350.15 102.83L352.245 100.735L353.569 98.5294L354.341 97.6472L356.105 96.7649L356.546 94.6697L355.885 92.795L354.561 92.0231L352.797 90.4793L351.474 88.8251L350.922 87.171L350.655 85.4298L351.619 84.5998L352.211 83.59L352.536 83.2765L352.855 83.0966L354.114 81.7095L355.147 80.8215L355.478 79.6955L356.453 79.2428L356.906 78.5289L357.62 78.2677L358.787 77.9427L360.406 77.7163L361.329 77.9427L362.878 77.49L364.167 78.0878H364.962L366.071 77.5945L366.825 77.4087L367.696 77.3217L368.549 77.3333ZM334.514 70.4324L334.207 70.5194L333.859 70.473L333.423 70.2118L332.332 69.0742L331.107 67.9831L331.061 67.3737L330.492 66.6308L330.887 66.5437L331.456 66.979L332.024 67.0661L332.547 67.3272L333.156 67.5884L333.766 67.809L333.719 68.2907L333.806 68.6389L334.067 68.8595L334.329 69.2542L334.155 69.5618V69.91L334.462 70.2583L334.514 70.4324ZM329.059 64.4949L328.838 64.7155L328.356 64.5413L328.049 64.0596L327.439 63.4502L326.696 62.8408L327.091 62.6202L327.265 62.7073L327.834 62.7944L328.229 63.0555L328.623 63.4502L328.844 64.0596L329.059 64.4949ZM403.483 57.6753L402.566 57.8087L401.881 57.5766L401.126 57.1181L400.175 56.3345L399.583 55.876L398.962 55.0925L398.567 54.2393L398.335 53.4558L398.039 52.6374L398.399 52.1441L398.724 51.7494L399.118 51.1922L399.641 50.5016L399.867 49.7819L400.227 49.0274L400.523 48.534L400.558 48.0407L400.331 47.7795L400.465 47.4545L400.697 47.1933L400.993 47.3906L401.092 48.0465L401.225 48.6675L401.55 48.9635L401.846 49.3234L402.043 49.8167L402.926 50.014L403.808 50.1475L404.661 50.4725L405.416 50.7685L405.775 51.5869L406.333 52.2428L407.151 53.2584L407.546 54.2103V54.9648L407.348 55.7483L407.151 56.4332L406.692 56.9556L405.909 57.0194L404.992 57.2167L404.11 57.4489L403.483 57.6753ZM336.65 52.6258L337.057 52.9741H343.754L344.689 52.5678L345.501 52.1615L346.198 51.9293L350.562 51.9874L351.259 51.7552H353.302L355.107 52.0454L356.854 52.3356L358.195 52.7419L359.361 52.9741L360.058 53.2062L360.986 53.2642L361.567 52.5678L362.675 52.7419L363.842 52.9741H364.95L365.821 52.6258L366.401 52.3937L366.982 52.4517L367.214 53.3223L367.388 53.6705L368.143 53.5544L368.665 53.0901L369.013 52.7999L370.354 52.6258L370.586 53.2062L371.05 53.4964L371.515 54.0768L371.457 54.6572L371.631 55.7077L371.863 56.2881L371.805 57.1007L371.979 57.9132L371.747 58.4356L371.399 59.3642L371.515 60.5308L372.153 61.0532L372.501 61.4014L372.85 61.5755L372.675 61.9818L372.037 61.8077L371.045 61.5175L369.704 61.6916L369.065 62.0979L368.253 61.7496L367.144 62.0979L366.448 62.3881L365.983 62.6202H364.817L364.236 62.33L363.302 62.0979L362.954 62.4461L362.431 62.6202L361.503 62.4461L360.51 62.214L359.64 62.4461L358.531 62.5042L358.009 62.7944L357.254 63.2587L356.616 63.4328L356.442 63.8971L355.803 64.0712L354.875 64.3034L354.526 65.1159L354.41 65.8124L353.946 66.0446L353.366 66.3348L352.959 66.8571L352.437 67.3795L351.566 67.5536L351.45 66.9152L350.696 66.8571L350.29 67.0312L350.115 67.4375L349.245 67.9599L348.136 68.076L347.086 68.4242L346.093 68.6564L344.753 69.0626L343.47 69.527L341.955 69.7591L340.672 69.8752L340.034 70.3395L339.041 70.2234L338.577 69.4109L338.171 68.4184L337.358 67.1938L336.546 66.6714L336.139 65.6209L335.501 64.6284L334.747 64.1641L333.754 63.99H332.181L331.543 63.2935L331.136 62.4809L330.846 61.7264L330.556 60.5018L329.273 59.3352L328.107 58.9289L326.186 58.7548L325.135 58.1744L323.794 57.7681L322.86 57.3038L321.345 56.0211L320.707 55.4407L319.952 55.0345H319.488L318.617 55.2666L317.509 54.9764H316.638L315.588 54.4541L315.472 54.0478L314.775 53.1191L314.311 52.5968H313.556L313.092 53.1191L312.512 53.1772L311.989 52.829L311.583 52.5388L311.235 52.1325L310.886 51.6101L310.19 51.3199L309.493 50.5654L309.377 49.8689L309.029 49.0564L308.913 48.3019L308.681 47.8375L308.739 47.025L309.435 46.8509L310.776 46.5607L311.647 46.0383L312.169 45.574L312.517 44.7034L314.438 44.5293L314.845 44.123L315.077 43.3685L315.483 42.9622H316.064L317.346 43.3105L318.275 44.0069L319.441 44.3552L321.014 45.1677L322.994 45.9222L324.973 46.5026L327.068 46.9089L328.176 47.4893L328.873 48.0117L330.039 48.4179L330.272 48.8823V49.8109L331.38 50.8034L332.721 51.3838L333.592 51.6159L335.803 51.9061L336.65 52.6258ZM448.609 42.8519L450.646 43.6065L451.812 44.5989L452.863 45.2954L453.855 45.9919L455.08 46.9205L456.247 48.2612L457.175 48.7255L458.284 49.1318L459.096 49.8283L459.851 50.5828L460.722 51.0471L461.36 51.2793L461.998 52.0918L462.056 53.2584L462.811 54.1871L463.624 55.1157L463.914 55.8876L464.906 57.2864L465.254 58.3369L465.312 60.6063L464.848 61.8309L464.326 62.7015L464.268 63.81L463.629 64.8025L463.397 65.6151L463.165 67.188L462.875 67.8264L462.527 68.697L462.352 69.9797L462.236 71.6106L461.772 72.1329L461.54 73.5897L461.018 75.1046L460.611 76.2712L459.973 77.0257L459.625 77.548L457.936 78.1284L456.769 78.6508L455.777 78.999L455.196 78.6508L453.855 78.0704L452.631 77.49L451.76 77.0837L450.832 77.3159L449.897 77.8382L448.324 78.3025L446.229 79.295L444.54 80.2237L442.793 81.2742L441.162 82.0287L440.64 82.3189L438.835 82.7832L437.61 83.4216L437.378 84.3503L436.74 84.8146L436.275 85.1628L435.753 85.5691L434.818 86.6196L433.826 87.4322L433.129 87.5483L432.311 88.0706L431.499 88.3608L430.802 87.8385L430.57 87.0839L429.99 86.6196L429.409 86.4455L429.061 85.5111L428.364 85.2209L428.074 84.7565L427.726 83.944L426.971 83.0096L426.333 82.4872L426.217 81.2045L425.52 80.9724V80.1018L424.592 79.4633L423.483 78.2387L422.317 76.7819L421.62 75.7894L420.924 74.797L420.285 74.1585H419.293L418.77 73.5781L418.887 72.9977L418.945 71.9182L418.422 70.8096L417.958 70.0551L417.552 69.4167L417.087 68.6622L416.037 67.6116L415.166 67.0312L413.942 66.683L413.419 65.4584L412.02 65.1101L410.97 64.7619L410.68 64.0654L410.273 63.0729L409.809 62.7247L409.403 62.3765L410.332 61.738L410.506 61.2157L410.796 60.4031L411.26 59.2365L411.899 58.186L412.305 57.4315L412.769 55.5104L412.363 54.1116L411.899 53.5893L411.318 52.5388L410.854 51.3722L410.564 49.9154L410.332 48.6907L410.157 47.292L409.809 45.3709L410.448 44.6744L411.086 44.5583L411.899 45.1387L412.537 45.3128L413.35 45.6611L414.168 45.7771H414.981H416.031L416.844 46.1834L417.656 46.0673L418.527 45.8352L419.165 45.6611L419.978 45.3128L420.616 44.5583L421.725 43.5078L422.392 43.1131L422.856 42.5327V41.6273L423.379 41.1049L423.843 40.6987L424.133 40.1763L424.366 39.4798L424.888 39.3638L425.41 39.5959L425.758 40.1183L426.339 40.8147L427.006 41.3371L428.637 41.4532L429.218 41.0469L429.972 41.221L430.727 41.9755L431.365 42.0916L432.416 42.2657L432.996 43.0203L433.692 43.1363L434.273 42.7301L434.853 41.6795L435.318 41.2152L436.426 40.6348L436.658 39.5263L437.703 39.062L438.986 39.2361L439.682 39.3521L440.321 39.8745L441.371 40.2227L442.77 40.5129L443.878 40.9192L445.451 41.2675L446.56 41.8479L448.609 42.8519Z" fill="#F0F0F0" stroke="#D2D4D5" stroke-width="0.5"/>
<path d="M108.948 282.227V282.685L108.426 282.621L107.671 282.72L107.607 283.08L107.671 283.503L108.327 283.701L109.18 284.026L109.639 284.711L109.314 285.233L108.989 285.755L108.205 285.79L107.062 285.988L106.371 286.214L105.355 286.313L104.015 286.771L103.69 286.968L102.999 287.56L102.146 288.181L101.292 289H100.898L100.637 288.379L100.404 287.787L100.439 286.411V285.233L100.074 284.815L100.306 284.293L100.799 283.933L101.42 283.968L102.5 283.805L103.643 283.608L104.264 283.283L104.757 282.761L105.152 282.238L105.547 281.646L105.448 281.222L105.251 280.897V280.305L105.448 279.621L106.139 279.557L106.731 279.754L107.613 279.98L108.17 280.404L108.495 280.799L108.17 281.025L108.135 281.449L108.559 281.809L108.948 282.227ZM114.723 266.028L114.404 266.411L114.009 266.312L113.91 265.987L113.748 265.627L113.353 265.465V265.006H113.812L114.137 265.07L114.369 265.529L114.723 266.028ZM160.441 262.435L159.878 262.511L159.831 262.191L159.413 261.971L158.972 261.924L158.798 261.628L158.845 261.356L159.408 261.431L160 261.605L160.783 261.826L160.737 262.093L160.592 262.336L160.441 262.435ZM182.809 268.314L182.693 268.605L181.939 268.431L180.772 268.198L180.075 267.734L179.611 267.386L178.27 266.747L176.872 265.993L175.879 265.175L175.473 264.478L174.893 263.428L174.486 262.847L174.254 262.151L173.964 261.512V260.23L174.022 259.417L174.486 258.953L174.951 259.301L175.299 259.707L175.763 260.346L176.227 260.752L176.982 261.39L177.853 261.913L178.903 262.783L179.135 263.596L179.948 264.466L180.296 264.989L181.289 265.801L181.927 266.736L182.217 267.432L182.681 267.839L182.809 268.314ZM142.385 260.688L142.727 261.303L143.342 261.228L143.76 261.129L144.103 261.205L144.346 261.669L144.712 261.965L145.13 262.458L145.548 263.05L145.646 263.665L145.571 264.501L145.205 264.646L144.84 264.919L144.474 265.412L144.033 266.074L143.836 267.078L143.592 267.374L143.348 267.45L143.249 267.032L142.437 266.956L142.141 267.276L141.746 267.839L141.328 268.082L140.986 267.641L140.864 267.101L140.591 266.167L140.249 264.937L139.854 263.956L139.779 262.946L140.051 262.185L140.127 261.326L140.347 260.589L140.713 259.632L141.108 259.138L141.45 258.721L141.497 258.378L141.642 257.838L141.885 257.275L142.919 257.2L143.017 257.467L142.872 257.687L142.309 257.786L142.089 257.908L141.943 258.274L141.746 258.767L141.92 259.063L141.967 259.701L142.089 260.264L142.385 260.688ZM106.574 260.45L107.392 260.711L107.95 260.351L108.605 259.858L109.227 259.498L109.685 259.138L110.08 259.005L110.44 259.365L110.898 259.858V260.154L110.538 260.45H110.016L109.424 260.647L109.029 261.402L108.896 262.185L109.256 262.777L109.877 263.271L110.927 263.404L111.583 263.602L112.041 264.025L112.662 264.617L112.366 265.041L111.316 265.14L111.119 265.958L110.695 267.038L109.714 267.171L108.733 267.368L107.979 267.235L107.224 266.974L106.342 266.776L104.833 266.811H101.884L101.426 267.009L100.312 267.403L99.2959 267.27L97.5954 266.811L95.6278 266.515L94.0898 266.353L93.0393 266.028L91.5012 265.894L90.1605 265.732L89.4698 265.372L89.3711 264.652L89.8297 263.996L90.2882 263.474L91.4025 263.34L92.0236 263.108L92.5807 262.714L93.3643 262.093L93.9853 261.373L94.5425 260.555L95.1635 259.934L96.3417 259.179L97.2587 258.622L98.1409 258.198L100.271 257.902L101.089 257.705L101.873 257.444L102.889 256.985L103.672 256.852L104.589 257.049L104.885 257.705L104.949 258.065L105.146 258.848L105.866 259.667L106.574 260.45ZM216.559 255.621L216.321 255.656L215.944 255.488V255.215L216.182 255.11L216.321 254.971L216.559 254.803L216.664 254.53L216.902 254.188L217.076 253.845L217.418 253.741L217.488 254.083L217.691 254.251L217.552 254.524L217.412 254.594L217.244 254.867L217.006 255.105L216.768 255.343L216.559 255.621ZM214.574 253.294L214.232 253.329L214.127 252.986L214.197 252.679L214.435 252.406L214.882 252.441L215.05 252.818L214.882 253.125L214.574 253.294ZM229.229 246.921L229.676 247.298L230.222 247.263L230.802 247.844L231.284 248.151L231.864 248.291L232.381 248.668L232.416 249.01L232.212 249.73L232.381 250.995L232.584 251.785L232.688 252.951L232.758 253.944L232.416 254.217L232.143 254.048L231.661 253.636L231.354 253.259L231.116 252.882L230.843 252.47L230.947 251.988L230.837 251.442L230.355 251.274L229.81 250.827L228.887 250.073L228.341 249.388L227.552 248.703L226.937 247.948L226.287 247.536L225.776 247.194L225.741 246.579L226.084 246.167L226.391 245.754L227.111 245.586L227.384 245.859L227.691 246.439L228.376 246.677L229.229 246.921ZM238.887 249.051L238.545 249.254L237.999 248.947L237.622 248.569L237.041 248.262L236.391 247.647L235.846 246.997L235.399 246.451L234.987 245.94L234.952 244.948L234.882 244.367L234.47 243.822L234.575 243.137L234.917 242.969L235.498 243.003L235.637 243.346L236.148 243.653L236.594 244.1L237.279 244.75L237.86 245.366L238.202 245.911L238.852 246.149L239.363 246.561L239.636 246.973L239.531 247.623L239.259 247.966L238.986 248.616L238.887 249.051ZM134.601 245.818L133.905 246.109L132.622 246.05L131.694 246.167L130.881 246.341L130.069 245.76L129.72 245.412L129.14 244.89L128.966 244.077L129.082 243.439L129.14 242.62L128.966 242.098L129.314 241.518L130.069 241.46L130.997 241.808L132.222 242.272L133.15 242.678L133.905 243.201L134.955 243.897L135.652 244.594L135.884 245.116L135.42 245.696L134.601 245.818ZM234.261 239.121L233.884 239.631L233.402 239.939L232.822 240.009L232.276 239.701L231.795 239.463L231.963 239.19L232.474 239.121L232.746 239.26L233.159 239.295L233.466 239.225L233.739 238.714L234.116 238.267L234.319 237.722L234.662 237.826V238.134V238.476L234.354 238.679L234.261 239.121ZM238.237 239.121L237.622 239.19L237.419 239.022L237.488 238.749L237.831 238.581L238.104 238.412L238.411 238.244L238.55 237.629L238.719 237.252L239.131 237.147L239.334 237.594L239.195 238.105L238.887 238.482L238.545 238.825L238.237 239.121ZM221.765 239.84L221.458 239.91L221.08 239.567L220.738 239.19L220.361 238.708L219.984 238.331L219.676 237.849L219.264 237.234L219.096 236.549L219.606 236.961L219.809 237.269L220.152 237.577L220.564 237.919L221.144 238.465L221.487 238.912L221.76 239.358V239.84H221.765ZM139.668 240.287L139.03 240.403L138.508 239.823V239.242L138.101 238.778L137.521 238.198L137.173 237.791L136.476 237.269L136.302 236.515L136.418 235.522L136.998 234.355L137.579 233.427L138.92 233.021L139.384 233.311L139.674 233.543L139.964 234.414L140.313 235.342L140.545 236.039L140.893 236.909L140.835 237.78L140.429 238.592L140.022 239.463L139.668 240.287ZM126.511 237.495L125.344 237.902L124.352 237.728L123.423 237.379L122.959 237.147L122.436 236.625L122.494 236.102L122.204 235.406L122.727 234.71L123.655 234.361L124.294 233.781L125.402 233.259L126.511 232.678L127.149 232.388L128.02 232.098H129.302L130.353 232.33L131.224 232.852L131.688 233.671L132.094 234.251L131.92 234.889L131.514 235.354L130.875 235.76L129.651 236.282L127.962 237.153L126.511 237.495ZM152.182 234.994L152.53 235.574L153.284 235.458L153.633 235.342L153.865 235.69L154.039 235.981L154.968 236.503L155.2 237.083L155.78 237.606L156.947 238.598L157.939 239.469L158.636 240.281L159.1 240.92L158.81 241.21L158.752 241.674L159.448 242.371L159.796 242.835L160.261 243.59L160.377 244.228L159.796 244.576L158.868 244.518L157.643 244.46L157.411 243.822L156.831 243.938L156.424 244.286L155.67 244.228L155.206 243.648L155.031 242.951L154.857 241.901L154.509 241.32L154.161 240.856L152.646 239.805L152.124 239.399L151.601 239.167L150.731 238.935L150.15 238.645H149.454L149.164 239.167L149.28 239.631L149.744 239.747L150.382 240.154L151.021 240.502L151.601 240.966L152.124 241.372L152.008 241.779L151.543 241.953L151.311 242.417L150.498 242.591L150.15 243.172L149.686 243.636L148.461 243.694L147.353 243.868L145.548 243.694L144.381 243.404L143.511 243.172L142.46 243.056L141.764 242.765L141.299 242.185L141.241 241.372L141.589 240.618L141.88 240.096L142.46 239.515L142.808 239.167L142.924 238.761L143.505 238.703L144.143 239.109L145.252 239.573L146.244 239.631L147.057 239.399L147.405 238.465L146.825 237.884H145.484L144.555 237.478L143.447 236.782L143.098 235.969L142.866 234.86L142.402 233.752L142.112 233.113L141.996 232.301L142.054 231.134V230.67L142.46 230.206L142.75 229.683L143.621 229.451L144.259 229.567L145.542 229.799L146.238 230.032L147.289 230.38L147.695 230.844L148.101 231.483L148.624 231.889L149.262 232.527L150.075 232.875L150.887 233.34L151.468 233.92L151.874 234.443L152.182 234.994ZM194.324 210.722L195.555 211.041L196.924 210.948L197.656 211.267L198.387 211.407L198.933 211.267L199.478 210.948L199.937 210.675L200.209 210.17L200.622 209.944L200.668 210.49L201.173 211.174L202.357 211.54L203.68 212.451L205.781 213.183L206.925 214.28L208.022 214.645L209.206 215.15L210.575 215.33L211.945 215.284L213.222 215.104H214.18L215.137 215.609L215.683 215.835L216.275 216.247L217.279 216.706L218.376 216.845L219.014 216.479L219.746 215.974L220.843 215.835H221.754L222.619 216.015L223.483 216.108L223.849 216.52L223.988 217.478L223.715 218.116L224.307 218.482L224.992 218.389L225.219 217.884L225.631 217.791L226.409 217.245L227.001 217.019L227.778 216.7L229.055 216.52L229.833 216.839L230.425 217.205V217.843L230.106 218.389L229.879 219.167L229.194 220.031L228.463 220.809L227.918 221.72L227.233 222.631L226.867 223.409L226.002 224.593L225.521 224.912L225.062 225.232L224.882 225.963L224.563 225.87V225.325L224.516 224.733L224.424 224.32L223.878 223.862L223.466 223.496L223.1 223.27L222.642 222.951H222.137L221.957 223.636L222.05 224.228V225.098V225.737L221.731 226.375L221.591 227.06L222.096 227.745L222.508 228.157V228.43L222.143 228.523L221.823 228.935L221.185 229.48L220.819 229.706L220.042 230.072L219.583 230.345L219.31 230.618L218.898 230.299L218.44 230.159L217.981 230.432L217.116 230.612L216.432 230.838L215.84 230.978L215.294 231.343L215.021 231.889L214.22 231.982L213.355 231.709L212.943 231.436L212.398 230.978L212.218 230.113L211.945 229.109L211.307 228.697L210.668 228.331L210.622 227.785L210.163 227.559L209.206 227.013L208.428 226.329L207.882 225.551L207.151 224.912L206.605 224.088L206.147 223.084L205.688 222.399L205.096 221.941L205.143 222.214L204.319 221.848L203.953 221.709L203.68 221.024L203.361 220.658L202.769 220.246L201.446 220.2L201.219 220.38L201.039 220.652L200.355 220.513L199.942 220.194L199.35 219.782L198.846 219.19L198.341 218.598L197.656 217.686L196.971 217.321L196.147 216.729L195.462 216.363L195.323 215.725L194.731 215.359L193.866 214.721L193.227 213.989L192.45 213.577L191.399 213.351L191.033 212.846L190.714 212.161L190.488 211.616L190.029 210.884L189.757 210.519L189.896 210.06L190.488 209.967L191.08 209.828L192.177 210.008L193.407 210.373L194.324 210.722ZM223.036 211.819L223.176 212.364L222.857 212.55L222.491 212.869H221.168L220.622 213.096L220.163 213.415L219.705 213.78L218.881 214.053L218.376 214.419L217.964 214.785L217.645 214.924L217.14 214.651L216.728 214.605L216.136 214.285L215.271 214.146L214.679 213.873H213.994L213.814 213.554L213.953 213.328L214.046 213.008L213.727 212.596L213.042 212.277L212.496 212.184L211.991 212.73L211.626 213.003L210.941 213.096L210.575 212.823L210.07 212.55L209.339 212.231L208.701 212.091L208.062 211.912L207.517 211.499L207.058 210.907L206.6 210.403L207.105 209.352L208.016 208.94L208.84 208.435L210.024 207.93L211.208 207.425L212.398 207.199L213.582 206.88H215.044H215.822L217.145 206.7L218.057 206.972L218.921 207.564L219.653 208.342L220.477 209.12L220.843 209.485L221.481 210.17L222.166 211.035L223.036 211.819ZM194.51 206.752L194.098 206.99L193.419 206.903L192.682 206.874L192.711 206.52L193.065 206.346L193.274 206.05L193.494 205.933L193.889 206.021L194.034 206.166L194.301 206.433L194.51 206.752ZM108.101 181.882L108.507 183.513L108.623 186.484L109.087 186.833L109.726 187.703L110.776 188.812L112.117 190.385L113.283 190.907L114.154 191.255L117.59 191.487L119.337 191.662L120.794 192.474L122.251 193.409L123.063 194.981L123.179 196.612L122.889 197.251L121.548 198.359L119.975 199.7L118.519 200.751L117.648 201.215L115.959 201.389L114.618 201.041L113.864 200.46L112.523 199.764L110.37 198.713L108.913 198.307L107.514 198.133L106.644 198.249L105.889 198.771L104.897 199.41L103.788 200.28L102.86 201.215L102.685 202.207L103.498 203.078L104.781 203.31L105.477 203.6H106.348L106.696 203.136L107.218 203.02L107.102 203.716L106.812 204.181L107.334 204.471L107.392 205.167L107.102 205.516L106.696 206.212L105.645 207.205L104.653 207.959L104.363 208.597L102.906 208.772L101.681 208.017L100.689 207.083L99.6964 207.025L99.2901 206.386L98.3615 205.69L95.5698 204.175L93.5326 203.304L93.4746 201.093L93.0102 200.513L92.3718 200.803L91.7914 201.058L91.4432 201.877L90.8628 201.818L89.9922 201.586L89.2377 201.47L88.8314 201.76L88.1929 202.399L87.7286 203.333L87.6125 204.204L88.0188 204.436L89.3015 205.016L91.1646 206.125L92.9116 207.35L95.1229 208.458L96.4636 209.271L97.3922 209.909L97.6244 210.432L97.1601 210.896L96.4636 211.07L95.1229 211.708L94.0724 212.173L93.1379 212.73L91.9133 212.753L90.6306 213.508L88.5354 215.255L86.208 216.944L83.0042 218.749L81.1411 220.147L80.2705 220.205L79.9803 219.039L78.9298 216.769L77.8793 214.047L77.0087 212.126L76.5444 210.716L75.4939 208.621H74.7394L74.1009 208.911L72.8763 209.781L71.8258 210.478L70.7753 211.232L70.9494 211.987L71.5298 213.908L72.4584 216.352L73.625 219.904L74.6175 222.695L74.5594 223.688L74.0371 224.21L72.8124 225.023L71.4717 225.957L70.6011 226.247L70.5431 225.377L69.1443 222.057L67.4554 217.634L66.2307 214.43L65.6503 214.14L65.2441 214.43L63.4971 215.713L62.1564 216.764L61.576 217.46L61.634 218.975L63.9034 224.796L65.128 228.929L65.07 229.857L64.6637 230.206L62.5684 231.076L60.125 232.185L57.8556 232.649L55.8184 232.881L53.7232 232.063L52.0343 231.018L50.6355 229.445L49.1787 227.582L48.6563 226.712L48.3081 226.131L46.7933 223.862L44.9882 220.774L43.5895 218.215L42.3648 215.539L41.4362 213.328L41.0299 211.871L40.7397 211.174L39.9852 209.311L39.4048 207.205L38.9986 205.516L38.7664 204.291L39.3468 203.42L39.9852 202.196L41.442 200.971L42.9569 199.63L44.7619 198.232L47.0893 196.252L48.7782 194.622L50.1189 193.049L51.6918 191.94L53.1486 190.832L55.5921 189.375L58.3548 187.163L59.8116 186.055L61.5005 185.004L62.8412 183.954L64.1819 183.141L65.6387 182.149L66.8634 181.156L68.6684 180.634L70.2993 180.402L70.8797 180.054L71.6052 180.158L72.0115 180.506L73.8165 180.564L74.455 180.1L74.6871 179.108L75.4416 178.527L76.7824 178.353H77.9489L78.4713 178.701L78.2972 179.926L77.4846 180.448L76.9623 180.797L75.9118 181.731L74.3389 182.956L73.5844 183.652L72.9459 184.819L72.7138 186.043L72.4236 186.45L71.553 187.442L70.6243 188.841L69.1676 190.414L67.7688 191.696L66.6602 192.689L66.7183 193.739L67.0085 194.088L67.821 194.958L69.0457 195.951L70.0962 196.589L70.3864 196.067L71.1989 195.544L72.2495 194.906L73.004 194.326L73.6424 193.629L74.0487 193.281L74.3969 193.455L74.6871 193.861L75.4416 194.209L75.906 193.861L76.4283 193.397H77.1248L77.8213 193.281L78.1115 192.387L77.5311 191.691L77.415 190.878L77.5311 190.007L78.0534 188.957L78.866 187.906L80.0326 186.74L80.9612 186.043L81.5416 185.463L82.2961 185.289L82.7604 185.463L83.1667 185.869L83.9212 185.753L84.5597 185.115L84.7918 184.534L84.7338 183.954L84.3855 183.49L84.3275 182.735L84.5597 182.445L84.8499 182.793L85.1401 183.083L85.6624 183.373H86.475L86.9973 182.561L87.5777 181.864L87.2295 181.11L86.533 180.53L86.0107 180.297V179.763L86.3589 179.357L87.2295 178.835L88.338 178.138L89.4466 177.558L90.3172 177.442L91.4838 177.384L92.8825 176.745L94.1072 176.513L95.7381 176.165L97.9494 175.817L99.8125 176.049L101.327 176.397L102.552 176.919L104.067 177.5L105.233 178.608L106.162 179.386L107.091 180.257L107.613 180.837L108.101 181.882ZM80.2879 170.111H78.9995L78.3146 169.682L78.0592 169.084V168.225L77.9315 167.111L77.6762 166.426L77.4614 165.567L77.2467 164.963L77.1596 164.319L77.2873 163.762L77.8909 163.721L78.4481 163.849L78.837 164.319L79.2665 164.917L80.2937 165.991L80.7232 166.635L80.938 167.105L80.8509 167.662L80.7639 168.179L80.6768 169.763L80.2879 170.111ZM104.235 23.602L105.112 24.0663L106.121 23.7935L107.944 23.4685L108.919 22.6269L110.26 22.1103L111.13 22.238L111.873 22.209L112.233 23.1434L112.204 23.8167L112.802 24.1649L113.73 24.5074L114.171 25.0471L114.27 25.7784L114.613 26.6084L115.297 27.1946L116.296 27.5022L117.259 27.7808L117.944 28.5121L118.582 28.8545L118.536 29.6381L117.706 30.3229L117.561 31.5476L118.403 32.3253L119.813 32.3775L120.742 32.3311L125.245 32.1048L126.313 31.4547L126.528 31.3909L127.503 31.7797L128.931 32.2382L130.423 33.2133L131.2 34.2522L131.978 34.3799L132.524 34.3393L133.905 34.2464L134.735 34.2929L135.269 33.7067L135.803 33.3178L136.534 33.2714L137.747 32.9928L138.241 33.0334L138.687 33.2017L139.181 33.1437L139.645 33.2133L140.063 33.2365L140.423 33.1146L141.154 32.9405H141.711L141.961 33.045L142.199 34.7456L143.081 37.5024L143.302 41.0313L141.978 43.1265L139.442 46.1039L136.244 49.1858L135.803 54.1482V57.2301L136.134 61.6411L134.81 63.5158L133.267 66.7138L133.818 69.906L134.59 74.8684L136.354 78.5016L138.78 82.1349L140.876 84.3404L141.978 87.0973L142.971 90.1792L144.404 93.708L145.176 97.0163L146.83 100.104L148.154 102.193L148.485 105.281L148.815 110.569L149.256 113.877L151.572 117.069L154.77 120.598L157.196 123.575L158.85 124.347L160.394 125.229L161.718 126.553L162.048 129.083L160.83 130.406L158.514 130.737H155.977L155.647 133.268L153.772 133.709L152.228 134.812L150.464 136.135L148.589 136.686H146.163L143.957 136.251V139.78L144.288 140.993L145.391 142.647L146.604 143.97L149.471 146.286L153.11 148.602L155.536 151.359L158.624 153.785L161.16 155.218H164.469L165.682 156.542L168.108 158.306L170.644 159.85L173.621 161.504L176.378 162.05L176.93 164.035L176.599 166.014L175.496 167.999L174.724 169.763L175.606 172.079L177.15 173.182L177.922 175.167L178.363 177.152L178.804 180.019L179.246 183.211L180.238 185.086L182.664 187.175L185.09 187.947L186.413 187.065L188.839 187.175L190.494 187.837L192.809 187.947L195.456 187.837L196.338 189.16L196.559 191.145L194.794 192.689L193.692 193.792L192.368 195.666L191.927 197.431L192.479 199.195L193.471 201.07L194.905 202.283L195.572 202.608L194.794 203.856L193.216 203.803L192.508 204.123L192.217 204.645L191.689 205.115L190.848 205.063L190.058 204.958L189.373 204.274L188.451 203.565L185.879 201.023L185.02 200.965L185.108 201.94L187.766 204.512L187.806 205.562L187.47 205.87L187.023 206.166L186.135 206.137L185.63 205.841L184.98 205.133L184.417 204.453L183.947 204.215L183.709 203.357L183.001 202.648L182.2 202.056L181.991 201.435L181.399 201.052L180.569 200.936L180.128 200.553L179.983 200.048L179.716 199.369L179.333 198.899L178.503 198.516H177.586L177.115 198.249L176.912 197.941L176.14 197.86L175.931 198.243L175.635 198.597L175.398 198.893H174.776L174.306 198.539L173.273 198.034L172.06 197.326L171.381 197.117L170.505 196.357L168.671 195.295L167.104 194.465L164.916 193.165L162.756 191.836L161.189 191.006L160.777 190.861L160.679 191.075L159.152 193.583L157.585 196.241L155.635 199.259L154.364 201.685L152.588 204.79L151.996 204.819L147.8 202.132L143.899 199.532L137.66 195.51L133.017 192.526L131.804 191.609L131.067 190.988L129.558 190.396L128.496 189.746L127.904 189.363L128.142 188.771L129.03 187.558L132.193 182.398L132.634 181.777L133.963 181.568L135.118 181.748L136.273 182.34L140.411 185.237L140.405 185.643L140.115 185.678L140.202 186.74L140.672 187.123L141.293 187.448L142.268 188.011L143.685 188.04L144.132 187.848L144.66 187.361L145.014 186.74L145.548 186.595L146.111 186.833V188.812L147.283 189.659L147.84 189.978L148.798 189.903L149.123 189.52L149.744 189.549L150.365 189.961L150.899 190.141L151.932 190.112L152.582 188.69L153.203 187.361L153.586 186.711L153.702 186.026L147.48 182.091L143.273 179.316L144.364 177.308L144.573 175.747L144.753 174.714L144.544 174.493L143.853 174.081L143.296 173.896L142.605 173.205L141.961 172.195L140.591 170.465L139.483 169.653L139.396 168.277L138.641 167.215L137.886 165.793L137.619 164.238L136.952 162.862L136.377 162.462L135.669 161.707L134.828 160.906L133.812 160.262L132.895 159.943L131.328 159.757H129.813L128.658 159.844L127.283 159.798L126.174 160.065L126.261 160.599L126.528 160.999L127.817 161.353L128.606 161.121L130.823 161.272L131.984 161.748L133.052 161.98L133.272 162.636L134.642 163.576L134.921 164.267L134.561 164.859L134.607 165.66L135.182 165.927L135.095 166.194L134.961 166.902L135.983 167.343L136.424 168.498L136.824 169.827L137.573 171.057L137.712 172.137L135.362 172.183L133.365 172.45L130.661 172.497L127.863 171.742L124.845 170.854L122.227 170.367L118.989 169.659L116.505 168.951L114.108 168.15L112.732 167.616L111.043 167.569L110.776 167.97H109.975L109.575 168.457L109.261 168.724V167.749L109.702 164.11L110.056 160.338L110.277 158.782L110.631 156.472L111.339 155.097L113.138 153.402L114.531 151.475L114.827 150.477L114.305 150.14L113.55 150.053L112.488 150.14L111.734 150.581L111.316 151.562L110.347 153.5L108.495 155.114L108.095 155.689L107.741 157.198L107.387 159.682L107.12 160.837L107.033 162.34L106.986 162.926L106.719 163.501L106.696 165.451L106.539 166.327L106.226 167.128L106.092 167.54L104.757 166.745L102.941 165.503L100.898 163.686L98.9477 162.131L97.6592 161.197L96.2372 161.063L95.1287 160.883L94.0201 160.796L92.691 160.842L92.1164 161.684L91.449 161.997L90.1605 162.131L89.8064 162.798L89.673 163.953L89.3189 164.888L89.2144 166.722L89.1912 166.942L89.1796 167.059L88.6108 167.627H84.8383L84.7512 165.985L84.1302 165.277L82.8011 165.056L81.826 164.348L80.7174 163.373L80.1603 162.45L79.5683 161.951L77.7922 161.638L77.1248 162.079L76.2832 162.346L75.5751 163.187L75.2617 164.296L74.9483 165.23L74.9947 166.031L75.1282 166.873L75.61 167.401L75.5577 169.258L74.3737 169.403L73.4857 169.624L71.6458 170.036L70.2935 170.019L68.9296 170.448L66.4745 170.373L66.1611 167.401L65.6271 165.004L65.4936 162.92L65.2731 161.498L64.7391 160.964L64.4315 160.517L63.8569 159.943L63.1024 160.21L62.8354 161.011L62.3943 161.585V163.007L62.6613 164.47L62.7948 167.267L63.1488 171.928L62.4408 172.416L61.5702 172.613L61.1117 172.903L60.1772 172.723L55.7372 167.796L55.4238 165.265L54.9304 163.263L53.2067 163.222L51.065 163.675L50.5891 164.284L50.769 166.855L51.2101 170.053L55.2903 174.534V175.155L53.729 176.473L52.5798 177.587L50.2698 179.363L48.4938 181.093L47.2518 179.583L46.4102 178.562L45.7428 178.428L44.6748 179.229L42.6318 181.005L42.1907 179.943L40.4321 177.848L39.7995 177.459L38.5284 176.136L37.6985 174.964L37.06 174.279L36.8627 173.547L37.594 172.961L38.0815 172.375L38.128 171.789L37.9074 171.156L36.9556 170.123L36.172 168.997H35.2434L34.7559 169.438L34.0246 169.926L33.537 169.879L32.4691 169.183L32.1383 168.521L32.8522 168.208L35.1505 165.666L37.1065 163.216L38.5749 161.893L39.2133 161.255L39.7995 160.523L39.9968 159.2L39.312 158.614L38.5807 158.416L37.8494 158.562L37.2109 158.805L36.2823 159.687L35.255 160.668L34.2277 162.038L33.3977 162.624L32.7129 163.506L32.324 163.994L31.9351 164.336H31.3489L30.6641 163.698L29.9792 162.868L29.2479 162.23L29.1028 161.498L29.5439 160.517L30.0837 159.978L31.111 159.095L32.2369 157.923L33.9027 155.752L33.9955 155.062L33.3513 154.371L32.5213 153.5L31.6043 153.083L30.4841 153.889L29.155 155.189L27.2978 156.902L25.3883 158.933L24.4712 158.149L23.4091 157.14L22.347 156.495L21.4706 155.526L20.275 154.743L16.5256 157.975L15.9858 158.515L16.7694 159.154L19.7468 161.789L19.9383 162.439L24.9355 171.487L25.1851 172.903L28.9055 179.462L30.8614 183.211L32.2776 185.904L32.7709 186.827L32.8696 188.197L32.4285 189.125L31.3663 189.543L29.5903 189.81L21.3719 189.955L13.5424 189.822L9.77559 189.566L6.89683 188.516L4.19798 186.775L2.38715 185.161L1.35985 183.054L1.11608 180.756L1 178.347L1.24377 174.824L1.81836 173.002L1.88801 172.474L2.57287 170.999L3.17068 169.113L3.76849 167.128L4.64489 165.103L5.42842 162.984L6.25839 160.68L7.04193 158.289L7.77323 156.588L8.21433 154.87L12.6428 143.204L14.5523 137.917L16.1658 134.098L16.2644 132.856L17.4368 130.018L18.023 127.864L18.7543 125.955L18.4583 124.782L17.9708 122.972L18.1681 121.405L18.8066 120.522L19.5901 119.983L20.7683 119.031L21.5983 119.1L21.8943 117.684L22.7068 115.984L23.3162 114.184L23.5426 113.703L23.8502 113.134L24.6686 112.629L25.3941 111.927L26.4098 110.156L27.0772 108.984L27.7505 107.701L28.476 106.413L29.422 104.799L30.0372 103.348L30.9891 101.509L31.6565 100.504L31.7668 99.779L32.2718 99.1638L32.8289 99.2218H33.4674L33.5022 98.6066L34.5933 98.1945L35.2318 97.8811L35.6903 97.7998V97.1208L36.1604 96.6797L36.5261 95.1764L37.0832 94.3407L37.3618 93.2263L37.9771 92.1642L39.6544 89.0358L39.7995 88.3742L39.8285 87.196L40.2058 86.633L40.5946 86.2441L41.2099 86.0758L41.8831 85.9713L42.272 85.5825L42.3184 84.8976L42.7711 84.236L42.9046 83.673L43.7346 83.5743L44.2163 82.7269L44.1235 82.1581L44.2221 81.0844L44.4949 80.5563L44.4659 79.9584L44.5123 74.8684L44.8083 74.2822L44.9534 73.0575L45.2204 73.0227V72.2392L45.4409 71.4556L45.5396 70.6083L45.6847 69.877L45.8821 69.7319L45.8356 68.6059L45.5396 68.2635L45.2958 67.5786L45.3423 66.5977L45.7834 66.3539L46.6133 66.1566L47.2518 65.0829L47.6755 64.8972L47.7858 64.2297L47.7335 63.2837L47.5014 62.7497L47.6465 62.1635L48.9698 62.0184L49.6082 61.8733L49.8404 62.6975L49.2193 62.9006L49.022 63.9743L49.318 64.5605L50.3917 64.5141L50.9199 63.8989L50.9779 63.3417L51.0418 62.8484L51.7441 62.8542L52.1329 63.2953L52.7714 63.0515L53.2125 62.6626L53.671 62.1519L53.7058 61.7862L53.5085 61.1478L53.2125 60.4165L52.9687 59.6852L52.4812 59.4414L52.6263 59.0003L53.166 58.803L55.1742 58.6057L55.1278 57.7235L54.6402 57.5784L54.1527 57.2359L54.2281 56.4872L54.1701 55.93L54.2281 55.3728L54.2456 54.8911L55.1278 54.8447L55.4528 54.2585L55.7314 53.9277L55.4238 53.4633L54.9362 53.1209L55.18 52.8249L55.5689 52.8713L55.9113 53.1151L56.9386 53.0164L57.0837 51.9427L57.4726 50.6716L56.985 50.1841L56.1783 50.631V49.4064L56.6426 49.1104L56.6252 47.9554L56.7877 47.346L57.2752 46.9571L58.2561 46.812L58.645 46.3245L59.0222 45.7789L59.2834 45.2449L59.3298 44.6065L59.7709 44.3105L60.2585 43.7707L60.7982 43.8172L61.338 44.3047L62.3189 43.9623L62.8586 43.8636L63.5899 43.2774L64.1007 42.4184L64.5476 41.6929L65.3485 41.3215L65.8883 41.2228L66.3758 41.3215L67.1594 41.7103L68.384 42.0063V40.5263L69.3649 40.3812L69.9047 40.7701L70.8855 40.8165L71.228 39.7892L71.5298 39.2204L72.2553 39.0521L72.8937 39.2959L73.8746 38.907H74.9483L75.8479 38.3382L77.3395 37.6185L78.6396 36.5158L80.0674 35.3434L82.1452 33.5906L83.1203 32.2266L84.4204 31.6404L85.6914 31.4431L86.2776 30.172L87.1598 29.9283L87.1134 28.6572L87.8041 27.6821L89.7542 26.3182L91.3735 25.4302L93.0857 24.0605L94.6353 22.8823L95.9993 22.5572L97.7347 22.3019L99.9866 21.6634L101.258 21.0772L103.608 20.9321L104.194 21.3732L104.148 22.5456L104.235 23.602Z" fill="#F0F0F0" stroke="#D2D4D5" stroke-width="0.5"/>
<circle cx="358.36" cy="102.36" r="10.2244" fill="#55B9F1" stroke="white" stroke-width="2.2721"/>
<rect x="287.354" y="51.1375" width="141.293" height="29.2348" rx="4.82322" fill="#4498AF"/>
<path d="M299.714 69.7549H297.3L300.435 60.4608H303.426L306.562 69.7549H304.148L301.965 62.8025H301.892L299.714 69.7549ZM299.392 66.0972H304.438V67.8035H299.392V66.0972ZM307.575 69.7549V62.7843H309.794V69.7549H307.575ZM308.687 61.972C308.375 61.972 308.108 61.8691 307.884 61.6634C307.66 61.4546 307.548 61.2035 307.548 60.9101C307.548 60.6196 307.66 60.3715 307.884 60.1658C308.108 59.957 308.375 59.8527 308.687 59.8527C309.002 59.8527 309.269 59.957 309.49 60.1658C309.714 60.3715 309.826 60.6196 309.826 60.9101C309.826 61.2035 309.714 61.4546 309.49 61.6634C309.269 61.8691 309.002 61.972 308.687 61.972ZM311.207 69.7549V62.7843H313.362V64.055H313.435C313.562 63.5951 313.769 63.2533 314.057 63.0294C314.344 62.8025 314.678 62.689 315.06 62.689C315.162 62.689 315.268 62.6966 315.377 62.7117C315.486 62.7238 315.588 62.7435 315.681 62.7707V64.6994C315.575 64.6631 315.436 64.6344 315.264 64.6132C315.094 64.592 314.943 64.5814 314.81 64.5814C314.547 64.5814 314.309 64.6404 314.098 64.7584C313.889 64.8734 313.724 65.0353 313.603 65.244C313.485 65.4497 313.426 65.6918 313.426 65.9701V69.7549H311.207ZM316.586 72.3689V62.7843H318.782V63.9779H318.85C318.941 63.7661 319.069 63.5619 319.236 63.3652C319.405 63.1686 319.62 63.0082 319.88 62.8842C320.144 62.7571 320.458 62.6936 320.824 62.6936C321.308 62.6936 321.761 62.8206 322.181 63.0748C322.605 63.3289 322.947 63.7207 323.207 64.2502C323.467 64.7796 323.597 65.4543 323.597 66.2742C323.597 67.0638 323.471 67.7249 323.22 68.2573C322.972 68.7898 322.636 69.1892 322.213 69.4554C321.792 69.7217 321.325 69.8548 320.811 69.8548C320.46 69.8548 320.156 69.7973 319.898 69.6823C319.641 69.5674 319.425 69.4161 319.249 69.2285C319.077 69.0409 318.944 68.8397 318.85 68.6249H318.805V72.3689H316.586ZM318.759 66.2696C318.759 66.6448 318.809 66.9715 318.909 67.2499C319.012 67.5282 319.159 67.7445 319.349 67.8988C319.543 68.0501 319.774 68.1257 320.044 68.1257C320.316 68.1257 320.547 68.0501 320.738 67.8988C320.929 67.7445 321.072 67.5282 321.169 67.2499C321.269 66.9715 321.319 66.6448 321.319 66.2696C321.319 65.8945 321.269 65.5692 321.169 65.2939C321.072 65.0186 320.929 64.8053 320.738 64.654C320.55 64.5028 320.319 64.4271 320.044 64.4271C319.771 64.4271 319.54 64.5013 319.349 64.6495C319.159 64.7978 319.012 65.0095 318.909 65.2849C318.809 65.5602 318.759 65.8884 318.759 66.2696ZM328.014 69.8866C327.282 69.8866 326.652 69.7368 326.126 69.4373C325.603 69.1347 325.199 68.7142 324.914 68.1757C324.633 67.6341 324.492 67.0063 324.492 66.2923C324.492 65.5753 324.633 64.9475 324.914 64.409C325.199 63.8674 325.603 63.4469 326.126 63.1474C326.652 62.8448 327.282 62.6936 328.014 62.6936C328.746 62.6936 329.374 62.8448 329.897 63.1474C330.424 63.4469 330.827 63.8674 331.109 64.409C331.393 64.9475 331.535 65.5753 331.535 66.2923C331.535 67.0063 331.393 67.6341 331.109 68.1757C330.827 68.7142 330.424 69.1347 329.897 69.4373C329.374 69.7368 328.746 69.8866 328.014 69.8866ZM328.027 68.212C328.294 68.212 328.519 68.1303 328.704 67.9669C328.888 67.8035 329.029 67.5766 329.126 67.2862C329.226 66.9957 329.275 66.6599 329.275 66.2787C329.275 65.8915 329.226 65.5526 329.126 65.2622C329.029 64.9717 328.888 64.7448 328.704 64.5814C328.519 64.4181 328.294 64.3364 328.027 64.3364C327.752 64.3364 327.519 64.4181 327.329 64.5814C327.141 64.7448 326.997 64.9717 326.897 65.2622C326.801 65.5526 326.752 65.8915 326.752 66.2787C326.752 66.6599 326.801 66.9957 326.897 67.2862C326.997 67.5766 327.141 67.8035 327.329 67.9669C327.519 68.1303 327.752 68.212 328.027 68.212ZM332.672 69.7549V62.7843H334.828V64.055H334.9C335.028 63.5951 335.235 63.2533 335.522 63.0294C335.81 62.8025 336.144 62.689 336.525 62.689C336.628 62.689 336.734 62.6966 336.843 62.7117C336.952 62.7238 337.053 62.7435 337.147 62.7707V64.6994C337.041 64.6631 336.902 64.6344 336.729 64.6132C336.56 64.592 336.409 64.5814 336.276 64.5814C336.012 64.5814 335.775 64.6404 335.563 64.7584C335.354 64.8734 335.189 65.0353 335.068 65.244C334.95 65.4497 334.891 65.6918 334.891 65.9701V69.7549H332.672ZM342.31 62.7843V64.4181H337.913V62.7843H342.31ZM338.834 61.1143H341.053V67.563C341.053 67.6992 341.074 67.8096 341.117 67.8943C341.162 67.976 341.227 68.035 341.312 68.0713C341.396 68.1046 341.498 68.1212 341.616 68.1212C341.701 68.1212 341.79 68.1136 341.884 68.0985C341.98 68.0804 342.053 68.0652 342.101 68.0531L342.437 69.6551C342.331 69.6854 342.182 69.7232 341.988 69.7686C341.797 69.8139 341.569 69.8427 341.303 69.8548C340.782 69.879 340.336 69.8185 339.964 69.6733C339.595 69.525 339.312 69.2951 339.115 68.9835C338.922 68.6718 338.828 68.28 338.834 67.8081V61.1143ZM354.624 63.8281H352.355C352.325 63.5951 352.263 63.3849 352.169 63.1973C352.076 63.0097 351.951 62.8494 351.797 62.7163C351.643 62.5831 351.46 62.4818 351.248 62.4122C351.039 62.3396 350.808 62.3033 350.554 62.3033C350.103 62.3033 349.714 62.4137 349.387 62.6346C349.064 62.8554 348.814 63.1746 348.639 63.5921C348.466 64.0096 348.38 64.5149 348.38 65.1079C348.38 65.7251 348.468 66.2424 348.643 66.6599C348.822 67.0744 349.071 67.3875 349.392 67.5993C349.716 67.8081 350.098 67.9124 350.54 67.9124C350.788 67.9124 351.014 67.8807 351.216 67.8171C351.422 67.7536 351.602 67.6613 351.756 67.5403C351.914 67.4163 352.042 67.2665 352.142 67.091C352.245 66.9125 352.316 66.7113 352.355 66.4875L354.624 66.5011C354.585 66.9125 354.466 67.3179 354.266 67.7173C354.069 68.1167 353.799 68.4812 353.454 68.811C353.109 69.1378 352.688 69.3979 352.192 69.5916C351.699 69.7852 351.133 69.882 350.495 69.882C349.654 69.882 348.9 69.6975 348.235 69.3284C347.572 68.9562 347.049 68.4147 346.665 67.7037C346.28 66.9927 346.088 66.1274 346.088 65.1079C346.088 64.0853 346.283 63.2185 346.674 62.5075C347.064 61.7965 347.592 61.2565 348.257 60.8874C348.923 60.5183 349.669 60.3337 350.495 60.3337C351.057 60.3337 351.578 60.4124 352.056 60.5697C352.534 60.724 352.954 60.9509 353.317 61.2504C353.681 61.5469 353.976 61.9115 354.202 62.3441C354.429 62.7768 354.57 63.2714 354.624 63.8281ZM357.875 69.8729C357.43 69.8729 357.035 69.7988 356.69 69.6506C356.349 69.4993 356.078 69.2724 355.878 68.9698C355.681 68.6643 355.583 68.2816 355.583 67.8217C355.583 67.4344 355.651 67.1077 355.787 66.8414C355.924 66.5752 356.111 66.3589 356.35 66.1925C356.589 66.0261 356.864 65.9005 357.176 65.8158C357.488 65.7281 357.82 65.6691 358.174 65.6388C358.571 65.6025 358.89 65.5647 359.132 65.5254C359.374 65.483 359.55 65.424 359.658 65.3484C359.77 65.2697 359.826 65.1593 359.826 65.0171V64.9944C359.826 64.7615 359.746 64.5814 359.586 64.4544C359.425 64.3273 359.209 64.2638 358.937 64.2638C358.643 64.2638 358.407 64.3273 358.229 64.4544C358.05 64.5814 357.937 64.7569 357.889 64.9808L355.842 64.9082C355.902 64.4846 356.058 64.1064 356.309 63.7736C356.563 63.4378 356.911 63.1746 357.353 62.984C357.798 62.7904 358.332 62.6936 358.955 62.6936C359.4 62.6936 359.81 62.7465 360.185 62.8524C360.56 62.9553 360.887 63.1065 361.165 63.3062C361.443 63.5029 361.658 63.7449 361.81 64.0323C361.964 64.3197 362.041 64.648 362.041 65.0171V69.7549H359.953V68.7838H359.899C359.775 69.0198 359.616 69.2194 359.422 69.3828C359.232 69.5462 359.006 69.6687 358.746 69.7504C358.489 69.8321 358.199 69.8729 357.875 69.8729ZM358.56 68.4207C358.799 68.4207 359.014 68.3723 359.205 68.2755C359.398 68.1787 359.553 68.0456 359.668 67.8761C359.782 67.7037 359.84 67.504 359.84 67.2771V66.6145C359.776 66.6478 359.699 66.6781 359.609 66.7053C359.521 66.7325 359.424 66.7582 359.318 66.7824C359.212 66.8066 359.103 66.8278 358.991 66.846C358.879 66.8641 358.772 66.8808 358.669 66.8959C358.46 66.9292 358.282 66.9806 358.134 67.0502C357.988 67.1198 357.876 67.2105 357.798 67.3225C357.722 67.4314 357.684 67.5615 357.684 67.7128C357.684 67.9427 357.766 68.1182 357.929 68.2392C358.096 68.3602 358.306 68.4207 358.56 68.4207ZM363.398 69.7549V62.7843H365.554V64.055H365.626C365.753 63.5951 365.96 63.2533 366.248 63.0294C366.535 62.8025 366.87 62.689 367.251 62.689C367.354 62.689 367.46 62.6966 367.568 62.7117C367.677 62.7238 367.779 62.7435 367.873 62.7707V64.6994C367.767 64.6631 367.627 64.6344 367.455 64.6132C367.286 64.592 367.134 64.5814 367.001 64.5814C366.738 64.5814 366.5 64.6404 366.289 64.7584C366.08 64.8734 365.915 65.0353 365.794 65.244C365.676 65.4497 365.617 65.6918 365.617 65.9701V69.7549H363.398ZM371.664 72.5141C371.002 72.5141 370.434 72.4219 369.962 72.2373C369.49 72.0528 369.12 71.8001 368.85 71.4794C368.581 71.1587 368.419 70.7957 368.365 70.3903L370.466 70.2723C370.505 70.4145 370.578 70.5385 370.684 70.6444C370.793 70.7503 370.933 70.832 371.106 70.8895C371.281 70.947 371.487 70.9757 371.723 70.9757C372.095 70.9757 372.402 70.8849 372.644 70.7034C372.889 70.5249 373.012 70.2118 373.012 69.764V68.5387H372.935C372.847 68.7535 372.714 68.9456 372.535 69.1151C372.357 69.2845 372.135 69.4176 371.868 69.5144C371.605 69.6112 371.303 69.6596 370.961 69.6596C370.452 69.6596 369.987 69.5417 369.563 69.3057C369.142 69.0667 368.805 68.6976 368.551 68.1984C368.3 67.6961 368.174 67.0502 368.174 66.2606C368.174 65.4467 368.304 64.7766 368.565 64.2502C368.825 63.7207 369.165 63.3289 369.586 63.0748C370.009 62.8206 370.465 62.6936 370.952 62.6936C371.318 62.6936 371.631 62.7571 371.891 62.8842C372.154 63.0082 372.371 63.1686 372.54 63.3652C372.709 63.5619 372.838 63.7661 372.926 63.9779H372.989V62.7843H375.199V69.7822C375.199 70.3721 375.051 70.8698 374.755 71.2752C374.458 71.6806 374.044 71.9877 373.511 72.1965C372.979 72.4083 372.363 72.5141 371.664 72.5141ZM371.732 68.0441C372.001 68.0441 372.231 67.973 372.422 67.8308C372.613 67.6886 372.759 67.4843 372.862 67.2181C372.965 66.9519 373.017 66.6327 373.017 66.2606C373.017 65.8824 372.965 65.5571 372.862 65.2849C372.762 65.0095 372.616 64.7978 372.422 64.6495C372.231 64.5013 372.001 64.4271 371.732 64.4271C371.457 64.4271 371.224 64.5028 371.033 64.654C370.843 64.8053 370.698 65.0186 370.598 65.2939C370.501 65.5662 370.452 65.8884 370.452 66.2606C370.452 66.6327 370.502 66.9519 370.602 67.2181C370.702 67.4843 370.846 67.6886 371.033 67.8308C371.224 67.973 371.457 68.0441 371.732 68.0441ZM379.868 69.8866C379.136 69.8866 378.507 69.7368 377.98 69.4373C377.457 69.1347 377.053 68.7142 376.768 68.1757C376.487 67.6341 376.346 67.0063 376.346 66.2923C376.346 65.5753 376.487 64.9475 376.768 64.409C377.053 63.8674 377.457 63.4469 377.98 63.1474C378.507 62.8448 379.136 62.6936 379.868 62.6936C380.6 62.6936 381.228 62.8448 381.751 63.1474C382.278 63.4469 382.682 63.8674 382.963 64.409C383.247 64.9475 383.39 65.5753 383.39 66.2923C383.39 67.0063 383.247 67.6341 382.963 68.1757C382.682 68.7142 382.278 69.1347 381.751 69.4373C381.228 69.7368 380.6 69.8866 379.868 69.8866ZM379.882 68.212C380.148 68.212 380.373 68.1303 380.558 67.9669C380.742 67.8035 380.883 67.5766 380.98 67.2862C381.08 66.9957 381.13 66.6599 381.13 66.2787C381.13 65.8915 381.08 65.5526 380.98 65.2622C380.883 64.9717 380.742 64.7448 380.558 64.5814C380.373 64.4181 380.148 64.3364 379.882 64.3364C379.606 64.3364 379.373 64.4181 379.183 64.5814C378.995 64.7448 378.851 64.9717 378.752 65.2622C378.655 65.5526 378.606 65.8915 378.606 66.2787C378.606 66.6599 378.655 66.9957 378.752 67.2862C378.851 67.5766 378.995 67.8035 379.183 67.9669C379.373 68.1303 379.606 68.212 379.882 68.212ZM387.272 69.7549V60.4608H391.111C391.807 60.4608 392.408 60.5863 392.913 60.8375C393.421 61.0855 393.813 61.4425 394.088 61.9085C394.364 62.3714 394.501 62.9205 394.501 63.5558C394.501 64.2002 394.361 64.7478 394.079 65.1986C393.798 65.6464 393.399 65.9883 392.881 66.2243C392.364 66.4572 391.751 66.5737 391.043 66.5737H388.615V64.8038H390.626C390.965 64.8038 391.247 64.7599 391.474 64.6722C391.704 64.5814 391.878 64.4453 391.996 64.2638C392.114 64.0792 392.173 63.8432 392.173 63.5558C392.173 63.2684 392.114 63.0309 391.996 62.8433C391.878 62.6527 391.704 62.5105 391.474 62.4167C391.244 62.3199 390.962 62.2715 390.626 62.2715H389.518V69.7549H387.272ZM392.505 65.5072L394.819 69.7549H392.368L390.099 65.5072H392.505ZM398.85 69.8866C398.118 69.8866 397.489 69.7368 396.962 69.4373C396.439 69.1347 396.035 68.7142 395.75 68.1757C395.469 67.6341 395.328 67.0063 395.328 66.2923C395.328 65.5753 395.469 64.9475 395.75 64.409C396.035 63.8674 396.439 63.4469 396.962 63.1474C397.489 62.8448 398.118 62.6936 398.85 62.6936C399.582 62.6936 400.21 62.8448 400.733 63.1474C401.26 63.4469 401.664 63.8674 401.945 64.409C402.229 64.9475 402.372 65.5753 402.372 66.2923C402.372 67.0063 402.229 67.6341 401.945 68.1757C401.664 68.7142 401.26 69.1347 400.733 69.4373C400.21 69.7368 399.582 69.8866 398.85 69.8866ZM398.864 68.212C399.13 68.212 399.355 68.1303 399.54 67.9669C399.724 67.8035 399.865 67.5766 399.962 67.2862C400.062 66.9957 400.112 66.6599 400.112 66.2787C400.112 65.8915 400.062 65.5526 399.962 65.2622C399.865 64.9717 399.724 64.7448 399.54 64.5814C399.355 64.4181 399.13 64.3364 398.864 64.3364C398.588 64.3364 398.355 64.4181 398.165 64.5814C397.977 64.7448 397.833 64.9717 397.734 65.2622C397.637 65.5526 397.588 65.8915 397.588 66.2787C397.588 66.6599 397.637 66.9957 397.734 67.2862C397.833 67.5766 397.977 67.8035 398.165 67.9669C398.355 68.1303 398.588 68.212 398.864 68.212ZM405.473 69.8729C405.029 69.8729 404.634 69.7988 404.289 69.6506C403.947 69.4993 403.676 69.2724 403.477 68.9698C403.28 68.6643 403.182 68.2816 403.182 67.8217C403.182 67.4344 403.25 67.1077 403.386 66.8414C403.522 66.5752 403.71 66.3589 403.949 66.1925C404.188 66.0261 404.463 65.9005 404.775 65.8158C405.086 65.7281 405.419 65.6691 405.773 65.6388C406.169 65.6025 406.489 65.5647 406.731 65.5254C406.973 65.483 407.148 65.424 407.257 65.3484C407.369 65.2697 407.425 65.1593 407.425 65.0171V64.9944C407.425 64.7615 407.345 64.5814 407.184 64.4544C407.024 64.3273 406.808 64.2638 406.535 64.2638C406.242 64.2638 406.006 64.3273 405.827 64.4544C405.649 64.5814 405.535 64.7569 405.487 64.9808L403.44 64.9082C403.501 64.4846 403.657 64.1064 403.908 63.7736C404.162 63.4378 404.51 63.1746 404.952 62.984C405.396 62.7904 405.93 62.6936 406.554 62.6936C406.998 62.6936 407.408 62.7465 407.783 62.8524C408.159 62.9553 408.485 63.1065 408.764 63.3062C409.042 63.5029 409.257 63.7449 409.408 64.0323C409.562 64.3197 409.64 64.648 409.64 65.0171V69.7549H407.552V68.7838H407.497C407.373 69.0198 407.215 69.2194 407.021 69.3828C406.83 69.5462 406.605 69.6687 406.345 69.7504C406.088 69.8321 405.797 69.8729 405.473 69.8729ZM406.159 68.4207C406.398 68.4207 406.613 68.3723 406.803 68.2755C406.997 68.1787 407.151 68.0456 407.266 67.8761C407.381 67.7037 407.438 67.504 407.438 67.2771V66.6145C407.375 66.6478 407.298 66.6781 407.207 66.7053C407.119 66.7325 407.022 66.7582 406.917 66.7824C406.811 66.8066 406.702 66.8278 406.59 66.846C406.478 66.8641 406.371 66.8808 406.268 66.8959C406.059 66.9292 405.88 66.9806 405.732 67.0502C405.587 67.1198 405.475 67.2105 405.396 67.3225C405.321 67.4314 405.283 67.5615 405.283 67.7128C405.283 67.9427 405.365 68.1182 405.528 68.2392C405.694 68.3602 405.905 68.4207 406.159 68.4207ZM413.542 69.8548C413.028 69.8548 412.561 69.7217 412.14 69.4554C411.719 69.1892 411.384 68.7898 411.133 68.2573C410.881 67.7249 410.756 67.0638 410.756 66.2742C410.756 65.4543 410.886 64.7796 411.146 64.2502C411.406 63.7207 411.747 63.3289 412.167 63.0748C412.591 62.8206 413.046 62.6936 413.533 62.6936C413.899 62.6936 414.212 62.7571 414.473 62.8842C414.733 63.0082 414.948 63.1686 415.117 63.3652C415.286 63.5619 415.415 63.7661 415.503 63.9779H415.548V60.4608H417.767V69.7549H415.571V68.6249H415.503C415.409 68.8397 415.276 69.0409 415.103 69.2285C414.931 69.4161 414.715 69.5674 414.454 69.6823C414.197 69.7973 413.893 69.8548 413.542 69.8548ZM414.314 68.1257C414.583 68.1257 414.813 68.0501 415.004 67.8988C415.194 67.7445 415.341 67.5282 415.444 67.2499C415.547 66.9715 415.598 66.6448 415.598 66.2696C415.598 65.8884 415.547 65.5602 415.444 65.2849C415.344 65.0095 415.197 64.7978 415.004 64.6495C414.813 64.5013 414.583 64.4271 414.314 64.4271C414.038 64.4271 413.806 64.5028 413.615 64.654C413.424 64.8053 413.279 65.0186 413.179 65.2939C413.082 65.5692 413.034 65.8945 413.034 66.2696C413.034 66.6448 413.084 66.9715 413.184 67.2499C413.284 67.5282 413.427 67.7445 413.615 67.8988C413.806 68.0501 414.038 68.1257 414.314 68.1257Z" fill="white"/>
<path fill-rule="evenodd" clip-rule="evenodd" d="M364.49 80.3723H351.51L358 86.8625L364.49 80.3723Z" fill="#4498AF"/>
<circle cx="240.36" cy="160.36" r="10.2244" fill="#55B9F1" stroke="white" stroke-width="2.2721"/>
<rect x="180.854" y="109.138" width="118.293" height="29.2348" rx="4.82322" fill="#4498AF"/>
<path d="M191.203 127.755V118.461H193.45V122.391H193.572L196.645 118.461H199.29L195.996 122.609L199.349 127.755H196.663L194.348 124.102L193.45 125.236V127.755H191.203ZM202.142 127.873C201.697 127.873 201.302 127.799 200.957 127.651C200.615 127.499 200.344 127.272 200.145 126.97C199.948 126.664 199.85 126.282 199.85 125.822C199.85 125.434 199.918 125.108 200.054 124.841C200.19 124.575 200.378 124.359 200.617 124.192C200.856 124.026 201.131 123.9 201.443 123.816C201.754 123.728 202.087 123.669 202.441 123.639C202.837 123.602 203.157 123.565 203.399 123.525C203.641 123.483 203.816 123.424 203.925 123.348C204.037 123.27 204.093 123.159 204.093 123.017V122.994C204.093 122.761 204.013 122.581 203.852 122.454C203.692 122.327 203.476 122.264 203.203 122.264C202.91 122.264 202.674 122.327 202.496 122.454C202.317 122.581 202.204 122.757 202.155 122.981L200.108 122.908C200.169 122.485 200.325 122.106 200.576 121.774C200.83 121.438 201.178 121.175 201.62 120.984C202.064 120.79 202.598 120.694 203.222 120.694C203.666 120.694 204.076 120.746 204.451 120.852C204.827 120.955 205.153 121.107 205.432 121.306C205.71 121.503 205.925 121.745 206.076 122.032C206.23 122.32 206.308 122.648 206.308 123.017V127.755H204.22V126.784H204.166C204.042 127.02 203.883 127.219 203.689 127.383C203.498 127.546 203.273 127.669 203.013 127.75C202.756 127.832 202.465 127.873 202.142 127.873ZM202.827 126.421C203.066 126.421 203.281 126.372 203.471 126.275C203.665 126.179 203.819 126.046 203.934 125.876C204.049 125.704 204.107 125.504 204.107 125.277V124.615C204.043 124.648 203.966 124.678 203.875 124.705C203.787 124.732 203.691 124.758 203.585 124.782C203.479 124.807 203.37 124.828 203.258 124.846C203.146 124.864 203.039 124.881 202.936 124.896C202.727 124.929 202.548 124.981 202.4 125.05C202.255 125.12 202.143 125.211 202.064 125.322C201.989 125.431 201.951 125.561 201.951 125.713C201.951 125.943 202.033 126.118 202.196 126.239C202.362 126.36 202.573 126.421 202.827 126.421ZM209.884 118.461V127.755H207.664V118.461H209.884ZM213.515 118.461V127.755H211.296V118.461H213.515ZM216.893 127.873C216.448 127.873 216.053 127.799 215.708 127.651C215.366 127.499 215.096 127.272 214.896 126.97C214.699 126.664 214.601 126.282 214.601 125.822C214.601 125.434 214.669 125.108 214.805 124.841C214.941 124.575 215.129 124.359 215.368 124.192C215.607 124.026 215.882 123.9 216.194 123.816C216.506 123.728 216.838 123.669 217.192 123.639C217.589 123.602 217.908 123.565 218.15 123.525C218.392 123.483 218.567 123.424 218.676 123.348C218.788 123.27 218.844 123.159 218.844 123.017V122.994C218.844 122.761 218.764 122.581 218.604 122.454C218.443 122.327 218.227 122.264 217.955 122.264C217.661 122.264 217.425 122.327 217.247 122.454C217.068 122.581 216.955 122.757 216.906 122.981L214.86 122.908C214.92 122.485 215.076 122.106 215.327 121.774C215.581 121.438 215.929 121.175 216.371 120.984C216.816 120.79 217.35 120.694 217.973 120.694C218.418 120.694 218.828 120.746 219.203 120.852C219.578 120.955 219.905 121.107 220.183 121.306C220.461 121.503 220.676 121.745 220.827 122.032C220.982 122.32 221.059 122.648 221.059 123.017V127.755H218.971V126.784H218.917C218.793 127.02 218.634 127.219 218.44 127.383C218.25 127.546 218.024 127.669 217.764 127.75C217.507 127.832 217.217 127.873 216.893 127.873ZM217.578 126.421C217.817 126.421 218.032 126.372 218.223 126.275C218.416 126.179 218.57 126.046 218.685 125.876C218.8 125.704 218.858 125.504 218.858 125.277V124.615C218.794 124.648 218.717 124.678 218.626 124.705C218.539 124.732 218.442 124.758 218.336 124.782C218.23 124.807 218.121 124.828 218.009 124.846C217.897 124.864 217.79 124.881 217.687 124.896C217.478 124.929 217.3 124.981 217.152 125.05C217.006 125.12 216.894 125.211 216.816 125.322C216.74 125.431 216.702 125.561 216.702 125.713C216.702 125.943 216.784 126.118 216.947 126.239C217.114 126.36 217.324 126.421 217.578 126.421ZM224.635 123.779V127.755H222.416V120.784H224.526V122.064H224.603C224.757 121.637 225.021 121.303 225.393 121.061C225.765 120.816 226.208 120.694 226.722 120.694C227.213 120.694 227.638 120.804 227.998 121.025C228.361 121.243 228.642 121.548 228.842 121.942C229.045 122.332 229.144 122.789 229.141 123.312V127.755H226.922V123.748C226.925 123.36 226.827 123.058 226.627 122.84C226.431 122.622 226.157 122.513 225.806 122.513C225.573 122.513 225.367 122.565 225.189 122.668C225.013 122.767 224.877 122.911 224.78 123.099C224.686 123.286 224.638 123.513 224.635 123.779ZM233.765 130.514C233.102 130.514 232.535 130.422 232.063 130.237C231.591 130.053 231.22 129.8 230.951 129.479C230.682 129.159 230.52 128.796 230.465 128.39L232.567 128.272C232.606 128.414 232.678 128.539 232.784 128.644C232.893 128.75 233.034 128.832 233.206 128.889C233.382 128.947 233.588 128.976 233.824 128.976C234.196 128.976 234.503 128.885 234.745 128.703C234.99 128.525 235.112 128.212 235.112 127.764V126.539H235.035C234.948 126.753 234.814 126.946 234.636 127.115C234.457 127.284 234.235 127.418 233.969 127.514C233.706 127.611 233.403 127.66 233.061 127.66C232.553 127.66 232.087 127.542 231.663 127.306C231.243 127.067 230.906 126.698 230.651 126.198C230.4 125.696 230.275 125.05 230.275 124.261C230.275 123.447 230.405 122.777 230.665 122.25C230.925 121.721 231.266 121.329 231.686 121.075C232.11 120.821 232.565 120.694 233.052 120.694C233.418 120.694 233.731 120.757 233.991 120.884C234.255 121.008 234.471 121.169 234.64 121.365C234.81 121.562 234.938 121.766 235.026 121.978H235.09V120.784H237.3V127.782C237.3 128.372 237.152 128.87 236.855 129.275C236.559 129.681 236.144 129.988 235.612 130.196C235.079 130.408 234.463 130.514 233.765 130.514ZM233.833 126.044C234.102 126.044 234.332 125.973 234.522 125.831C234.713 125.689 234.86 125.484 234.963 125.218C235.066 124.952 235.117 124.633 235.117 124.261C235.117 123.882 235.066 123.557 234.963 123.285C234.863 123.01 234.716 122.798 234.522 122.649C234.332 122.501 234.102 122.427 233.833 122.427C233.557 122.427 233.324 122.503 233.134 122.654C232.943 122.805 232.798 123.019 232.698 123.294C232.601 123.566 232.553 123.888 232.553 124.261C232.553 124.633 232.603 124.952 232.703 125.218C232.802 125.484 232.946 125.689 233.134 125.831C233.324 125.973 233.557 126.044 233.833 126.044ZM243.471 127.755H241.056L244.192 118.461H247.183L250.319 127.755H247.904L245.722 120.802H245.649L243.471 127.755ZM243.148 124.097H248.195V125.804H243.148V124.097ZM257.208 120.784L254.816 127.755H252.275L249.888 120.784H252.225L253.509 125.586H253.582L254.87 120.784H257.208ZM261.092 127.887C260.363 127.887 259.734 127.743 259.204 127.455C258.678 127.165 258.273 126.752 257.988 126.216C257.707 125.678 257.566 125.038 257.566 124.297C257.566 123.577 257.708 122.947 257.993 122.409C258.277 121.867 258.678 121.447 259.195 121.147C259.713 120.845 260.322 120.694 261.024 120.694C261.52 120.694 261.974 120.771 262.386 120.925C262.797 121.079 263.153 121.308 263.452 121.61C263.752 121.913 263.985 122.286 264.151 122.731C264.317 123.173 264.401 123.68 264.401 124.251V124.805H258.342V123.516H262.336C262.333 123.28 262.277 123.07 262.168 122.885C262.059 122.701 261.909 122.557 261.719 122.454C261.531 122.348 261.315 122.296 261.07 122.296C260.822 122.296 260.599 122.351 260.402 122.463C260.206 122.572 260.05 122.722 259.935 122.913C259.82 123.1 259.76 123.314 259.754 123.553V124.864C259.754 125.148 259.809 125.398 259.921 125.613C260.033 125.825 260.192 125.99 260.398 126.108C260.604 126.226 260.849 126.285 261.133 126.285C261.33 126.285 261.508 126.257 261.669 126.203C261.829 126.148 261.967 126.068 262.082 125.962C262.197 125.856 262.283 125.726 262.34 125.572L264.378 125.631C264.293 126.088 264.107 126.486 263.82 126.825C263.535 127.16 263.162 127.422 262.699 127.61C262.236 127.794 261.7 127.887 261.092 127.887ZM267.753 123.779V127.755H265.534V120.784H267.644V122.064H267.721C267.876 121.637 268.139 121.303 268.511 121.061C268.883 120.816 269.326 120.694 269.841 120.694C270.331 120.694 270.756 120.804 271.116 121.025C271.479 121.243 271.76 121.548 271.96 121.942C272.163 122.332 272.263 122.789 272.26 123.312V127.755H270.04V123.748C270.043 123.36 269.945 123.058 269.745 122.84C269.549 122.622 269.275 122.513 268.924 122.513C268.691 122.513 268.485 122.565 268.307 122.668C268.131 122.767 267.995 122.911 267.898 123.099C267.805 123.286 267.756 123.513 267.753 123.779ZM278.131 124.746V120.784H280.345V127.755H278.231V126.457H278.158C278.004 126.884 277.741 127.222 277.368 127.474C276.999 127.722 276.553 127.846 276.03 127.846C275.555 127.846 275.137 127.737 274.777 127.519C274.417 127.301 274.137 126.997 273.938 126.607C273.738 126.213 273.637 125.754 273.633 125.227V120.784H275.853V124.791C275.856 125.17 275.956 125.468 276.152 125.686C276.349 125.903 276.617 126.012 276.955 126.012C277.176 126.012 277.374 125.964 277.55 125.867C277.728 125.767 277.869 125.623 277.972 125.436C278.078 125.245 278.131 125.015 278.131 124.746ZM285.016 127.887C284.287 127.887 283.658 127.743 283.128 127.455C282.602 127.165 282.197 126.752 281.912 126.216C281.631 125.678 281.49 125.038 281.49 124.297C281.49 123.577 281.632 122.947 281.917 122.409C282.201 121.867 282.602 121.447 283.119 121.147C283.637 120.845 284.246 120.694 284.948 120.694C285.444 120.694 285.898 120.771 286.31 120.925C286.721 121.079 287.077 121.308 287.376 121.61C287.676 121.913 287.909 122.286 288.075 122.731C288.241 123.173 288.325 123.68 288.325 124.251V124.805H282.266V123.516H286.26C286.257 123.28 286.201 123.07 286.092 122.885C285.983 122.701 285.833 122.557 285.643 122.454C285.455 122.348 285.239 122.296 284.994 122.296C284.746 122.296 284.523 122.351 284.327 122.463C284.13 122.572 283.974 122.722 283.859 122.913C283.744 123.1 283.684 123.314 283.678 123.553V124.864C283.678 125.148 283.734 125.398 283.845 125.613C283.957 125.825 284.116 125.99 284.322 126.108C284.528 126.226 284.773 126.285 285.057 126.285C285.254 126.285 285.432 126.257 285.593 126.203C285.753 126.148 285.891 126.068 286.006 125.962C286.121 125.856 286.207 125.726 286.264 125.572L288.302 125.631C288.217 126.088 288.031 126.486 287.744 126.825C287.459 127.16 287.086 127.422 286.623 127.61C286.16 127.794 285.624 127.887 285.016 127.887Z" fill="white"/>
<path fill-rule="evenodd" clip-rule="evenodd" d="M246.49 138.372H233.51L240 144.862L246.49 138.372Z" fill="#4498AF"/>
</svg>
