<svg width="741" height="550" viewBox="0 0 741 550" fill="none" xmlns="http://www.w3.org/2000/svg">
<path d="M99.4419 359.643L103.072 366.576L105.296 363.614L113.784 364.528L113.484 368.022L121.167 370.588L126.284 369.087L136.874 373.809L146.535 375.201L150.397 377.112L157.084 374.723L164.699 379.131L170.157 381.165L170.13 430.706L170.103 494.195L175.056 494.495L179.942 497.279L183.449 501.646L187.911 508.088L192.797 502.615L197.846 499.408L200.507 504.526L203.891 508.525L208.49 512.865L211.629 519.661L216.76 530.197L225.302 535.943L225.439 541.538L222.641 545.755L219.885 542.466L215.463 539.655L214.044 531.849L207.562 524.451L204.86 515.608L200.043 514.994L192.06 514.762L186.178 512.018L175.793 501.906L170.99 500.022L162.201 496.447L155.242 497.306L145.362 492.666L139.385 488.299L133.804 490.469L134.841 497.511L132.07 498.152L126.257 500.241L121.836 503.571L116.268 505.659L115.545 499.845L117.81 489.937L123.146 486.757L121.767 484.15L115.367 489.923L111.942 496.679L104.709 503.748L108.38 508.497L103.631 515.389L98.2274 519.347L93.2055 522.2L91.9637 526.294L84.117 531.016L82.534 535.247L76.6524 539.054L73.1998 538.372L68.5055 540.842L63.4017 543.831L59.2259 546.738L50.6014 549.208L49.8099 547.762L55.3094 543.695L60.2221 540.979L65.5715 536.12L71.8079 535.11L74.2779 531.412L81.2376 525.939L82.3566 524.083L86.0684 520.794L86.9418 513.629L89.4937 507.938L83.7076 510.872L82.0837 509.207L79.368 512.701L76.0929 507.815L74.7419 511.282L72.8587 506.45L67.8368 510.34L64.7527 510.326L64.316 504.54L65.2303 500.923L61.9961 497.375L55.4595 499.285L51.2155 494.577L47.7766 492.134L47.7493 486.306L43.8737 481.857L45.8115 475.757L49.9054 469.724L51.6931 464.074L55.7597 463.255L59.2123 465.03L63.2653 459.639L66.9089 460.608L70.7435 457.1L69.8155 451.873L67.0044 449.785L70.7162 445.268L67.6321 445.404L62.2964 447.956L60.768 450.522L56.8105 447.956L49.7007 449.267L42.3453 446.469L40.2301 441.719L33.8709 434.718L40.9261 429.587L52.1298 423.486H56.2647L55.5823 429.723L66.1856 429.246L62.1053 421.466L55.9235 416.594L52.3481 410.071L47.5309 404.393L40.6259 400.121L43.437 392.902L52.3481 392.451L58.6937 386.023L59.8946 379.009L65.0256 371.994L69.9247 370.288L79.4499 363.559L84.0624 364.583L91.7999 356.326L99.4419 359.643ZM15.7348 456.95L18.8326 459.107L21.9576 457.947L26.0242 460.922L31.0188 462.423L30.6094 463.638L26.8021 465.985L22.9811 463.569L21.0706 461.55L16.6491 462.205L15.4482 461.222L15.7348 456.95ZM46.6439 498.18L43.5598 499.736L40.2711 497.866L37.2279 495.136L42.1816 493.403L46.1663 494.318L46.6439 498.18ZM109.8 525.025L104.778 528.532L102.212 526.171L101.434 521.831L105.992 518.501L108.681 517.068L112.01 517.71L114.139 520.63L109.8 525.025Z" fill="#F0F0F0" stroke="#D2D4D5" stroke-width="0.57"/>
<path d="M502.133 252.414L505.477 271.684L508.52 286.915L510.362 291.664L511.495 294.38L509.366 297.041L508.643 301.832L509.339 304.671L509.025 307.332L508.67 309.788L509.489 311.699L510.117 313.46L483.861 313.541L476.505 314.401L476.301 315.534L479.235 319.151L478.552 322.085L477.624 324.118L466.202 322.481L465.793 299.621L468.058 275.301L470.351 255.225L469.423 252.209H485.608L502.133 252.414Z" fill="#F0F0F0" stroke="#D2D4D5" stroke-width="0.57"/>
<path d="M450.182 236.091L450.046 237.401L448.736 239.639L446.484 241.168L445.979 243.774L443.946 245.849L444.096 250.407L442.636 251.868L442.39 253.109L440.084 254.283L440.043 256.535L438.324 260.711L436.836 261.585L434.557 263.7L433.193 266.894L430.382 272.271L430.095 275.915L431.582 279.941L430.955 282.957L420.078 282.438L406.023 282.943L393.591 282.93L394.328 274.222L391.353 274.168L388.856 274.372L388.187 273.363L388.555 259.824L388.815 244.621L386.263 227.861L401.915 228.093L416.148 228.134L429.727 228.148L444.396 229.117L445.461 231.096L444.014 232.802L442.568 234.508L441.776 236.091H450.182Z" fill="#F0F0F0" stroke="#D2D4D5" stroke-width="0.57"/>
<path d="M200.725 220.519L200.739 308.233L175.261 308.315L145.907 297.71L126.475 290.341L127.662 287.42L129.368 287.434L130.787 284.39L128.508 282.288L128.058 279.996L127.389 277.293L129.9 273.759L130.923 266.703L134.826 263.523L132.383 260.548L130.719 257.614L129.654 254.884L128.945 252.769L128.685 251.363L129.477 248.292L128.849 245.208L128.576 242.164L128.59 238.766L127.444 236.596L128.317 234.645H131.033L133.489 235.764L135.249 236.391L136.095 233.976L136.655 233.444L136.56 220.615L157.316 220.369L182.057 220.396L200.725 220.519Z" fill="#F0F0F0" stroke="#D2D4D5" stroke-width="0.57"/>
<path d="M59.745 137.513L59.7313 188.051L84.0083 210.133L107.084 231.341L128.687 251.362L128.946 252.768L129.656 254.883L130.72 257.613L132.385 260.547L134.828 263.522L130.925 266.702L129.901 273.758L127.39 277.293L128.059 279.995L128.509 282.288L130.788 284.389L129.369 287.433L127.663 287.419L111.328 289.016L96.6995 290.19L95.1438 284.58L89.6852 276.665L75.9569 267.453L70.7713 266.879L65.1899 262.007L55.0097 260.82L51.7209 258.309L50.1516 249.738L37.6651 233.893L26.9527 211.62L27.403 207.867L21.7261 202.504L11.7778 188.774L9.99013 175.263L3.13965 166.119L5.95081 152.089L5.50049 137.391L59.745 137.513Z" fill="#F0F0F0" stroke="#D2D4D5" stroke-width="0.57"/>
<path d="M290.751 171.347L290.887 196.854L290.874 220.642L278.483 220.588L263.076 220.574L241.201 220.56L220.867 220.519H200.725L200.616 154.465H213.526H226.408L252.186 154.438H265.082H290.778L290.751 170.815V171.347Z" fill="#F0F0F0" stroke="#D2D4D5" stroke-width="0.57"/>
<path d="M680.055 137.159L680.164 146.548L679.373 149.046L673.696 149.905L666.218 150.752L656.174 154.75L655.71 152.676L658.507 151.025L657.498 149.564L658.221 136.436L668.074 136.763L680.055 137.159Z" fill="#F0F0F0" stroke="#D2D4D5" stroke-width="0.57"/>
<path d="M612.614 191.449L612.683 190.48L611.604 189.061L612.655 188.27L614.279 189.975L612.614 191.449Z" fill="#F0F0F0" stroke="#D2D4D5" stroke-width="0.57"/>
<path d="M633.671 174.786L631.76 176.519L632.088 179.726L634.776 188.638L638.269 197.031H629.686L628.744 175.987L629.74 174.663L630.9 173.912L633.671 174.786Z" fill="#F0F0F0" stroke="#D2D4D5" stroke-width="0.57"/>
<path d="M555.353 317.349L557.031 328.185L561.93 340.263L567.716 351.222V356.886L573.311 371.68L573.857 384.468L571.182 396.764L565.792 399.262L559.446 397.542L557.413 391.332L552.528 388.057L545.704 375.774L539.4 365.279L538.226 358.319L540.437 349.461L537.476 341.287L529.11 332.47L521.769 326.847L507.29 333.057L504.329 328.922L492.17 322.248L477.623 324.118L478.55 322.084L479.233 319.15L476.299 315.533L476.504 314.401L483.859 313.541L510.115 313.459L512.08 317.471L525.017 318.167L545.882 320.392L546.837 322.985L548.502 321.661L548.529 316.489L550.085 315.984L552.637 317.076L555.353 317.349Z" fill="#F0F0F0" stroke="#D2D4D5" stroke-width="0.57"/>
<path d="M534.941 252.523L533.535 253.82L531.475 256.781L534.941 259.361L537.179 260.316L539.581 265.216L541.109 267.959L545.585 271.616L546.472 273.541L549.529 276.038L551.03 279.696L555.137 282.78L556.052 286.26L556.816 287.953L556.379 289.072L558.781 290.737L560.036 293.575L560.023 296.455L561.196 297.015L563.407 297.792L557.812 308.82L555.356 317.35L552.64 317.077L550.088 315.985L548.533 316.49L548.505 321.662L546.84 322.986L545.885 320.393L525.02 318.168L512.083 317.472L510.118 313.46L509.49 311.699L508.671 309.789L509.026 307.332L509.34 304.671L508.644 301.832L509.367 297.042L511.496 294.381L510.364 291.665L508.521 286.915L505.478 271.685L502.135 252.414L512.069 252.564L518.933 252.4L534.941 252.523Z" fill="#F0F0F0" stroke="#D2D4D5" stroke-width="0.57"/>
<path d="M244.311 412.459L242.36 414.206L239.89 413.605L236.874 411.231L237.925 409.47L240.381 407.982L244.175 408.051L244.966 409.224L244.311 412.459ZM271.427 421.685L272.86 424.36L270.13 425.056L268.411 423.773L267.469 424.018L267.087 424.209L264.931 424.169L262.215 419.405L264.726 419.133L267.401 417.331L269.625 421.439L271.427 421.685ZM288.266 427.075L285.796 428.836L278.605 427.84L279.273 425.752L288.266 427.075ZM290.382 429.232L292.456 431.361L295.513 430.706L299.839 433.531L299.92 434.909L298.351 436.151L293.316 436.847L292.128 433.367L289.863 432.999L288.485 430.733L289.167 429.396L290.382 429.232ZM307.931 463.269L306.416 465.821L302.145 463.951L301.981 458.465L299.347 451.996L303.155 447.329L301.94 444.613L302.254 442.975L302.964 442.688L313.54 447.67L315.423 449.771L315.764 452.023L317.047 452.31L317.661 453.852L320.144 455.968L315.982 459.584L311.697 460.621L307.931 463.269Z" fill="#F0F0F0" stroke="#D2D4D5" stroke-width="0.57"/>
<path d="M430.027 111.16L430.218 112.129L431.896 114.926L430.736 116.264L430.777 119.949L431.31 121.518L432.128 124.288L436.331 125.967L437.587 128.628L438.338 129.952L439.852 130.839L440.466 132.709L442.5 134.101L443.823 135.589L443.141 140.229L440.753 144.119L439.893 145.347L436.946 146.343L432.538 147.176L431.378 150.124L432.974 151.447L433.52 154.081L431.842 157.016L430.982 159.595L427.693 162.106L427.434 165.177L425.66 163.771L423.204 161.042L409.134 161.41L394.328 161.533L382.797 161.56L371.238 161.547L370.392 158.49L370.747 155.46L370.474 152.526L369.15 147.612L368.291 145.565L367.376 145.006L367.267 141.034L366.462 138.182L364.128 134.934L364.156 133.501L363.337 130.635L362.764 128.915L362.777 127.318L360.689 125.38L361.727 122.514L362.395 119.703L362.709 117.806L361.058 115.459L361.072 111.16L362.791 111.146L376.86 111.173L394.342 110.941L413.146 110.832L430.027 111.16Z" fill="#F0F0F0" stroke="#D2D4D5" stroke-width="0.57"/>
<path d="M174.47 93.2411L174.934 93.5686L174.92 137.35L136.519 137.5L97.9822 137.377L98.1732 105.92L99.2922 100.856L98.2551 98.5227L95.8398 97.3217L95.867 94.4421L97.682 90.3614L100.452 86.7857L102.294 80.9309L104.028 76.2225L105.324 73.8478L104.642 71.0636L102.486 69.5624L99.4424 66.014L99.5515 62.7249L98.3781 59.8999L98.0095 33.6827L97.9413 9.03514L110.592 9.00781L111.629 29.3292L115.027 34.4061L115.013 37.8316L117.401 40.8614L120.376 42.6492L122.519 45.5835L126.108 51.3837L129.424 54.0996L133.299 54.277L131.88 58.4123L130.638 63.2981L131.716 68.0475L130.215 69.2349L130.351 73.9433L132.644 75.7584L135.182 73.5748L136.492 70.9954L138.061 71.5004L139.603 74.0252L141.077 79.7981L143.356 82.0636L144.175 86.813L144.953 88.1232L147.573 88.5736L149.156 91.1939L151.435 95.8614L153.809 93.3775L158.026 94.0326L158.367 92.2584L165.641 93.3775L168.588 92.8043L170.417 89.2286L171.809 89.72L173.064 92.2448L174.47 93.2411Z" fill="#F0F0F0" stroke="#D2D4D5" stroke-width="0.57"/>
<path d="M474.105 128.779V128.82L474.214 133.337L477.68 142.399L477.667 162.12L477.653 181.486L476.179 186.099L477.244 187.314L477.926 190.125L477.817 192.336L476.739 193.346L475.811 196.062L473.136 199.624L471.335 204.005L470.926 207.294L471.007 208.495L469.547 210.747L470.653 212.275L468.401 213.449L465.481 214.8L465.972 218.321L464.293 219.645L461.182 218.157L457.757 217.298L456.883 218.853L457.388 221.283L455.096 218.785L453.717 219.208L452.066 215.251L452.544 212.835L451.575 208.918L450.279 208.44L446.908 204.878L445.448 204.81L442.909 202.517L441.081 200.061L441.913 197.195L443.1 194.806L443.824 191.777L441.381 189.129L438.952 190.193L437.478 189.497L437.273 186.741L436.195 183.602L435.008 182.837L432.047 180.613L429.591 177.788L427.462 174.362L426.302 169.353L427.434 165.177L427.694 162.107L430.983 159.595L431.842 157.016L433.521 154.082L432.975 151.448L431.378 150.124L432.538 147.176L436.946 146.344L439.894 145.347L440.753 144.119L443.141 140.229L443.824 135.589L442.5 134.102L440.467 132.71L439.853 130.84L438.338 129.953L437.587 128.629H450.729L464.157 128.67L474.064 128.82V128.779H474.105Z" fill="#F0F0F0" stroke="#D2D4D5" stroke-width="0.57"/>
<path d="M512.668 142.931L512.627 158.353L512.532 174.717L512.45 186.222L511.713 186.999L512.764 190.37L512.204 191.585L510.034 191.612L508.028 193.059L504.985 192.472L504.699 195.625L502.897 196.826L501.205 199.637L499.377 200.142L496.552 204.987L493.945 203.595L493.127 201.602L490.889 204.851L489.469 206.652L486.699 204.741L483.724 206.297L482.755 207.867L478.798 205.396L476.028 207.171L472.712 205.915L472.589 207.717L470.924 207.293L471.333 204.004L473.135 199.624L475.809 196.061L476.737 193.346L477.815 192.336L477.924 190.125L477.242 187.313L476.178 186.099L477.651 181.486L477.665 162.12L477.679 142.399L478.852 143.559L483.233 143.463L486.713 141.58L500.564 141.662L512.668 141.58V142.931Z" fill="#F0F0F0" stroke="#D2D4D5" stroke-width="0.57"/>
<path d="M386.345 220.518L375.046 220.532L351.888 220.559L328.716 220.586L315.848 220.614L302.979 220.627L290.875 220.641L290.888 196.853L290.752 171.346H290.779H313.269H330.013H359.612H377.338L380.395 173.57L382.06 173.543L382.429 175.959L380.627 179.043L381.596 180.626L383.193 184.106L386.577 185.676L386.441 203.24L386.345 220.518Z" fill="#F0F0F0" stroke="#D2D4D5" stroke-width="0.57"/>
<path d="M541.215 197.578L541.461 199.133L541.324 202.518L542.853 205.056L543.48 207.527L545.35 209.628L546.646 211.58L549.143 211.88L543.999 216.684L539.987 218.568L539.673 219.864L538.295 221.556L534.774 223.467L533.628 225.023L530.98 226.019L527.255 226.92L518.548 227.439L507.208 226.756L503.51 226.947L496.127 226.511L488.594 226.374L481.662 226.292L473.611 226.743L473.188 226.019L470.636 226.046L470.677 228.558L452.295 228.408L455.174 226.729L457.221 225.405L456.976 222.894L457.385 221.283L456.88 218.854L457.753 217.298L461.179 218.158L464.29 219.646L465.969 218.322L465.477 214.801L468.398 213.45L470.649 212.276L469.544 210.747L471.004 208.496L470.922 207.295L472.587 207.718L472.71 205.916L476.026 207.172L478.796 205.398L482.754 207.868L483.723 206.298L486.698 204.743L489.468 206.653L490.887 204.852L493.125 201.604L493.944 203.596L496.55 204.988L499.375 200.143L501.204 199.638L502.896 196.827L504.697 195.626L504.984 192.473L508.027 193.06L510.033 191.613L512.203 191.586L512.762 190.372L511.711 187.001L512.448 186.223L516.856 186.605L519.135 188.202L522.56 191.914L525.29 193.087L527.268 194.411L530.325 193.947L532.59 194.889L535.347 193.988L537.79 193.715L538.813 196.008L541.215 197.578Z" fill="#F0F0F0" stroke="#D2D4D5" stroke-width="0.57"/>
<path d="M430.954 282.956L431.882 283.83L430.708 286.027L432.564 289.166L432.045 291.049L433.697 293.656L431.923 295.198L431.322 298.064L428.839 300.411L427.679 303.578L426.505 307.194L424.936 308.873L425.454 312.612L436.808 313.09L448.94 313.117L448.571 315.601L447.711 318.044L448.53 319.928L450.236 321.647L450.686 324.104L450.918 325.578L449.445 331.733L453.457 340.549L435.757 341.136L424.826 338.134L417.403 335.117L407.605 333.207L396.456 332.77L395.405 330.818L396.715 328.648L398.639 326.697L398.68 323.735L397.738 322.753L398.857 319.204L399.676 317.58L400.918 312.121L399.785 310.088L398.298 306.676L397.192 303.196L396.483 300.862L394.368 299.156L393.59 282.929L406.022 282.942L420.077 282.438L430.954 282.956Z" fill="#F0F0F0" stroke="#D2D4D5" stroke-width="0.57"/>
<path d="M692.746 122.351L692.623 131.59L696.867 140.748L702.203 141.171L700.852 134.879L704.714 138.715L703.691 143.628L694.998 146.398L688.816 146.071L688.461 143.45L686.441 141.471L685.486 136.968L680.055 137.159L668.073 136.763L658.221 136.435L660.991 124.48L671.608 124.767L687.165 124.917L688.488 123.197L691.218 122.01L692.746 122.351Z" fill="#F0F0F0" stroke="#D2D4D5" stroke-width="0.57"/>
<path d="M628.743 175.986L629.685 197.031H638.268L638.992 198.519L634.024 204.114L631.036 204.36L630.026 205.465L623.476 197.672L622.93 185.335L620.801 191.135L620.978 205.301L613.282 200.456L612.531 198.15L610.43 198.86L608.724 197.973L610.184 194.315L612.381 192.773L612.613 191.449L614.278 189.975L612.654 188.269L611.603 189.061L609.215 187.232L606.486 186.236L607.441 184.448L605.735 183.206L603.839 182.646L602.829 180.531L601.259 178.156L597.288 176.832L594.805 178.102L593.399 179.33L589.605 178.661L587.872 180.394L585.334 181.063L583.123 182.974L581.145 184.448L581.254 176.027L593.194 176.041L597.275 176.014L606.404 175.945L617.417 176.027L628.743 175.986Z" fill="#F0F0F0" stroke="#D2D4D5" stroke-width="0.57"/>
<path d="M694.931 118.408L693.567 118.585L692.966 116.129L690.605 113.522L691.083 111.775L689.432 79.1161L694.74 75.9362L699.312 67.5839L703.242 53.131L713.054 38.9238L717.339 43.8916L725.963 40.6844L731.681 46.1298L731.667 71.5007L740.087 81.8184L740.265 89.5293L727.737 95.2476L715.237 99.4648L700.635 110.165L694.931 118.408Z" fill="#F0F0F0" stroke="#D2D4D5" stroke-width="0.57"/>
<path d="M516.065 56.023L520.364 56.5962L518.726 58.4386L525.126 65.822L513.786 67.487L513.35 67.4051L503.224 65.4535L493.18 69.1384L484.433 70.7898L476.873 82.4312L476.545 82.3084L476.532 82.3357L474.812 80.193L475.767 77.2587L472.929 77.095L473.516 74.1198L474.294 72.6458L473.161 70.0664L470.118 68.8927L469.408 65.863L466.897 65.631L463.254 65.6037L455.83 62.2736L444.572 58.9573L443.535 55.5999L441.515 54.9858L441.501 54.9312L440.71 55.3133L440.601 55.2178L440.71 55.3133L450.644 50.5503L460.975 44.4498L472.328 38.1855L468.194 48.1483L475.494 50.5367L484.556 57.6607L495.978 53.5118L508.628 51.8741L511.33 57.1012L515.26 57.8518L516.065 56.023ZM543.59 120.112L543.263 120.344L537.204 129.939L534.379 136.012L529.971 142.658L525.113 142.808H519.259L512.667 142.931L512.654 141.58L500.549 141.662L486.698 141.58L489.305 139.205L494.531 130.785L494.886 119.266L490.615 108.362L491.256 100.815L494.613 92.0118L497.82 85.9523L502.965 81.6123L504.166 87.6992L506.445 78.7327L509.283 76.8766L511.084 69.9027L522.029 73.5739L531.554 80.698L532.605 88.9411L531.431 97.1434L524.349 104.281L525.004 108.758L527.556 108.908L535.539 101.088L540.301 102.875L542.621 113.166L543.263 120.372L543.59 120.112Z" fill="#F0F0F0" stroke="#D2D4D5" stroke-width="0.57"/>
<path d="M450.985 28.1829V28.1965L437.857 34.5017L428.714 42.0898L419.98 50.0327L419.939 52.7896L416.555 53.8268L416.691 64.2536L416.282 64.2399L413.102 66.2871L410.359 68.0476L408.517 71.4322L411.219 74.8714L410.25 79.4707L410.237 84.3838L409.841 88.369L413.594 91.8355L415.136 91.9992L419.298 94.565L420.744 95.7796L421.645 97.7039L424.893 100.775L429.232 103.422L429.655 104.896L429.683 109.168L430.024 111.161L413.143 110.833L394.338 110.942L376.857 111.174L362.788 111.147L362.965 94.5104L361.396 77.1642L359.144 75.7449L357.875 72.9198L358.571 70.4223L361.451 68.3752L361.669 65.6866L361.683 62.3292L360.878 59.5042L359.799 56.4881L359.172 52.694L359.022 48.4223L358.585 47.3987L358.053 41.8578L357.998 39.3193L357.752 37.0538L357.111 33.1915L355.555 29.261L354.054 25.7536L353.836 22.2461L353.672 18.4657L354.109 15.9955L354.191 13.73L352.99 10.9186L352.799 8.99431L379.437 9.02159L379.478 1.47444L383.831 1.36523L386.11 12.1332L390.122 15.436L399.115 16.6233L412.243 19.7213L424.729 25.699L435.155 23.1878L450.985 28.1829Z" fill="#F0F0F0" stroke="#D2D4D5" stroke-width="0.57"/>
<path d="M427.431 165.178L426.299 169.354L427.459 174.363L429.587 177.789L432.044 180.614L435.005 182.838L436.192 183.603L437.27 186.741L437.475 189.498L438.949 190.194L441.378 189.13L443.821 191.777L443.097 194.807L441.91 197.196L441.078 200.062L442.906 202.518L445.445 204.811L446.905 204.879L450.275 208.441L451.572 208.919L452.541 212.836L452.063 215.251L453.714 219.209L455.093 218.786L457.385 221.284L456.976 222.894L457.221 225.405L455.174 226.729L452.295 228.408L451.954 229.95L451.176 232.215L450.18 236.091H441.774L442.565 234.508L444.012 232.802L445.458 231.096L444.394 229.117L429.724 228.148L416.146 228.135L401.912 228.094L386.26 227.862L386.41 220.519H386.342L386.437 203.241L386.574 185.677L383.19 184.107L381.593 180.627L380.624 179.044L382.425 175.96L382.057 173.544L380.392 173.572L377.335 171.347L375.657 167.758L373.664 165.601L371.495 162.94L371.235 161.548L382.794 161.562L394.325 161.534L409.131 161.411L423.201 161.043L425.657 163.772L427.431 165.178Z" fill="#F0F0F0" stroke="#D2D4D5" stroke-width="0.57"/>
<path d="M469.424 252.208L470.352 255.224L468.059 275.3L465.794 299.62L466.203 322.48L458.316 325.81L450.919 325.578L450.687 324.104L450.237 321.648L448.531 319.928L447.712 318.045L448.572 315.602L448.941 313.118L436.809 313.091L425.455 312.613L424.937 308.873L426.506 307.195L427.679 303.578L428.839 300.412L431.323 298.064L431.923 295.198L433.698 293.656L432.046 291.05L432.565 289.166L430.709 286.027L431.883 283.83L430.955 282.957L431.582 279.94L430.095 275.914L430.381 272.27L433.193 266.893L434.557 263.7L436.836 261.584L438.324 260.711L440.043 256.535L440.084 254.283L442.39 253.109L442.636 251.867H455.313L469.424 252.208Z" fill="#F0F0F0" stroke="#D2D4D5" stroke-width="0.57"/>
<path d="M265.312 66.819L264.657 83.5783L243.191 83.3872L220.006 83.4828L199.986 83.2917L174.645 83.4145L174.7 92.5994L174.468 93.2408L173.062 92.2446L171.807 89.7198L170.415 89.2284L168.586 92.8041L165.638 93.3773L158.365 92.2582L158.024 94.0324L153.807 93.3773L151.432 95.8612L149.153 91.1937L147.57 88.5734L144.95 88.123L144.173 86.8128L143.354 82.0634L141.075 79.7979L139.601 74.025L138.059 71.5001L136.49 70.9952L135.18 73.5746L132.641 75.7582L130.349 73.9431L130.212 69.2346L131.713 68.0473L130.635 63.2979L131.877 58.4121L133.296 54.2768L129.421 54.0994L126.105 51.3835L122.516 45.5833L120.373 42.649L117.398 40.8612L115.01 37.8314L115.024 34.4059L111.626 29.3289L110.589 9.0076L149.058 8.98032L187.527 8.953L225.983 8.92572L264.466 8.89844L264.657 44.1503L265.312 66.819Z" fill="#F0F0F0" stroke="#D2D4D5" stroke-width="0.57"/>
<path d="M627.721 227.698L629.522 243.557L621.334 255.185L608.711 261.176L597.699 268.982L593.141 269.883L578.744 255.198L564.456 255.048L564.483 253.233L562.477 250.585L561.181 251.623L561.072 250.231L555.054 249.507L543.181 249.384L536.235 252.059L534.939 252.523L518.932 252.4L519.218 249.084L521.934 248.101L522.821 246.409L524.649 244.512L527.256 244.089L530.285 243.366L533.233 242.001L534.502 240.609L536.959 239.353L536.89 238.207L540.123 236.064L541.162 237.456L545.911 234.467L548.135 234.781L550.114 232.106L552.734 231.424L552.597 229.145L552.925 227.152L574.636 227.835L600.278 227.917L613.897 227.78L627.721 227.698Z" fill="#F0F0F0" stroke="#D2D4D5" stroke-width="0.57"/>
<path d="M352.802 8.99398L352.993 10.9183L354.194 13.7297L354.112 15.9952L353.675 18.4654L353.839 22.2458L354.057 25.7533L355.559 29.2607L357.114 33.1912L357.756 37.0535L358.001 39.319L358.056 41.8575L358.588 47.3984L359.025 48.422L359.175 52.6937L359.803 56.4877L360.881 59.5039L361.686 62.3289L361.672 65.6863L337.19 66.6962L316.284 66.6552L289.892 66.7371L265.315 66.819L264.66 44.1503L264.469 8.89844L309.038 8.953L352.802 8.99398Z" fill="#F0F0F0" stroke="#D2D4D5" stroke-width="0.57"/>
<path d="M362.763 128.916L363.336 130.636L364.155 133.501L364.127 134.934L366.461 138.183L367.266 141.035L367.375 145.007L368.29 145.566L369.149 147.613L370.473 152.526L370.746 155.461L370.391 158.49L371.237 161.547L371.497 162.94L373.666 165.601L375.659 167.757L377.337 171.346H359.611H330.011H313.267H290.778H290.751V170.814L290.778 154.437H265.082L264.986 119.99H290.109H309.419H335.224L338.554 122.201L343.289 123.593L344.395 122.788L347.452 122.856L352.05 122.679L355.38 124.931L358.915 126.391L359.501 127.838L360.593 128.67L362.763 128.916Z" fill="#F0F0F0" stroke="#D2D4D5" stroke-width="0.57"/>
<path d="M694.93 118.407L692.747 122.351L691.218 122.01L688.489 123.197L687.165 124.917L671.608 124.767L670.585 122.951L671.595 120.686L671.909 116.073L672.304 114.968L672.741 110.791L674.147 107.257L675.211 105.714L676.74 101.484L677.026 98.6177L677.463 96.8708L679.946 96.011L682.826 93.9229L683.331 91.6847L682.375 89.1053L683.89 84.1785L683.863 84.1649L685.159 79.6884L689.431 79.1152L691.082 111.774L690.604 113.521L692.965 116.128L693.566 118.584L694.93 118.407Z" fill="#F0F0F0" stroke="#D2D4D5" stroke-width="0.57"/>
<path d="M652.883 155.174L648.448 163.417L651.683 164.14L649.458 176.218L640.097 188.979L639.128 184.734L636.303 183.875L633.219 179.535L632.086 179.726L631.759 176.519L633.669 174.785L636.303 173.257L637.231 172.206L640.274 169.995L641.939 168.166L637.886 163.813L637.654 162.025L636.262 161.506L636.317 158.79L637.831 156.716L637.135 154.505L639.196 153.017L641.448 149.196L643.017 148.445L652.883 155.174Z" fill="#F0F0F0" stroke="#D2D4D5" stroke-width="0.57"/>
<path d="M278.482 220.588L278.509 228.517V269.596V298.311H266.555H243.397H231.811L231.948 299.594L233.38 302.01H211.232L211.069 308.206L200.738 308.233L200.725 220.52H220.867L241.2 220.56L263.075 220.574L278.482 220.588Z" fill="#F0F0F0" stroke="#D2D4D5" stroke-width="0.57"/>
<path d="M136.519 137.5L136.559 220.614L136.655 233.443L136.095 233.975L135.249 236.391L133.488 235.763L131.032 234.644H128.316L127.443 236.595L128.589 238.765L128.576 242.164L128.849 245.207L129.476 248.291L128.685 251.362L107.083 231.341L84.0065 210.133L59.7295 188.051L59.7431 137.513L97.9804 137.432V137.377L136.519 137.5Z" fill="#F0F0F0" stroke="#D2D4D5" stroke-width="0.57"/>
<path d="M660.99 124.479L658.22 136.435L657.496 149.564L658.506 151.024L655.709 152.675L656.173 154.75L674.391 152.471L678.212 155.692L660.185 160.768L651.983 160.809L652.884 155.173L643.018 148.445L640.943 147.23L638.746 146.043L637.914 143.559L638.255 141.662L636.727 140.106L633.929 137.404L616.448 137.376H597.698H577.624V132.695L588.691 122.323L588.446 120.644V120.603L586.685 115.527L593.386 113.302L603.511 113.957L614.046 115.417L623.694 109.59L622.93 102.67L621.47 99.9L621.429 99.8727L621.47 99.9L634.789 87.6443L640.602 84.3142L660.158 84.1914L659.885 87.8626L659.38 90.1829L659.68 95.5191L660.389 98.2486L659.093 101.947L660.28 106.601L659.462 109.18L659.694 109.849L661.536 109.986L660.99 124.479Z" fill="#F0F0F0" stroke="#D2D4D5" stroke-width="0.57"/>
<path d="M567.855 160.579L566.081 161.438L566.613 163.581L566.026 167.443L564.687 171.811L563.447 175.414L563.229 177.133L559.721 180.927L558.248 181.732L556.499 182.196L554.945 181.828L552.079 184.68L551.561 187.655L551.151 189.266L550.005 189.921L549.841 188.079L548.108 187.683L546.293 191.258L546.089 194.889L544.41 197.168L541.217 197.577L538.815 196.008L537.792 193.715L535.348 193.988L532.592 194.889L530.327 193.947L527.27 194.411L525.291 193.087L522.562 191.914L519.137 188.201L516.858 186.605L512.45 186.222L512.532 174.718L512.628 158.354L512.669 142.932L519.26 142.796H525.113L529.972 142.646L537.901 146.194L544.328 147.067L553.649 144.802L561.263 140.039L567.882 137.719L567.855 160.579Z" fill="#F0F0F0" stroke="#D2D4D5" stroke-width="0.57"/>
<path d="M386.262 227.862L388.814 244.621L388.554 259.825L388.186 273.363L382.645 270.347L379.029 268.696L376.109 269.747L371.578 269.583L368.903 269.61L366.706 270.866L364.55 271.507L362.667 270.756L358.368 271.575L356.417 269.01L354.411 271.234L350.904 270.238L347.288 267.836L343.426 269.392L341.734 265.666L335.743 266.034L331.908 265.202L327.596 264.096L325.685 260.876L322.301 261.913L320.199 260.657L317.129 258.979V244.034V228.517H304.26H291.378H278.51L278.482 220.588L290.873 220.642L302.978 220.629L315.846 220.615L328.715 220.588L351.886 220.56L375.044 220.533L386.344 220.52H386.412L386.262 227.862Z" fill="#F0F0F0" stroke="#D2D4D5" stroke-width="0.57"/>
<path d="M99.441 66.0142L102.484 69.5626L104.64 71.0638L105.323 73.8479L104.026 76.2226L102.293 80.9311L100.451 86.7859L97.6806 90.3616L95.8656 94.4422L95.8383 97.3219L98.2538 98.5229L99.2909 100.857L98.1719 105.92L97.9808 137.378V137.433L59.7436 137.514L5.49912 137.392L1.36426 127.674L5.26712 108.84L6.16778 88.6693L8.46036 61.0464L11.135 60.8008L15.0653 60.8827L18.1903 62.575L21.9294 63.6258L24.3175 67.1606L24.6587 70.2449L25.6139 72.8244L28.5888 73.5204L31.7412 73.4658L36.7221 71.5278L39.6424 70.941L44.2413 71.7325L46.2609 72.6879L48.9629 72.0328L51.8969 70.5588L57.6966 70.7909L62.4729 68.771L64.9838 67.2698L68.2726 68.075L72.8851 66.1507L99.441 66.0142Z" fill="#F0F0F0" stroke="#D2D4D5" stroke-width="0.57"/>
<path d="M643.018 148.445L641.449 149.195L639.197 153.017L637.136 154.504L637.832 156.715L636.318 158.79L636.263 161.505L637.655 162.024L637.887 163.812L641.94 168.166L640.275 169.994L637.232 172.205L636.304 173.256L633.67 174.785L630.9 173.911L629.74 174.662L628.744 175.986L617.417 176.027L606.405 175.945L597.275 176.013L593.195 176.04L581.254 176.027H567.854V160.577L567.881 137.718H567.894L577.597 132.722L577.624 132.695V137.376H597.698H616.448L633.929 137.404L636.727 140.106L638.255 141.662L637.914 143.559L638.747 146.043L640.944 147.23L643.018 148.445Z" fill="#F0F0F0" stroke="#D2D4D5" stroke-width="0.57"/>
<path d="M688.816 146.07L679.373 149.045L680.165 146.547L680.055 137.158L685.487 136.967L686.442 141.471L688.462 143.449L688.816 146.07Z" fill="#F0F0F0" stroke="#D2D4D5" stroke-width="0.57"/>
<path d="M593.143 269.882L588.094 280.677L576.863 290.107L563.407 297.791L561.196 297.013L560.023 296.454L560.037 293.574L558.781 290.735L556.379 289.07L556.816 287.951L556.052 286.259L555.137 282.779L551.03 279.694L549.529 276.037L546.472 273.539L545.585 271.615L541.109 267.957L539.581 265.214L537.179 260.315L534.941 259.359L531.475 256.78L533.535 253.818L534.941 252.522L536.237 252.058L543.183 249.383L555.056 249.506L561.074 250.229L561.183 251.621L562.479 250.584L564.485 253.231L564.458 255.047L578.746 255.197L593.143 269.882Z" fill="#F0F0F0" stroke="#D2D4D5" stroke-width="0.57"/>
<path d="M362.789 111.146L361.069 111.159L361.055 115.458L362.707 117.806L362.393 119.703L361.724 122.514L360.687 125.38L362.775 127.318L362.761 128.915L360.592 128.669L359.5 127.837L358.913 126.39L355.379 124.93L352.049 122.678L347.45 122.856L344.393 122.787L343.288 123.592L338.553 122.2L335.223 119.99H309.417H290.108H264.985L264.657 83.5776L265.312 66.8183L289.889 66.7364L316.282 66.6545L337.188 66.6955L361.67 65.6855L361.451 68.3741L358.572 70.4213L357.876 72.9188L359.145 75.7439L361.397 77.1632L362.966 94.5094L362.789 111.146Z" fill="#F0F0F0" stroke="#D2D4D5" stroke-width="0.57"/>
<path d="M527.255 226.92L546.401 227.466L552.924 227.152L552.597 229.145L552.733 231.424L550.113 232.106L548.134 234.781L545.91 234.467L541.161 237.456L540.124 236.064L536.889 238.207L536.958 239.353L534.501 240.609L533.232 242.001L530.285 243.366L527.255 244.089L524.649 244.512L522.82 246.409L521.933 248.101L519.217 249.084L518.931 252.4L512.067 252.564L502.132 252.414L485.606 252.209H469.422L455.311 251.868H442.634L444.094 250.408L443.944 245.85L445.977 243.775L446.482 241.168L448.734 239.64L450.044 237.402L450.18 236.091L451.176 232.216L451.954 229.95L452.295 228.408L470.677 228.558L470.636 226.047L473.188 226.02L473.611 226.743L481.663 226.292L488.595 226.374L496.128 226.511L503.51 226.948L507.209 226.756L518.549 227.439L527.255 226.92Z" fill="#F0F0F0" stroke="#D2D4D5" stroke-width="0.57"/>
<path d="M388.185 273.362L388.853 274.372L391.351 274.167L394.326 274.222L393.589 282.929L394.367 299.156L396.482 300.862L397.191 303.196L398.297 306.676L399.784 310.088L400.917 312.121L399.675 317.58L398.856 319.204L397.737 322.753L398.679 323.735L398.638 326.697L396.714 328.648L395.404 330.818L396.454 332.77L385.469 335.854L373.76 346.718L360.974 353.009L353.946 359.929L350.985 366.425L350.862 376.347L351.503 383.212L353.946 388.057L348.924 388.493L339.781 385.354L329.751 380.932L326.148 374.204L323.31 364.119L315.722 355.875L311.274 347.332L304.819 337.315L295.744 331.446L285.223 331.733L277.103 343.333L266.431 338.939L259.772 334.503L256.579 326.383L252.307 318.631L244.652 312.066L238.074 307.331L233.38 302.008L231.947 299.593L231.811 298.31H243.396H266.554H278.509V269.595V228.516H291.377H304.259H317.128V244.033V258.977L320.198 260.656L322.3 261.911L325.684 260.874L327.595 264.095L331.907 265.2L335.742 266.033L341.732 265.665L343.425 269.39L347.286 267.834L350.903 270.236L354.41 271.233L356.416 269.008L358.367 271.574L362.666 270.755L364.549 271.506L366.705 270.864L368.902 269.609L371.577 269.581L376.108 269.745L379.028 268.694L382.644 270.346L388.185 273.362Z" fill="#F0F0F0" stroke="#D2D4D5" stroke-width="0.57"/>
<path d="M200.615 154.464L200.724 220.518L182.056 220.396L157.315 220.368L136.559 220.614L136.518 137.5L174.919 137.35L174.864 154.027L200.615 154.464Z" fill="#F0F0F0" stroke="#D2D4D5" stroke-width="0.57"/>
<path d="M624.011 217.748L627.709 227.697L613.899 227.779L600.28 227.915L574.638 227.833L552.927 227.137L546.404 227.451L527.271 226.905L530.983 226.005L533.631 225.022L534.777 223.466L538.298 221.555L539.662 219.863L539.976 218.567L543.988 216.683L549.133 211.879L549.706 214.622L551.153 216.083L553.104 217.379L557.157 215.441L558.699 216.574L563.503 215.223L563.776 213.776L565.236 214.35L566.832 213.176L568.62 213.408L570.667 212.166L570.94 210.692L570.735 208.795L572.482 205.984L574.966 203.854L575.593 201.452L577.804 198.546L579.032 194.984L580.738 196.253L582.649 197.426L584.491 196.799L585.105 195.311L586.374 193.278L587.807 190.944L588.735 191.626L590.645 189.497L593.17 187.341L594.767 185.703L595.776 181.295L602.354 185.785L603.801 182.673L605.684 183.233L607.39 184.475L606.448 186.249L609.164 187.245L611.565 189.088L612.63 190.493L612.575 191.462L612.343 192.786L610.146 194.328L608.686 197.972L610.392 198.859L612.48 198.15L613.23 200.443L621.336 209.546L623.82 217.27L624.011 217.748ZM634.027 204.114L631.039 204.359L630.029 205.465L625.621 216.383L626.795 217.024L634.027 204.114Z" fill="#F0F0F0" stroke="#D2D4D5" stroke-width="0.57"/>
<path d="M671.607 124.766L660.991 124.479L661.536 109.985L659.694 109.849L659.462 109.18L660.281 106.601L659.094 101.947L660.39 98.2484L659.681 95.5189L659.38 90.1827L659.885 87.8626L660.158 84.1914L683.862 84.1641L683.889 84.1777L682.375 89.1045L683.33 91.6839L682.825 93.9221L679.945 96.0102L677.462 96.87L677.025 98.6169L676.739 101.483L675.21 105.714L674.146 107.256L672.74 110.791L672.303 114.967L671.908 116.072L671.594 120.685L670.584 122.951L671.607 124.766Z" fill="#F0F0F0" stroke="#D2D4D5" stroke-width="0.57"/>
<path d="M97.9406 9.03497L98.0088 33.6826L98.3773 59.8997L99.5508 62.7248L99.4417 66.0139L72.8858 66.1503L68.2733 68.0747L64.9845 67.2694L62.4735 68.7707L57.6973 70.7905L51.8976 70.5585L48.9636 72.0325L46.2616 72.6876L44.242 71.7322L39.6431 70.9407L36.7228 71.5275L31.7418 73.4655L28.5895 73.5201L25.6146 72.824L24.6594 70.2446L24.3182 67.1603L21.9301 63.6255L18.191 62.5747L15.0659 60.8823L11.1358 60.8005L8.46111 61.0461L4.94035 45.5151L2.81152 27.2136L20.7428 30.6938L26.447 45.5697L29.6266 40.5883L27.566 24.9208L21.4661 8.91211L59.7033 8.99402L97.9406 9.03497Z" fill="#F0F0F0" stroke="#D2D4D5" stroke-width="0.57"/>
<path d="M440.614 55.2173L440.723 55.3128L441.528 54.9307L441.542 54.9853L443.562 55.5994L444.599 58.9567L455.857 62.2731L463.281 65.6031L466.924 65.6304L469.422 65.8761L470.131 68.9059L473.174 70.0796L474.321 72.6453L473.529 74.1193L472.942 77.0944L475.781 77.2582L474.825 80.1925L476.545 82.3351L476.559 82.3078L476.886 82.4443L476.763 82.6217L471.728 89.1453L473.474 91.2743L482.931 79.6056L484.869 79.5374L478.182 93.4716L475.276 105.932L472.833 115.936L474.443 124.52L474.102 128.778H474.061V128.819L464.154 128.669L450.726 128.628H437.584L436.329 125.967L432.126 124.288L431.307 121.518L430.775 119.948L430.734 116.263L431.894 114.926L430.215 112.128L430.024 111.159L429.683 109.166L429.656 104.895L429.233 103.421L424.893 100.773L421.645 97.7024L420.745 95.7781L419.298 94.5634L415.136 91.9977L413.594 91.8339L409.841 88.3674L410.237 84.3823L410.251 79.4691L411.22 74.8699L408.518 71.4307L410.36 68.0461L413.103 66.2855L416.282 64.2384L416.692 64.252L416.555 53.8252L419.94 52.788L432.835 48.8848L440.614 55.2173Z" fill="#F0F0F0" stroke="#D2D4D5" stroke-width="0.57"/>
<path d="M581.255 176.027L581.146 184.448L583.125 182.974L585.336 181.063L587.874 180.394L589.607 178.661L593.401 179.33L594.806 178.102L597.29 176.832L601.261 178.156L602.83 180.531L603.84 182.646L602.407 185.758L595.83 181.268L594.82 185.676L593.21 187.327L590.699 189.47L588.788 191.599L587.86 190.917L586.427 193.251L585.158 195.284L584.53 196.772L582.688 197.413L580.778 196.239L579.072 194.97L577.83 198.532L575.633 201.439L574.992 203.841L572.508 205.97L570.761 208.768L570.98 210.679L570.693 212.153L568.66 213.408L566.858 213.176L565.275 214.35L563.815 213.777L563.529 215.223L558.739 216.574L557.183 215.442L553.13 217.38L551.179 216.083L549.718 214.623L549.145 211.88L546.648 211.579L545.352 209.628L543.482 207.526L542.854 205.056L541.326 202.517L541.462 199.133L541.217 197.577L544.41 197.167L546.089 194.888L546.293 191.258L548.108 187.682L549.841 188.078L550.005 189.921L551.151 189.265L551.561 187.655L552.079 184.68L554.945 181.827L556.501 182.196L558.247 181.732L559.721 180.927L563.228 177.133L563.447 175.413L564.689 171.81L566.026 167.443L566.613 163.581L566.081 161.438L567.855 160.578V176.027H581.255Z" fill="#F0F0F0" stroke="#F0F0F0" stroke-width="0.2"/>
<path d="M264.659 83.5776L264.986 119.99L265.082 154.436H252.186L226.408 154.464H213.526H200.616L174.865 154.027L174.92 137.35L174.934 93.5677L174.47 93.2401L174.702 92.5987L174.647 83.4138L199.989 83.291L220.008 83.4821L243.193 83.3865L264.659 83.5776Z" fill="#F0F0F0" stroke="#F0F0F0" stroke-width="0.2"/>
<circle cx="467.969" cy="140.595" r="10.2244" fill="#55B9F1" stroke="white" stroke-width="2.2721"/>
<rect x="437" y="92" width="61.2929" height="29.2348" rx="4.82322" fill="#4498AF"/>
<path d="M449.596 101.323V110.617H447.35V101.323H449.596ZM453.226 101.323V110.617H451.007V101.323H453.226ZM456.857 101.323V110.617H454.638V101.323H456.857ZM458.27 110.617V103.647H460.489V110.617H458.27ZM459.382 102.834C459.07 102.834 458.802 102.731 458.578 102.526C458.355 102.317 458.243 102.066 458.243 101.772C458.243 101.482 458.355 101.234 458.578 101.028C458.802 100.819 459.07 100.715 459.382 100.715C459.696 100.715 459.964 100.819 460.185 101.028C460.409 101.234 460.521 101.482 460.521 101.772C460.521 102.066 460.409 102.317 460.185 102.526C459.964 102.731 459.696 102.834 459.382 102.834ZM464.121 106.642V110.617H461.902V103.647H464.012V104.926H464.089C464.243 104.5 464.506 104.165 464.879 103.923C465.251 103.678 465.694 103.556 466.208 103.556C466.698 103.556 467.123 103.666 467.483 103.887C467.847 104.105 468.128 104.41 468.328 104.804C468.53 105.194 468.63 105.651 468.627 106.174V110.617H466.408V106.61C466.411 106.223 466.313 105.92 466.113 105.702C465.916 105.485 465.642 105.376 465.292 105.376C465.059 105.376 464.853 105.427 464.674 105.53C464.499 105.63 464.363 105.773 464.266 105.961C464.172 106.149 464.124 106.376 464.121 106.642ZM473.255 110.749C472.523 110.749 471.893 110.599 471.367 110.3C470.844 109.997 470.44 109.576 470.155 109.038C469.874 108.496 469.733 107.869 469.733 107.155C469.733 106.438 469.874 105.81 470.155 105.271C470.44 104.73 470.844 104.309 471.367 104.01C471.893 103.707 472.523 103.556 473.255 103.556C473.987 103.556 474.615 103.707 475.138 104.01C475.665 104.309 476.069 104.73 476.35 105.271C476.634 105.81 476.776 106.438 476.776 107.155C476.776 107.869 476.634 108.496 476.35 109.038C476.069 109.576 475.665 109.997 475.138 110.3C474.615 110.599 473.987 110.749 473.255 110.749ZM473.268 109.074C473.535 109.074 473.76 108.993 473.945 108.829C474.129 108.666 474.27 108.439 474.367 108.148C474.467 107.858 474.516 107.522 474.516 107.141C474.516 106.754 474.467 106.415 474.367 106.124C474.27 105.834 474.129 105.607 473.945 105.444C473.76 105.28 473.535 105.199 473.268 105.199C472.993 105.199 472.76 105.28 472.57 105.444C472.382 105.607 472.238 105.834 472.138 106.124C472.042 106.415 471.993 106.754 471.993 107.141C471.993 107.522 472.042 107.858 472.138 108.148C472.238 108.439 472.382 108.666 472.57 108.829C472.76 108.993 472.993 109.074 473.268 109.074ZM477.913 110.617V103.647H480.132V110.617H477.913ZM479.025 102.834C478.714 102.834 478.446 102.731 478.222 102.526C477.998 102.317 477.886 102.066 477.886 101.772C477.886 101.482 477.998 101.234 478.222 101.028C478.446 100.819 478.714 100.715 479.025 100.715C479.34 100.715 479.608 100.819 479.828 101.028C480.052 101.234 480.164 101.482 480.164 101.772C480.164 102.066 480.052 102.317 479.828 102.526C479.608 102.731 479.34 102.834 479.025 102.834ZM487.631 105.775L485.593 105.829C485.572 105.684 485.514 105.556 485.421 105.444C485.327 105.329 485.204 105.239 485.053 105.176C484.905 105.109 484.732 105.076 484.536 105.076C484.278 105.076 484.059 105.128 483.878 105.23C483.699 105.333 483.611 105.472 483.614 105.648C483.611 105.784 483.666 105.902 483.778 106.002C483.893 106.102 484.097 106.182 484.39 106.242L485.734 106.497C486.43 106.63 486.947 106.851 487.286 107.159C487.628 107.468 487.8 107.876 487.803 108.384C487.8 108.862 487.658 109.278 487.377 109.632C487.098 109.986 486.717 110.262 486.233 110.458C485.749 110.652 485.195 110.749 484.572 110.749C483.577 110.749 482.791 110.545 482.217 110.136C481.645 109.725 481.318 109.174 481.236 108.484L483.428 108.43C483.477 108.684 483.602 108.878 483.805 109.011C484.008 109.144 484.266 109.21 484.581 109.21C484.865 109.21 485.097 109.157 485.275 109.052C485.454 108.946 485.545 108.805 485.548 108.629C485.545 108.472 485.475 108.347 485.339 108.253C485.203 108.156 484.989 108.08 484.699 108.026L483.483 107.794C482.784 107.667 482.264 107.433 481.922 107.091C481.58 106.746 481.41 106.307 481.413 105.775C481.41 105.309 481.534 104.911 481.785 104.581C482.037 104.249 482.394 103.994 482.856 103.819C483.319 103.644 483.865 103.556 484.495 103.556C485.439 103.556 486.183 103.754 486.728 104.15C487.272 104.544 487.573 105.085 487.631 105.775Z" fill="white"/>
</svg>
