<svg width="24" height="9" viewBox="0 0 24 9" fill="none" xmlns="http://www.w3.org/2000/svg">
<path d="M1.5 3.9C1.16863 3.9 0.9 4.16863 0.9 4.5C0.9 4.83137 1.16863 5.1 1.5 5.1L1.5 3.9ZM22.9243 4.92427C23.1586 4.68995 23.1586 4.31005 22.9243 4.07574L19.1059 0.257361C18.8716 0.0230461 18.4917 0.023046 18.2574 0.257361C18.023 0.491675 18.023 0.871574 18.2574 1.10589L21.6515 4.5L18.2574 7.89411C18.023 8.12843 18.023 8.50833 18.2574 8.74264C18.4917 8.97696 18.8716 8.97696 19.1059 8.74264L22.9243 4.92427ZM1.5 5.1L22.5 5.1L22.5 3.9L1.5 3.9L1.5 5.1Z" fill="#F9F9F9"/>
</svg>
