<svg width="122" height="122" viewBox="0 0 122 122" fill="none" xmlns="http://www.w3.org/2000/svg">
<g clip-path="url(#clip0_516_81)">
<path d="M109.431 117.294C109.431 118.951 108.088 120.294 106.431 120.294H97.1192C95.4623 120.294 94.1192 118.951 94.1192 117.294V75.5315H27.5062V117.294C27.5062 118.951 26.1631 120.294 24.5062 120.294H15.5698C13.913 120.294 12.5698 118.951 12.5698 117.294L12.5698 64.3359H16.3823V116.482H23.6937V74.719C23.6937 73.0622 25.0369 71.719 26.6937 71.719H94.9317C96.5886 71.719 97.9317 73.0622 97.9317 74.719V116.482H105.619V64.3359H109.431V117.294Z" fill="#55B9F1"/>
<path d="M10.3585 71.5104C9.03868 72.8454 6.83086 72.6539 5.76054 71.1117L1.33517 64.7351C0.511489 63.5482 0.650689 61.9428 1.66637 60.9155L58.8639 3.05923C60.0382 1.87147 61.9564 1.87141 63.1307 3.0591L120.334 60.9138C121.35 61.9415 121.489 63.5475 120.665 64.7345L116.235 71.1117C115.165 72.6532 112.957 72.8442 111.638 71.5096L60.9972 20.2917L10.3585 71.5104ZM58.8639 17.0262C60.0382 15.8385 61.9563 15.8385 63.1306 17.0262L113.662 68.1348L117.148 63.1147L60.9972 6.32465L4.85149 63.1157L8.33421 68.1348L58.8639 17.0262Z" fill="#55B9F1"/>
</g>
<defs>
<clipPath id="clip0_516_81">
<rect width="122" height="122" fill="white"/>
</clipPath>
</defs>
</svg>
