<svg width="72" height="72" viewBox="0 0 72 72" fill="none" xmlns="http://www.w3.org/2000/svg">
<path d="M54 9C51.6131 9 49.3239 9.94821 47.636 11.636C45.9482 13.3239 45 15.6131 45 18V54C45 56.3869 45.9482 58.6761 47.636 60.364C49.3239 62.0518 51.6131 63 54 63C56.3869 63 58.6761 62.0518 60.364 60.364C62.0518 58.6761 63 56.3869 63 54C63 51.6131 62.0518 49.3239 60.364 47.636C58.6761 45.9482 56.3869 45 54 45H18C15.6131 45 13.3239 45.9482 11.636 47.636C9.94821 49.3239 9 51.6131 9 54C9 56.3869 9.94821 58.6761 11.636 60.364C13.3239 62.0518 15.6131 63 18 63C20.3869 63 22.6761 62.0518 24.364 60.364C26.0518 58.6761 27 56.3869 27 54V18C27 15.6131 26.0518 13.3239 24.364 11.636C22.6761 9.94821 20.3869 9 18 9C15.6131 9 13.3239 9.94821 11.636 11.636C9.94821 13.3239 9 15.6131 9 18C9 20.3869 9.94821 22.6761 11.636 24.364C13.3239 26.0518 15.6131 27 18 27H54C56.3869 27 58.6761 26.0518 60.364 24.364C62.0518 22.6761 63 20.3869 63 18C63 15.6131 62.0518 13.3239 60.364 11.636C58.6761 9.94821 56.3869 9 54 9Z" stroke="#55B9F1" stroke-width="2.13" stroke-linecap="round" stroke-linejoin="round"/>
</svg>
